<?xml version="1.0" encoding="UTF-8"?>
<svg width="752pt" height="752pt" version="1.1" viewBox="0 0 752 752" xmlns="http://www.w3.org/2000/svg">
 <path d="m442.6 153.98v0.015625c-36.73 0.027344-71.07 18.27-91.703 48.66-6.2266 8.2812 6.8242 17.145 12.227 8.3086 17.891-26.352 47.684-42.145 79.531-42.172 53.191 0.027343 96.137 43 96.137 96.195-0.035156 6.2891-0.65234 12.516-1.9062 18.672-0.70703 3.4961 1.1758 7.0039 4.4805 8.3555 25.273 10.133 41.824 34.555 41.84 61.785 0 36.867-29.715 66.582-66.582 66.582h-266.4c-45.043 0-81.383-36.34-81.383-81.383s36.34-81.398 81.383-81.398c2.2383 0.015626 4.5234 0.14063 6.7773 0.33203 5.3867 0.48828 8.1016-3.7109 7.9492-7.7617h0.074219c0-28.695 23.09-51.785 51.785-51.785 4.2578 0.003906 8.5039 0.57031 12.574 1.5898 9.5781 2.4023 13.176-11.965 3.5977-14.367-5.2266-1.3047-10.637-2.0156-16.145-2.0234-34.234 0-62.496 25.988-66.395 59.227-53.258-0.007812-96.414 43.141-96.414 96.18 0 53.039 43.156 96.195 96.195 96.195h266.4c44.867 0 81.383-36.531 81.383-81.398-0.015624-31.238-17.926-59.578-45.699-73.129 0.75391-5.1836 1.2539-10.395 1.2852-15.637v-0.054688c0-61.215-49.781-111-111-111zm4.1055 59.398c3.1719 0.25 6.2617 0.80078 9.2344 1.5898 9.5508 2.5039 13.309-11.82 3.7578-14.324-3.8398-1.0195-7.7852-1.7109-12.27-2.0547-10.266-0.19531-10.566 14.562-0.72266 14.785zm33.59-1.6602c-7.1797-0.28906-10.52 8.7969-4.8555 13.223 11.594 9.5078 19.004 23.836 19.004 40.035 0.007813 9.8867 14.82 9.8867 14.812 0 0-20.715-9.5391-39.301-24.426-51.508-1.2734-1.0781-2.8711-1.6914-4.5391-1.7461zm-104.25 23.816 0.015625 0.027344h-0.058594c-14.992 0.027344-29.672 3.9375-42.766 11.199-3.9023 2.25-6.7734 6.7656-4.2617 10.926l15.246 26.375c5.0156 8.3164 17.547 1.0625 12.832-7.4297l-11.301-19.555c9.5117-4.3164 19.801-6.6797 30.309-6.707 10.496 0.027344 20.809 2.3789 30.32 6.6758-9.0859 15.73-19.43 33.629-22.488 38.922-2.5117-0.70312-5.1094-1.2148-7.832-1.2148-13.684 0-25.203 9.5-28.543 22.184-6.9688 0.007812-35.188 0.027344-52.781 0.027344-4.918-0.082032-7.3711 4.4297-7.3711 8.9336 0.24609 15.027 4.2812 29.781 11.777 42.824h-0.015625l0.03125 0.054688c7.5312 12.965 18.25 23.727 31.086 31.434 3.9023 2.25 9.2461 2.4766 11.59-1.7773l15.219-26.391c4.6953-8.4961-7.8516-15.723-12.848-7.3945l-11.289 19.57c-8.4961-6.0781-15.676-13.809-20.957-22.895-5.2227-9.1055-8.3477-19.211-9.3789-29.598 18.148 0 38.766 0.007813 44.902 0.015626 3.3203 12.699 14.871 22.172 28.574 22.172 2.7266 0 5.3203-0.48828 7.832-1.1875 3.4766 6.0117 17.602 30.469 26.406 45.715 2.3906 4.2969 7.5352 4.1719 11.434 1.9219 12.891-7.7266 23.656-18.594 31.203-31.609h0.015625c0.015625-0.027344 0.007812-0.027344 0.015625-0.054687 7.4609-13.004 11.426-27.664 11.676-42.637 0-4.5039-2.4727-9.2461-7.3281-9.1641l-30.465 0.015624c-9.7109 0.19531-9.6953 14.66 0.015625 14.828h22.59c-1.0156 10.395-4.1211 20.484-9.3516 29.598-5.2734 9.0742-12.461 16.832-20.941 22.922-9.0625-15.699-19.328-33.508-22.414-38.863 5.4805-5.3711 8.918-12.816 8.918-21.043 0-8.2305-3.4414-15.703-8.9336-21.086 3.5039-6.0742 17.562-30.445 26.348-45.668 2.5273-4.2227-0.16406-8.6016-4.0625-10.855-13.137-7.3008-27.926-11.188-42.969-11.215zm-0.085937 74.027c8.2617 0 14.801 6.5391 14.801 14.801s-6.5391 14.801-14.801 14.801c-8.2617 0-14.801-6.5391-14.801-14.801s6.5391-14.801 14.801-14.801zm-155.35 147.91c-1.9453 0.007812-3.8711 0.70312-5.2461 2.082 0 0-4.1758 4.1953-8.2969 10.379-4.1211 6.1797-8.6289 14.617-8.6289 24.48 0 12.172 9.9961 22.172 22.172 22.172 12.172 0 22.172-9.9961 22.172-22.172 0-9.8672-4.5078-18.301-8.6289-24.48-4.1211-6.1797-8.2969-10.379-8.2969-10.379-1.375-1.375-3.3008-2.0742-5.2461-2.082zm103.6 0c-1.9453 0.007812-3.8711 0.70312-5.2461 2.082 0 0-4.1758 4.1953-8.2969 10.379-4.1211 6.1797-8.6289 14.617-8.6289 24.48 0 12.172 9.9961 22.172 22.172 22.172 12.172 0 22.172-9.9961 22.172-22.172 0-9.8672-4.5078-18.301-8.6289-24.48-4.1211-6.1797-8.2969-10.379-8.2969-10.379-1.375-1.375-3.3008-2.0742-5.2461-2.082zm103.6 0c-1.9453 0.007812-3.8711 0.70312-5.2461 2.082 0 0-4.1758 4.1953-8.2969 10.379-4.1211 6.1797-8.6289 14.617-8.6289 24.48 0 12.172 9.9961 22.172 22.172 22.172 12.172 0 22.172-9.9961 22.172-22.172 0-9.8672-4.5078-18.301-8.6289-24.48-4.1211-6.1797-8.2969-10.379-8.2969-10.379-1.375-1.375-3.3008-2.0742-5.2461-2.082zm103.6 0c-1.9453 0.007812-3.8711 0.70312-5.2461 2.082 0 0-4.1758 4.1953-8.2969 10.379-4.1211 6.1797-8.6289 14.617-8.6289 24.48 0 12.172 9.9961 22.172 22.172 22.172 12.172 0 22.172-9.9961 22.172-22.172 0-9.8672-4.5078-18.301-8.6289-24.48-4.1211-6.1797-8.2969-10.379-8.2969-10.379-1.375-1.375-3.3008-2.0742-5.2461-2.082zm-310.79 19.078c2.9102 4.3477 6.8477 9.5078 7.3711 17.848 0.23828 3.8125-3.1953 7.3867-7.3711 7.3867s-7.6094-3.5703-7.3711-7.3867c0.52344-8.3438 4.4609-13.5 7.3711-17.848zm103.6 0c2.9102 4.3477 6.8477 9.5078 7.3711 17.848 0.23828 3.8125-3.1953 7.3867-7.3711 7.3867-4.1758 0-7.6094-3.5703-7.3711-7.3867 0.52344-8.3438 4.4609-13.5 7.3711-17.848zm103.6 0c2.9102 4.3477 6.8477 9.5078 7.3711 17.848 0.23828 3.8125-3.1953 7.3867-7.3711 7.3867-4.1758 0-7.6094-3.5703-7.3711-7.3867 0.52344-8.3438 4.4609-13.5 7.3711-17.848zm103.6 0c2.9102 4.3477 6.8477 9.5078 7.3711 17.848 0.23828 3.8125-3.1953 7.3867-7.3711 7.3867s-7.6094-3.5703-7.3711-7.3867c0.52344-8.3438 4.4609-13.5 7.3711-17.848zm-258.99 62.289c-1.9453 0.007812-3.8711 0.70312-5.2461 2.082 0 0-4.1758 4.1953-8.2969 10.379-4.1211 6.1797-8.6289 14.617-8.6289 24.484 0 12.172 9.9961 22.172 22.172 22.172 12.172 0 22.172-9.9961 22.172-22.172 0-9.8672-4.5078-18.301-8.6289-24.484-4.1211-6.1797-8.2969-10.379-8.2969-10.379-1.375-1.375-3.3008-2.0742-5.2461-2.082zm103.6 0c-1.9453 0.007812-3.8711 0.70312-5.2461 2.082 0 0-4.1758 4.1953-8.2969 10.379-4.1211 6.1797-8.6289 14.617-8.6289 24.484 0 12.172 9.9961 22.172 22.172 22.172 12.172 0 22.172-9.9961 22.172-22.172 0-9.8672-4.5078-18.301-8.6289-24.484-4.1211-6.1797-8.2969-10.379-8.2969-10.379-1.375-1.375-3.3008-2.0742-5.2461-2.082zm103.6 0c-1.9453 0.007812-3.8711 0.70312-5.2461 2.082 0 0-4.1758 4.1953-8.2969 10.379-4.1211 6.1797-8.6289 14.617-8.6289 24.484 0 12.172 9.9961 22.172 22.172 22.172 12.172 0 22.172-9.9961 22.172-22.172 0-9.8672-4.5078-18.301-8.6289-24.484-4.1211-6.1797-8.2969-10.379-8.2969-10.379-1.375-1.375-3.3008-2.0742-5.2461-2.082zm-207.19 19.078c2.9102 4.3477 6.8477 9.5078 7.3711 17.848 0.23828 3.8125-3.1953 7.3867-7.3711 7.3867s-7.6094-3.5703-7.3711-7.3867c0.52344-8.3438 4.4609-13.5 7.3711-17.848zm103.6 0c2.9102 4.3477 6.8477 9.5078 7.3711 17.848 0.23828 3.8125-3.1953 7.3867-7.3711 7.3867s-7.6094-3.5703-7.3711-7.3867c0.52344-8.3438 4.4609-13.5 7.3711-17.848zm103.6 0c2.9102 4.3477 6.8477 9.5078 7.3711 17.848 0.23828 3.8125-3.1953 7.3867-7.3711 7.3867-4.1758 0-7.6094-3.5703-7.3711-7.3867 0.52344-8.3438 4.4609-13.5 7.3711-17.848z"/>
</svg>
