<?xml version="1.0" encoding="UTF-8"?>
<svg width="752pt" height="752pt" version="1.1" viewBox="0 0 752 752" xmlns="http://www.w3.org/2000/svg">
 <g>
  <path d="m390.8 287.2c5.8867 0 11.535-2.3359 15.695-6.5 4.1641-4.1641 6.5039-9.8086 6.5039-15.695h-14.801c0 4.0859-3.3125 7.3984-7.3984 7.3984-4.0859 0-7.3984-3.3125-7.3984-7.3984h-14.801c0 5.8867 2.3398 11.531 6.5039 15.695 4.1602 4.1641 9.8086 6.5 15.695 6.5z"/>
  <path d="m361.2 287.2h14.801v14.801h-14.801z"/>
  <path d="m457.4 435.2h14.801v14.801h-14.801z"/>
  <path d="m427.8 435.2h14.801v14.801h-14.801z"/>
  <path d="m457.4 316.8c-5.8867 0-11.535 2.3398-15.699 6.5-4.1602 4.1641-6.5 9.8125-6.5 15.699 0 5.8867 2.3398 11.531 6.5 15.695 4.1641 4.1641 9.8125 6.5039 15.699 6.5039 5.8867 0 11.535-2.3398 15.695-6.5039 4.1641-4.1641 6.5039-9.8086 6.5039-15.695 0-5.8867-2.3398-11.535-6.5039-15.699-4.1602-4.1602-9.8086-6.5-15.695-6.5zm0 29.598c-2.9922 0-5.6914-1.8008-6.8359-4.5664-1.1445-2.7656-0.51172-5.9492 1.6016-8.0664 2.1172-2.1172 5.3008-2.75 8.0664-1.6016 2.7656 1.1445 4.5664 3.8438 4.5664 6.8359 0 1.9609-0.77734 3.8438-2.168 5.2305-1.3867 1.3867-3.2695 2.168-5.2305 2.168z"/>
  <path d="m294.61 346.4c-5.8867 0-11.535 2.3398-15.699 6.5039-4.1602 4.1602-6.5 9.8086-6.5 15.695 0 5.8867 2.3398 11.535 6.5 15.699 4.1641 4.1602 9.8125 6.5 15.699 6.5s11.535-2.3398 15.695-6.5c4.1641-4.1641 6.5039-9.8125 6.5039-15.699 0-5.8867-2.3398-11.535-6.5039-15.695-4.1602-4.1641-9.8086-6.5039-15.695-6.5039zm0 29.598c-2.9922 0-5.6914-1.8008-6.8359-4.5664-1.1484-2.7656-0.51172-5.9492 1.6016-8.0625 2.1172-2.1172 5.3008-2.75 8.0664-1.6055s4.5664 3.8438 4.5664 6.8359c0 1.9609-0.77734 3.8438-2.168 5.2344-1.3867 1.3867-3.2695 2.1641-5.2305 2.1641z"/>
  <path d="m279.8 316.8h14.801v14.801h-14.801z"/>
  <path d="m316.8 339h14.801v14.801h-14.801z"/>
  <path d="m464.8 205.81h14.801v14.801h-14.801z"/>
  <path d="m524 515.17v-42.969c0-1.9648-0.78125-3.8477-2.168-5.2344-1.3867-1.3867-3.2695-2.168-5.2305-2.168h-7.4023v-273.79c0-2.2461-1.0195-4.375-2.7734-5.7773-1.5977-1.2734-40.07-31.219-130.42-31.219-90.348 0-128.82 29.945-130.42 31.219-1.7539 1.4023-2.7773 3.5312-2.7734 5.7773v273.79h-7.4023c-4.0859 0-7.3984 3.3125-7.3984 7.4023v42.969l-29.074 72.68c-0.91016 2.2812-0.63281 4.8633 0.74609 6.8945 1.3789 2.0352 3.6719 3.25 6.1289 3.25h22.199c2.5977 0 5.0039-1.3633 6.3398-3.5898l38.664-64.43c1.9961 12.344 10.102 22.836 21.535 27.891 11.438 5.0508 24.652 3.9727 35.117-2.8633 10.469-6.8359 16.766-18.504 16.738-31.004h0.73828l6.7344 67.336c0.38281 3.7969 3.5859 6.6797 7.4023 6.6602h29.598c3.8008 0 6.9844-2.8789 7.3633-6.6602l6.7344-67.336h0.62891c-0.03125 12.5 6.2695 24.168 16.734 31.004 10.469 6.8359 23.684 7.9141 35.121 2.8633 11.434-5.0547 19.539-15.547 21.535-27.891l38.664 64.43h-0.003906c1.3398 2.2266 3.7461 3.5898 6.3438 3.5898h22.199c2.4531 0 4.75-1.2148 6.1289-3.25 1.375-2.0312 1.6562-4.6133 0.74609-6.8945zm-266.39-320.27c9.9688-6.3047 46.945-26.094 118.39-26.094 71.453 0 108.47 19.809 118.4 26.094v210.7h-74v-66.598c0.003906-1.5625-0.48828-3.082-1.4062-4.3438l-1.082-1.4805h0.003906c9.3906-8.3672 15.395-19.883 16.879-32.375 8.8906 2.6094 18.488 0.83984 25.867-4.7617 7.3789-5.6016 11.66-14.375 11.539-23.637-0.007813-6.5625-2.1914-12.934-6.2109-18.117-4.0156-5.1875-9.6406-8.8945-15.988-10.543v-0.9375c0.046875-10.84-4.6797-21.152-12.926-28.188-8.2461-7.0352-19.172-10.082-29.867-8.3242-10.695 1.7539-20.078 8.1328-25.641 17.434-4.0234-2.0273-8.4609-3.0977-12.965-3.1211-0.25 0-0.48828 0.066406-0.73828 0.074219-2.457-12.09-10.773-22.16-22.18-26.855-11.41-4.6914-24.406-3.3945-34.656 3.4648-10.25 6.8633-16.41 18.379-16.422 30.715 0.023437 2.7422 0.36719 5.4727 1.0195 8.1406-9.5195 2.168-17.359 8.8945-20.949 17.977-3.5938 9.082-2.4727 19.352 2.9922 27.445 5.4648 8.0938 14.57 12.969 24.336 13.035 0 7.8477 3.1172 15.379 8.668 20.93 5.5508 5.5508 13.082 8.668 20.93 8.668 2.8789-0.011719 5.7344-0.44922 8.4805-1.3008 5.3008 8.1094 12.754 14.582 21.527 18.691-0.26953 1.5898-0.40625 3.1953-0.40625 4.8086v59.199h-103.6zm76.094 114.21c-0.69141 0.14844-1.3906 0.24609-2.0977 0.29297-3.9219 0-7.6875-1.5586-10.465-4.332-2.7734-2.7773-4.332-6.5391-4.332-10.465 0.019531-2.25 0.55859-4.4609 1.5742-6.4688 1.2695-2.5742 0.9375-5.6484-0.85156-7.8906-1.793-2.2422-4.7188-3.25-7.5078-2.5781l-8.8086 2.1367c-3.8711-0.20703-7.5078-1.9258-10.125-4.7891-2.6172-2.8594-4.0078-6.6328-3.8711-10.508 0.13672-3.8789 1.7891-7.543 4.6016-10.215 2.8125-2.668 6.5586-4.1289 10.438-4.0625 3.8789 0.066406 7.5742 1.6484 10.297 4.4141 2.7188 2.7617 4.2461 6.4844 4.2539 10.363h14.801-0.003907c-0.019531-6.1328-1.9453-12.109-5.5117-17.098-3.5703-4.9883-8.6016-8.7422-14.398-10.742-1.4336-2.8438-2.2148-5.9766-2.2891-9.1602-0.03125-7.5625 3.8008-14.621 10.16-18.715 6.3594-4.0977 14.367-4.6602 21.242-1.5039 6.8711 3.1602 11.656 9.6094 12.688 17.102-8.9531 5.2969-14.457 14.914-14.488 25.316h14.801-0.003907c0-5.2891 2.8242-10.172 7.4023-12.816s10.219-2.6445 14.797 0c4.582 2.6445 7.4023 7.5273 7.4023 12.816h14.801-0.003906c0.015625-5.9688-1.793-11.801-5.1797-16.715 2.8438-6.1484 8.3477-10.656 14.938-12.227 6.5859-1.5742 13.531-0.039063 18.844 4.1641 5.3164 4.1992 8.4102 10.605 8.3984 17.379v7.3984c0 1.9609 0.78125 3.8438 2.168 5.2305 1.3867 1.3906 3.2695 2.168 5.2305 2.168 3.9258 0 7.6914 1.5586 10.465 4.3359 2.7773 2.7734 4.3359 6.5391 4.3359 10.465s-1.5586 7.6875-4.3359 10.465c-2.7734 2.7734-6.5391 4.332-10.465 4.332-3.9258 0-7.6875-1.5586-10.465-4.332-2.7734-2.7773-4.332-6.5391-4.332-10.465h-14.801c0.03125 7.0078 2.5703 13.773 7.1562 19.074 0.13281 1.0391 0.21484 2.0781 0.24219 3.125 0.019531 12.57-6.3711 24.289-16.953 31.078-1.8086 1.1641-3.0195 3.0625-3.3164 5.1953-0.30078 2.1289 0.34375 4.2852 1.7656 5.9023 1.1406 1.3164 2.625 3.2617 3.6992 4.6992v34.52h-29.594v-29.598c0.011719-2.1289 0.48828-4.2305 1.3984-6.1562 0.88672-1.9219 0.91016-4.1289 0.058593-6.0664-0.84766-1.9375-2.4844-3.418-4.4961-4.0703l-1.8867-0.61328c-7.2109-2.5586-13.457-7.2852-17.871-13.531-4.418-6.2461-6.793-13.711-6.8008-21.359h-14.801c0.003907 4.9102 0.71094 9.793 2.0977 14.504zm71.902 81.691v14.801h-29.602v-14.801zm88.797 29.598v44.398h-140.6v-44.398zm-155.39 0v44.398h-14.801v-44.398zm-29.598 0v44.398h-14.801v-44.398zm-51.797 0h22.199v44.398h-22.203zm-33.789 162.79h-7.082l23.68-59.199h18.922zm85.582-36.996c-5.8867 0-11.531-2.3398-15.695-6.5039-4.1641-4.1602-6.5039-9.8086-6.5039-15.695 0-5.8867 2.3398-11.535 6.5039-15.699 4.1641-4.1602 9.8086-6.5 15.695-6.5 5.8906 0 11.535 2.3398 15.699 6.5 4.1641 4.1641 6.5 9.8125 6.5 15.699 0 5.8867-2.3359 11.535-6.5 15.695-4.1641 4.1641-9.8086 6.5039-15.699 6.5039zm74.738 36.996h-16.207l-5.918-59.199 28.047 0.003906zm58.457-36.996c-5.8867 0-11.531-2.3398-15.695-6.5039-4.1641-4.1602-6.5039-9.8086-6.5039-15.695 0-5.8867 2.3398-11.535 6.5039-15.699 4.1641-4.1602 9.8086-6.5 15.695-6.5 5.8867 0 11.535 2.3398 15.699 6.5 4.1641 4.1641 6.5 9.8125 6.5 15.699 0 5.8867-2.3359 11.535-6.5 15.695-4.1641 4.1641-9.8125 6.5039-15.699 6.5039zm33.859-37h0.003907c-3.8477-8.8438-11-15.832-19.93-19.469-8.9336-3.6406-18.934-3.6406-27.863 0-8.9297 3.6367-16.086 10.625-19.93 19.469h-65.473c-3.8477-8.8438-11-15.832-19.93-19.469-8.9336-3.6406-18.934-3.6406-27.863 0-8.9297 3.6367-16.082 10.625-19.93 19.469h-32.734v-29.598h266.39v29.598zm51.723 73.996-35.52-59.199h18.922l23.68 59.199z"/>
  <path d="m302 516.6h14.801v14.801h-14.801z"/>
  <path d="m435.2 516.6h14.801v14.801h-14.801z"/>
  <path d="m435.2 376h14.801v14.801h-14.801z"/>
  <path d="m376 191.01h14.801v14.801h-14.801z"/>
 </g>
</svg>
