<?xml version="1.0" encoding="UTF-8"?>
<svg width="752pt" height="752pt" version="1.1" viewBox="0 0 752 752" xmlns="http://www.w3.org/2000/svg">
 <g>
  <path d="m604.87 595.24c-27.336-68.336-84.223-120.36-154.01-141.86l1.8359-1.2266c12.211-8.1406 19.504-21.762 19.504-36.438v-11.715c0-15.297-8.1484-29.688-21.266-37.555l-10.242-6.1484c-4.7344-2.8398-8.5469-6.957-11.02-11.898-7.457-14.922-22.469-24.195-39.164-24.195h-34.734c-21.652 0-40.293 16.168-43.355 37.605l-0.80078 5.6172c-1.0938 7.6719-5.1133 14.453-11.309 19.098l-2.9805 2.2422c-10.969 8.2227-17.52 21.32-17.52 35.031v3.6992c0 11.055 4.1367 21.32 11.219 29.191-65.754 23.375-117.75 73.227-143.89 138.55l-4.0547 10.152h465.84zm-57.465-63.844h-112.2c-12.238 0-22.199 9.9609-22.199 22.199s9.9609 22.199 22.199 22.199h43.488c11.121 0 21.09 5.7773 26.766 14.801h-196.05v-7.3984c0-12.238-9.9609-22.199-22.199-22.199-4.0781 0-7.3984-3.3242-7.3984-7.3984 0-4.0781 3.3242-7.3984 7.3984-7.3984h14.801c12.238 0 22.199-9.9609 22.199-22.199s-9.9609-22.199-22.199-22.199h-64.695c20.387-14.984 43.391-26.641 68.344-34.297l17.137 8.5703c14.156 7.0742 29.992 10.824 45.805 10.898v0.023438h42.652c7.3867 0 14.023 4.1055 17.324 10.707 5.832 11.656 17.539 18.891 30.562 18.891h73.449c5.1758 4.6953 10.09 9.6523 14.82 14.801zm-32.871-29.598h-55.387c-7.3867 0-14.023-4.1055-17.324-10.707-4.4336-8.8633-12.277-15.148-21.504-17.664 2.1016-1.1992 4.1797-2.4648 6.207-3.8164l8.0664-5.3711c29.203 7.2852 56.293 20.148 79.941 37.559zm-101.35-151.78c-3.5195 2.4453-7.6797 3.7812-12.059 3.7812-8.1094 0-15.406-4.5078-19.023-11.758l-1.5273-3.0391h9.9297c9.0273 0 17.258 4.1445 22.68 11.016zm-118.58 73.777c0-9.0781 4.3359-17.75 11.594-23.199l2.9766-2.2344c4.0938-3.0703 7.4219-6.8438 10.168-10.988 2.9219 1.5898 4.8594 4.5664 4.8594 7.9766 0 3.5-1.9453 6.6445-5.0781 8.207l-5.6328 2.8203 6.6211 13.238 5.6328-2.8203c8.1719-4.0859 13.258-12.301 13.258-21.445 0-9.375-5.4453-17.715-13.762-21.637 0.33984-1.3984 0.8125-2.7539 1.0195-4.1953l0.80078-5.6172c2.0312-14.199 14.367-24.898 28.707-24.898h8.2578l4.832 9.6562c6.1523 12.297 18.508 19.941 32.266 19.941 7.2891 0 14.238-2.1602 20.141-6.1562 3.2773 4.1719 7.2148 7.793 11.816 10.551l10.242 6.1484c8.6797 5.2109 14.074 14.734 14.074 24.863v11.715c0 9.7148-4.8242 18.734-12.914 24.121l-26.172 17.449c-14.621 9.7539-31.648 14.906-49.215 14.906-13.703 0-27.422-3.2422-39.684-9.3672l-18.781-9.3906c-9.8867-4.9453-16.027-14.883-16.027-25.938zm-75.391 92.801h82.789c4.0781 0 7.3984 3.3242 7.3984 7.3984 0 4.0781-3.3242 7.3984-7.3984 7.3984h-14.801c-12.238 0-22.199 9.9609-22.199 22.199s9.9609 22.199 22.199 22.199c4.0781 0 7.3984 3.3242 7.3984 7.3984v7.3984l-129.38 0.003906c13-28.504 31.441-53.508 53.992-73.996zm302.64 73.996c-6.8906-17.648-23.812-29.598-43.176-29.598l-43.48-0.003906c-4.0781 0-7.3984-3.3242-7.3984-7.3984 0-4.0781 3.3242-7.3984 7.3984-7.3984h124.77c10.508 13.617 19.527 28.488 26.809 44.398z"/>
  <path d="m355.97 450.89c10.699-10.699 29.363-10.699 40.062 0l4.3359 4.3359 10.465-10.465-4.3359-4.3359c-8.1406-8.1445-18.973-12.629-30.496-12.629-11.52 0-22.355 4.4844-30.496 12.633l-4.3359 4.3359 10.465 10.465z"/>
  <path d="m153 376.01 99.676 79.762 9.25-11.559-99.676-79.77c-0.82812-0.66016-1.082-1.8555-0.59375-2.8477 0.49609-1.0195 1.6641-1.4492 2.6328-1.0078l71.414 33.574c5.668 2.6719 12.238 1.5391 16.73-2.8477 4.5742-4.4766 5.832-11.168 3.2188-17.027l-25.93-58.094c-0.82031-1.8438-0.4375-4.0273 0.94531-5.4453 1.2227-1.2422 2.6133-1.4062 3.3672-1.3477 0.73438 0.03125 2.1367 0.29687 3.2578 1.6641l29.391 35.918 11.453-9.375-29.391-35.918c-3.4766-4.2461-8.5898-6.8242-14.039-7.0742-5.5039-0.21484-10.766 1.8516-14.602 5.7656-5.6094 5.7188-7.1758 14.496-3.8984 21.844l25.797 58.555-71.422-33.566c-8.3672-3.9219-18.121-0.46484-22.215 7.8789-3.5234 7.1641-1.5664 15.969 4.6328 20.918z"/>
  <path d="m514.71 311.07c1.1172-1.3672 2.5234-1.6289 3.2578-1.6641 0.76172-0.050781 2.1445 0.097656 3.3672 1.3398 1.3906 1.4219 1.7773 3.6055 0.95312 5.4453l-25.93 58.102c-2.6211 5.8594-1.3555 12.551 3.2188 17.027 4.4922 4.4023 11.055 5.5273 16.73 2.8477l71.414-33.566c0.98438-0.45312 2.1367-0.015624 2.6328 1 0.48828 0.99219 0.23828 2.1836-0.59766 2.8477l-99.676 79.762 9.25 11.559 99.668-79.762c6.1992-4.957 8.1562-13.762 4.6406-20.926-4.0938-8.3398-13.852-11.816-22.215-7.875l-71.547 33.113 25.93-58.102c3.2773-7.3398 1.7109-16.117-3.9062-21.844-3.8398-3.9062-9.0938-5.9922-14.602-5.7578-5.4453 0.25-10.559 2.8281-14.039 7.0742l-29.391 35.918 11.453 9.375z"/>
  <path d="m309.4 257.61c0-4.0781 3.3242-7.3984 7.3984-7.3984 4.0781 0 7.3984 3.3242 7.3984 7.3984v29.598c0 12.238 9.9609 22.199 22.199 22.199 12.238 0 22.199-9.9609 22.199-22.199l0.003906-118.39c0-4.0781 3.3242-7.3984 7.3984-7.3984 4.0781 0 7.3984 3.3242 7.3984 7.3984v103.6c0 12.238 9.9609 22.199 22.199 22.199 12.238 0 22.199-9.9609 22.199-22.199v-59.199c0-4.0781 3.3242-7.3984 7.3984-7.3984 4.0781 0 7.3984 3.3242 7.3984 7.3984v111h14.801l0.003907-111c0-12.238-9.9609-22.199-22.199-22.199s-22.199 9.9609-22.199 22.199v59.199c0 4.0781-3.3242 7.3984-7.3984 7.3984-4.0781 0-7.3984-3.3242-7.3984-7.3984l-0.003906-103.6c0-12.238-9.9609-22.199-22.199-22.199s-22.199 9.9609-22.199 22.199v118.39c0 4.0781-3.3242 7.3984-7.3984 7.3984-4.0781 0-7.3984-3.3242-7.3984-7.3984v-29.598c0-12.238-9.9609-22.199-22.199-22.199-12.238 0-22.199 9.9609-22.199 22.199v66.598h14.801z"/>
  <path d="m538.79 279.8c12.238 0 22.199-9.9609 22.199-22.199s-9.9609-22.199-22.199-22.199-22.199 9.9609-22.199 22.199c0.003906 12.238 9.9609 22.199 22.199 22.199zm0-29.598c4.0781 0 7.3984 3.3242 7.3984 7.3984 0 4.0781-3.3242 7.3984-7.3984 7.3984-4.0781 0-7.3984-3.3242-7.3984-7.3984 0-4.0781 3.3242-7.3984 7.3984-7.3984z"/>
  <path d="m427.8 427.8v-14.801c-4.0781 0-7.3984-3.3242-7.3984-7.3984 0-4.0781 3.3242-7.3984 7.3984-7.3984v-14.801c-12.238 0-22.199 9.9609-22.199 22.199 0 12.238 9.957 22.199 22.199 22.199z"/>
  <path d="m205.81 250.21h14.801v-29.598h29.598v-14.801h-29.598v-29.598h-14.801v29.598h-29.598v14.801h29.598z"/>
  <path d="m575.79 487v-14.797h14.801v-14.801h-14.801v-14.801h-14.801v14.801h-14.797v14.801h14.797v14.797z"/>
  <path d="m487 205.81h14.801v14.801h-14.801z"/>
  <path d="m575.79 220.61h14.801v14.801h-14.801z"/>
  <path d="m161.41 294.61h14.801v14.801h-14.801z"/>
  <path d="m294.61 176.21h14.801v14.801h-14.801z"/>
  <path d="m176.21 442.6h14.801v14.801h-14.801z"/>
 </g>
</svg>
