<?xml version="1.0" encoding="UTF-8"?>
<svg width="752pt" height="752pt" version="1.1" viewBox="0 0 752 752" xmlns="http://www.w3.org/2000/svg">
 <g>
  <path d="m475.34 326.5 127.94-130.31-10.566-10.367-161.53 164.51c-6.0078-3.625-11.648-7.8672-16.648-12.867-5.2617-5.2617-9.7305-11.188-13.461-17.543l157.81-160.73-10.566-10.367-124.64 126.94c-13.23-6.2891-27.695-9.9023-42.406-10.605-32.164-28.57-128.79-110.09-155.29-83.602-19.32 19.32 17.309 75.906 60.879 128.6-5.75 7.7695-10.523 16.281-14.105 25.41-53.988-64.438-72.984-106.87-65.902-113.95l-10.469-10.461c-11.789 11.781-4.1719 37.508 23.25 78.66 12.801 19.203 29.176 40.426 48 62.445-1.6797 7.6602-2.6172 15.586-2.6172 23.73 0 17.766 4.3008 34.512 11.75 49.414l-128.03 130.39 10.566 10.367 125.19-127.5c8.1484 11.863 18.535 22.043 30.547 29.977l-121.9 124.15 10.566 10.367 124.74-127.05c14.441 6.8984 30.531 10.871 47.57 10.871 8.9609 0 17.625-1.1836 25.98-3.1953 15.902 12.898 31.203 24.324 45.406 33.785 28.68 19.121 49.875 28.609 64.066 28.609 6.1719 0 11.012-1.7891 14.586-5.3555l-10.465-10.465c-2.5 2.4805-18.086 2.8281-59.973-25.102-11.543-7.6953-23.902-16.828-36.68-26.922 8.9297-3.7578 17.203-8.7305 24.773-14.578 11.559 8.9844 22.754 17.176 33.297 24.211 28.676 19.125 49.867 28.613 64.059 28.613 6.1719 0 11.012-1.7891 14.586-5.3555 23.457-23.457-38.914-102.97-68.727-138.18-0.4375-16.207-4.3906-32.141-11.574-46.562zm-80.938-20.918c-1.0195-2.8203-2.0352-5.6367-2.7656-8.5625l-1.0586-4.2188-14.348 3.5898 1.0586 4.2109c4.4688 17.898 13.727 34.27 26.785 47.32 13.055 13.055 29.414 22.316 47.32 26.793l4.2188 1.0586 3.582-14.355-4.2188-1.0586c-3.3359-0.83594-6.5859-1.9453-9.7812-3.1602l19.012-19.359c5.1836 11.992 7.9961 24.98 7.9961 38.156 0 26.867-11.098 51.168-28.926 68.641-25.328-20.371-52.383-44.77-79.16-71.547-22.637-22.645-41.824-43.629-58.141-62.84 17.566-18.691 42.422-30.449 70.027-30.449 12.57 0 25.012 2.5586 36.547 7.2969zm-157.96-113.55c6.3555-6.3359 48.766 9.7227 123.62 74.258-24.805 3.5977-46.965 15.332-63.645 32.523-49.402-60.387-66.793-99.969-59.977-106.78zm139.56 280.17c-53.043 0-96.195-43.156-96.195-96.195 0-3.1094 0.17578-6.1797 0.46484-9.2109 13.629 15.316 28.305 30.887 43.777 46.367 21.156 21.148 42.496 40.855 63.09 58.34-3.6523 0.42188-7.3633 0.69922-11.137 0.69922zm29.504-4.6797c-22.945-18.957-47.062-40.898-70.992-64.828-19.219-19.219-36.043-37.309-50.68-54.094 2.8789-9.6562 7.207-18.691 12.777-26.824 19.809 23.199 40.285 45.027 57.035 61.781 26.32 26.32 52.945 50.398 78.039 70.742-7.9258 5.6523-16.715 10.168-26.18 13.223zm139.66 33.254c-2.5 2.4805-18.086 2.8281-59.973-25.102-9.5898-6.3945-19.719-13.75-30.199-21.82 15.688-15.918 26.52-36.547 30.359-59.531 55.68 68.074 64.758 101.5 59.812 106.45z"/>
  <path d="m479.6 560.99c-2.125 0-4.1367 0.39062-6.082 0.95312l-24.898-34.852-12.039 8.5977 24.855 34.801c-2.5273 3.6055-4.0352 7.9727-4.0352 12.699 0 12.238 9.9609 22.199 22.199 22.199 12.238 0 22.199-9.9609 22.199-22.199 0-12.238-9.9609-22.199-22.199-22.199zm0 29.602c-4.0859 0-7.3984-3.3242-7.3984-7.3984 0-4.0781 3.3164-7.3984 7.3984-7.3984 4.0859 0 7.3984 3.3242 7.3984 7.3984 0 4.0742-3.3125 7.3984-7.3984 7.3984z"/>
  <path d="m413 546.2h14.801v29.598h-14.801z"/>
  <path d="m414.87 511.2c-2.9062-5.8047-8.7383-9.4062-15.219-9.4062-8.7852 0-16.227 6.8516-16.961 15.605l-5.7344 68.906c-0.19922 2.4062-2.25 4.2852-4.6562 4.2852s-4.4531-1.8789-4.6562-4.2773l-5.8086-69.758c-0.6875-8.2812-7.7305-14.762-16.039-14.762-7.3984 0-13.824 5.0156-15.613 12.195l-3.8867 15.547c-0.53125 2.1328-4.0195 2.2578-4.7227 0.17578l-5.1484-15.457-14.031 4.6758 5.1484 15.465c2.3477 7.0547 8.9297 11.797 16.363 11.797 7.9258 0 14.812-5.3711 16.738-13.066l3.8867-15.547c0.31641-1.2344 2.457-1.0664 2.5664 0.20703l5.8086 69.766c0.83594 10 9.3672 17.836 19.395 17.836 10.027 0 18.559-7.8359 19.395-17.848l5.7344-68.906c0.17187-1.9922 3.3242-2.5977 4.2031-0.8125 4.1875 8.3672 12.609 13.57 21.973 13.57h4.1953v-14.801h-4.1953c-3.7227 0.003906-7.0625-2.0625-8.7344-5.3906z"/>
  <path d="m413 590.59h14.801v14.801h-14.801z"/>
  <path d="m193.17 336.83 10.465-10.465 36.996 36.996-10.465 10.465z"/>
  <path d="m163.58 307.24 10.465-10.465 14.797 14.797-10.465 10.465z"/>
  <path d="m163.82 429.88 33.395 4.6836-2.3516 2.418c-7.8203 8.0195-7.8203 21.074-0.007813 29.094 3.8984 4.0039 9.0703 6.1406 14.387 6.1406 2.1836 0 4.3945-0.35547 6.5469-1.0938l14.613-4.9961-4.7812-14.008-14.613 4.9961c-1.9688 0.66406-4.0859 0.14844-5.5508-1.3672-2.2656-2.3242-2.2656-6.1133 0-8.4297l2.3594-2.418c4.0117-4.1211 5.3203-10.062 3.418-15.523-1.8789-5.3789-6.5117-9.1602-12.105-9.8789l-33.434-4.293c-2.4453-0.31641-4.2891-2.5273-4.2891-5.1484 0-2.6992 1.9844-4.9805 4.5156-5.1797l84.867-6.6953-1.168-14.754-84.871 6.6953c-10.172 0.80469-18.145 9.5586-18.145 19.934 0 10.043 7.4023 18.566 17.215 19.824z"/>
  <path d="m327.73 190.62 3.9727 23.805 14.602-2.4336-3.9805-23.863c6.8047-3.7891 11.473-10.984 11.473-19.316 0-12.238-9.9609-22.199-22.199-22.199-12.238 0-22.199 9.9609-22.199 22.199 0 10.914 7.9336 19.965 18.332 21.809zm3.8672-29.207c4.0859 0 7.3984 3.3242 7.3984 7.3984 0 4.0781-3.3164 7.3984-7.3984 7.3984-4.0859 0-7.3984-3.3242-7.3984-7.3984 0-4.0742 3.3164-7.3984 7.3984-7.3984z"/>
  <path d="m279.8 161.41h14.801v14.801h-14.801z"/>
  <path d="m368.71 220.92c6.0156-2.1602 10.773-6.5703 13.379-12.426l18.988-42.734c0.24609-0.5625 0.67969-0.8125 1.0078-0.93359 0.31641-0.11719 0.8125-0.19141 1.3672 0.082031 0.70312 0.34766 1.082 1.1328 0.93359 1.8945l-9.4492 47.23c-1.2344 6.1719 1.4414 12.277 6.8242 15.547 5.3789 3.2695 12.023 2.8398 16.938-1.0859l16.086-12.867c0.82812-0.66016 1.9766-0.77734 2.8945-0.3125 1.332 0.66016 1.8633 2.2852 1.207 3.6094l-10.293 20.57 13.238 6.6211 10.293-20.578c4.3047-8.6289 0.79297-19.152-7.8281-23.457-6.0664-3.0352-13.422-2.2656-18.75 1.9922l-16.094 12.875 9.4492-47.238c1.4492-7.2969-2.1836-14.703-8.8203-18.031-4.0273-2.0039-8.7539-2.3008-12.988-0.76953-4.2266 1.5156-7.7031 4.7422-9.5312 8.8516l-19.004 42.719c-0.94141 2.125-2.6641 3.7227-4.8477 4.5078-2.1836 0.77734-4.5078 0.63672-6.6016-0.39844l-6.6211 13.238c5.7188 2.8633 12.18 3.2461 18.223 1.0938z"/>
  <path d="m599.3 315.4c-3.8711-3.6055-9.1094-5.4609-14.391-5.082l-91.039 6.5039 1.0586 14.762 91.039-6.5039c1.5547-0.14062 2.7383 0.66406 3.2578 1.1484 0.50781 0.47656 1.3672 1.5273 1.3672 3.1641 0 2.0508-1.457 3.8398-3.4766 4.2383l-56.535 11.309c-8.1016 1.6211-13.984 8.7969-13.984 17.062 0 6.9688 4.1445 13.254 10.551 16l35.008 15.008c2.5 1.0742 3.7891 3.9375 2.9297 6.5195-0.86719 2.6055-3.6406 4.1211-6.2891 3.4492l-8.0664-2.0117c-8.7891-2.1992-18.195 0.42188-24.574 6.8086l10.465 10.465c2.7383-2.7383 6.7852-3.8477 10.523-2.9141l8.0586 2.0117c10.137 2.5156 20.617-3.2422 23.922-13.129 3.2617-9.8281-1.6289-20.719-11.145-24.797l-35.016-15.008c-0.94922-0.41797-1.5703-1.3516-1.5703-2.4023 0-1.2344 0.87891-2.3164 2.0938-2.5547l56.535-11.309c8.9102-1.7773 15.367-9.668 15.367-18.746 0-5.2891-2.2188-10.391-6.0898-13.992z"/>
 </g>
</svg>
