<?xml version="1.0" encoding="UTF-8"?>
<svg width="752pt" height="752pt" version="1.1" viewBox="0 0 752 752" xmlns="http://www.w3.org/2000/svg">
 <g>
  <path d="m217.38 231.93c1.1523 1.2344 2.7344 1.8789 4.3281 1.8789 1.0742 0 2.1562-0.29297 3.1172-0.89062 2.4023-1.4883 3.4141-4.4648 2.4258-7.1094-0.03125-0.089844-3.3359-9.2734 5.7383-17.746l-8.0781-8.6523c-6.082 5.6797-8.6836 11.734-9.625 16.953-8.1484-3.1836-15.852-1.3984-19.711 0.66406l5.5 10.484c0.85156-0.42188 8.5469-3.8945 16.305 4.418z"/>
  <path d="m252.32 202.48c-0.60156 2.7617 0.82812 5.5586 3.418 6.6914 0.76562 0.33203 1.5664 0.49219 2.3633 0.49219 1.8906 0 3.7266-0.91016 4.8633-2.543 0.058593-0.082032 5.7148-8 17.859-5.3594l2.5273-11.566c-8.1328-1.7773-14.598-0.47266-19.418 1.7148-2.0234-8.5117-7.8633-13.832-11.75-15.84l-5.5039 10.484c0.83984 0.45703 8.0703 4.8203 5.6406 15.926z"/>
  <path d="m417.69 228.64h9.4258v11.84h-9.4258z"/>
  <path d="m417.69 243.12h9.4258v11.84h-9.4258z"/>
  <path d="m417.69 257.62h9.4258v11.84h-9.4258z"/>
  <path d="m417.69 272.11h9.4258v11.84h-9.4258z"/>
  <path d="m470.18 224.91c-2.6758 1.9609-7.1602 5.2422-7.1602 11.711h11.84c0-0.36328 0.49609-0.82813 2.3125-2.1641 2.6758-1.9609 7.1602-5.2422 7.1602-11.711s-4.4805-9.75-7.1602-11.711c-1.8125-1.332-2.3125-1.793-2.3125-2.1641 0-0.35938 0.49219-0.82422 2.3125-2.1484 2.6758-1.9609 7.1602-5.2344 7.1602-11.703h-11.84c0 0.35938-0.49219 0.82031-2.3047 2.1484-2.6797 1.9609-7.1641 5.2383-7.1641 11.707s4.4805 9.75 7.1602 11.711c1.8125 1.332 2.3125 1.793 2.3125 2.1641-0.003907 0.37109-0.5 0.82812-2.3164 2.1602z"/>
  <path d="m545.21 360.93-6.207-10.078-19.715 12.148v-19.25l37.395-25.109-6.6055-9.8281-9.1797 6.1602v-22.719h-11.84v30.668l-9.7695 6.5625v-25.52h-11.84v31.223l-4.0859-5.4102-9.4414 7.1406 13.531 17.906v15.68c-4.8672-9.3008-10.699-18.02-17.379-26.008l-0.007812-98.371h-32.625v69.453c-3.0508-1.9805-6.1562-3.875-9.3594-5.6328l0.003906-100.04h-51.363v83.344c-4.1992-0.53906-8.4453-0.91016-12.742-1.0859v-119h-11.84v119.01c-14.793 0.59375-29.016 3.3984-42.371 8.0938v-26.121c2.4336 0.83203 4.9961 1.2891 7.6094 1.2891 13.152 0 23.848-10.699 23.848-23.848 0-3.7383-0.88281-7.3516-2.5664-10.656 1.6641-2.668 2.5664-5.7539 2.5664-8.9453 0-8.9219-6.8672-16.266-15.586-17.035-3.7227-12.441-15.168-21.238-28.66-21.238-15.133 0-27.676 11.281-29.668 25.871-14.715-0.82031-27.336 11.113-27.332 25.883 0 14.293 11.625 25.914 25.918 25.914 3.1719 0 6.3086-0.60156 9.2383-1.7227v48.293c-14.453 10.012-27.012 22.562-37.043 37-7.25-8.4453-8.0352-20.156-7.9414-25.762 2.4688-1.2227 4.8086-2.7266 6.8242-4.6875 15.918 1.543 29.191-11.105 29.191-26.672 0-14.234-11.168-25.914-25.203-26.738-3.0625-10.777-12.926-18.562-24.59-18.562-11.727 0-21.727 8.0039-24.672 18.977-12.445 2.3281-21.898 13.277-21.898 26.395 0 14.805 12.047 26.852 26.852 26.852 0.80078 0 1.6211-0.09375 2.4375-0.17969 0.17578 11.145 2.5156 44.082 23.145 60.023-6.5352 16.562-10.168 34.574-10.168 53.43 0 80.5 65.492 145.99 145.99 145.99s145.99-65.492 145.99-145.99c0-12.781-1.668-25.176-4.7656-37v-24.098zm-33 77.07c0 0.85156-0.050781 1.6914-0.066406 2.5391-2.3242-0.62891-4.0664-1.7188-6.1133-3.1211-3.7617-2.5664-8.4375-5.7695-17.195-5.7695-8.7578 0-13.434 3.2031-17.195 5.7695-3.1406 2.1484-5.4141 3.7031-10.508 3.7031-5.0859 0-7.3594-1.5547-10.5-3.6992-3.7617-2.5703-8.4297-5.7734-17.188-5.7734-8.7461 0-13.422 3.2031-17.172 5.7734-3.1367 2.1445-5.4023 3.6992-10.484 3.6992-5.0859 0-7.3555-1.5547-10.496-3.6992-2.8125-1.9258-6.1484-4.2109-11.324-5.2266v-15.09c1.6445 0.66016 3.0312 1.5898 4.6367 2.6836 3.7539 2.5703 8.4297 5.7734 17.18 5.7734 8.7461 0 13.422-3.2031 17.172-5.7734 3.1367-2.1445 5.4023-3.6992 10.484-3.6992 5.0859 0 7.3594 1.5547 10.5 3.6992 3.7617 2.5703 8.4297 5.7734 17.188 5.7734s13.434-3.2031 17.191-5.7695c3.1445-2.1484 5.418-3.7031 10.512-3.7031 5.0977 0 7.3672 1.5547 10.508 3.7031 2.9727 2.0312 6.5547 4.4336 12.238 5.3555 0.40625 4.2344 0.63281 8.5195 0.63281 12.852zm-10.227 51.34c-3.1719-1.7461-7.207-3.2266-13.141-3.2266-8.7578 0-13.434 3.2031-17.195 5.7695-3.1406 2.1484-5.4141 3.7031-10.508 3.7031-5.0859 0-7.3594-1.5547-10.5-3.6992-3.7617-2.5703-8.4297-5.7734-17.188-5.7734-8.7461 0-13.422 3.2031-17.172 5.7734-3.1367 2.1445-5.4023 3.6992-10.484 3.6992-5.0859 0-7.3555-1.5547-10.496-3.6992-2.8125-1.9258-6.1484-4.2109-11.324-5.2266v-15.09c1.6445 0.66016 3.0312 1.5898 4.6367 2.6836 3.7539 2.5703 8.4297 5.7734 17.18 5.7734 8.7461 0 13.422-3.2031 17.172-5.7734 3.1367-2.1445 5.4023-3.6992 10.484-3.6992 5.0859 0 7.3594 1.5547 10.5 3.6992 3.7617 2.5703 8.4297 5.7734 17.188 5.7734 8.7578 0 13.434-3.2031 17.191-5.7695 3.1445-2.1484 5.418-3.7031 10.512-3.7031 5.0977 0 7.3672 1.5547 10.508 3.7031 1.8789 1.2852 3.9961 2.7266 6.7383 3.8516-1.2031 3.8164-2.5781 7.5586-4.1016 11.23zm-16.566 20.285c-8.7578 0-13.434 3.2031-17.195 5.7695-3.1406 2.1484-5.4141 3.7031-10.508 3.7031-5.0859 0-7.3594-1.5547-10.5-3.6992-3.7617-2.5703-8.4297-5.7734-17.188-5.7734-8.7461 0-13.422 3.2031-17.172 5.7734-3.1367 2.1445-5.4023 3.6992-10.484 3.6992-5.0859 0-7.3555-1.5547-10.496-3.6992-2.1328-1.4648-4.5938-3.1055-7.8984-4.2734v-12.156c1.6445 0.66016 3.0312 1.5898 4.6367 2.6836 3.7539 2.5703 8.4297 5.7734 17.18 5.7734 8.7461 0 13.422-3.2031 17.172-5.7734 3.1367-2.1445 5.4023-3.6992 10.484-3.6992 5.0859 0 7.3594 1.5547 10.5 3.6992 3.7617 2.5703 8.4297 5.7734 17.188 5.7734 8.7578 0 13.434-3.2031 17.191-5.7695 3.1445-2.1484 5.418-3.7031 10.512-3.7031 3.7266 0 5.9375 0.84375 8.0898 2.1328-1.8125 3.4531-3.7695 6.8086-5.8633 10.074-1.6875-0.32422-3.5312-0.53516-5.6484-0.53516zm-145.06 21.875c10.258-2.9922 20.895-4.7461 31.785-5.2148v45.715c-0.82812-0.039063-1.6523-0.09375-2.4727-0.14062-11.586-12.289-21.391-25.859-29.312-40.359zm11.535 38.07c-17.816-3.5391-34.379-10.598-48.91-20.453 8.2109-5.5742 16.918-10.148 26-13.723 6.4297 12.043 14.094 23.484 22.91 34.176zm149.06-185.28h-59.461c-2.9492-11.012-6.7656-21.746-11.48-32.082 11.668-4.4453 22.766-10.422 33.102-17.867 16.246 13.352 29.289 30.453 37.84 49.949zm-82.199-28.316c4.2344 9.1289 7.6758 18.613 10.445 28.316h-45.227v-22.719c11.922-0.47266 23.562-2.3477 34.781-5.5977zm-34.773-6.2344v-45.219c11.535 12.312 21.406 25.988 29.355 40.699-9.5039 2.5781-19.32 4.0859-29.355 4.5195zm40.766-8.1836c-6.668-12.652-14.621-24.641-23.797-35.711 19.062 3.293 36.777 10.59 52.199 21.043-8.9375 6.0625-18.441 10.965-28.402 14.668zm-52.605 85.312h-55.254c1.4102-25.027 7.5547-49.289 18.004-71.625 11.977 3.6992 24.457 5.8164 37.246 6.3242zm0 11.84v75.734c-12.797 0.50391-25.273 2.625-37.258 6.3242-11.895-25.406-18.234-53.293-18.336-82.059zm11.84 113.05c0.40234 0.26563 0.78906 0.51172 1.2109 0.80078 3.7539 2.5703 8.4297 5.7734 17.18 5.7734 8.7461 0 13.422-3.2031 17.172-5.7734 3.1367-2.1445 5.4023-3.6992 10.484-3.6992 5.0859 0 7.3594 1.5547 10.5 3.6992 1.0469 0.71484 2.2266 1.4648 3.4844 2.1914-17.879 10.141-38.285 16.297-60.035 17.254zm122.05-87.277c-3.7617-2.5664-8.4375-5.7695-17.195-5.7695-8.7578 0-13.434 3.2031-17.195 5.7695-3.1406 2.1484-5.4141 3.7031-10.508 3.7031-5.0859 0-7.3594-1.5547-10.5-3.6992-3.7617-2.5703-8.4297-5.7734-17.188-5.7734-8.7461 0-13.422 3.2031-17.172 5.7734-3.1367 2.1445-5.4023 3.6992-10.484 3.6992-5.0859 0-7.3555-1.5547-10.496-3.6992-2.8125-1.9258-6.1484-4.2109-11.324-5.2266v-14.754c1.6445 0.66016 3.0312 1.5898 4.6367 2.6836 3.7539 2.5703 8.4297 5.7734 17.18 5.7734 8.7461 0 13.422-3.2031 17.172-5.7734 3.1367-2.1445 5.4023-3.6992 10.484-3.6992 5.0859 0 7.3594 1.5547 10.5 3.6992 3.7617 2.5703 8.4297 5.7734 17.188 5.7734s13.434-3.2031 17.191-5.7695c3.1445-2.1484 5.418-3.7031 10.512-3.7031 5.0977 0 7.3672 1.5547 10.508 3.7031 2.9414 2.0078 6.4844 4.3867 12.066 5.332-0.50781 4.707-1.2734 9.3438-2.2578 13.895-1.0273-0.5625-2.0273-1.1953-3.1172-1.9375zm0-54.461c-3.7617-2.5664-8.4375-5.7695-17.195-5.7695-8.7578 0-13.434 3.2031-17.195 5.7695-3.1406 2.1484-5.4141 3.7031-10.508 3.7031-5.0859 0-7.3594-1.5547-10.5-3.6992-3.7617-2.5703-8.4297-5.7734-17.188-5.7734-8.7461 0-13.422 3.2031-17.172 5.7734-3.1367 2.1445-5.4023 3.6992-10.484 3.6992-5.0859 0-7.3555-1.5547-10.496-3.6992-2.8125-1.9258-6.1484-4.2109-11.324-5.2266l0.003906-8.668h121.51c1.7227 5.2344 3.1406 10.609 4.2188 16.105-1.2344-0.61328-2.3906-1.3438-3.668-2.2148zm-36.75-152.06h8.9453v73.977c-2.875-2.7188-5.8516-5.3242-8.9453-7.8008zm-60.719-36.223h27.684v82.402c-4.9766-2.168-10.086-4.0859-15.324-5.7031h6.1992v-11.84h-9.4258v10.922c-3.0078-0.85156-6.043-1.625-9.1289-2.2812l0.003906-73.5zm-36.422 127.99c-10.898-0.46875-21.535-2.2227-31.793-5.2148 7.9336-14.535 17.75-28.105 29.309-40.383 0.82422-0.050781 1.6484-0.097656 2.4766-0.13672l0.003906 45.734zm-20.254-43.305c-8.8008 10.684-16.488 22.121-22.926 34.191-9.082-3.582-17.781-8.1562-25.996-13.73 14.535-9.8516 31.102-16.922 48.922-20.461zm-65.984-46.902c-7.7617 0-14.078-6.3125-14.078-14.074s6.3164-14.078 14.078-14.078c1.7383 0 3.4648 0.33203 5.1328 0.98438 1.957 0.76562 4.1641 0.44531 5.8125-0.84766 1.6484-1.2891 2.4922-3.3594 2.2227-5.4375-0.10547-0.79687-0.1875-1.6055-0.1875-2.4336 0-9.9766 8.1211-18.102 18.105-18.102 9.375 0 17.121 7.0273 18.004 16.352 0.17188 1.7695 1.1211 3.3711 2.6055 4.3633 1.4766 0.98828 3.3203 1.2578 5.0234 0.73828 0.61719-0.1875 1.1133-0.28125 1.5195-0.28125 2.8945 0 5.2539 2.3594 5.2539 5.2578 0 2.0547-1.1797 3.3633-1.8789 3.9609-2.4375 2.0742-2.7891 5.707-0.79688 8.2031 1.2227 1.5312 2.6758 4.0625 2.6758 7.4297 0 6.6211-5.3906 12.012-12.012 12.012-3.4844 0-6.6953-1.5-9.0469-4.2344-1.0273-1.1875-2.4844-1.9258-4.0586-2.043-0.14063-0.007813-0.28906-0.015625-0.42578-0.015625-1.4219 0-2.8008 0.51172-3.8828 1.4492-1.5469 1.3438-4.1406 2.9492-7.6953 2.9492-3.5234 0-6.8594-1.625-9.1406-4.4531-0.98828-1.2227-2.4258-2.0039-3.9922-2.168-1.5625-0.16406-3.1367 0.30469-4.3516 1.2969-2.5469 2.0781-5.6133 3.1719-8.8867 3.1719zm21.078 13.301c3.5859 0.80859 7.3516 0.76562 10.949-0.097657v32.297c-3.7383 1.6953-7.3867 3.5312-10.949 5.5273zm-13.977 61.516c9.6289 6.9336 19.91 12.602 30.699 16.941-10.883 23.598-17.262 49.195-18.664 75.594h-60.633c3.0703-37.188 21.336-70.125 48.598-92.535zm-91.355-36.465c0-8.207 6.6211-14.898 14.805-15.008 0.11328 0.003906 0.22656 0.007812 0.33203 0.007812 3.1289 0 5.7227-2.4375 5.9102-5.5586 0.44141-7.2734 6.4531-12.965 13.691-12.965 7.3633 0 13.395 5.8008 13.723 13.203 0.074219 1.6914 0.87109 3.2695 2.1875 4.3398 1.3164 1.0703 3.0352 1.5352 4.6992 1.2422 0.78125-0.12891 1.5781-0.26172 2.3945-0.26172 8.2422 0 14.945 6.707 14.945 14.945 0 8.2461-6.707 14.949-14.945 14.949-1.0195 0-2.1016-0.13281-3.3164-0.40625-2.2148-0.49219-4.5312 0.30859-5.9453 2.0938-2.8789 3.6328-7.1094 5.7148-11.609 5.7148-4.5547 0-8.8164-2.1172-11.688-5.8164-1.1406-1.4648-2.875-2.2812-4.6758-2.2812-0.51953 0-1.0469 0.070312-1.5664 0.20703-1.5234 0.41797-2.7695 0.60938-3.9297 0.60938-8.2773-0.003906-15.012-6.7383-15.012-15.016zm29.625 32.996c2.2734 0.64844 4.6172 1.0938 7.043 1.1133 0.26172 8.6797 2.5195 22.984 13.25 33.254-1.5195 2.6328-2.9648 5.3047-4.3242 8.0312-11.684-10.969-15.043-30.613-15.969-42.398zm12.656 107.84h60.773c0.097656 30.133 6.6289 59.363 18.941 86.047-10.766 4.3398-21.023 9.9922-30.637 16.91-29.781-24.48-48.863-61.527-49.078-102.96zm212.99 107.72c-4.4844-0.17188-6.7539-1.6133-9.707-3.6367-3.7617-2.5703-8.4297-5.7695-17.188-5.7695-8.7461 0-13.422 3.2031-17.172 5.7734-3.1367 2.1445-5.3984 3.6992-10.484 3.6992-5.0859 0-7.3555-1.5547-10.496-3.6992-2.1328-1.4648-4.5938-3.1055-7.8984-4.2734v-14.156c0.40234 0.26562 0.78906 0.51172 1.2109 0.80078 3.7539 2.5703 8.4297 5.7734 17.18 5.7734 8.7461 0 13.422-3.2031 17.172-5.7734 3.1367-2.1445 5.4023-3.6992 10.484-3.6992 5.0859 0 7.3594 1.5547 10.5 3.6992 3.7617 2.5703 8.4297 5.7734 17.188 5.7734 8.7578 0 13.434-3.2031 17.191-5.7695 2.5273-1.7305 4.5703-3.0312 7.8984-3.4844-7.4844 9.3438-16.191 17.676-25.879 24.742z"/>
 </g>
</svg>
