<?xml version="1.0" encoding="UTF-8"?>
<svg width="752pt" height="752pt" version="1.1" viewBox="0 0 752 752" xmlns="http://www.w3.org/2000/svg">
 <defs>
  <clipPath id="a">
   <path d="m139.21 154h473.58v444h-473.58z"/>
  </clipPath>
 </defs>
 <g clip-path="url(#a)">
  <path d="m562.47 306.45c-18.5-11.84-37-23.68-46.617-44.398-38.477-89.539-105.07-108.04-154.65-108.04-122.1 0-221.99 99.895-221.99 221.99s99.895 221.99 221.99 221.99c88.055 0 147.99-35.52 184.25-108.04l-13.32-6.6602c-33.301 67.336-89.539 99.895-170.93 99.895-113.96 0-207.19-93.234-207.19-207.19 0-113.95 93.234-207.19 207.19-207.19 45.137 0 105.82 17.02 141.34 99.156 11.098 25.16 32.559 39.219 51.797 51.059 23.68 14.801 43.66 28.117 43.66 56.977 0 24.418-18.5 49.578-35.52 69.559l11.098 9.6211c18.5-22.199 39.219-50.32 39.219-79.18 0-36.996-25.898-53.277-50.32-69.555z"/>
 </g>
 <path d="m575.05 401.9c5.1797-9.6211 8.1406-17.758 8.1406-25.898 0-22.938-19.98-35.52-41.438-48.098-19.238-11.098-38.477-22.938-47.359-43.66-22.941-49.574-55.5-100.63-133.2-100.63-105.82 0-192.39 86.578-192.39 192.39 0 105.82 86.578 192.39 192.39 192.39 92.496 0 135.41-46.617 154.65-85.836 8.8789-17.758 21.461-33.297 34.039-48.098l2.2188-2.2188-11.098-9.6211-2.2188 2.9609c-12.578 14.801-26.641 31.82-36.258 51.059-25.156 50.32-73.996 76.957-141.33 76.957-97.676 0-177.59-79.918-177.59-177.59s79.918-177.59 177.59-177.59c38.477 0 83.617 11.098 119.14 91.758 11.098 24.418 33.297 38.477 53.277 50.316 21.461 12.578 34.777 21.461 34.777 35.52 0 5.1797-2.2188 11.098-5.918 18.5z"/>
 <path d="m495.88 424.84 11.84-8.8789c-17.02-20.719-35.52-24.418-49.578-27.379-14.059-2.2188-19.98-4.4414-23.68-14.801-4.4414-13.32-9.6211-28.859-23.68-33.297-9.6211-2.9609-20.719 0.73828-34.777 10.359-3.6992-2.9609-8.8789-4.4414-14.797-4.4414-16.281 0-29.598 13.32-29.598 29.598 0 16.281 13.32 29.598 29.598 29.598 16.281 0 29.598-13.32 29.598-29.598 0-5.1797-1.4805-9.6211-3.6992-14.059 11.84-8.1406 17.758-8.1406 19.98-7.3984 5.918 1.4805 9.6211 12.578 13.32 23.68 6.6602 19.238 20.719 22.199 34.777 25.16 14.059 2.2188 27.379 5.1758 40.695 21.457zm-134.67-34.039c-8.1406 0-14.801-6.6602-14.801-14.801s6.6602-14.801 14.801-14.801 14.801 6.6602 14.801 14.801c-0.003906 8.1406-6.6641 14.801-14.801 14.801z"/>
 <path d="m205.81 368.6h14.801v14.801h-14.801z"/>
 <path d="m361.2 516.6h22.199v14.801h-22.199z"/>
 <path d="m279.8 501.8h14.801v14.801h-14.801z"/>
 <path d="m279.8 235.41h14.801v14.801h-14.801z"/>
 <path d="m228.01 450h14.801v14.801h-14.801z"/>
 <path d="m228.01 287.2h14.801v14.801h-14.801z"/>
 <path d="m430.76 503.28 8.1406 12.578c0.73828-0.73828 24.418-16.281 32.559-40.699l-14.059-4.4414c-5.9219 18.504-25.898 31.82-26.641 32.562z"/>
 <path d="m524 384.88 14.059-3.6992c-4.4414-18.5-19.238-25.16-31.82-31.078-11.098-5.1797-21.461-9.6211-27.379-22.199l-13.32 6.6602c8.1406 16.281 22.199 22.938 34.777 28.859 12.582 5.9141 20.723 10.355 23.684 21.457z"/>
 <path d="m435.94 297.57 13.32-6.6602c-2.2188-4.4414-3.6992-9.6211-5.1797-14.801-3.6992-12.578-7.3984-25.898-19.98-32.559l-6.6602 13.32c6.6602 3.6992 9.6211 13.32 12.578 23.68 1.4844 5.918 2.9648 11.84 5.9219 17.02z"/>
 <path d="m387.84 234.67 6.6602-13.32c-17.02-8.8789-41.438-0.73828-42.918-0.73828l4.4414 14.059c5.1797-1.4805 21.457-5.1797 31.816 0z"/>
</svg>
