<?xml version="1.0" encoding="UTF-8"?>
<svg width="752pt" height="752pt" version="1.1" viewBox="0 0 752 752" xmlns="http://www.w3.org/2000/svg">
 <g>
  <path d="m176.21 294.61c-0.003907 13.191 5.8945 25.691 16.078 34.074-0.84375 3.375-1.2734 6.8438-1.2812 10.324 0.039063 7.8945 2.1641 15.637 6.1641 22.445 4 6.8086 9.7266 12.438 16.605 16.312-0.33594 1.8633-0.52734 3.7461-0.57031 5.6406 0.011719 9.8086 3.9141 19.211 10.852 26.148 6.9336 6.9336 16.34 10.836 26.148 10.848v7.4023c0 16.078 3.1445 32.008 9.25 46.883l-36.68 36.68c-2.7852 2.7852-2.9023 7.2578-0.26953 10.184l12.16 13.461c2.125 2.3594 4.2383 4.625 6.3125 6.6602 2.0703 2.0352 4.0625 4.0625 5.8477 5.6367h-0.003906c0.32031 0.36719 0.66797 0.71094 1.043 1.0195 1.5391 1.3828 3.0703 2.7617 4.6562 4.0977l2.5078 2.0938c1.0508 0.91797 2.1328 1.7539 3.2266 2.5898l1.043 0.80469 0.066407 0.042969 0.3125 0.25c3.9648 3.0938 7.3984 5.5195 10.359 7.4453 2.2188 1.582 4.5273 3.0273 6.7578 4.3594 2.4922 1.582 5.0391 3.0703 7.3984 4.2773l0.62109 0.34766 0.125 0.066407v0.007812c2.5117 1.4688 5.1016 2.8008 7.7617 3.9883l0.19141 0.097657 0.10547 0.050781c1.8867 0.97656 3.7656 1.8789 5.2773 2.5312l-0.003906-0.003906c0.38281 0.1875 0.77344 0.34766 1.1797 0.48438h0.050781l1.1016 0.47266c1.6445 0.73828 3.2617 1.4141 5.2891 2.2188 2.0273 0.80469 4.0469 1.5898 6.0469 2.3008 1.0742 0.38672 2.1445 0.73828 3.2188 1.082 0.41406 0.16797 0.83594 0.30859 1.2656 0.42187h0.050781c2.2188 0.82031 4.5195 1.4805 6.8086 2.1602 2.8711 0.85938 5.75 1.5625 8.4727 2.2188 2.1016 0.57031 4.2852 1.0586 6.1992 1.4219 2.5078 0.54688 5.0977 1.0195 7.5703 1.4062h0.003906c10.074 1.6211 20.266 2.4336 30.469 2.4336 5.0625 0 10.152-0.20703 15.242-0.61328 5.0898-0.40625 10.184-1.0273 15.242-1.8516 2.4922-0.39062 5.0703-0.85938 7.3984-1.3672 2.0938-0.39844 4.2773-0.88672 6.1484-1.3984 2.9609-0.69531 5.832-1.3984 8.6445-2.2188 2.3398-0.67188 4.6094-1.3555 6.8672-2.1758h0.003906c0.44531-0.12109 0.88281-0.26953 1.3086-0.4375 1.0742-0.31641 2.1445-0.69531 3.1953-1.0742 2.0273-0.73828 4.0469-1.4805 6.4453-2.4492h0.074218l0.67188-0.28125c1.3984-0.5625 2.7734-1.1484 4.168-1.7461l1.6406-0.71094c2.0273-0.84375 4.0312-1.7969 5.7109-2.6797l0.35547-0.17188h0.066406l0.003906 0.003906c2.6953-1.1992 5.3242-2.5469 7.8672-4.0391h0.058593l0.16406-0.082031 1.1602-0.64453c2.2656-1.2656 4.5586-2.5469 6.5469-3.8164 1.9922-1.2734 3.9297-2.375 5.793-3.6992l0.003906-0.003906c0.41797-0.22656 0.81641-0.49219 1.1914-0.78906 0.73828-0.44531 1.4297-0.93359 2.1172-1.4219l0.73828-0.51953 0.26562-0.19141c1.4336-0.93359 2.8398-1.9688 3.9961-2.8711l0.15625-0.10938 0.13281-0.10547c1.0156-0.73828 1.9766-1.4805 2.7227-2.043 1.1094-0.79297 2.1445-1.6484 3.1758-2.5234 0.49609-0.35547 1.0078-0.73828 1.5547-1.2227l2.9023-2.418c0.44531-0.37891 0.85156-0.73828 1.332-1.1914 0.19141-0.14844 0.38672-0.3125 0.53125-0.44531l3.457-3.168-0.003907 0.003906c0.15625-0.14062 0.30078-0.28906 0.4375-0.44531 1.9102-1.6719 3.6992-3.418 5.3555-5.1211 2.2734-2.2188 4.3867-4.4414 6.5039-6.8164l12.137-13.469v0.003906c2.6328-2.9258 2.5156-7.3984-0.26562-10.184l-36.672-36.812c6.1016-14.875 9.2461-30.797 9.25-46.875v-7.4023c9.8086-0.011719 19.211-3.9141 26.148-10.848 6.9375-6.9375 10.836-16.34 10.848-26.148-0.039063-1.8945-0.23047-3.7773-0.56641-5.6406 6.875-3.875 12.605-9.5039 16.605-16.312 3.9961-6.8086 6.125-14.551 6.1602-22.445-0.003907-3.4805-0.43359-6.9492-1.2773-10.324 11.266-9.2852 17.215-23.535 15.895-38.074-1.3164-14.539-9.7305-27.488-22.48-34.598 0.30469-1.918 0.46094-3.8594 0.46484-5.8008-0.011719-11.773-4.6914-23.059-13.016-31.383s-19.609-13.004-31.383-13.016c-9.3008-0.023438-18.371 2.9102-25.898 8.375-9.668-6.9766-21.746-9.7617-33.492-7.7148-11.75 2.043-22.176 8.7422-28.918 18.578l-0.14844-0.25-15.82-27.691-22.492-39.395c-1.4258-2.1602-3.8398-3.457-6.4258-3.457s-4.9961 1.2969-6.4219 3.457l-33.086 57.895-5.3633 9.4414c-6.7461-9.832-17.176-16.531-28.926-18.574-11.746-2.043-23.824 0.73438-33.496 7.7109-7.5273-5.4648-16.598-8.3984-25.898-8.375-11.773 0.011718-23.059 4.6914-31.383 13.016s-13.004 19.609-13.016 31.383c0.003906 1.9414 0.16016 3.8828 0.46484 5.8008-6.8945 3.8086-12.633 9.4023-16.621 16.191-3.9883 6.793-6.0781 14.531-6.043 22.406zm51.797 88.797c0-5.8906 2.3398-11.535 6.5-15.699 4.1641-4.1641 9.8125-6.5 15.699-6.5h0.25c-0.14844 2.457-0.25 4.9219-0.25 7.3984v37c-5.8867 0-11.535-2.3398-15.699-6.5039-4.1602-4.1641-6.5-9.8086-6.5-15.695zm50.48-67.656 7.0977 5.6836c5.7852-7.2422 14.551-11.457 23.816-11.457 9.2695 0 18.035 4.2148 23.82 11.457l11.559-9.25c-6.5469-8.1914-15.734-13.852-25.992-16.012-10.262-2.1562-20.953-0.68359-30.246 4.1719 8.8164-11.297 19.734-20.785 32.152-27.934h110.62c8.4766 4.8438 16.277 10.781 23.207 17.656 2.8984 2.9336 5.6367 6.0234 8.1992 9.2539-9.2656-4.5898-19.82-5.875-29.914-3.6406-10.098 2.2344-19.125 7.8516-25.582 15.926l11.559 9.25h-0.003906c5.793-7.2344 14.555-11.445 23.82-11.445s18.031 4.2109 23.82 11.445l6.957-5.5664c8.9609 16.34 13.645 34.68 13.621 53.316v59.199c0.054687 15.77-3.3164 31.359-9.8789 45.699-4.1445 9.4102-9.6523 18.164-16.344 25.973-16.141 19.125-38.277 32.223-62.809 37.16-14.496 2.8633-29.41 2.8633-43.902 0-24.574-4.9258-46.75-18.051-62.898-37.219-6.6953-7.8242-12.207-16.586-16.355-26.012-6.5234-14.312-9.8672-29.871-9.8008-45.602v-59.199c0.015626-18.469 4.6523-36.637 13.48-52.855zm69.453-90.277 47.137-15.719 8.0938 14.164-64.598 17.945zm62.84 11.664 11.668 20.473h-85.398zm-22.016 345.57c-8.4805 0.62109-16.996 0.62109-25.477 0-1.1758-0.082031-2.3594-0.20703-3.5352-0.31641-1.5703-0.14844-3.1289-0.37891-4.6992-0.57031l3.9375-29.473-0.003907-0.003906c11.297 1.7227 22.789 1.7227 34.086 0l3.9375 29.488c-1.5625 0.18359-3.1172 0.41406-4.6758 0.5625-1.2227 0.066406-2.4141 0.19922-3.6016 0.28125zm-143.12-57.594-7.3984-8.2422 27.898-27.898h-0.003906c3.0352 5.4844 6.5 10.719 10.359 15.656l-20.555 30.836c-1.4805-1.3242-2.8945-2.6719-4.4414-4.2852-2.0938-1.9453-3.9727-3.9648-5.8594-6.0664zm23.066 21.391-0.33594-0.30078-1.1602-0.89453-0.082032-0.066406 19.336-29.023c5.4453 5.4961 11.391 10.473 17.758 14.867l-12.082 30.703-0.26562-0.14062-0.4375-0.23828c-2.3086-1.207-4.5664-2.5234-6.9102-4.0117-2.0508-1.2344-4.0391-2.4648-6.2656-4.0391-2.8945-1.875-5.9219-4.0508-9.5547-6.8555zm58.711 29.805c-2.1445-0.62109-4.2266-1.3086-6.3047-2.0039h-0.003906c-0.27344-0.10156-0.55078-0.19141-0.83594-0.26562-0.24219-0.09375-0.48828-0.17578-0.73828-0.24219-0.87891-0.25781-1.7617-0.57812-2.6641-0.90234-1.8711-0.66016-3.7461-1.3984-5.918-2.2188-1.7227-0.70312-3.5352-1.4805-5.4844-2.3086l11.582-29.422-0.003906-0.003906c8.6523 4.5938 17.82 8.1484 27.305 10.582l-3.957 29.977c-1.5898-0.31641-3.2266-0.66406-5.0156-1.1484-2.6719-0.61719-5.2539-1.2461-7.9336-2.0391zm107.61-3.4023c-0.875 0.3125-1.7539 0.62891-3.2031 1.125-0.28125 0.058593-0.73828 0.18359-0.99219 0.27344-2.0781 0.69531-4.1602 1.3828-6.3633 2.0273-2.5977 0.73828-5.1797 1.3984-8.1016 2.0859-1.5234 0.41406-3.1289 0.73828-4.7891 1.0938l-4.0117-30.02v0.003906c9.4883-2.4336 18.652-5.9844 27.305-10.582l11.582 29.422c-1.8555 0.80078-3.6992 1.5898-5.7656 2.418-1.8516 0.74219-3.7227 1.4805-5.6328 2.1523zm38.938-19.734h-0.003906c-0.25781 0.14844-0.50391 0.3125-0.73828 0.49609-0.19141 0.10938-0.37891 0.23828-0.5625 0.36328-1.6719 1.207-3.418 2.2734-5.4258 3.4648-2.0039 1.1914-3.9883 2.3672-6 3.4922l-1.1016 0.61328-0.34766 0.18359-12.082-30.703-0.003906 0.003906c6.3672-4.3945 12.312-9.375 17.762-14.867l19.328 28.992c-1.4805 1.1484-2.9062 2.3086-4.3867 3.3945-1.332 0.98438-2.5898 1.8945-3.9297 2.8047-0.15625 0.10938-0.31641 0.23047-0.47266 0.36328l-0.52344 0.37109c-0.45703 0.35547-0.95312 0.71875-1.4844 1.0273zm32.359-28.051c-1.8789 2.0938-3.7578 4.1133-5.9805 6.2734-1.3672 1.4219-2.7656 2.7305-4.2539 4.0547l-20.551-30.828v0.003907c3.8594-4.9336 7.3242-10.164 10.359-15.645l27.891 27.891zm-4.5312-119.51v-37c0-2.4844-0.21484-4.9375-0.36328-7.3984h0.36328c7.9297 0 15.258 4.2305 19.223 11.098 3.9688 6.8711 3.9688 15.332 0 22.199-3.9648 6.8672-11.293 11.102-19.223 11.102zm-44.398-184.99c7.7617-0.019531 15.215 3.043 20.719 8.5156 2.8828 2.8477 7.5195 2.8477 10.402 0 5.4961-5.4609 12.93-8.5234 20.676-8.5156 9.3242-0.17969 18.168 4.1289 23.773 11.586 5.6055 7.4531 7.2891 17.145 4.5312 26.055-1.0117 3.6758 0.93359 7.5195 4.5 8.8789 6.875 2.6016 12.523 7.6836 15.836 14.246 3.3164 6.5586 4.0547 14.121 2.0664 21.199-1.9844 7.0781-6.5469 13.156-12.789 17.035-2.9727 1.8789-4.2109 5.5898-2.9609 8.8789 2.4609 6.2539 2.6875 13.164 0.64453 19.566-2.0469 6.3984-6.2383 11.898-11.871 15.566-6.7422-10.691-18.488-17.188-31.129-17.219h-2.043c-4.4531-25.316-16.598-48.645-34.777-66.82-7.0469-6.9805-14.887-13.113-23.355-18.277l-11.988-20.977c2.0039-5.7656 5.7539-10.766 10.73-14.301 4.9766-3.5312 10.93-5.4297 17.035-5.418zm-69.809-24-4.4766 1.4805-24.133 8.0664 17.02-29.828zm-177.59 70.496c3.5625-1.3555 5.5117-5.1992 4.5-8.8789-2.7539-8.9062-1.0625-18.594 4.543-26.043 5.6055-7.4492 14.445-11.754 23.77-11.574 7.7617-0.019531 15.215 3.043 20.719 8.5156 2.8828 2.8477 7.5195 2.8477 10.402 0 7.1758-7.0977 17.484-10.031 27.324-7.7656 9.8359 2.2617 17.828 9.4023 21.18 18.926l-12.055 21.02c-30.625 18.777-51.777 49.738-58.129 85.098h-2.043c-12.645 0.023437-24.395 6.5156-31.145 17.203-5.6328-3.668-9.8242-9.1641-11.871-15.566-2.043-6.4023-1.8164-13.312 0.64453-19.566 1.25-3.2852 0.011718-7-2.9609-8.8789-6.2422-3.8789-10.805-9.957-12.789-17.035-1.9883-7.0742-1.25-14.641 2.0625-21.199 3.3164-6.5625 8.9648-11.645 15.84-14.246z"/>
  <path d="m376 435.2c9.8125 0 19.227-3.8984 26.164-10.836s10.836-16.352 10.836-26.164-3.8984-19.223-10.836-26.16-16.352-10.836-26.164-10.836-19.223 3.8984-26.16 10.836-10.836 16.348-10.836 26.16c0.011719 9.8086 3.9141 19.215 10.848 26.148 6.9375 6.9375 16.34 10.84 26.148 10.852zm0-59.199c5.8906 0 11.535 2.3398 15.699 6.5039 4.1641 4.1641 6.5 9.8086 6.5 15.695 0 5.8906-2.3359 11.535-6.5 15.699-4.1641 4.1641-9.8086 6.5-15.699 6.5-5.8867 0-11.531-2.3359-15.695-6.5-4.1641-4.1641-6.5039-9.8086-6.5039-15.699 0-5.8867 2.3398-11.531 6.5039-15.695 4.1641-4.1641 9.8086-6.5039 15.695-6.5039z"/>
  <path d="m302 381.34v16.855h14.801v-16.855c2.2109-1.2891 4.0547-3.1289 5.3398-5.3438h16.859v-14.797h-16.859c-1.2852-2.2148-3.1289-4.0547-5.3398-5.3438v-16.855h-14.801v16.855c-2.2109 1.2891-4.0547 3.1289-5.3438 5.3438h-16.855v14.801h16.855v-0.003906c1.2891 2.2148 3.1328 4.0547 5.3438 5.3438z"/>
  <path d="m435.2 381.34v16.855h14.801v-16.855c2.2109-1.2891 4.0508-3.1289 5.3398-5.3438h16.859v-14.797h-16.859c-1.2891-2.2148-3.1289-4.0547-5.3398-5.3438v-16.855h-14.801v16.855c-2.2148 1.2891-4.0547 3.1289-5.3438 5.3438h-16.855v14.801h16.855v-0.003906c1.2891 2.2148 3.1289 4.0547 5.3438 5.3438z"/>
  <path d="m441.05 439.91c-10.117-6.0703-22.703-6.293-33.031-0.58594-19.938 10.961-44.098 10.961-64.035 0-10.465-5.7148-23.184-5.418-33.367 0.78516-10.184 6.2031-16.281 17.367-16 29.289s6.8984 22.785 17.363 28.504c39.863 21.891 88.148 21.891 128.01 0 6.9258-3.7852 12.289-9.8984 15.133-17.262 2.8438-7.3594 2.9883-15.488 0.40625-22.949-2.582-7.457-7.7227-13.758-14.508-17.781zm-8.1406 45.004h0.003906c-35.453 19.48-78.402 19.48-113.85 0-5.8242-3.1797-9.5117-9.2305-9.668-15.863s3.2383-12.848 8.9062-16.301 12.746-3.6211 18.57-0.4375c24.359 13.383 53.871 13.383 78.23 0 5.8242-3.1836 12.902-3.0156 18.57 0.4375s9.0625 9.668 8.9062 16.301-3.8398 12.684-9.6641 15.863z"/>
  <path d="m328.5 459.23-8.5977 12.047h-0.003906c16.371 11.688 35.984 17.973 56.098 17.973 20.117 0 39.73-6.2852 56.098-17.973l-8.5977-12.047c-13.859 9.8984-30.465 15.223-47.5 15.223-17.031 0-33.637-5.3242-47.496-15.223z"/>
 </g>
</svg>
