<?xml version="1.0" encoding="UTF-8"?>
<svg width="752pt" height="752pt" version="1.1" viewBox="0 0 752 752" xmlns="http://www.w3.org/2000/svg">
 <g fill="#221f20">
  <path d="m297.05 578.08c-21.629-0.007813-42.156-9.5312-56.129-26.047-13.969-16.512-19.961-38.336-16.383-59.668 3.5781-21.328 16.363-40.004 34.957-51.055v-229.88c0.46484-13.094 7.7188-24.996 19.141-31.41 11.422-6.418 25.359-6.418 36.781 0 11.422 6.4141 18.676 18.316 19.141 31.41v229.88c18.594 11.051 31.379 29.727 34.957 51.055 3.5781 21.332-2.4141 43.156-16.383 59.668-13.969 16.516-34.5 26.039-56.129 26.047zm0-396.25c-7.8242 0-15.328 3.1094-20.863 8.6445-5.5312 5.5312-8.6406 13.035-8.6406 20.859v232.05c-0.007812 1.4609-0.80469 2.8008-2.082 3.5039-17.117 9.375-29.164 25.895-32.855 45.059-3.6914 19.16 1.3516 38.973 13.762 54.035s30.887 23.809 50.402 23.852c19.516 0.042968 38.035-8.6172 50.512-23.625 12.477-15.004 17.613-34.793 14.004-53.973-3.6055-19.18-15.574-35.754-32.648-45.203-1.2812-0.70312-2.0781-2.0469-2.0859-3.5039v-232.05c0.039062-7.8516-3.0547-15.391-8.5898-20.957-5.5391-5.5625-13.062-8.6914-20.914-8.6914z"/>
  <path d="m233.93 423.07h-15.391c-2.2227 0-4.0234-1.8008-4.0234-4.0234 0-2.2227 1.8008-4.0273 4.0234-4.0273h15.391c2.2227 0 4.0273 1.8047 4.0273 4.0273 0 2.2227-1.8047 4.0234-4.0273 4.0234z"/>
  <path d="m233.93 394.95h-15.391c-2.2227 0-4.0234-1.8047-4.0234-4.0273 0-2.2227 1.8008-4.0234 4.0234-4.0234h15.391c2.2227 0 4.0273 1.8008 4.0273 4.0234 0 2.2227-1.8047 4.0273-4.0273 4.0273z"/>
  <path d="m233.93 366.77h-15.391c-2.2227 0-4.0234-1.8008-4.0234-4.0234 0-2.2227 1.8008-4.0273 4.0234-4.0273h15.391c2.2227 0 4.0273 1.8047 4.0273 4.0273 0 2.2227-1.8047 4.0234-4.0273 4.0234z"/>
  <path d="m233.93 338.64h-15.391c-2.2227 0-4.0234-1.8047-4.0234-4.0273s1.8008-4.0234 4.0234-4.0234h15.391c2.2227 0 4.0273 1.8008 4.0273 4.0234s-1.8047 4.0273-4.0273 4.0273z"/>
  <path d="m233.93 310.5h-15.391c-2.2227 0-4.0234-1.8008-4.0234-4.0234 0-2.2227 1.8008-4.0273 4.0234-4.0273h15.391c2.2227 0 4.0273 1.8047 4.0273 4.0273 0 2.2227-1.8047 4.0234-4.0273 4.0234z"/>
  <path d="m233.93 282.38h-15.391c-2.2227 0-4.0234-1.8047-4.0234-4.0273s1.8008-4.0234 4.0234-4.0234h15.391c2.2227 0 4.0273 1.8008 4.0273 4.0234s-1.8047 4.0273-4.0273 4.0273z"/>
  <path d="m233.93 254.24h-15.391c-2.2227 0-4.0234-1.8008-4.0234-4.0234s1.8008-4.0273 4.0234-4.0273h15.391c2.2227 0 4.0273 1.8047 4.0273 4.0273s-1.8047 4.0234-4.0273 4.0234z"/>
  <path d="m233.93 226.11h-15.391c-2.2227 0-4.0234-1.8008-4.0234-4.0273 0-2.2227 1.8008-4.0234 4.0234-4.0234h15.391c2.2227 0 4.0273 1.8008 4.0273 4.0234 0 2.2266-1.8047 4.0273-4.0273 4.0273z"/>
  <path d="m297.86 555.3c-16.07 0.046875-31.211-7.5273-40.816-20.414-9.6016-12.887-12.531-29.562-7.8906-44.949s16.297-27.664 31.422-33.098v-93.246c0.3125-5.9531 3.668-11.324 8.8828-14.215 5.2109-2.8906 11.547-2.8906 16.762 0 5.2109 2.8906 8.5664 8.2617 8.8789 14.215v93.246c15.121 5.4297 26.777 17.703 31.418 33.082 4.6445 15.379 1.7266 32.051-7.8672 44.938-9.5898 12.891-24.723 20.473-40.789 20.441zm0-200.89c-5.0469 0.125-9.1094 4.1875-9.2344 9.2344v96.137c0.011719 1.793-1.168 3.3789-2.8867 3.8828-13.211 3.9102-23.715 13.965-28.199 26.988-4.4883 13.027-2.4023 27.414 5.5977 38.629 8 11.219 20.926 17.875 34.699 17.875 13.777 0 26.703-6.6562 34.703-17.875 7.9961-11.215 10.082-25.602 5.5977-38.629-4.4883-13.023-14.992-23.078-28.199-26.988-1.7227-0.50391-2.8984-2.0898-2.8906-3.8828v-96.184c-0.12109-5.0312-4.1562-9.0859-9.1875-9.2344z"/>
  <path d="m451.3 537.54c-2.2227 0-4.0273-1.8008-4.0273-4.0234v-92.633c0-2.2227 1.8047-4.0273 4.0273-4.0273 2.2227 0 4.0273 1.8047 4.0273 4.0273v92.633c0 1.0664-0.42578 2.0898-1.1797 2.8438-0.75781 0.75781-1.7812 1.1797-2.8477 1.1797z"/>
  <path d="m451.3 544.12c-1.0664 0-2.0898-0.42578-2.8398-1.1836l-20.98-20.98v0.003907c-0.82812-0.73828-1.3164-1.7852-1.3516-2.8906-0.03125-1.1094 0.39453-2.1836 1.1797-2.9648 0.78125-0.78516 1.8555-1.2109 2.9648-1.1797 1.1055 0.035157 2.1523 0.52344 2.8906 1.3516l18.137 18.137 18.137-18.137c1.5938-1.418 4.0156-1.3477 5.5234 0.16016 1.5039 1.5078 1.5781 3.9297 0.16016 5.5234l-20.98 20.977c-0.75 0.75781-1.7734 1.1836-2.8398 1.1836z"/>
  <path d="m451.77 274.8c-1.0664-0.003906-2.0859-0.42969-2.8398-1.1836l-19.371-19.371c-0.82812-0.73438-1.3164-1.7812-1.3477-2.8906-0.035156-1.1055 0.39062-2.1797 1.1758-2.9648 0.78516-0.78125 1.8555-1.207 2.9648-1.1758s2.1562 0.51953 2.8906 1.3516l16.527 16.527 16.527-16.527c1.5938-1.418 4.0156-1.3477 5.5234 0.16016 1.5039 1.5078 1.5781 3.9297 0.16016 5.5195l-19.371 19.371h0.003907c-0.75391 0.75391-1.7773 1.1797-2.8438 1.1836z"/>
  <path d="m471.29 402.47c-1.0664 0-2.0859-0.42578-2.8398-1.1836l-16.672-16.48-16.527 16.527v0.003906c-0.73438 0.82812-1.7812 1.3164-2.8906 1.3477s-2.1797-0.39453-2.9648-1.1758c-0.78516-0.78516-1.2109-1.8594-1.1758-2.9648 0.03125-1.1094 0.51953-2.1562 1.3477-2.8906l19.371-19.371c1.5898-1.5156 4.0898-1.5156 5.6836 0l19.371 19.371h-0.003906c1.1484 1.1484 1.4922 2.8789 0.87109 4.3789-0.625 1.5039-2.0859 2.4844-3.7109 2.4883z"/>
  <path d="m451.77 410.53c-2.2227 0-4.0234-1.8047-4.0234-4.0273v-163.1c0-2.2227 1.8008-4.0234 4.0234-4.0234 2.2227 0 4.0273 1.8008 4.0273 4.0234v163.1c0 1.0664-0.42578 2.0898-1.1797 2.8477-0.75391 0.75391-1.7773 1.1797-2.8477 1.1797z"/>
  <path d="m413.61 290.76h-27.375c-2.2227 0-4.0234-1.8047-4.0234-4.0273 0-2.2227 1.8008-4.0234 4.0234-4.0234h23.348v-23.441c0-2.2266 1.8008-4.0273 4.0273-4.0273 2.2227 0 4.0234 1.8008 4.0234 4.0273v27.371c0.027344 1.082-0.38672 2.1328-1.1445 2.9062-0.75781 0.77734-1.7969 1.2148-2.8789 1.2148z"/>
  <path d="m490.18 394.66c-2.2266 0-4.0273-1.8008-4.0273-4.0234v-27.422c0-2.2227 1.8008-4.0273 4.0273-4.0273h27.418c2.2227 0 4.0273 1.8047 4.0273 4.0273s-1.8047 4.0234-4.0273 4.0234h-23.203v23.348c0.011718 1.1094-0.43359 2.1758-1.2305 2.9492-0.79688 0.76953-1.8789 1.1758-2.9844 1.125z"/>
  <path d="m509.55 386.61c-1.0664-0.003906-2.0898-0.42969-2.8398-1.1836l-115.32-115.32c-0.83203-0.73828-1.3203-1.7812-1.3516-2.8906s0.39453-2.1797 1.1758-2.9648c0.78516-0.78516 1.8594-1.2109 2.9648-1.1797 1.1094 0.035156 2.1562 0.52344 2.8906 1.3516l115.32 115.32c1.1445 1.1523 1.4883 2.8789 0.86719 4.3828-0.62109 1.5-2.0859 2.4805-3.7109 2.4844z"/>
  <path d="m517.6 290.76h-27.418c-2.2266 0-4.0273-1.8047-4.0273-4.0273v-27.465c0-2.2266 1.8008-4.0273 4.0273-4.0273 2.2227 0 4.0234 1.8008 4.0234 4.0273v23.348l23.395-0.003906c2.2227 0 4.0273 1.8047 4.0273 4.0273 0 2.2227-1.8047 4.0273-4.0273 4.0273z"/>
  <path d="m413.61 394.66c-2.2266 0-4.0273-1.8008-4.0273-4.0234v-23.398h-23.348c-2.2227 0-4.0234-1.8008-4.0234-4.0234s1.8008-4.0273 4.0234-4.0273h27.375c2.2227 0 4.0234 1.8047 4.0234 4.0273v27.371c0.011719 1.0781-0.40625 2.1133-1.1602 2.8789-0.75781 0.76562-1.7891 1.1953-2.8633 1.1953z"/>
  <path d="m394.23 386.61c-1.625-0.003906-3.0898-0.98438-3.7109-2.4844-0.62109-1.5039-0.27734-3.2305 0.87109-4.3828l115.32-115.32c0.73437-0.82812 1.7812-1.3164 2.8906-1.3516 1.1055-0.03125 2.1797 0.39453 2.9648 1.1797 0.78125 0.78516 1.207 1.8555 1.1758 2.9648s-0.51953 2.1523-1.3477 2.8906l-115.32 115.36c-0.75781 0.73828-1.7812 1.1484-2.8398 1.1367z"/>
  <path d="m378.37 348.34c-1.625-0.003906-3.0898-0.98438-3.7109-2.4844-0.62109-1.5039-0.28125-3.2305 0.86719-4.3828l16.527-16.527-16.527-16.527c-1.4141-1.5938-1.3438-4.0156 0.16406-5.5195 1.5078-1.5078 3.9258-1.5781 5.5195-0.16406l19.371 19.371c1.5625 1.5703 1.5625 4.1094 0 5.6797l-19.371 19.371c-0.75391 0.75391-1.7734 1.1797-2.8398 1.1836z"/>
  <path d="m525.42 348.34c-1.0703-0.003906-2.0898-0.42969-2.8438-1.1836l-19.371-19.371h0.003906c-1.5664-1.5703-1.5664-4.1094 0-5.6797l19.605-19.371c0.73438-0.82812 1.7812-1.3164 2.8906-1.3477 1.1055-0.035156 2.1797 0.39062 2.9648 1.1758 0.78125 0.78516 1.207 1.8555 1.1758 2.9648s-0.51953 2.1523-1.3477 2.8906l-16.527 16.527 16.527 16.527c1.1445 1.1523 1.4883 2.8789 0.86719 4.3828-0.62109 1.5-2.0859 2.4805-3.7109 2.4844z"/>
  <path d="m533.47 328.98h-163.1c-2.2227 0-4.0273-1.8047-4.0273-4.0273 0-2.2227 1.8047-4.0234 4.0273-4.0234h163.1c2.2227 0 4.0234 1.8008 4.0234 4.0234 0 2.2227-1.8008 4.0273-4.0234 4.0273z"/>
 </g>
</svg>
