<?xml version="1.0" encoding="UTF-8"?>
<svg width="752pt" height="752pt" version="1.1" viewBox="0 0 752 752" xmlns="http://www.w3.org/2000/svg">
 <g>
  <path d="m298.76 383.66c-1.375 0.003906-2.7031-0.5-3.7344-1.4141l-36.379-32.16c-1.1719-1.0352-1.8633-2.5117-1.9023-4.0781-0.039063-1.5625 0.57031-3.0742 1.6875-4.1719l61.984-60.805c1.332-1.3086 3.2305-1.8711 5.0664-1.5039l56.59 11.453h-0.003907c2.043 0.41406 3.6875 1.9141 4.2852 3.9102 0.59766 1.9922 0.046875 4.1562-1.4336 5.6211l-82.188 81.516c-1.0547 1.0469-2.4844 1.6367-3.9727 1.6328zm-28.109-38.016 27.887 24.656 70.941-70.359-43.309-8.7656z"/>
  <path d="m466.93 494.09c-6.6758 0.007812-13.062-2.707-17.691-7.5117l-127.46-131.47c-2.1719-2.2344-2.1172-5.8047 0.12109-7.9727 2.2344-2.168 5.8047-2.1133 7.9727 0.12109l127.46 131.46v0.003907c3.8086 3.9258 9.6172 5.1523 14.688 3.0977 5.0703-2.0547 8.3906-6.9805 8.3906-12.449v-1.9062c-0.003906-3.8555-1.6602-7.5234-4.5508-10.074l-135.84-119.76c-1.125-0.99219-1.8047-2.3828-1.8984-3.8789-0.09375-1.4922 0.40625-2.9609 1.3945-4.082 2.0625-2.3359 5.625-2.5586 7.9609-0.5l135.84 119.76c5.3203 4.6914 8.3672 11.441 8.3711 18.535v1.9062-0.003906c0.007812 6.0938-2.2383 11.973-6.3086 16.508-4.0664 4.5352-9.668 7.4062-15.723 8.0586-0.90625 0.097657-1.8203 0.14844-2.7305 0.14844z"/>
  <path d="m268.41 498.86h-0.11719c-1.5352-0.03125-2.9922-0.6875-4.0312-1.8203l-15.496-16.84c-2.0898-2.2734-1.9609-5.8047 0.28516-7.9219l42.438-39.973c2.2617-2.1289 5.8203-2.0273 7.957 0.22656 10.523 10.211 22.883 18.332 36.43 23.941 28.754 11.68 56.547 8.0195 82.605-10.867v0.003906c2.5195-1.8281 6.0469-1.2656 7.875 1.2578 1.8281 2.5195 1.2617 6.0469-1.2578 7.875-36.801 26.672-71.352 21.258-93.855 12.023-13.133-5.4922-25.266-13.125-35.902-22.59l-34.5 32.488 7.7422 8.4141 25.484-25.484c1.8945-1.8906 4.8594-2.1914 7.0938-0.71875 0.375 0.24609 38.133 24.836 72.348 24.836 16.199 0 42.941-4.7422 64.988-18.105 2.6641-1.6172 6.1328-0.76562 7.7461 1.8945 1.6172 2.6641 0.76562 6.1328-1.8984 7.7461-24.012 14.555-52.336 19.738-70.836 19.738-31.223 0-63.57-17.625-74.629-24.254l-26.48 26.48v0.003906c-1.0586 1.0547-2.4922 1.6445-3.9883 1.6445z"/>
  <path d="m469.71 450.11c-2.1055-0.003907-4.0312-1.1758-5-3.043s-0.81641-4.1211 0.39062-5.8398c8.2812-11.773 13.254-25.781 14.777-41.645h0.003906c0.44531-4.6602 0.60938-9.3398 0.49219-14.02-0.5-21.504-5.75-40.141-15.609-55.398-0.050781-0.074218-0.10547-0.14453-0.15234-0.22266v0.003906c-7.6484-11.684-17.906-21.43-29.965-28.465 5.9258 6.4336 11.348 13.312 16.227 20.574 25.242 37.809 25.73 74.641 1.3945 106.51v-0.003906c-0.90234 1.2109-2.2461 2.0078-3.7383 2.2148-1.4922 0.21094-3.0078-0.1875-4.2031-1.1016-1.1992-0.91406-1.9805-2.2695-2.1719-3.7617-0.19141-1.4961 0.22266-3.0039 1.1484-4.1914 21.434-28.074 20.824-59.5-1.8125-93.402v-0.003906c-8.8906-13.094-19.555-24.895-31.691-35.055-1.7617-1.4648-3.3242-2.7031-4.625-3.6758-2.0977-1.5625-2.8438-4.3555-1.8086-6.7578 1.0352-2.3984 3.582-3.7695 6.1562-3.3164 0.15625 0.027344 1.582 0.28516 3.9609 0.91797 0.050781 0.011719 0.10156 0.023437 0.15234 0.039063 11.695 3.1094 40.926 13.531 60.277 43.098 0.054688 0.078125 0.10938 0.15625 0.16016 0.23438 11.109 17.082 17.023 37.777 17.574 61.512v-0.003907c0.12891 5.1328-0.050782 10.266-0.54297 15.371-1.7109 17.816-7.3594 33.648-16.781 47.039h0.003906c-1.0586 1.5039-2.7812 2.3984-4.6172 2.3945z"/>
  <path d="m338.96 293.66c-1.8789-0.003906-3.6289-0.9375-4.6758-2.4961-1.0469-1.5586-1.25-3.5352-0.54297-5.2734l37.039-90.887c0.86328-2.1211 2.9297-3.5078 5.2188-3.5078 2.293 0 4.3594 1.3867 5.2227 3.5078l36.086 88.566c0.79688 1.7461 0.65234 3.7734-0.38281 5.3867-1.0391 1.6133-2.8242 2.5898-4.7422 2.5938h-0.007812c-2.293 0-4.3555-1.3867-5.2227-3.5078l-30.949-75.965-31.816 78.07c-0.86719 2.125-2.9336 3.5117-5.2266 3.5117z"/>
  <path d="m259.77 560.51c-1.7344 0-3.3711-0.79688-4.4414-2.1602-1.0664-1.3633-1.4492-3.1445-1.0352-4.8242l17.301-70.301v-0.003906c0.74219-3.0234 3.7969-4.8711 6.8203-4.125 3.0234 0.74219 4.8711 3.7969 4.1289 6.8203l-13.996 56.867 94.387-58.586c1.2852-0.80469 2.8438-1.0547 4.3164-0.69531 1.4766 0.35938 2.7422 1.2969 3.5195 2.6016 0.77344 1.3086 0.98828 2.8672 0.59766 4.3359-0.39063 1.4648-1.3555 2.7109-2.6797 3.457l-105.95 65.766c-0.89453 0.55469-1.9219 0.84766-2.9727 0.84766z"/>
  <path d="m286.98 449.94c-1.4961 0-2.9297-0.59375-3.9883-1.6484-1.0586-1.0586-1.6523-2.4922-1.6523-3.9844v-0.007813c0.003906-0.45703 0.058594-0.90625 0.16797-1.3477l4.6367-18.875-101.86-85.996c-1.7539-1.4766-2.4375-3.8711-1.7266-6.0508 0.70703-2.1797 2.6641-3.7148 4.9531-3.8789l93.75-6.8359c3.1055-0.22656 5.8086 2.1094 6.0312 5.2148 0.22656 3.1055-2.1055 5.8047-5.2109 6.0312l-79.949 5.8281 93.961 79.328c1.6367 1.3828 2.3477 3.5742 1.8359 5.6562l-5.4492 22.156c-0.57812 2.5781-2.8633 4.4102-5.5039 4.4102z"/>
  <path d="m492.23 560.51c-1.0508 0-2.082-0.29297-2.9727-0.84766l-106.67-66.227h-0.003906c-2.6289-1.6484-3.4336-5.1133-1.793-7.75 1.6367-2.6406 5.0977-3.457 7.7422-1.832l94.922 58.93-13.523-54.953h-0.003906c-0.74219-3.0234 1.1055-6.0781 4.1289-6.8242 3.0234-0.74219 6.0781 1.1055 6.8242 4.1289l16.832 68.391c0.41406 1.6797 0.03125 3.4609-1.0391 4.8242-1.0703 1.3633-2.707 2.1602-4.4375 2.1602z"/>
  <path d="m485.5 405.76c-2.3672 0-4.4844-1.4805-5.2969-3.7031-0.8125-2.2227-0.15234-4.7188 1.6562-6.2461l68.012-57.418-80.883-5.8984c-3.0352-0.19531-5.3672-2.7617-5.2734-5.8047 0.097656-3.0391 2.5859-5.457 5.6289-5.4609h0.007812c0.13672 0 0.27344 0.003907 0.41016 0.015626l94.727 6.9102c2.2891 0.16406 4.2461 1.6992 4.9531 3.8789s0.027344 4.5742-1.7266 6.0508l-78.582 66.344h0.003906c-1.0156 0.86328-2.3047 1.332-3.6367 1.332z"/>
 </g>
</svg>
