<?xml version="1.0" encoding="UTF-8"?>
<svg width="752pt" height="752pt" version="1.1" viewBox="0 0 752 752" xmlns="http://www.w3.org/2000/svg">
 <g>
  <path d="m376 509.2c25.516 0 49.98-10.133 68.023-28.176 18.039-18.039 28.176-42.508 28.176-68.02s-10.137-49.98-28.176-68.02c-18.043-18.043-42.508-28.176-68.023-28.176-25.512 0-49.98 10.133-68.02 28.176-18.039 18.039-28.176 42.508-28.176 68.02 0.03125 25.504 10.176 49.953 28.207 67.988 18.035 18.035 42.484 28.18 67.988 28.207zm41.055-166.36c14.609 8.5742 26.199 21.469 33.164 36.91l-26.641 22.199 1.4805-8.7383h0.003906c0.85938-5.1445-1.2344-10.336-5.418-13.445-4.1836-3.1133-9.7617-3.6172-14.438-1.3125zm-41.055-11.234c9.4062 0.023438 18.73 1.6836 27.566 4.9062l-13.211 39.625c-1.8008 5.4023-0.125 11.355 4.2227 15.023 4.3516 3.6719 10.504 4.3164 15.52 1.6289l-1.5391 9.1133c-0.99219 5.7383 1.7266 11.477 6.793 14.344 5.0352 2.9219 11.363 2.3711 15.816-1.3867l24.094-20.074h-0.003907c4.6719 20 1.5781 41.027-8.6523 58.836-10.234 17.805-26.844 31.066-46.473 37.102l1.8789-11.121c1.1641-6.9844-1.4141-14.066-6.7969-18.668-5.3789-4.5977-12.777-6.043-19.496-3.8047-1.9336 0.64844-4.0664 0.14844-5.5078-1.293-1.4453-1.4414-1.9492-3.5742-1.3047-5.5078l3.6328-10.887c1.3906-4.1992 1.3672-8.7422-0.070312-12.926-1.4375-4.1875-4.207-7.7891-7.8867-10.25l-5.1055-3.4023c-2.1836-1.4492-3-4.2656-1.9297-6.6602l19.832-44.621c2.2227-5.0117 2.3125-10.715 0.24609-15.797s-6.1133-9.1016-11.207-11.137l-4.3008-1.7227h0.003906c4.5781-0.83594 9.2227-1.2773 13.879-1.3203zm-35.844 8.4297 20.77 8.3086h0.003907c1.3555 0.54688 2.4297 1.6211 2.9805 2.9766 0.54688 1.3555 0.52344 2.875-0.066406 4.2109l-19.824 44.621c-1.9414 4.3477-2.2812 9.2461-0.95312 13.82 1.3242 4.5742 4.2305 8.5312 8.1992 11.168l5.1133 3.4023c2.0117 1.3555 2.8789 3.8828 2.1211 6.1875l-3.625 10.879v-0.003907c-1.5898 4.7656-1.3438 9.9531 0.68359 14.547 2.0312 4.5938 5.7031 8.2656 10.301 10.297 4.5938 2.0312 9.7812 2.2773 14.543 0.6875 1.793-0.59766 3.7656-0.21484 5.1992 1.0156 1.4375 1.2266 2.1211 3.1172 1.8086 4.9766l-2.8047 16.805c-2.8555 0.30469-5.7305 0.46094-8.6055 0.46875-15.184-0.011719-30.059-4.3008-42.918-12.375l4.1211-16.48v0.003906c1.5195-6.0703 0.40625-12.496-3.0625-17.703l-7.5391-11.309v0.003906c-1.1602-1.7422-1.5273-3.8945-1.0156-5.9219l2.043-8.1836c1.4766-5.8867 0.47266-12.125-2.7734-17.254-3.2422-5.1328-8.4492-8.7109-14.402-9.9023l-13.164-2.625c5.9766-22.934 21.617-42.137 42.867-52.621zm-45.266 67.258 12.641 2.5234c1.9844 0.39453 3.7188 1.5859 4.8008 3.2969s1.418 3.7891 0.92578 5.75l-2.0391 8.1992c-1.5195 6.0703-0.40625 12.496 3.0625 17.699l7.5391 11.309c1.1602 1.7422 1.5273 3.8906 1.0156 5.918l-2.5547 10.215c-16.379-15.332-25.676-36.766-25.676-59.199 0-1.9297 0.15625-3.8164 0.28906-5.7109z"/>
  <path d="m272.41 524h-15.539c-0.95313-4.6328-2.793-9.0391-5.418-12.973l11.027-11.027 5.2305 5.2305 10.465-10.465-20.934-20.926-10.465 10.465 5.2383 5.2305-11.027 11.027 0.003906 0.003906c-3.9375-2.6289-8.3477-4.4688-12.98-5.4258v-15.539h7.3984v-14.801h-29.598v14.801h7.3984v15.539c-4.6328 0.95312-9.0352 2.793-12.973 5.418l-11.027-11.027 5.2383-5.2305-10.457-10.457-20.934 20.926 10.465 10.465 5.2305-5.2305 11.027 11.027-0.003906-0.003906c-2.6289 3.9336-4.4688 8.3398-5.4258 12.973h-15.539v-7.3984h-14.797v29.598h14.797v-7.4023h15.539c0.95312 4.6328 2.793 9.0391 5.418 12.973l-11.027 11.027-5.2305-5.2305-10.453 10.461 20.934 20.926 10.465-10.465-5.2383-5.2305 11.027-11.027-0.007813 0.003907c3.9375 2.625 8.3398 4.4648 12.973 5.4219v15.539h-7.3984v14.801h29.598v-14.801h-7.3984v-15.539c4.6328-0.95312 9.0352-2.793 12.973-5.4141l11.027 11.027-5.2383 5.2305 10.465 10.465 20.934-20.926-10.465-10.465-5.2305 5.2305-11.027-11.027h-0.003906c2.6289-3.9375 4.4688-8.3438 5.4258-12.98h15.539v7.3984h14.801l-0.003906-29.594h-14.797zm-51.797 29.598c-5.8906 0-11.535-2.3398-15.699-6.5-4.1641-4.1641-6.5-9.8125-6.5-15.699s2.3359-11.535 6.5-15.695c4.1641-4.1641 9.8086-6.5039 15.699-6.5039 5.8867 0 11.531 2.3398 15.695 6.5039 4.1641 4.1602 6.5039 9.8086 6.5039 15.695s-2.3398 11.535-6.5039 15.699c-4.1641 4.1602-9.8086 6.5-15.695 6.5z"/>
  <path d="m442.6 235.41v-29.598h-14.797v7.3984h-15.539c-0.95312-4.6328-2.793-9.0352-5.418-12.973l11.027-11.027 5.2305 5.2305 10.453-10.457-20.934-20.926-10.461 10.461 5.2383 5.2305-11.027 11.027c-3.9336-2.625-8.3359-4.4688-12.969-5.4258v-15.539h7.3984v-14.797h-29.598v14.797h7.3984v15.539c-4.6328 0.95703-9.0352 2.7969-12.973 5.418l-11.027-11.027 5.2383-5.2305-10.461-10.453-20.934 20.926 10.465 10.465 5.2305-5.2305 11.027 11.027v-0.007813c-2.6289 3.9375-4.4688 8.3398-5.4258 12.973h-15.539v-7.3984h-14.801v29.598h14.801v-7.3984h15.539c0.95312 4.6328 2.793 9.0352 5.418 12.973l-11.027 11.027-5.2305-5.2305-10.457 10.457 20.934 20.926 10.465-10.465-5.2383-5.2305 11.027-11.027-0.003906 0.003906c3.9375 2.625 8.3398 4.4688 12.973 5.4258v15.539h-7.3984v14.801h29.598v-14.801h-7.3984v-15.539c4.6289-0.95703 9.0352-2.793 12.969-5.418l11.027 11.027-5.2383 5.2305 10.465 10.465 20.934-20.926-10.465-10.465-5.2305 5.2305-11.027-11.027v0.003906c2.6289-3.9375 4.4688-8.3438 5.4258-12.98h15.539v7.3984zm-66.598 7.3984v0.003906c-5.8867 0-11.531-2.3398-15.695-6.5039-4.1641-4.1641-6.5039-9.8086-6.5039-15.695 0-5.8906 2.3398-11.535 6.5039-15.699 4.1641-4.1641 9.8086-6.5 15.695-6.5 5.8906 0 11.535 2.3359 15.699 6.5 4.1641 4.1641 6.5 9.8086 6.5 15.699 0 5.8867-2.3359 11.531-6.5 15.695-4.1641 4.1641-9.8086 6.5039-15.699 6.5039z"/>
  <path d="m583.19 524h-15.539c-0.95312-4.6328-2.7891-9.0391-5.4141-12.973l11.027-11.027 5.2305 5.2305 10.465-10.465-20.934-20.926-10.465 10.465 5.2383 5.2305-11.027 11.027v0.003906c-3.9375-2.6289-8.3438-4.4688-12.98-5.4258v-15.539h7.3984l0.003906-14.801h-29.598v14.801h7.3984v15.539c-4.6328 0.95312-9.0352 2.793-12.973 5.418l-11.027-11.027 5.2383-5.2305-10.465-10.465-20.93 20.934 10.465 10.465 5.2305-5.2305 11.027 11.027v-0.003906c-2.6289 3.9336-4.4688 8.3398-5.4258 12.973h-15.539v-7.3984h-14.801v29.598h14.801v-7.4023h15.539c0.95312 4.6328 2.793 9.0391 5.418 12.973l-11.027 11.027-5.2305-5.2305-10.457 10.461 20.934 20.926 10.465-10.465-5.2383-5.2305 11.027-11.027-0.003906 0.003907c3.9336 2.625 8.3398 4.4648 12.973 5.4219v15.539h-7.3984v14.801h29.598v-14.801h-7.4023v-15.539c4.6328-0.95312 9.0391-2.793 12.973-5.4141l11.027 11.027-5.2383 5.2305 10.465 10.465 20.934-20.926-10.465-10.465-5.2305 5.2305-11.027-11.027c2.6289-3.9375 4.4688-8.3438 5.4219-12.98h15.539v7.3984h14.801v-29.594h-14.801zm-51.797 29.598c-5.8867 0-11.535-2.3398-15.695-6.5-4.1641-4.1641-6.5039-9.8125-6.5039-15.699s2.3398-11.535 6.5039-15.695c4.1602-4.1641 9.8086-6.5039 15.695-6.5039s11.535 2.3398 15.699 6.5039c4.1602 4.1602 6.5 9.8086 6.5 15.695s-2.3398 11.535-6.5 15.699c-4.1641 4.1602-9.8125 6.5-15.699 6.5z"/>
  <path d="m376 583.19c-24.449 0.046875-48.637-4.9922-71.035-14.797l-5.918 13.562h-0.003906c24.043 10.457 49.965 15.906 76.18 16.012 26.219 0.10547 52.184-5.1328 76.309-15.398l-5.8086-13.602v0.003906c-22.035 9.4219-45.758 14.262-69.723 14.219z"/>
  <path d="m564.55 444.08c8.1758-40.293 3.25-82.145-14.059-119.44-17.309-37.293-46.09-68.074-82.137-87.848l-7.1055 12.98c33.277 18.254 59.844 46.672 75.82 81.102 15.977 34.43 20.523 73.066 12.977 110.26z"/>
  <path d="m291.59 249.31-7.0391-13.008v-0.003907c-36.305 19.664-65.34 50.465-82.82 87.875-17.477 37.406-22.48 79.438-14.27 119.9l14.504-2.9609c-7.5781-37.352-2.957-76.152 13.176-110.68 16.137-34.531 42.934-62.969 76.449-81.121z"/>
 </g>
</svg>
