<?xml version="1.0" standalone="no"?>
<!DOCTYPE svg PUBLIC "-//W3C//DTD SVG 20010904//EN"
 "http://www.w3.org/TR/2001/REC-SVG-20010904/DTD/svg10.dtd">
<svg version="1.0" xmlns="http://www.w3.org/2000/svg"
 width="512.000000pt" height="512.000000pt" viewBox="0 0 512.000000 512.000000"
 preserveAspectRatio="xMidYMid meet">

<g transform="translate(0.000000,512.000000) scale(0.100000,-0.100000)"
fill="#000000" stroke="none">
<path d="M2420 4989 c-340 -41 -674 -253 -867 -548 -20 -31 -38 -58 -39 -60
-2 -2 -29 16 -59 39 -79 61 -186 178 -245 268 -103 160 -96 152 -138 152 -36
0 -76 -30 -548 -408 -329 -264 -512 -418 -518 -434 -12 -34 0 -75 27 -92 13
-9 84 -21 172 -31 241 -25 307 -48 403 -139 66 -61 126 -151 180 -268 32 -70
46 -89 66 -94 29 -7 32 -6 155 26 98 26 222 24 306 -5 49 -16 52 -19 74 -78
13 -34 42 -97 63 -141 38 -76 39 -79 25 -115 -30 -76 -117 -400 -128 -480 -22
-156 5 -342 75 -516 l35 -86 -27 -10 c-172 -67 -337 -121 -382 -126 -107 -11
-253 49 -313 129 -60 79 -72 117 -72 218 0 83 4 103 27 153 16 34 54 86 92
126 81 83 108 140 108 231 1 121 -59 218 -168 271 -53 26 -76 32 -133 32 -97
0 -163 -33 -255 -125 -115 -116 -191 -240 -239 -393 -76 -241 -58 -482 53
-711 126 -259 346 -437 640 -515 69 -18 112 -23 225 -23 169 0 231 13 485 108
96 36 176 63 178 61 11 -11 162 -413 162 -432 0 -37 -16 -67 -126 -240 -59
-92 -113 -185 -120 -206 -8 -22 -14 -70 -14 -107 0 -122 82 -241 188 -271 110
-32 238 -7 315 61 49 43 252 353 297 455 61 134 81 320 51 459 -7 33 -117 326
-243 650 -175 451 -231 605 -235 651 l-6 60 91 -87 c87 -84 173 -148 227 -168
l25 -10 0 -183 c0 -171 1 -186 21 -211 27 -35 86 -36 117 -3 21 22 22 33 22
185 l0 162 110 0 110 0 0 -163 c0 -158 1 -164 23 -185 34 -32 89 -30 116 4 20
25 21 40 21 210 l0 183 53 26 c70 35 106 64 206 159 l84 81 -6 -60 c-5 -45
-61 -199 -223 -615 -119 -305 -227 -589 -239 -631 -34 -111 -40 -215 -21 -328
23 -132 59 -209 200 -431 138 -218 175 -256 279 -285 142 -40 279 23 347 157
25 51 30 73 30 132 0 89 -11 113 -147 328 l-105 168 4 63 c4 46 23 108 77 244
l72 182 112 -41 c252 -91 307 -108 397 -124 229 -40 490 18 692 153 471 314
566 958 209 1407 -113 142 -206 199 -323 199 -214 0 -364 -225 -279 -418 12
-26 51 -79 87 -118 93 -99 119 -157 119 -272 0 -76 -4 -99 -26 -146 -35 -75
-96 -134 -177 -172 -59 -28 -77 -32 -152 -31 -79 1 -98 5 -255 63 -93 35 -173
66 -176 70 -4 3 7 38 23 76 70 168 100 361 79 517 -12 89 -73 326 -117 455
l-25 72 39 78 c22 43 50 106 63 140 22 59 25 62 74 78 103 35 231 30 391 -16
75 -22 88 -12 148 114 88 184 186 289 312 337 35 12 124 28 233 41 102 12 185
27 198 35 27 17 39 58 27 92 -6 17 -188 169 -518 434 -472 378 -513 408 -548
408 -42 0 -35 8 -138 -152 -59 -90 -166 -207 -245 -268 -60 -46 -58 -46 -87 5
-6 11 -39 57 -74 101 -178 229 -436 391 -715 448 -97 20 -273 27 -369 15z
m395 -188 c115 -31 285 -118 382 -196 237 -190 394 -482 434 -808 21 -174 -5
-322 -87 -496 -36 -77 -47 -92 -61 -86 -77 30 -186 21 -264 -21 -61 -34 -94
-71 -127 -144 -35 -74 -34 -147 2 -272 l29 -98 -69 -77 c-179 -199 -341 -283
-524 -270 -41 3 -98 13 -125 21 -104 32 -235 129 -350 260 l-58 66 28 98 c39
133 37 202 -4 287 -36 72 -72 107 -149 142 -59 28 -163 34 -217 13 -39 -15
-50 -2 -102 131 -59 147 -77 248 -69 376 32 537 386 979 866 1084 118 26 350
21 465 -10z m-1589 -391 c45 -47 109 -105 143 -130 33 -25 60 -50 61 -56 0 -6
-11 -39 -25 -73 -52 -126 -76 -254 -82 -424 l-6 -157 -51 7 c-75 12 -224 7
-282 -9 l-50 -14 -45 85 c-55 108 -181 240 -279 294 -62 34 -186 76 -277 94
l-42 8 376 301 377 302 50 -71 c27 -40 87 -110 132 -157z m3248 -90 l355 -285
-47 -8 c-98 -16 -173 -37 -226 -62 -134 -63 -252 -182 -328 -330 l-41 -81 -51
14 c-59 16 -207 21 -283 9 l-53 -8 0 119 c0 149 -19 262 -72 420 -22 67 -39
124 -37 125 116 82 267 233 339 339 44 64 46 65 67 49 12 -9 181 -144 377
-301z m-2655 -1268 c40 -21 71 -73 71 -117 0 -16 -21 -102 -46 -190 -55 -190
-68 -322 -40 -418 9 -30 114 -309 234 -619 121 -309 224 -584 230 -610 16 -64
15 -190 -3 -266 -19 -82 -46 -133 -176 -337 -117 -184 -138 -205 -211 -205
-55 0 -100 27 -122 75 -31 65 -19 98 104 292 130 204 144 237 138 331 -4 58
-33 140 -217 612 -289 740 -265 663 -266 855 l0 160 53 185 c29 102 60 195 68
208 38 58 120 78 183 44z m1618 -2 c18 -10 38 -29 46 -42 8 -13 39 -106 68
-208 46 -163 53 -199 57 -302 2 -67 -1 -145 -7 -185 -8 -44 -95 -280 -243
-663 -201 -518 -232 -604 -236 -662 -6 -94 8 -127 138 -331 122 -193 135 -228
105 -290 -33 -70 -129 -99 -197 -59 -19 11 -68 78 -138 187 -173 271 -196 333
-188 510 l5 100 208 535 c280 721 275 705 275 816 0 78 -7 114 -50 269 -27 98
-50 194 -50 213 0 100 120 165 207 112z m-2778 -228 c59 -32 89 -119 60 -175
-7 -12 -37 -49 -69 -83 -67 -73 -101 -128 -130 -214 -30 -88 -30 -219 -1 -311
67 -213 271 -359 501 -359 90 0 128 10 333 85 87 31 161 55 164 51 8 -7 102
-250 99 -253 -9 -9 -395 -143 -441 -154 -91 -19 -255 -15 -350 10 -289 75
-511 294 -586 577 -27 104 -30 279 -5 379 39 156 157 349 263 430 54 41 107
46 162 17z m3970 -22 c62 -50 136 -144 180 -230 243 -469 -1 -1016 -514 -1151
-95 -25 -259 -29 -350 -10 -48 11 -432 145 -442 154 -5 6 95 251 104 254 5 2
89 -27 188 -63 160 -59 190 -67 271 -71 108 -7 171 6 269 53 181 86 285 252
285 453 0 47 -5 106 -11 131 -17 76 -69 168 -134 238 -34 37 -67 77 -73 89
-18 33 -14 94 7 127 51 77 143 88 220 26z"/>
<path d="M2220 4593 c-73 -27 -81 -115 -13 -151 31 -17 675 -17 706 0 53 28
63 89 21 129 l-26 24 -336 2 c-185 1 -344 -1 -352 -4z"/>
<path d="M2301 4233 c-11 -10 -24 -32 -27 -50 -5 -27 -1 -37 24 -63 l30 -30
232 0 232 0 30 30 c25 26 29 36 24 63 -12 65 -21 67 -286 67 -212 0 -240 -2
-259 -17z"/>
<path d="M1695 3968 c-36 -32 -79 -191 -70 -266 11 -109 69 -192 167 -241 49
-25 74 -31 124 -31 162 0 272 96 324 283 23 85 18 127 -19 147 -21 11 -464
130 -485 130 -8 0 -27 -10 -41 -22z m348 -225 c31 -6 35 -29 13 -71 -24 -47
-62 -74 -109 -79 -109 -13 -181 80 -151 193 l6 21 106 -29 c59 -16 119 -31
135 -35z"/>
<path d="M3140 3930 c-118 -33 -225 -64 -237 -69 -39 -18 -46 -56 -27 -136 46
-191 162 -295 328 -295 50 0 75 6 124 31 69 34 105 72 138 144 37 81 38 127
10 240 -27 106 -54 146 -99 144 -12 0 -119 -27 -237 -59z m184 -146 c13 -33 5
-97 -14 -129 -65 -106 -237 -74 -257 48 l-5 32 119 32 c139 37 149 38 157 17z"/>
</g>
</svg>
