<?xml version="1.0" encoding="UTF-8"?>
<svg width="752pt" height="752pt" version="1.1" viewBox="0 0 752 752" xmlns="http://www.w3.org/2000/svg">
 <g>
  <path d="m180.21 597.99c-3.2812 0-6.168-2.1641-7.0938-5.3125-23.363-79.504-25.316-163.77-5.668-244.27 0.96875-3.9688 4.9766-6.4023 8.9492-5.4336 3.9727 0.97266 6.4062 4.9766 5.4336 8.9492-19.035 77.969-17.148 159.58 5.4766 236.59 1.1523 3.918-1.0898 8.0273-5.0078 9.1797-0.67969 0.20312-1.3828 0.30469-2.0898 0.30469z"/>
  <path d="m597.84 449.83c-0.019531-1.9688-0.83594-3.8477-2.2617-5.2109-1.4219-1.3594-3.3398-2.0898-5.3086-2.0195-1.9609 0.046875-3.8242 0.86719-5.1836 2.2891-1.3555 1.418-2.0898 3.3203-2.043 5.2812 1.082 46.797-5.1055 93.477-18.344 138.38-1.1523 3.918 1.0898 8.0312 5.0078 9.1836 0.67969 0.1875 1.3828 0.27734 2.0859 0.26563 3.2812 0 6.1719-2.1641 7.0977-5.3125 13.672-46.352 20.062-94.539 18.949-142.85z"/>
  <path d="m224.71 473.41c0.59375 3.5664 3.6758 6.1836 7.2891 6.1875 0.40625 0 0.8125-0.03125 1.2109-0.10547 4.0352-0.66797 6.7617-4.4766 6.0938-8.5078-3.5547-21.75-0.31641-44.062 9.2695-63.902 6.6758 3.4102 13.621 6.2734 20.766 8.5586-3.9023 11.918-3.8906 24.773 0.035156 36.68 1.2852 3.8828 5.4727 5.9922 9.3516 4.707 3.8828-1.2812 5.9922-5.4688 4.707-9.3516-3.457-10.484-2.8281-21.883 1.7539-31.922 0.89844-1.0664 1.4922-2.3594 1.7109-3.7383 0.53906-3.8867-1.9766-7.5469-5.8008-8.4297-29.242-7.2969-54.785-25.078-71.777-49.969-1.6484-2.4258-4.5742-3.6484-7.457-3.1211-2.8828 0.52734-5.1836 2.7109-5.8633 5.5625-7.9727 35.668-12.078 72.09-12.246 108.64-0.027343 1.9609 0.72656 3.8555 2.0938 5.2617 1.3672 1.4062 3.2383 2.2148 5.2031 2.2422h0.10156c4.0469 0 7.3438-3.25 7.3984-7.2969 0.25391-30.203 3.1133-60.324 8.543-90.031 8.3516 9.5625 17.988 17.93 28.629 24.859-11.266 22.812-15.117 48.574-11.012 73.68z"/>
  <path d="m198.78 494.19c-0.16797-4.0664-3.5391-7.2539-7.6055-7.1953-1.9648 0.054687-3.8242 0.88672-5.1719 2.3125-1.3516 1.4297-2.0781 3.332-2.0195 5.2969 0.62109 32.871 4.5586 65.594 11.75 97.676 0.78125 3.3359 3.7539 5.7031 7.1836 5.7109 0.58203 0 1.1641-0.066407 1.7344-0.19922 3.9531-0.95312 6.3984-4.918 5.4727-8.8789-6.9531-31.113-10.75-62.848-11.344-94.723z"/>
  <path d="m555.95 356.07c-0.6875-2.8516-2.9883-5.0273-5.8711-5.5547-2.8828-0.52344-5.8047 0.70312-7.4492 3.1289-17.066 25.012-42.77 42.844-72.176 50.066l-0.3125 0.082031v-0.003906c-2.5352 0.72656-4.4961 2.75-5.1367 5.3086-0.64453 2.5625 0.12109 5.2695 2.0156 7.1094 4.3906 9.9375 4.9336 21.148 1.5312 31.465-1.2852 3.8828 0.82422 8.0703 4.7031 9.3516 3.8828 1.2852 8.0703-0.82422 9.3555-4.707 3.9258-11.906 3.9414-24.754 0.042969-36.672 7.1484-2.2852 14.098-5.1523 20.781-8.5664 9.582 19.84 12.816 42.148 9.2617 63.895-0.66797 4.0312 2.0586 7.8398 6.0898 8.5078 0.40234 0.074219 0.80859 0.11328 1.2148 0.11328 3.6133-0.003906 6.6953-2.6211 7.2891-6.1875 4.1016-25.102 0.25391-50.859-11.004-73.672 10.637-6.918 20.266-15.277 28.605-24.84 12.469 64.652 11.477 153.47-3.0273 213.97h0.003907c-0.46094 1.9102-0.14063 3.9219 0.88281 5.5977 1.0273 1.6719 2.6758 2.8711 4.5859 3.3281 0.57031 0.13281 1.1523 0.19922 1.7383 0.19922 3.418-0.003907 6.3867-2.3516 7.1836-5.6758 16.414-77.902 16.309-158.38-0.30859-236.24z"/>
  <path d="m464.8 464.8h-22.199c-4.7305 0.015625-9.3438-1.4961-13.148-4.3125-1.5781-1.168-3.5547-1.6562-5.4961-1.3633-1.9414 0.28906-3.6875 1.3398-4.8516 2.9219-2.4297 3.2852-1.7305 7.918 1.5586 10.348 6.3477 4.6992 14.039 7.2266 21.938 7.207h22.199c13.734 0.015625 26.898 5.4766 36.609 15.188 9.7109 9.7109 15.176 22.879 15.191 36.609v59.199c0 4.0859 3.3125 7.3984 7.3984 7.3984 4.0859 0 7.3984-3.3125 7.3984-7.3984v-59.199c-0.019531-17.656-7.043-34.582-19.527-47.07-12.484-12.484-29.414-19.508-47.07-19.527z"/>
  <path d="m461.43 390.45c33.453-6.3789 61.922-28.195 76.773-58.844h26.188 0.39062l2.3906 8.6484v0.003906c7.2227 26.469 12 53.543 14.266 80.887 0.32031 3.8438 3.543 6.7969 7.4023 6.7852h0.61328c1.957-0.16016 3.7695-1.0938 5.0391-2.5898 1.2695-1.4961 1.8945-3.4375 1.7305-5.3945-2.3438-28.277-7.2812-56.281-14.746-83.652l-2.7734-10.027c6.0039-5.0078 8.9023-12.824 7.6172-20.539-1.2852-7.7109-6.5586-14.164-13.863-16.957 0.76953-13.262-2.5703-26.438-9.5664-37.727-6.9961-11.293-17.309-20.148-29.527-25.363l-10.426-4.4414v0.003906c-2.9492-1.2812-6.3867-0.51562-8.5078 1.8984-2.1211 2.4141-2.4414 5.9219-0.79297 8.6797l9.9766 16.629h-0.003906c6.8516 11.344 8.8789 24.957 5.6328 37.805l-0.47266 1.8867c-5.5625 1.5352-10.305 5.1914-13.203 10.18-2.8984 4.9883-3.7266 10.914-2.3086 16.508 1.418 5.5938 4.9727 10.41 9.9023 13.414-12.219 23.023-33.559 39.844-58.801 46.352 0.19922-2.2188 0.28125-4.4414 0.32422-6.7266h0.003906c8.3711-1.6953 15.902-6.2266 21.316-12.836 5.4141-6.6055 8.3789-14.883 8.3945-23.426v-29.598c0-1.9609-0.78125-3.8438-2.168-5.2305-1.3906-1.3906-3.2695-2.168-5.2344-2.168-9.0742 0.03125-17.816 3.4219-24.535 9.5234-2.0117-8.543-5.2734-16.738-9.6797-24.324l4.3359-10.121c1.3555-3.1992 3.7539-5.8477 6.8008-7.5117 3.0508-1.668 6.5703-2.2578 9.9961-1.6719 8.7891 1.4492 17.773-1.0352 24.566-6.7969s10.715-14.219 10.715-23.129v-13.793c0.046876-18.543 8.7695-35.992 23.578-47.156l3.0625-2.2969c2.5469-1.9102 3.5859-5.2383 2.5781-8.2578-1.0078-3.0234-3.832-5.0586-7.0195-5.0586-13.645-0.042969-27.031 3.7188-38.656 10.863s-21.023 17.387-27.148 29.582c-0.89844 1.7539-1.0625 3.7969-0.45312 5.6719 0.61328 1.8711 1.9453 3.4258 3.707 4.3125 1.7617 0.88672 3.8047 1.0352 5.6719 0.41016 1.8711-0.62109 3.4141-1.9688 4.2891-3.7344 6.2891-12.516 16.848-22.371 29.77-27.777-9.1875 12.625-14.148 27.828-14.176 43.441v13.793c0 4.5586-2.0039 8.8828-5.4805 11.828-3.4766 2.9453-8.0742 4.2109-12.57 3.4609-6.6914-1.1289-13.57 0.03125-19.527 3.2852-5.9531 3.2578-10.641 8.4219-13.305 14.668l-7.3984 17.184v-0.003906c-2.7812 6.3789-10.16 9.3594-16.594 6.6953-6.4297-2.6602-9.5469-9.9805-7.0039-16.461l8.1016-20.238c3.2969-8.2344 9.3711-15.059 17.168-19.281 7.8008-4.2266 16.832-5.5898 25.527-3.8516 1.9531 0.46094 4.0117 0.10938 5.6992-0.97656 1.6875-1.082 2.8633-2.8047 3.2578-4.7734 0.39453-1.9688-0.027344-4.0117-1.1719-5.6602-1.1406-1.6523-2.9023-2.7695-4.8828-3.0938-11.453-2.2891-23.344-0.71094-33.805 4.4883-10.457 5.1992-18.895 13.727-23.988 24.238-8.3789-2.0312-17.227-0.09375-23.988 5.2539-5.0273 3.7227-11.902 3.7227-16.93 0-6.8086-5.3594-15.711-7.2734-24.117-5.1797-4.5234-9.4219-11.758-17.277-20.773-22.566-9.0156-5.2891-19.402-7.7695-29.832-7.1211l-0.64453-2.5586v-0.003906c-3.957-15.973-13.156-30.156-26.121-40.289-12.969-10.133-28.957-15.625-45.41-15.605-3.1875 0-6.0156 2.0352-7.0234 5.0586-1.0039 3.0195 0.035156 6.3477 2.582 8.2578l3.0625 2.293v0.003906c14.805 11.164 23.531 28.613 23.578 47.156v13.793c0.011718 8.9023 3.9336 17.352 10.727 23.105 6.793 5.7539 15.77 8.2344 24.555 6.7812 3.4219-0.57422 6.9414 0.015624 9.9883 1.6836 3.0469 1.6641 5.4453 4.3086 6.8086 7.5l4.3125 10.055v0.003906c-4.4258 7.6094-7.6875 15.84-9.6719 24.418-6.7188-6.0898-15.453-9.4805-24.52-9.5156-4.0898 0-7.4023 3.3125-7.4023 7.3984v29.598c0.011719 8.5273 2.9609 16.789 8.3516 23.395 5.3945 6.6055 12.898 11.148 21.246 12.867v0.73828c0 1.9961 0.16406 3.9727 0.28906 5.918-25.18-6.5352-46.465-23.34-58.672-46.312 4.9336-3 8.4922-7.8125 9.9141-13.406 1.4219-5.5977 0.59375-11.523-2.3086-16.516-2.8984-4.9883-7.6406-8.6445-13.207-10.176l-0.47266-1.8789v-0.003907c-3.2461-12.848-1.2188-26.465 5.6328-37.812l9.9883-16.598c1.6523-2.75 1.3398-6.2539-0.76953-8.6719s-5.5391-3.1992-8.4883-1.9375l-10.426 4.4414c-12.219 5.2109-22.531 14.066-29.527 25.359-6.9961 11.293-10.336 24.469-9.5664 37.73-6.4609 2.5312-11.367 7.9414-13.258 14.621-1.8867 6.6797-0.54688 13.859 3.6328 19.402 4.1758 5.5469 10.707 8.8164 17.648 8.8398h26.18c14.77 30.449 42.977 52.199 76.18 58.742 3.9219 15.801 12.152 30.203 23.773 41.605 5.2891 5.1523 11.195 9.625 17.582 13.32-0.64062 5.3711-3.2227 10.32-7.2617 13.918-4.0391 3.5977-9.2539 5.5938-14.664 5.6094h-22.199c-17.656 0.019531-34.582 7.043-47.066 19.527-12.488 12.488-19.508 29.414-19.527 47.07v59.199c0 4.0859 3.3125 7.3984 7.3984 7.3984 4.0859 0 7.3984-3.3125 7.3984-7.3984v-59.199c0.015625-13.73 5.4805-26.898 15.188-36.609 9.7109-9.7109 22.879-15.172 36.609-15.188h22.199c8.1875-0.03125 16.133-2.7734 22.59-7.8008 6.4609-5.0312 11.07-12.059 13.109-19.984 9.8828 3.6836 20.348 5.5781 30.898 5.5859h1.6016c19.32-0.63672 37.922-7.4961 53.027-19.562 15.105-12.062 25.91-28.688 30.801-47.391zm96.309-103.24h-13.527c2.8828-13.781 1.1562-28.133-4.9219-40.836 12.27 9.9219 19.113 25.07 18.449 40.836zm-22.938 14.801h29.598c4.0859 0 7.3984 3.3125 7.3984 7.3984 0 4.0898-3.3125 7.4023-7.3984 7.4023h-29.598c-4.0898 0-7.4023-3.3125-7.4023-7.4023 0-4.0859 3.3125-7.3984 7.4023-7.3984zm-322.09-55.637c-6.0742 12.703-7.8047 27.055-4.918 40.836h-13.527c-0.66406-15.766 6.1797-30.914 18.445-40.836zm-32.5 63.035c0-4.0859 3.3164-7.3984 7.4023-7.3984h29.598c4.0859 0 7.3984 3.3125 7.3984 7.3984 0 4.0898-3.3125 7.4023-7.3984 7.4023h-29.598c-4.0859 0-7.4023-3.3125-7.4023-7.4023zm299.39 1.2656v20.934c-0.007812 4.5898-1.4297 9.0664-4.082 12.816-2.6484 3.7461-6.3945 6.582-10.719 8.1172v-20.934c0.007813-4.5898 1.4336-9.0625 4.082-12.812 2.6484-3.7461 6.3945-6.582 10.719-8.1211zm-198.91-65.227c-1.6875 0-3.3711 0.14453-5.0352 0.42188-4.4922 0.75-9.0898-0.51562-12.566-3.4609-3.4766-2.9453-5.4805-7.2695-5.4805-11.828v-13.793c-0.03125-15.59-4.9844-30.773-14.148-43.383 17.129 7.1836 29.855 22.035 34.336 40.062l2.2188 8.9453c0.96094 3.8281 4.7578 6.2266 8.6289 5.4531 8.6953-1.7383 17.727-0.375 25.523 3.8516 7.8008 4.2227 13.871 11.047 17.164 19.281l8.1016 20.238h0.003906c2.5391 6.4805-0.57422 13.801-7.0078 16.461-6.4297 2.6641-13.809-0.31641-16.59-6.6953l-7.3633-17.184v0.003906c-2.3242-5.4492-6.1953-10.094-11.133-13.363-4.9414-3.2656-10.73-5.0078-16.652-5.0117zm-8.2812 86.16v-20.934c4.3242 1.5391 8.0703 4.375 10.719 8.1211 2.6484 3.75 4.0742 8.2227 4.0781 12.812v20.934c-4.3242-1.5352-8.0664-4.3711-10.719-8.1172-2.6484-3.75-4.0742-8.2266-4.0781-12.816zm104.91 111c-19.859 0.36719-39.027-7.2695-53.191-21.188-14.168-13.918-22.141-32.949-22.125-52.809v-44.398c0.027344-9.9414 2.0586-19.773 5.9727-28.91 5.1172 5.2773 12.148 8.2617 19.496 8.2812 9.1562-0.003907 17.719-4.5391 22.867-12.109 5.1484-7.5742 6.2148-17.203 2.8477-25.719l-3.8242-9.5312c3.2266-0.22266 6.4258 0.75 8.9844 2.7305 5.043 3.9336 11.254 6.0664 17.648 6.0664 6.3984 0 12.609-2.1328 17.652-6.0664 2.5469-1.9727 5.7383-2.9258 8.9492-2.6797l-3.7812 9.4805c-2.707 6.7891-2.6094 14.375 0.27344 21.09 2.8789 6.7188 8.3047 12.016 15.086 14.738 3.293 1.3242 6.8125 2.0039 10.359 2.0078 7.332-0.023437 14.344-2.9961 19.461-8.2461 3.9297 9.1211 5.9688 18.938 6.0039 28.867v41.727c0.25781 19.73-7.1914 38.781-20.766 53.102s-32.199 22.773-51.914 23.566z"/>
  <path d="m426.47 324.32c-8.3828 1.5391-28.605 5.8242-35.289 12.512v0.003907c-4.1641 4.1602-6.5039 9.8086-6.5039 15.699 0 5.8867 2.3398 11.535 6.5039 15.695 1.3867 1.3906 3.2695 2.168 5.2305 2.168 8.5898 0.035156 16.938-2.8555 23.664-8.2031 6.7266-5.3438 11.43-12.824 13.336-21.203 1.0664-4.6484 1.6875-8.0508 1.6875-8.0508h-0.003906c0.44141-2.3906-0.32031-4.8477-2.0391-6.5664-1.7188-1.7227-4.1719-2.4883-6.5664-2.0547zm-26.445 30.996-0.003907 0.003906c-1.1211-2.7539-0.48438-5.9102 1.6133-8.0156 5.0352-2.8125 10.48-4.8125 16.141-5.918-3.0742 7.4297-9.8047 12.711-17.754 13.934z"/>
  <path d="m360.82 368.23c4.1641-4.1602 6.5039-9.8086 6.5039-15.695 0-5.8906-2.3398-11.539-6.5039-15.699-6.6602-6.6602-26.906-10.973-35.289-12.512v-0.003907c-2.3906-0.43359-4.8477 0.33203-6.5664 2.0547-1.7188 1.7188-2.4805 4.1758-2.0391 6.5664 0 0 0.62109 3.4023 1.6875 8.0586 1.9062 8.3789 6.6094 15.855 13.336 21.199s15.07 8.2383 23.66 8.1992c1.957-0.003907 3.8281-0.78516 5.2109-2.168zm-8.8789-12.914v0.003906c-7.9492-1.2227-14.68-6.5078-17.758-13.934 5.6602 1.1016 11.105 3.0977 16.137 5.918 2.1133 2.0938 2.7656 5.2539 1.6562 8.0156z"/>
  <path d="m416.64 384.36c-2.3203-1.3125-5.168-1.2773-7.4531 0.097657-10.02 6.0273-21.492 9.2109-33.188 9.2109-11.691 0-23.164-3.1836-33.188-9.2109-2.2852-1.375-5.1328-1.4141-7.4531-0.097657-2.3203 1.3125-3.7539 3.7695-3.7578 6.4375v14.801c0 4.0859 3.3164 7.3984 7.4023 7.3984 4.0859 0 7.3984-3.3125 7.3984-7.3984v-2.8711c18.988 7.6641 40.211 7.6641 59.199 0v2.8711c0 4.0859 3.3125 7.3984 7.3984 7.3984s7.3984-3.3125 7.3984-7.3984v-14.801c0-2.668-1.4375-5.125-3.7578-6.4375z"/>
  <path d="m376 319.86c4.7383 0.007813 9.2812-1.8672 12.633-5.2148 2.8945-2.8906 2.8984-7.5781 0.007813-10.473s-7.5781-2.8945-10.473-0.007813c-0.57031 0.58203-1.3516 0.90625-2.168 0.90625-0.8125 0-1.5938-0.32422-2.168-0.90625-2.8906-2.8867-7.5781-2.8867-10.469 0.007813s-2.8867 7.582 0.007813 10.473c3.3477 3.3477 7.8945 5.2227 12.629 5.2148z"/>
  <path d="m383.4 287.2c0 4.0898-3.3125 7.4023-7.4023 7.4023-4.0859 0-7.3984-3.3125-7.3984-7.4023 0-4.0859 3.3125-7.3984 7.3984-7.3984 4.0898 0 7.4023 3.3125 7.4023 7.3984"/>
  <path d="m360.82 469.86c-1.2891-3.8828-5.4844-5.9844-9.3672-4.6914-3.8828 1.293-5.9844 5.4844-4.6914 9.3672l7.3984 22.199c1.293 3.8828 5.4883 5.9844 9.3711 4.6914 3.8789-1.2891 5.9805-5.4844 4.6914-9.3672z"/>
  <path d="m400.54 465.18c-3.875-1.2891-8.0625 0.80859-9.3516 4.6836l-7.3984 22.199h-0.003906c-1.2891 3.8828 0.80859 8.0781 4.6914 9.3672 3.8828 1.293 8.0781-0.80859 9.3672-4.6914l7.3984-22.199h0.003906c0.61719-1.8633 0.46875-3.8984-0.41406-5.6562-0.88281-1.7539-2.4258-3.0898-4.293-3.7031z"/>
  <path d="m477.3 496.62c-2.957-2.8398-7.6445-2.7812-10.531 0.125-7.9453 7.9922-18.758 12.477-30.027 12.453h-19.305c-15.664-0.011718-30.648 6.4102-41.441 17.762-10.793-11.352-25.773-17.773-41.438-17.762h-19.238c-11.266 0.03125-22.078-4.4453-30.027-12.43-2.8906-2.957-7.625-3.0234-10.598-0.14844-1.4102 1.3438-2.2227 3.1953-2.2578 5.1406-0.03125 1.9492 0.71875 3.8281 2.082 5.2188l0.19141 0.19922c10.727 10.797 25.324 16.852 40.543 16.82h19.238c14.199-0.015625 27.457 7.082 35.32 18.906 1.3711 2.0586 3.6797 3.293 6.1562 3.293 2.4727 0 4.7852-1.2344 6.1562-3.293 7.8594-11.82 21.117-18.922 35.312-18.906h19.238c15.215 0.03125 29.809-6.0195 40.535-16.812l0.19922-0.19922c1.375-1.3828 2.1367-3.2578 2.1172-5.207-0.023438-1.9492-0.82422-3.8086-2.2266-5.1602z"/>
  <path d="m464.8 597.99c-4.0859 0-7.3984-3.3125-7.3984-7.3984v-37c0-4.0859 3.3125-7.3984 7.3984-7.3984s7.4023 3.3125 7.4023 7.3984v37c0 1.9609-0.78125 3.8438-2.168 5.2305-1.3906 1.3867-3.2695 2.168-5.2344 2.168z"/>
  <path d="m279.8 597.99c-4.0859 0-7.3984-3.3125-7.3984-7.3984v-37c0-4.0859 3.3125-7.3984 7.3984-7.3984 4.0859 0 7.3984 3.3125 7.3984 7.3984v37c0 1.9609-0.77734 3.8438-2.1641 5.2305-1.3906 1.3867-3.2695 2.168-5.2344 2.168z"/>
 </g>
</svg>
