<?xml version="1.0" encoding="UTF-8"?>
<svg width="752pt" height="752pt" version="1.1" viewBox="0 0 752 752" xmlns="http://www.w3.org/2000/svg">
 <g>
  <path d="m436.38 381.62c-5.0312-0.88672-20.719-3.8477-32.559-5.918 9.4727-9.7695 15.391-23.383 15.391-38.184 0-3.8477-0.29688-7.3984-1.1836-10.953v-18.352c12.43-7.1055 19.238-16.871 19.238-27.23 0-22.199-32.262-39.664-73.406-39.664-13.617 0-26.934 2.0703-38.477 5.918v-65.117c0-15.094-12.43-27.527-27.527-27.527-15.094 0-27.527 12.43-27.527 27.527v197.13c0 7.6953 0.88672 15.094 2.6641 22.496l11.543 47.949 0.003907 142.38c0 3.2578 2.6641 5.918 5.918 5.918h141.78c3.2578 0 5.918-2.6641 5.918-5.918v-81.691h31.375l0.003906 81.691c0 3.2578 2.6641 5.918 5.918 5.918 3.2578 0 5.918-2.6641 5.918-5.918v-157.17c0.29688-26.641-18.645-49.137-44.988-53.281zm-30.191-71.332v10.656h-80.805v-10.656zm-48.246 125.2-21.605-50.316c6.5117 3.8477 13.91 6.2148 21.605 7.1055zm11.84-43.215c6.5117-0.59375 13.023-2.6641 18.648-5.625l-18.648 46.766zm-5.918-11.543c-16.281 0-31.078-9.1758-38.477-23.383v-24.566h81.691c0.29688 1.4805 0.29688 3.2578 0.29688 4.7344-0.003906 23.973-19.539 43.215-43.512 43.215zm0-127.87c36.406 0 61.566 14.801 61.566 27.824 0 4.4414-2.6641 8.8789-7.3984 12.727v-5.625c0-3.2578-2.6641-5.918-5.918-5.918-3.2578 0-5.918 2.6641-5.918 5.918v10.656h-80.812v-39.07c10.953-4.1445 24.566-6.5117 38.48-6.5117zm-67.488 194.17-11.84-48.543c-1.4805-6.5117-2.3672-13.023-2.3672-19.832v-197.12c0-8.582 7.1055-15.688 15.688-15.688s15.688 7.1055 15.688 15.688v204.82c0 3.2578 2.6641 5.918 5.918 5.918 2.6641 0 4.7344-1.7773 5.625-4.1445l32.855 77.254v120.76h-61.27v-137.63c0-0.29688-0.29688-0.89062-0.29688-1.4805zm142.67 51.5v-24.566h30.781v24.566zm-0.59375-36.406v-7.9922c0-3.2578-2.6641-5.918-5.918-5.918-3.2578 0-5.918 2.6641-5.918 5.918v132.01h-56.832v-120.47l31.375-78.438c11.84 2.3672 28.117 5.3281 33.445 6.2148 20.422 3.2578 35.223 20.719 35.223 41.438v27.23z"/>
  <path d="m367.71 354.69h-8.2891c-1.7773 0-2.9609 1.1836-2.9609 2.9609v8.2891c0 1.7773 1.1836 2.9609 2.9609 2.9609h8.2891c1.7773 0 2.9609-1.1836 2.9609-2.9609v-8.2891c-0.003906-1.4805-1.4805-2.9609-2.9609-2.9609z"/>
 </g>
</svg>
