<?xml version="1.0" encoding="UTF-8"?>
<svg width="752pt" height="752pt" version="1.1" viewBox="0 0 752 752" xmlns="http://www.w3.org/2000/svg">
 <path d="m494.4 248.13v-14.207h-113.66v14.207h-14.207v85.242h-14.207v14.207h-14.207v14.207h-14.207v14.207h-14.207v14.207h-28.414v-14.207h-14.207v-14.207h-14.207v-28.414h-14.207v71.035h14.207v14.207h14.207v14.207h14.207v14.207h14.207v14.207h14.207v56.828h28.414v-14.207h-14.207v-14.207h14.207v-14.207h14.207v-14.207h28.414v14.207h28.414v-14.207h-14.207v-14.207h14.207v-14.207h14.207v-71.035h14.207v14.207h14.207v-28.414h-28.414v-14.207h56.828v-14.207h-42.621v-14.207h71.035v-56.828zm-85.246 0v14.207h-14.207v-14.207z"/>
</svg>
