<?xml version="1.0" encoding="UTF-8"?>
<svg width="752pt" height="752pt" version="1.1" viewBox="0 0 752 752" xmlns="http://www.w3.org/2000/svg">
 <path d="m509.6 276.55c0 1.9609-1.5898 3.5508-3.5508 3.5508h-15.25c-1.9609 0-3.5508-1.5898-3.5508-3.5508 0-1.9648 1.5898-3.5547 3.5508-3.5547h15.25c1.9609 0 3.5508 1.5898 3.5508 3.5547zm-26.047-23.68c0.61719 0.003906 1.2227-0.16016 1.7539-0.47266l13.262-7.4844h-0.003906c1.668-0.97656 2.25-3.1055 1.3086-4.793-0.9375-1.6875-3.0547-2.3164-4.7656-1.4102l-13.309 7.4844 0.003906-0.003906c-1.6406 0.96875-2.2266 3.0586-1.3281 4.7383 0.47266 1.3164 1.6797 2.2305 3.0781 2.3203zm15.012 54.934-13.215-7.625h0.003906c-1.668-0.90625-3.7539-0.34375-4.7344 1.2812-0.88281 1.668-0.32422 3.7344 1.2773 4.7344l13.117 8.2422c1.6719 0.87891 3.7383 0.32031 4.7383-1.2812 0.51953-0.8125 0.68359-1.8008 0.46094-2.7383-0.22266-0.9375-0.81641-1.7422-1.6484-2.2344zm-249.95 93.723c-0.027344-1.9492-1.6016-3.5273-3.5547-3.5508h-12.785c-1.9609 0-3.5508 1.5898-3.5508 3.5508 0 1.9609 1.5898 3.5508 3.5508 3.5508h12.785c1.9531-0.023437 3.5273-1.6016 3.5547-3.5508zm2.3203 25.051-9.2344 5.2109c-1.6797 0.93359-2.293 3.0469-1.375 4.7344 0.62109 1.1172 1.8008 1.8086 3.0781 1.8008 0.60937 0.003906 1.2109-0.14062 1.7539-0.42578l9.2344-5.0664c0.84375-0.44922 1.4727-1.2148 1.7422-2.1328 0.26953-0.91406 0.16016-1.9023-0.30469-2.7344-0.46484-0.83594-1.2461-1.4453-2.168-1.6992-0.91797-0.25-1.9023-0.12109-2.7266 0.36328zm-12.266-56.543 13.215 7.625h-0.003906c0.52734 0.32031 1.1367 0.48438 1.7539 0.47266 1.6133 0.011719 3.0312-1.0625 3.4531-2.6211 0.42578-1.5586-0.25391-3.2031-1.6562-4.0078l-13.215-7.625h0.003906c-1.6797-0.89844-3.7695-0.31641-4.7344 1.3242-0.98828 1.6641-0.46094 3.8125 1.1836 4.832zm144.73 21.406h-15.395c-1.9609 0-3.5508 1.5898-3.5508 3.5508 0 1.9609 1.5898 3.5508 3.5508 3.5508h15.25c1.9609 0 3.5547-1.5898 3.5547-3.5508 0-1.9609-1.5938-3.5508-3.5547-3.5508zm0-34.336h-15.395c-1.9609 0-3.5508 1.5898-3.5508 3.5508s1.5898 3.5547 3.5508 3.5547h15.25c1.9609 0 3.5547-1.5938 3.5547-3.5547s-1.5938-3.5508-3.5547-3.5508zm0 17.191h-15.395c-1.9609 0-3.5508 1.5898-3.5508 3.5508 0 1.9609 1.5898 3.5508 3.5508 3.5508h15.25c1.9609 0 3.5547-1.5898 3.5547-3.5508 0-1.9609-1.5938-3.5508-3.5547-3.5508zm87.09-19.32 3.1719 3.1719c1.0156 1.0156 1.3203 2.543 0.76953 3.8672-0.54688 1.3281-1.8438 2.1914-3.2773 2.1953h-69.098v27.469-0.003907c5.6523 0.77344 10.902 3.3555 14.965 7.3594s6.7227 9.2148 7.5781 14.852c3.6328-0.70703 6.9102-2.6523 9.2734-5.5 2.3672-2.8477 3.6758-6.4258 3.7031-10.129 0.42578-5.6211 3.6758-10.648 8.6289-13.344 4.9531-2.6992 10.938-2.6992 15.895 0 4.9531 2.6953 8.2031 7.7227 8.6289 13.344 0 1.9648-1.5898 3.5547-3.5547 3.5547-1.9609 0-3.5508-1.5898-3.5508-3.5547 0-5.2305-4.2383-9.4688-9.4727-9.4688-5.2305 0-9.4688 4.2383-9.4688 9.4688-0.027344 5.5664-2.0547 10.938-5.7188 15.129-3.6602 4.1914-8.707 6.9258-14.219 7.6992-0.71875 5.7695-3.3242 11.141-7.4102 15.277-4.0859 4.1367-9.4219 6.8047-15.18 7.5977v9.4727c7.9648 5.0781 14.441 12.184 18.758 20.59 4.3203 8.4023 6.3281 17.805 5.8203 27.238-0.53125 15.57-8.8867 29.82-22.211 37.887-8.1602 13.332-22.746 21.375-38.375 21.16-15.629-0.21484-29.984-8.6523-37.777-22.199-0.66406-1.0898-0.66406-2.4609 0-3.5547 6.918-12.09 19.137-20.211 32.965-21.898 13.832-1.6875 27.645 3.2539 37.266 13.328 5.4219-6.7812 8.0938-15.352 7.4844-24.012-0.85156-12.312-9.4727-26.617-30.215-26.332-12.598 0.75781-38.359 2.3203-51.148 2.9844l-12.836 0.61719h0.003906c-27.648 3.9727-55.461-6.0586-74.211-26.758-10.594-11.785-17.512-26.41-19.91-42.074-2.3984-15.668-0.16797-31.691 6.4141-46.105 11.09-25.625 34.34-43.945 61.848-48.73l6.3477-6.3945-14.586-14.633c-1.0156-1.0156-1.3164-2.543-0.76953-3.8711 0.55078-1.3242 1.8438-2.1914 3.2773-2.1914h46.031l0.003907-5.4961-15.156-15.156v0.003907c-3.1836-3.1953-4.7617-7.6562-4.2969-12.141 0.46484-4.4883 2.9258-8.5273 6.6953-11.004 3.7695-2.4766 8.4531-3.125 12.758-1.7656v-15.723c-0.23438-4.1211 1.2422-8.1562 4.0781-11.156 2.8359-3 6.7812-4.6992 10.91-4.6992s8.0742 1.6992 10.91 4.6992c2.8359 3 4.3086 7.0352 4.0781 11.156v21.926c9.2812-27.371 31.801-48.172 59.816-55.262 28.02-7.0898 57.719 0.5 78.902 20.16 21.184 19.66 30.961 48.715 25.977 77.184s-24.055 52.469-50.656 63.762zm-98.41 187.49c-0.0625-1.8516 1.2891-3.4492 3.125-3.6953 6.6719-0.75 12.996-3.3789 18.234-7.5742-7.8359-8.1875-18.98-12.344-30.266-11.293-11.281 1.0547-21.465 7.1992-27.652 16.691 5.7891 8.9531 15.16 14.977 25.711 16.52 10.551 1.5391 21.254-1.5469 29.363-8.4688-4.0156 0.85547-8.1094 1.2812-12.215 1.2773h-2.8906c-1.8789-0.050781-3.3867-1.5742-3.4102-3.457zm-39.688-263.5c0.66406 0.6875 1.0352 1.6016 1.043 2.5586v14.207c-0.16797 2.1953 0.58594 4.3633 2.082 5.9805 1.4961 1.6211 3.6016 2.5391 5.8047 2.5391s4.3086-0.91797 5.8047-2.5391c1.4961-1.6172 2.25-3.7852 2.0781-5.9805v-68.527c0.17188-2.1992-0.58203-4.3672-2.0781-5.9844-1.4961-1.6172-3.6016-2.5352-5.8047-2.5352s-4.3086 0.91797-5.8047 2.5352c-1.4961 1.6172-2.25 3.7852-2.082 5.9844v21.926c0 1.4375-0.86719 2.7305-2.1914 3.2773-1.3281 0.55078-2.8555 0.24609-3.8711-0.76562-3.1055-3.0352-8.0664-3.0352-11.176 0-3.0312 3.1055-3.0312 8.0664 0 11.176zm-47.074 47.359 14.633 14.68h0.003906c0.67578 0.66016 1.0586 1.5664 1.0586 2.5117 0 0.94141-0.38281 1.8477-1.0586 2.5078l-11.082 11.035h30.547c-10.074-7.0117-16.078-18.512-16.078-30.781 0-12.273 6.0039-23.773 16.078-30.785h-30.547l11.082 11.082c0.67578 0.66016 1.0586 1.5664 1.0586 2.5117 0 0.94531-0.38281 1.8477-1.0586 2.5078zm-4.7344 71.938v-0.003907c-0.34766-4.6133 1.2422-9.1602 4.3867-12.555 3.1445-3.3906 7.5625-5.3203 12.188-5.3203 4.6289 0 9.0469 1.9297 12.191 5.3203 3.1445 3.3945 4.7344 7.9414 4.3867 12.555 0.027344 3.6953 1.3281 7.2695 3.6836 10.117 2.3555 2.8477 5.6211 4.793 9.2422 5.5117 0.85547-5.6484 3.5117-10.871 7.5703-14.891 4.0625-4.0195 9.3164-6.6211 14.973-7.4141v-27.469h-61.281c-7.5938 2.5234-14.18 7.4219-18.785 13.969-4.6016 6.5469-6.9805 14.402-6.7852 22.402-0.17188 10.223 3.5938 20.121 10.512 27.645 6.918 7.5273 16.461 12.109 26.664 12.801l46.836 2.5586c-5.1914-1.2812-9.8672-4.1094-13.414-8.1094-3.543-4-5.7852-8.9844-6.4297-14.293-5.5195-0.75391-10.578-3.4805-14.246-7.6797-3.6641-4.1953-5.6836-9.5742-5.6914-15.148 0-5.2305-4.2422-9.4688-9.4727-9.4688-5.2305 0-9.4688 4.2383-9.4688 9.4688 0 1.9648-1.5938 3.5547-3.5547 3.5547s-3.5508-1.5898-3.5508-3.5547zm121.47 63.742v1.6562c0 1.4297-0.85938 2.7148-2.1758 3.2695-0.43359 0.1875-0.90234 0.28516-1.375 0.28516-0.9375-0.023438-1.832-0.39453-2.5078-1.043l-8.9023-8.9492-8.9531 8.7578c-1.4062 1.3359-3.6133 1.3359-5.0195 0l-8.9023-8.9492-8.9531 8.9492c-1.0156 1.0156-2.543 1.3203-3.8672 0.76953-1.3281-0.55078-2.1914-1.8438-2.1953-3.2773v-12.738c-19.227-1.0898-41.344-2.2266-50.105-2.6992l0.003906-0.003906c-11.961-0.80859-23.156-6.168-31.285-14.977-8.1289-8.8086-12.578-20.395-12.43-32.379-0.30078-15.938 7.9102-30.824 21.551-39.07-0.28516-1.1641 0.035156-2.3945 0.85156-3.2695l14.633-14.633-14.633-15.059c-1.0195-1-1.3242-2.5234-0.75781-3.8359-20.891 6.8711-37.816 22.398-46.457 42.621-5.9922 13.164-8.0156 27.789-5.832 42.086 2.1875 14.301 8.4922 27.648 18.145 38.422 17.309 18.984 42.918 28.121 68.336 24.391 2.3203-0.37891 6.25-0.56641 13.023-0.89844 12.785-0.61719 38.504-2.2266 51.242-2.9844h0.51953c24.012 0 35.801 16.48 36.938 33.152l0.003906-0.003906c0.6875 10.922-2.9141 21.676-10.039 29.98 9.9883-7.1367 16.078-18.516 16.48-30.785 0.92969-14.988-5.5469-29.48-17.336-38.785zm-45.746-17.711v10.75l5.4922-5.3516c0.65234-0.6875 1.5664-1.0625 2.5117-1.043 0.94141-0.003907 1.8477 0.37109 2.5078 1.043l8.9023 8.9023 8.9492-8.9023h0.003907c1.4062-1.3359 3.6133-1.3359 5.0195 0l5.2578 5.3516v-10.75zm19.32-7.1055c4.7344 0 8.9961-2.8477 10.809-7.2188 1.8086-4.3711 0.80859-9.4023-2.5352-12.75-3.3477-3.3438-8.3789-4.3477-12.75-2.5352-4.3711 1.8086-7.2188 6.0742-7.2188 10.809 0 6.457 5.2383 11.695 11.695 11.695zm65.117-110.86c-0.011719-5.543-1.5312-10.977-4.3906-15.723-2.8594-4.7461-6.957-8.625-11.852-11.227-0.69141 2.668-2.0781 5.1055-4.0273 7.0586 6.0156 3.1602 10.293 8.8594 11.648 15.52 1.3555 6.6562-0.35547 13.574-4.6523 18.836-4.3008 5.2617-10.734 8.3164-17.531 8.3164s-13.23-3.0547-17.531-8.3164c-4.3008-5.2617-6.0078-12.18-4.6523-18.836 1.3555-6.6602 5.6328-12.359 11.645-15.52-2.832-2.8047-4.4336-6.6211-4.4492-10.609v-18.137l-5.3516 5.3984c-1.3867 1.3828-3.6328 1.3828-5.0195 0l-8.9492-8.9492-9.0938 8.9492c-1.3867 1.3828-3.6328 1.3828-5.0195 0l-5.3984-5.3984v18.137h-0.003906c-0.003906 4.0039-1.6055 7.8398-4.4492 10.656 6 3.1562 10.27 8.8398 11.621 15.484 1.3516 6.6484-0.35156 13.547-4.6406 18.801-4.2891 5.25-10.715 8.2969-17.496 8.2969s-13.203-3.0469-17.492-8.2969c-4.293-5.2539-5.9961-12.152-4.6406-18.801 1.3516-6.6445 5.6172-12.328 11.621-15.484-1.9648-1.9414-3.3555-4.3789-4.0273-7.0586-8.0469 4.3867-13.711 12.141-15.449 21.137-1.7344 9 0.64453 18.305 6.4844 25.367s14.531 11.145 23.695 11.133h11.414c1.9609 0 3.5508 1.5898 3.5508 3.5508v34.336c0 1.9609-1.5898 3.5508-3.5508 3.5508-6.9062 0-13.285 3.6836-16.734 9.6602-3.4531 5.9805-3.4531 13.344 0 19.324 3.4492 5.9766 9.8281 9.6602 16.734 9.6602h8.2891-0.003906c-2.6133-3.3164-4.0195-7.4258-3.9766-11.648-0.26953-6.2852 2.5977-12.297 7.6562-16.039 5.0547-3.7422 11.641-4.7305 17.574-2.6406 5.9297 2.0938 10.438 6.9961 12.023 13.086 1.5898 6.0859 0.050781 12.566-4.1055 17.289h8.2422c6.9023 0 13.281-3.6836 16.734-9.6602 3.4492-5.9805 3.4492-13.344 0-19.324-3.4531-5.9766-9.832-9.6602-16.734-9.6602-1.9492-0.050781-3.5039-1.6484-3.5039-3.5977v-34.289c0.023438-1.9492 1.6016-3.5234 3.5508-3.5508h11.461c8.1602-0.011719 15.984-3.2578 21.754-9.0312 5.7695-5.7695 9.0156-13.59 9.0273-21.75zm-22.875-77.195 0.003907-21.926c0-4.3672-3.543-7.9102-7.9102-7.9102-4.3672 0-7.9102 3.543-7.9102 7.9102v68.621c0 4.3672 3.543 7.9102 7.9102 7.9102 4.3672 0 7.9102-3.543 7.9102-7.9102v-14.207c0.007812-0.95313 0.37891-1.8711 1.0391-2.5586l16.148-16.148h0.003906c3.082-3.0859 3.082-8.0898 0-11.176-1.4766-1.4766-3.4766-2.3086-5.5664-2.3086-2.0859 0-4.0898 0.83203-5.5625 2.3086-1.0195 1.0156-2.543 1.3164-3.8711 0.76953-1.3242-0.55078-2.1914-1.8438-2.1914-3.2812zm26.617 8.0977c0.011719 3.9844-1.5742 7.8047-4.4023 10.609l-15.105 15.156v5.4922h46.031-0.003906c0.38281 0.042969 0.75 0.15625 1.0898 0.33203 1.4062-3.9375 2.125-8.0859 2.1328-12.266-0.011718-9.8867-3.9414-19.363-10.93-26.359-6.9844-6.9922-16.457-10.934-26.34-10.961-4.0859 0.007812-8.1367 0.71094-11.984 2.0859v1.4688-0.003906c2.6172-0.82031 5.4062-0.91016 8.0703-0.26172 2.6641 0.65234 5.0977 2.0195 7.0391 3.957 2.8633 2.8398 4.4531 6.7188 4.4023 10.75zm17.949 99.832-11.129-11.035c-1.3867-1.3867-1.3867-3.6328 0-5.0195l14.68-14.68-14.68-14.633v-0.003906c-1.3867-1.3867-1.3867-3.6328 0-5.0195l11.129-11.176h-30.734c10.07 7.0117 16.078 18.512 16.078 30.785 0 12.27-6.0078 23.77-16.078 30.781zm52.664-80.508c0.027344-27.188-14.086-52.434-37.262-66.648-23.172-14.215-52.07-15.355-76.293-3.0117-24.223 12.344-40.281 36.398-42.398 63.504l5.0664 5.0195 8.9023-8.9492 0.003906-0.003906c1.3867-1.3828 3.6328-1.3828 5.0195 0l8.9492 8.9492 7.8633-7.7656v-40.441c0-5.3633 2.8594-10.32 7.5039-13.004 4.6484-2.6797 10.371-2.6797 15.016 0 4.6445 2.6836 7.5039 7.6406 7.5039 13.004v6.9609c3.8828-1.2109 7.918-1.8516 11.984-1.8945 12.652-0.046875 24.723 5.3242 33.152 14.762 8.4297 9.4336 12.418 22.031 10.949 34.598-1.4648 12.57-8.2461 23.91-18.625 31.148l11.082 11.129c1.3867 1.3867 1.3867 3.6328 0 5.0195l-14.68 14.68 6.0625 6.0625-0.003906 0.003906c14.789-5.6719 27.508-15.699 36.473-28.754 8.9648-13.059 13.75-28.531 13.73-44.367zm-173.76 34.285c-4.1133 0.050781-8.0352 1.7305-10.91 4.668-2.8789 2.9375-4.4727 6.8945-4.4336 11.008 0.039062 4.1094 1.7031 8.0391 4.6328 10.926 2.9297 2.8828 6.8828 4.4883 10.992 4.4648 4.1133-0.023438 8.0469-1.6797 10.941-4.5977 2.8945-2.9219 4.5117-6.8711 4.5-10.98-0.011719-4.1445-1.6797-8.1133-4.6328-11.023-2.9531-2.9062-6.9453-4.5156-11.09-4.4648zm0 24.391c-3.6055 0.019532-6.8672-2.1367-8.2617-5.4648-1.3906-3.3242-0.64062-7.1602 1.9023-9.7188 2.543-2.5547 6.375-3.3242 9.707-1.9492 3.332 1.375 5.5078 4.625 5.5078 8.2305 0 4.8984-3.957 8.875-8.8555 8.9023zm68.621-24.391c-4.1211 0-8.0742 1.6406-10.988 4.5547-2.9141 2.918-4.5508 6.8711-4.5469 10.996 0.007813 4.1211 1.6484 8.0742 4.5664 10.984 2.9219 2.9102 6.8789 4.5391 11 4.5312 4.1211-0.007813 8.0742-1.6523 10.98-4.5781 2.9062-2.9219 4.5352-6.8789 4.5234-11-0.015626-4.1133-1.6562-8.0508-4.5664-10.953-2.9141-2.9062-6.8555-4.5352-10.969-4.5352zm0 24.391c-3.6016 0-6.8477-2.168-8.2266-5.4961-1.3789-3.3281-0.61328-7.1562 1.9297-9.7031 2.5469-2.5469 6.3789-3.3086 9.7031-1.9297 3.3281 1.3789 5.4961 4.625 5.4961 8.2266 0 2.3594-0.9375 4.625-2.6055 6.293-1.6719 1.6719-3.9336 2.6094-6.2969 2.6094zm122.32 136.68h-85.242c-1.9609 0-3.5508-1.5898-3.5508-3.5508 0.058594-5.0078 2.3203-9.7344 6.1758-12.926 3.8594-3.1914 8.9258-4.5273 13.855-3.6523 3.9258-5.2539 10.113-8.3281 16.668-8.2852 3.7617 0.015625 7.4492 1.0391 10.68 2.9648 3.2305 1.9219 5.8906 4.6758 7.6953 7.9727 3.8828-2.0977 8.2305-3.1875 12.645-3.1719 5.1289 0.007813 10.145 1.4844 14.457 4.2539 4.3125 2.7695 7.7461 6.7188 9.8867 11.375 0.58984 1.0586 0.58984 2.3477 0 3.4102-0.72266 1.0781-1.9688 1.6914-3.2695 1.6094zm-80.84-7.1055h74.07c-3.4062-3.5625-7.9922-5.7578-12.902-6.1758-4.9102-0.41797-9.8047 0.96875-13.762 3.9023-0.92578 0.72656-2.1523 0.94141-3.2656 0.57031-1.1328-0.33594-2.0117-1.2305-2.3203-2.3672-1.6641-5.8828-6.9648-9.9922-13.074-10.137-4.8789 0-9.3906 2.5977-11.836 6.8203-0.88672 1.4492-2.6523 2.0977-4.2656 1.5625-2.4609-1.0781-5.2656-1.0625-7.7148 0.050782-2.4492 1.1094-4.3086 3.2109-5.1172 5.7734zm-150.12-205.11h-63.934c-1.2031 0-2.3242-0.60547-2.9805-1.6133-0.66797-1.0156-0.75781-2.3086-0.23828-3.4062 2.3594-5.1719 6.7109-9.168 12.059-11.086 5.3516-1.918 11.25-1.5898 16.355 0.90234 3.0508-4.918 8.4219-7.9102 14.207-7.9102 4.9258-0.007813 9.5938 2.1797 12.742 5.9688 3.9023-0.48828 7.8242 0.71875 10.777 3.3203 2.9531 2.5977 4.6484 6.3359 4.6602 10.27 0 0.96094-0.38672 1.8789-1.0742 2.5469-0.6875 0.66797-1.6133 1.0312-2.5742 1.0078zm-35.328-7.1055h30.734c-1.5625-2.6992-4.8672-3.8477-7.7656-2.6992-1.5859 0.57422-3.3594-0.0625-4.2148-1.5156-1.918-3.3047-5.6328-5.1328-9.4219-4.6367-3.7891 0.49609-6.9102 3.2227-7.9102 6.9102-0.22656 0.79688-0.73047 1.4844-1.4219 1.9414zm-21.453 0h17.477c-5.1367-4.0039-12.34-4.0039-17.477 0z"/>
</svg>
