<?xml version="1.0" encoding="UTF-8"?>
<svg width="752pt" height="752pt" version="1.1" viewBox="0 0 752 752" xmlns="http://www.w3.org/2000/svg">
 <defs>
  <clipPath id="b">
   <path d="m139.21 291h33.789v116h-33.789z"/>
  </clipPath>
  <clipPath id="a">
   <path d="m579 363h33.793v115h-33.793z"/>
  </clipPath>
 </defs>
 <path d="m206.23 357.12-1.1133 5.4336c-0.32813 1.5469-0.027344 3.1602 0.83203 4.4844 0.86328 1.3281 2.2148 2.2539 3.7617 2.5859 3.2188 0.68359 6.3828-1.3711 7.0664-4.5898l1.1133-5.4336v-0.003907c0.68359-3.2188-1.3711-6.3828-4.5898-7.0664-3.2227-0.6875-6.3867 1.3672-7.0703 4.5898z"/>
 <path d="m217.33 333.52c1.5469 0.33203 3.1641 0.035156 4.4883-0.82422 1.3281-0.86328 2.2578-2.2148 2.582-3.7656l5.9453-28.129h175.61l-57.047 268.51h-63.254l12.727-49.215c0.46484-1.7852 0.074219-3.6875-1.0547-5.1445-1.1289-1.4609-2.8672-2.3164-4.7148-2.3125h-37.809c-2.7109 0-5.0781 1.8242-5.7695 4.4453l-13.504 52.238h-62.238l36.422-171.27c0.68359-3.2188-1.3711-6.3828-4.5938-7.0703-3.2188-0.68359-6.3828 1.3711-7.0664 4.5898l-37.945 178.45c-0.37109 1.75 0.066406 3.5742 1.1836 4.9688 1.1211 1.3945 2.8086 2.2148 4.5977 2.2344h187.83c2.8125-0.003906 5.2461-1.9727 5.832-4.7227l59.629-280.43c0.36719-1.7578-0.074219-3.5859-1.2031-4.9805-1.1289-1.3945-2.8242-2.207-4.6211-2.2109h-187.83c-2.8086 0-5.2344 1.9648-5.8242 4.7109l-6.9453 32.855c-0.6875 3.2148 1.3633 6.3789 4.5781 7.0664zm56.004 235.79h-25.562l11.582-44.758h25.562z"/>
 <path d="m292.59 335.94h-37.789c-2.8125-0.003906-5.2422 1.9609-5.8242 4.7109l-8.1367 38.277c-0.37891 1.7578 0.058594 3.5938 1.1875 4.9922 1.1328 1.3984 2.8398 2.207 4.6367 2.1992h37.844c2.8125 0 5.2422-1.9648 5.8359-4.7109l8.1367-38.277v-0.003906c0.36719-1.7578-0.078125-3.5859-1.207-4.9805-1.1328-1.3945-2.832-2.207-4.6289-2.207zm-12.961 38.266h-25.629l5.5586-26.352h25.664z"/>
 <path d="m354.25 386.12c2.8086 0 5.2383-1.9648 5.8242-4.7109l8.0898-38.281c0.37891-1.7539-0.0625-3.5898-1.1914-4.9844-1.1328-1.3984-2.832-2.207-4.6289-2.2031h-37.801c-2.8164-0.007812-5.2461 1.9609-5.8359 4.7109l-8.1367 38.277c-0.375 1.7578 0.0625 3.5898 1.1953 4.9883 1.1289 1.3945 2.832 2.207 4.6289 2.2031zm-24.887-38.266h25.664l-5.5586 26.352h-25.762z"/>
 <path d="m234.08 410.25-8.1797 38.266c-0.37109 1.7578 0.070312 3.5898 1.1992 4.9883 1.1289 1.3945 2.8281 2.2109 4.625 2.2148h37.855c2.8125 0 5.2422-1.9727 5.8242-4.7227l8.1797-38.301c0.375-1.7578-0.0625-3.5938-1.1953-4.9922-1.1289-1.3984-2.832-2.2109-4.6289-2.2109h-37.789c-2.8477-0.027344-5.3164 1.9688-5.8906 4.7578zm36.277 7.1914-5.5586 26.375h-25.672l5.5586-26.363z"/>
 <path d="m303.85 410.25-8.1367 38.266c-0.375 1.7578 0.0625 3.5938 1.1953 4.9922 1.1289 1.3984 2.832 2.2109 4.6289 2.2109h37.789c2.8164 0 5.2461-1.9688 5.8359-4.7227l8.1914-38.301c0.37109-1.7578-0.070312-3.5938-1.2031-4.9922-1.1328-1.3945-2.8359-2.207-4.6328-2.2109h-37.789c-2.8438-0.023438-5.3086 1.9688-5.8789 4.7578zm36.309 7.1914-5.5586 26.363h-25.703l5.5586-26.363z"/>
 <path d="m436.96 490.55c2.8125 0 5.2383-1.9727 5.8242-4.7227l8.1367-38.266h-0.003906c0.375-1.7617-0.0625-3.5938-1.1914-4.9922-1.1328-1.3984-2.832-2.2109-4.6328-2.2109h-37.844c-2.8164 0-5.2461 1.9688-5.8359 4.7227l-8.1367 38.266h0.003906c-0.37109 1.7578 0.066406 3.5898 1.1992 4.9883 1.1289 1.3984 2.8281 2.2109 4.625 2.2148zm-24.887-38.277h25.664l-5.5586 26.363h-25.676z"/>
 <path d="m496.29 490.55c2.8125 0 5.2461-1.9688 5.832-4.7227l8.1367-38.266c0.37109-1.7617-0.070313-3.5938-1.2031-4.9922-1.1289-1.3984-2.832-2.2109-4.6328-2.2109h-37.844c-2.8125-0.003906-5.2461 1.9688-5.8242 4.7227l-8.125 38.266c-0.375 1.7617 0.066407 3.5938 1.1953 4.9922 1.1289 1.3984 2.832 2.2109 4.6289 2.2109zm-24.887-38.277h25.688l-5.5586 26.363h-25.73z"/>
 <path d="m413.73 416.35c0 3.2891 2.668 5.957 5.957 5.957h111.03l-31.566 148.49h-48.066l13.125-50.703c0.46484-1.7852 0.078125-3.6875-1.0508-5.1445-1.1289-1.4609-2.8711-2.3164-4.7148-2.3125h-37.855c-2.7109 0.003906-5.0742 1.8281-5.7695 4.4453l-13.883 53.691h-20.438c-3.293 0-5.957 2.668-5.957 5.957 0 3.293 2.6641 5.957 5.957 5.957h165.49c3.2891 0 5.957-2.6641 5.957-5.957 0-3.2891-2.668-5.957-5.957-5.957h-34.656l32.574-153.2h0.003907c0.37109-1.7578-0.070313-3.5938-1.2031-4.9922-1.1328-1.3945-2.8359-2.207-4.6328-2.2109h-118.39c-1.582 0-3.1016 0.63281-4.2188 1.7539-1.1172 1.1211-1.7422 2.6445-1.7383 4.2266zm25.051 154.49h-25.562l11.961-46.246h25.562z"/>
 <path d="m176.43 386.02c1.5469 0.33203 3.1602 0.035157 4.4883-0.82422 1.3242-0.86328 2.2539-2.2148 2.5781-3.7656l27.555-129.6c0.69141-3.2227-1.3555-6.3945-4.5742-7.0859-3.2188-0.69531-6.3906 1.3516-7.0859 4.5742l-27.551 129.61c-0.33594 1.5508-0.039062 3.168 0.82422 4.4961 0.85938 1.332 2.2148 2.2656 3.7656 2.5938z"/>
 <g clip-path="url(#b)">
  <path d="m143.93 405.91c1.5469 0.33203 3.1641 0.035156 4.4883-0.82812 1.3281-0.86328 2.2578-2.2148 2.582-3.7656l21.828-102.68v0.003906c0.68359-3.2188-1.3711-6.3828-4.5898-7.0703-3.2188-0.68359-6.3867 1.3711-7.0703 4.5898l-21.828 102.68c-0.32812 1.5469-0.03125 3.1602 0.83203 4.4844 0.85938 1.3281 2.2109 2.2578 3.7578 2.5859z"/>
 </g>
 <path d="m173.4 267.32c3.2148 0.66016 6.3633-1.3867 7.0703-4.5898l0.44531-2.1016h-0.003906c0.67188-3.2266-1.4023-6.3867-4.6328-7.0586-3.2305-0.66797-6.3906 1.4062-7.0586 4.6367l-0.45703 2.1016h0.003906c-0.64453 3.2109 1.4258 6.3438 4.6328 7.0117z"/>
 <path d="m575.57 383.19c-1.5469-0.32812-3.1562-0.03125-4.4805 0.83203-1.3242 0.85938-2.25 2.2109-2.5781 3.7578l-27.562 129.58c-0.68359 3.2344 1.3828 6.4102 4.6172 7.0977 3.2344 0.68359 6.4141-1.3867 7.0977-4.6211l27.551-129.58c0.32812-1.5508 0.023437-3.1719-0.84766-4.5-0.875-1.3281-2.2422-2.25-3.7969-2.5664z"/>
 <g clip-path="url(#a)">
  <path d="m583.79 477.61c1.543 0.33203 3.1602 0.035157 4.4883-0.82422 1.3242-0.86328 2.2539-2.2188 2.5781-3.7656l21.828-102.67c0.68359-3.2227-1.3711-6.3867-4.5898-7.0703s-6.3828 1.3711-7.0664 4.5898l-21.828 102.68h-0.003906c-0.32812 1.543-0.027344 3.1602 0.83203 4.4844 0.85937 1.3242 2.2148 2.2539 3.7617 2.582z"/>
 </g>
 <path d="m571.56 506.46-0.45703 2.1016v-0.003906c-0.32812 1.5469-0.027343 3.1602 0.83203 4.4883 0.85938 1.3242 2.2109 2.2539 3.7578 2.582 3.2188 0.68359 6.3867-1.3711 7.0703-4.5898l0.44531-2.1016c0.38281-1.5664 0.11719-3.2188-0.73828-4.5859-0.85547-1.3672-2.2305-2.3281-3.8086-2.6641-1.5781-0.33594-3.2227-0.015625-4.5625 0.88281-1.3359 0.89844-2.2539 2.3008-2.5391 3.8906z"/>
 <path d="m452.25 254.21c1.543 0.33203 3.1562 0.03125 4.4805-0.82812 1.3242-0.86328 2.25-2.2148 2.5781-3.7617l0.60937-2.8555c0.68359-3.2188-1.3711-6.3828-4.5898-7.0703-3.2188-0.68359-6.3828 1.3711-7.0703 4.5938l-0.60938 2.8555c-0.67969 3.2227 1.3789 6.3828 4.6016 7.0664z"/>
 <path d="m428.87 364.16c1.5508 0.33984 3.1719 0.042969 4.5039-0.81641 1.332-0.86328 2.2617-2.2227 2.5898-3.7734l15.793-74.301c0.38281-1.5664 0.11719-3.2227-0.73828-4.5859-0.85547-1.3672-2.2305-2.3281-3.8086-2.6641-1.5781-0.33594-3.2227-0.019531-4.5625 0.88281-1.3359 0.89844-2.2539 2.3008-2.5391 3.8906l-15.828 74.332c-0.66406 3.207 1.3867 6.3516 4.5898 7.0352z"/>
 <path d="m452.25 395.43c1.543 0.33203 3.1562 0.039062 4.4844-0.82031s2.2578-2.2109 2.582-3.7578l21.832-102.64c0.38281-1.5664 0.11719-3.2227-0.73828-4.5859-0.85547-1.3672-2.2305-2.3281-3.8086-2.6641-1.5781-0.33594-3.2227-0.019532-4.5625 0.88281-1.3359 0.89844-2.2539 2.3008-2.5391 3.8906l-21.84 102.68v-0.003906c-0.66016 3.2031 1.3906 6.3398 4.5898 7.0234z"/>
 <path d="m535.58 288.94c1.1289 0.30078 2.2969 0.45703 3.4648 0.45703 5.2227 0.003907 9.9062-3.2031 11.793-8.0703l32.164-78.555c2.6406-6.4727 2.3594-13.766-0.76562-20.016-3.1211-6.25-8.7891-10.852-15.547-12.625-6.7578-1.7734-13.953-0.55078-19.742 3.3594-5.793 3.9062-9.6211 10.121-10.5 17.055l-10.461 84.336c-0.88672 6.4531 3.2578 12.531 9.5938 14.059zm2.2227-12.637 10.438-84.258h-0.003907c0.77734-6.168 6.0078-10.809 12.227-10.836 1.0586 0 2.1133 0.13281 3.1367 0.39844 3.4531 0.90234 6.3477 3.2539 7.9375 6.4492 1.5938 3.1953 1.7266 6.9219 0.36328 10.223l-32.086 78.535c-0.14453 0.35547-0.34375 0.83203-1.2109 0.60156-0.86719-0.23437-0.8125-0.74609-0.76953-1.1133z"/>
 <path d="m522.4 339.34c5.3711 1.418 11.082 0.64062 15.879-2.1602 4.7969-2.8008 8.2812-7.3906 9.6836-12.766 1.3945-5.3594 0.60547-11.051-2.1914-15.828-2.8008-4.7773-7.3828-8.2461-12.738-9.6484-5.3594-1.4023-11.051-0.62109-15.832 2.1719-4.7812 2.7969-8.2578 7.3711-9.6641 12.727-1.4102 5.3555-0.63672 11.051 2.1523 15.836 2.7852 4.7812 7.3594 8.2656 12.711 9.6797zm-3.4102-22.496c1.0586-3.9336 4.625-6.668 8.7031-6.668 0.75 0.003907 1.4961 0.097657 2.2227 0.28906 3.5117 0.92188 6.1211 3.8672 6.6172 7.4648 0.49219 3.5977-1.2266 7.1367-4.3594 8.9727-3.1328 1.832-7.0625 1.6016-9.957-0.58984-2.8945-2.1914-4.1875-5.9102-3.2734-9.4219z"/>
</svg>
