<?xml version="1.0" encoding="UTF-8"?>
<svg width="752pt" height="752pt" version="1.1" viewBox="0 0 752 752" xmlns="http://www.w3.org/2000/svg">
 <g>
  <path d="m219.72 239.61c0 6.5391-5.3008 11.84-11.84 11.84-6.5391 0-11.84-5.3008-11.84-11.84s5.3008-11.84 11.84-11.84c6.5391 0 11.84 5.3008 11.84 11.84"/>
  <path d="m254.29 239.61c0 6.5391-5.3008 11.84-11.84 11.84s-11.84-5.3008-11.84-11.84 5.3008-11.84 11.84-11.84 11.84 5.3008 11.84 11.84"/>
  <path d="m288.39 239.61c0 6.5391-5.3008 11.84-11.84 11.84-6.5391 0-11.84-5.3008-11.84-11.84s5.3008-11.84 11.84-11.84c6.5391 0 11.84 5.3008 11.84 11.84"/>
  <path d="m569.7 184.2h-387.39c-17.051 0-31.258 13.734-31.258 31.258v321.56c0 17.051 13.734 31.258 31.258 31.258h387.86c17.051 0 31.258-13.734 31.258-31.258l-0.003907-321.56c-0.47266-17.047-14.207-31.258-31.73-31.258zm-387.39 24.156h387.86c3.7891 0 7.1055 3.3164 7.1055 7.1055v55.41l-402.07-0.003906v-55.41c0-3.7891 3.3164-7.1016 7.1055-7.1016zm387.39 335.29h-387.39c-3.7891 0-7.1055-3.3164-7.1055-7.1055v-242h401.6v242c0 3.7891-3.3164 7.1016-7.1055 7.1016z"/>
  <path d="m294.55 398.73c2.3672 2.3672 5.2109 3.3164 8.5234 3.3164 3.3164 0 6.1562-0.94531 8.5234-3.3164l13.262-13.262 13.262 13.262c2.3672 2.3672 5.2109 3.3164 8.5234 3.3164 3.3164 0 6.1562-0.94531 8.5234-3.3164 4.7344-4.7344 4.7344-12.312 0-17.051l-13.262-13.262 13.262-13.262c4.7344-4.7344 4.7344-12.312 0-17.051-4.7344-4.7344-12.312-4.7344-17.051 0l-13.262 13.262-13.262-13.262c-4.7344-4.7344-12.312-4.7344-17.051 0-4.7344 4.7344-4.7344 12.312 0 17.051l13.262 13.262-13.262 13.262c-4.7305 4.7383-4.7305 12.312 0.007813 17.051z"/>
  <path d="m457.46 338.59c-4.7344-4.7344-12.312-4.7344-17.051 0l-13.262 13.262-13.262-13.262c-4.7344-4.7344-12.312-4.7344-17.051 0-4.7344 4.7344-4.7344 12.312 0 17.051l13.262 13.262-13.262 13.262c-4.7344 4.7344-4.7344 12.312 0 17.051 2.3672 2.3672 5.2109 3.3164 8.5234 3.3164 3.3164 0 6.1562-0.94531 8.5234-3.3164l13.262-13.262 13.262 13.262c2.3672 2.3672 5.2109 3.3164 8.5234 3.3164 3.3164 0 6.1562-0.94531 8.5234-3.3164 4.7344-4.7344 4.7344-12.312 0-17.051l-13.262-13.262 13.262-13.262c4.7422-4.7383 4.7422-12.316 0.007812-17.051z"/>
  <path d="m446.57 434.73h-141.13c-6.6289 0-11.84 5.2109-11.84 11.84s5.2109 11.84 11.84 11.84h66.773v24.152c0 17.523 14.207 31.258 31.258 31.258s31.258-14.207 31.258-31.258v-24.152h11.367c6.6289 0 11.84-5.2109 11.84-11.84 0.47266-6.6328-4.7383-11.84-11.367-11.84zm-35.52 48.305c0 4.2617-3.3164 7.5781-7.5781 7.5781s-7.5781-3.3164-7.5781-7.5781v-24.152h14.68l0.003907 24.152z"/>
 </g>
</svg>
