<?xml version="1.0" encoding="UTF-8"?>
<svg width="752pt" height="752pt" version="1.1" viewBox="0 0 752 752" xmlns="http://www.w3.org/2000/svg">
 <defs>
  <clipPath id="o">
   <path d="m142 139.21h201v140.79h-201z"/>
  </clipPath>
  <clipPath id="h">
   <path d="m409 139.21h201v140.79h-201z"/>
  </clipPath>
  <clipPath id="g">
   <path d="m139.21 449h76.789v31h-76.789z"/>
  </clipPath>
  <clipPath id="f">
   <path d="m537 450h75.793v30h-75.793z"/>
  </clipPath>
  <clipPath id="e">
   <path d="m139.21 405h117.79v31h-117.79z"/>
  </clipPath>
  <clipPath id="d">
   <path d="m498 405h114.79v31h-114.79z"/>
  </clipPath>
  <clipPath id="c">
   <path d="m498 361h114.79v30h-114.79z"/>
  </clipPath>
  <clipPath id="b">
   <path d="m139.21 361h147.79v30h-147.79z"/>
  </clipPath>
  <clipPath id="a">
   <path d="m139.21 316h201.79v31h-201.79z"/>
  </clipPath>
  <clipPath id="n">
   <path d="m467 316h145.79v31h-145.79z"/>
  </clipPath>
  <clipPath id="m">
   <path d="m139.21 583h473.58v29.793h-473.58z"/>
  </clipPath>
  <clipPath id="l">
   <path d="m139.21 494h107.79v31h-107.79z"/>
  </clipPath>
  <clipPath id="k">
   <path d="m505 494h107.79v31h-107.79z"/>
  </clipPath>
  <clipPath id="j">
   <path d="m139.21 538h107.79v31h-107.79z"/>
  </clipPath>
  <clipPath id="i">
   <path d="m505 538h107.79v31h-107.79z"/>
  </clipPath>
 </defs>
 <g clip-path="url(#o)">
  <path d="m154.38 227.64 111.74-72.887c0.36719-0.37109 0.73828-0.73828 1.1094-0.73828l61.418 121.73c1.8516 3.6992 6.2891 5.1797 9.9883 3.3281 3.6992-1.8516 5.1797-6.2891 3.3281-9.9883l-17.391-34.41 7.0312-31.078c0.73828-4.0703-1.4805-7.7695-5.5508-8.8789-4.0703-0.73828-7.7695 1.4805-8.8789 5.5508l-2.9609 13.32-34.406-66.973c0-0.37109-0.37109-0.37109-0.37109-0.73828-4.8086-7.0312-14.059-8.5078-21.09-4.0703-0.37109 0-0.37109 0.37109-0.73828 0.37109l-111.36 72.887c-3.3281 2.2188-4.4414 6.6602-2.2188 10.359 2.2188 3.3281 7.0273 4.4375 10.355 2.2188z"/>
 </g>
 <g clip-path="url(#h)">
  <path d="m413.37 279.07c3.6992 1.8516 8.1406 0.37109 9.9883-3.3281l61.418-121.73c0.37109 0 0.73828 0.37109 1.1094 0.37109l111.73 72.887c3.3281 2.2188 8.1406 1.1094 10.359-2.2188s1.1094-8.1406-2.2188-10.359l-111.73-72.52c-6.6602-4.8086-15.91-3.3281-21.09 3.3281l-0.37109 0.37109c-0.36719 0-0.36719 0.37109-0.36719 0.73828l-34.039 67.336-2.9609-13.32c-0.73828-4.0703-4.8086-6.6602-8.8789-5.5508-4.0703 1.1094-6.6602 4.8086-5.5508 8.8789l7.0312 31.078-17.391 34.41c-2.2188 3.3359-0.73828 7.7734 2.9609 9.625z"/>
 </g>
 <path d="m242.81 290.54-26.641-6.6602c-8.1406-1.8516-16.281 2.9609-18.5 10.73l-5.918 22.199h0.73828c4.0703 0 7.7695-1.1094 10.73-3.6992 1.4805-1.1094 3.6992-2.2188 5.5508-3.3281l2.9609-10.73c0-0.37109 0.37109-0.37109 0.73828-0.37109l16.648 4.4414c2.9609-0.37109 5.918-0.73828 8.8789-0.73828 5.1797 0 10.359 0.73828 15.539 1.8516 0-2.2188-0.73828-4.4414-1.8516-6.2891-1.8477-3.707-5.1758-6.2969-8.875-7.4062z"/>
 <path d="m294.98 313.11c4.8086-3.3281 10.359-5.918 15.91-8.1406l5.5508-19.98c1.1094-4.0703 0.37109-8.8789-1.4805-12.578l-45.512-85.098c-4.0703-7.0312-12.949-9.6211-20.348-5.5508-0.37109 0-0.37109 0.37109-0.73828 0.37109l-80.66 51.43c-3.6992 2.5898-6.2891 5.918-7.3984 10.359l-15.91 58.086h2.2188c4.4414 0 8.5078 0.37109 12.949 1.1094l12.949-48.098 127.27 34.777-6.2891 24.051c0.37109 0 0.74219-0.37109 1.4844-0.73828zm-38.48-118.4 42.918 80.285-118.39-32.559z"/>
 <g clip-path="url(#g)">
  <path d="m146.61 464.8c6.6602 0 13.688 2.2188 18.871 6.2891 7.7695 5.918 17.391 8.8789 27.008 8.5078 8.1406 0.37109 15.91-1.8516 22.938-5.918-2.5898-5.1797-2.9609-11.469-0.73828-17.02-1.1094 0.73828-2.2188 1.1094-2.9609 1.8516-5.5508 4.0703-12.211 6.2891-18.871 6.2891-6.6602 0-13.688-2.2188-18.871-6.2891-8.1328-5.5508-17.754-8.8789-27.375-8.5078-4.0703 0-7.3984 3.3281-7.3984 7.3984 0 4.0703 3.3281 7.3984 7.3984 7.3984z"/>
 </g>
 <g clip-path="url(#f)">
  <path d="m605.39 450c-9.6211 0-19.238 2.9609-27.008 8.5078-11.098 8.1406-26.641 8.1406-37.738 0-1.1094-0.73828-2.2188-1.4805-3.3281-2.2188 2.2188 5.5508 2.2188 11.84 0 17.391 6.6602 4.0703 14.801 5.918 22.57 5.918 9.6211 0 19.238-2.9609 27.008-8.5078 5.5508-4.0703 12.211-6.2891 18.871-6.2891 4.0703 0 7.3984-3.3281 7.3984-7.3984-0.003906-4.0742-3.7031-7.4023-7.7734-7.4023z"/>
 </g>
 <g clip-path="url(#e)">
  <path d="m146.61 420.4c6.6602 0 13.688 2.2188 18.871 6.2891 7.7695 5.918 17.391 8.8789 27.008 8.5078 9.6211 0 19.238-2.9609 27.008-8.5078 5.5508-4.0703 12.211-6.2891 18.871-6.2891 2.2188 0 4.4414 0 6.6602 0.73828l11.098-11.84c-5.5508-2.2188-11.469-3.6992-17.758-3.3281-9.6211 0-19.238 2.9609-27.008 8.5078-5.5508 4.0703-12.211 6.2891-18.871 6.2891-6.6602 0-13.688-2.2188-18.871-6.2891-7.7656-5.918-17.387-8.875-27.008-8.875-4.0703 0-7.3984 3.3281-7.3984 7.3984s3.3281 7.3984 7.3984 7.3984z"/>
 </g>
 <g clip-path="url(#d)">
  <path d="m605.39 405.6c-9.6211 0-19.238 2.9609-27.008 8.5078-11.098 8.1406-26.641 8.1406-37.738 0-12.211-8.5078-28.117-11.098-42.547-5.918v3.3281l8.5078 9.6211c2.2188-0.37109 4.4414-0.73828 6.6602-0.73828 6.6602 0 13.688 2.2188 18.871 6.2891 16.281 11.469 37.738 11.469 54.02 0 5.5508-4.0703 12.211-6.2891 18.871-6.2891 4.0703 0 7.3984-3.3281 7.3984-7.3984-0.003906-4.0742-2.9648-7.4023-7.0352-7.4023z"/>
 </g>
 <g clip-path="url(#c)">
  <path d="m605.39 361.2c-9.6211-0.37109-19.238 2.9609-27.008 8.5078-11.098 8.1406-26.641 8.1406-37.738 0-12.211-8.5078-28.117-11.098-42.547-5.918v16.281c4.8086-2.9609 9.9883-4.4414 15.539-4.0703 6.6602 0 13.688 2.2188 18.871 6.2891 16.281 11.469 37.738 11.469 54.02 0 5.5508-4.0703 12.211-6.2891 18.871-6.2891 4.0703 0 7.3984-3.3281 7.3984-7.3984-0.003906-4.0742-3.3359-7.4023-7.4062-7.4023z"/>
 </g>
 <g clip-path="url(#b)">
  <path d="m146.61 376c6.6602 0 13.688 2.2188 18.871 6.2891 7.7695 5.918 17.391 8.8789 27.008 8.5078 9.6211 0 19.238-2.9609 27.008-8.5078 5.5508-4.0703 12.211-6.2891 18.871-6.2891 6.6602 0 13.688 2.2188 18.871 6.2891 5.1797 3.6992 10.73 6.2891 16.648 7.3984l12.949-13.688h-2.5898c-6.6602 0-13.688-2.2188-18.871-6.2891-7.7695-5.5508-17.387-8.5078-27.008-8.5078-9.6211 0-19.238 2.9609-27.008 8.5078-5.5508 4.0703-12.211 6.2891-18.871 6.2891-6.6602 0-13.688-2.2188-18.871-6.2891-7.7656-5.5508-17.387-8.5078-27.008-8.5078-4.0703 0-7.3984 3.3281-7.3984 7.3984 0 4.0703 3.3281 7.3984 7.3984 7.3984z"/>
 </g>
 <g clip-path="url(#a)">
  <path d="m146.61 331.6c6.6602 0 13.688 2.2188 18.871 6.2891 7.7695 5.918 17.391 8.8789 27.008 8.5078 9.6211 0 19.238-2.9609 27.008-8.5078 5.5508-4.0703 12.211-6.2891 18.871-6.2891 6.6602 0 13.688 2.2188 18.871 6.2891 7.7695 5.918 17.391 8.8789 27.008 8.5078 9.6211 0 19.238-2.9609 27.008-8.5078 4.8086-3.6992 10.359-5.918 16.648-6.2891l12.949-13.688c-3.3281-0.73828-7.0312-1.1094-10.359-1.1094-9.6211 0-19.238 2.9609-27.008 8.5078-11.098 8.1406-26.641 8.1406-37.738 0-8.1406-5.5469-17.758-8.5078-27.379-8.5078-9.6211 0-19.238 2.9609-27.008 8.5078-5.5508 4.0703-12.211 6.2891-18.871 6.2891-6.6602 0-13.688-2.2188-18.871-6.2891-7.7656-5.5469-17.387-8.5078-27.008-8.5078-4.0703 0-7.3984 3.3281-7.3984 7.3984s3.3281 7.3984 7.3984 7.3984z"/>
 </g>
 <g clip-path="url(#n)">
  <path d="m578.38 325.31c-11.098 8.1406-26.641 8.1406-37.738 0-16.281-11.469-37.738-11.469-54.02 0-5.5508 4.0703-12.211 6.2891-18.871 6.2891h8.1445c6.2891 0 12.578 2.5898 16.648 7.3984 0.73828-0.37109 1.4805-0.73828 2.2188-1.4805 11.098-8.1406 26.641-8.1406 37.738 0 16.281 11.469 37.738 11.469 54.02 0 5.5508-4.0703 12.211-6.2891 18.871-6.2891 4.0703 0 7.3984-3.3281 7.3984-7.3984 0-4.0703-3.3281-7.3984-7.3984-7.3984-9.6211 0.37109-19.242 3.332-27.012 8.8789z"/>
 </g>
 <path d="m421.88 316.8c-3.3281 0-6.2891 0.37109-9.25 0.73828l12.949 14.059c3.3281 0.37109 7.0312 1.1094 9.9883 2.9609 3.3281-1.8516 7.0312-2.9609 11.098-2.9609h21.461c-6.6602 0-13.688-2.2188-18.871-6.2891-8.1367-5.5469-17.754-8.5078-27.375-8.5078z"/>
 <path d="m230.23 469.24c2.9609 2.9609 7.7695 2.5898 10.359-0.37109l131.71-142.45c2.5898-2.5898 4.8086-2.9609 5.918-1.8516l91.391 99.527c0.37109 0.73828 1.1094 1.4805 1.8516 1.8516l39.59 43.66c2.5898 2.9609 7.3984 3.3281 10.359 0.37109 2.9609-2.5898 3.3281-7.3984 0.37109-10.359l-38.484-42.18v-63.641c0-4.0703-3.3281-7.3984-7.3984-7.3984h-29.598c-4.0703 0-7.3984 3.3281-7.3984 7.3984v14.801l-49.582-54.387c0-0.37109-0.37109-0.37109-0.73828-0.73828-6.6602-5.5508-17.758-6.6602-26.641 2.5898l-132.09 142.81c-2.5898 2.9609-2.5898 7.7695 0.37109 10.359zm223.47-84.727v-23.309h14.801v39.957l-14.801-16.281v-0.36719z"/>
 <path d="m379.7 516.6c4.0703 0 7.3984-3.3281 7.3984-7.3984 0-4.0703-3.3281-7.3984-7.3984-7.3984h-7.3984c-4.0703 0-7.3984 3.3281-7.3984 7.3984 0 4.0703 3.3281 7.3984 7.3984 7.3984z"/>
 <path d="m357.5 457.4h37c4.0703 0 7.3984-3.3281 7.3984-7.3984v-29.598c0-4.0703-3.3281-7.3984-7.3984-7.3984l-37-0.003906c-4.0703 0-7.3984 3.3281-7.3984 7.3984v29.598c-0.003907 4.0703 3.3281 7.4023 7.3984 7.4023zm7.3984-29.598h22.199v14.801h-22.199z"/>
 <path d="m413 569.13v-18.871c0.37109-10.359-7.7695-18.5-18.129-18.871l-37.738 0.003906c-9.9883 0.37109-18.129 8.8789-18.129 18.871v18.871c5.1797 0.73828 9.9883 1.8516 14.801 4.0703v-22.938c0-1.8516 1.1094-3.6992 3.3281-4.0703h38.109c1.8516 0.37109 3.3281 2.2188 3.3281 4.0703v22.938c4.4414-2.2227 9.25-3.7031 14.43-4.0742z"/>
 <path d="m478.49 579.12c3.6992-2.5898 7.7695-4.8086 12.211-6.6602l-0.003907-94.719c-0.37109-5.5508-2.2188-10.73-5.918-14.801l-96.195-103.6c-3.3281-3.6992-8.5078-5.5508-13.32-5.5508-5.1797 0-9.9883 2.2188-13.32 5.918l-94.715 103.23c-3.6992 4.0703-5.5508 9.6211-5.918 15.168v94.715c4.0703 1.8516 8.1406 4.0703 11.84 6.6602 1.1094 0.73828 1.8516 1.1094 2.9609 1.8516l-0.003906-94.348h199.79v93.977c0.73828-0.37109 1.4805-1.1094 2.5898-1.8477zm-105.45-209.41c0.73828-0.73828 1.4805-1.1094 2.5898-1.1094 0.73828 0 1.8516 0.37109 2.2188 1.1094l95.086 102.49h-194.24z"/>
 <g clip-path="url(#m)">
  <path d="m605.39 583.19c-9.6211 0-19.238 2.9609-27.008 8.5078-11.098 8.1406-26.641 8.1406-37.738 0-16.281-11.469-37.738-11.469-54.02 0-11.098 8.1406-26.641 8.1406-37.738 0-16.281-11.469-37.738-11.469-54.02 0-11.098 8.1406-26.641 8.1406-37.738 0-16.281-11.469-37.738-11.469-54.02 0-11.098 8.1406-26.641 8.1406-37.738 0-7.7695-5.918-17.391-8.8789-27.008-8.5078-9.6211 0-19.238 2.9609-27.008 8.5078-5.5508 4.0703-12.211 6.2891-18.871 6.2891s-13.688-2.2188-18.871-6.2891c-7.7695-5.918-17.391-8.8789-27.008-8.5078-4.0703 0-7.3984 3.3281-7.3984 7.3984 0 4.0703 3.3281 7.3984 7.3984 7.3984 6.6602 0 13.688 2.2188 18.871 6.2891 7.7695 5.918 17.391 8.8789 27.008 8.5078 9.6211 0 19.238-2.9609 27.008-8.5078 5.5508-4.0703 12.211-6.2891 18.871-6.2891 6.6602 0 13.688 2.2188 18.871 6.2891 7.7695 5.918 17.391 8.8789 27.008 8.5078 9.6211 0 19.238-2.9609 27.008-8.5078 11.098-8.1406 26.641-8.1406 37.738 0 16.281 11.469 37.738 11.469 54.02 0 11.098-8.1406 26.641-8.1406 37.738 0 16.281 11.469 37.738 11.469 54.02 0 11.098-8.1406 26.641-8.1406 37.738 0 16.281 11.469 37.738 11.469 54.02 0 5.5508-4.0703 12.211-6.2891 18.871-6.2891 4.0703 0 7.3984-3.3281 7.3984-7.3984 0-4.0664-3.332-7.3984-7.4023-7.3984z"/>
 </g>
 <path d="m592.44 303.48c4.0703-0.73828 8.5078-1.1094 12.949-1.1094h2.2188l-15.539-58.457c-1.1094-4.0703-4.0703-7.7695-7.3984-10.359l-81.027-51.059c-7.0312-4.4414-15.91-2.5898-20.348 4.4414-0.37109 0.37109-0.37109 0.73828-0.37109 0.73828l-45.508 84.355c-2.2188 4.0703-2.5898 8.5078-1.8516 12.949l5.5508 19.98c5.5508 1.8516 10.73 4.4414 15.91 7.7695 0.73828 0.37109 1.4805 0.73828 2.2188 1.4805l-6.2891-24.051 127.27-34.777zm-96.566-108.78 75.105 47.727-118.39 32.559z"/>
 <path d="m535.84 283.88-26.641 6.6602c-3.6992 1.1094-7.0312 3.3281-9.25 7.0312-1.1094 1.8516-1.8516 4.0703-1.8516 6.2891 5.1797-1.1094 10.359-1.8516 15.539-1.8516 2.9609 0 5.918 0.37109 8.5078 0.73828l17.02-4.4414c0.37109 0 0.37109 0.37109 0.73828 0.37109l2.9609 10.73c2.2188 1.1094 4.0703 2.2188 5.5508 3.3281 2.9609 2.5898 7.0312 4.0703 11.098 3.6992h0.73828l-6.2891-21.828c-1.8438-7.7656-9.9805-12.578-18.121-10.727z"/>
 <g clip-path="url(#l)">
  <path d="m146.61 509.2c6.6602 0 13.688 2.2188 18.871 6.2891 7.7695 5.918 17.391 8.8789 27.008 8.5078 9.6211 0 19.238-2.9609 27.008-8.5078 5.5508-4.0703 12.211-6.2891 18.871-6.2891 2.5898 0 5.5508 0.37109 8.1406 1.1094v-15.168c-2.5898-0.37109-5.5508-0.73828-8.1406-0.73828-9.6211 0-19.238 2.9609-27.008 8.5078-5.5508 4.0703-12.211 6.2891-18.871 6.2891-6.6602 0-13.688-2.2188-18.871-6.2891-7.7656-5.5508-17.387-8.8789-27.008-8.5078-4.0703 0-7.3984 3.3281-7.3984 7.3984s3.3281 7.3984 7.3984 7.3984z"/>
 </g>
 <g clip-path="url(#k)">
  <path d="m605.39 494.4c-9.6211 0-19.238 2.9609-27.008 8.5078-11.098 8.1406-26.641 8.1406-37.738 0-7.7695-5.918-17.391-8.8789-27.008-8.5078-2.5898 0-5.5508 0.37109-8.1406 0.73828v15.168c2.5898-0.73828 5.1797-1.1094 8.1406-1.1094 6.6602 0 13.688 2.2188 18.871 6.2891 16.281 11.469 37.738 11.469 54.02 0 5.5508-4.0703 12.211-6.2891 18.871-6.2891 4.0703 0 7.3984-3.3281 7.3984-7.3984-0.003906-4.0703-3.3359-7.3984-7.4062-7.3984z"/>
 </g>
 <g clip-path="url(#j)">
  <path d="m146.61 553.59c6.6602 0 13.688 2.2188 18.871 6.2891 7.7695 5.918 17.391 8.8789 27.008 8.5078 9.6211 0 19.238-2.9609 27.008-8.5078 5.5508-4.0703 12.211-6.2891 18.871-6.2891 2.5898 0 5.5508 0.37109 8.1406 1.1094v-15.168c-2.5898-0.37109-5.5508-0.73828-8.1406-0.73828-9.6211 0-19.238 2.9609-27.008 8.5078-5.5508 4.0703-12.211 6.2891-18.871 6.2891-6.6602 0-13.688-2.2188-18.871-6.2891-7.7695-5.918-17.391-8.8789-27.008-8.5078-4.0703 0-7.3984 3.3281-7.3984 7.3984 0 4.0703 3.3281 7.3984 7.3984 7.3984z"/>
 </g>
 <g clip-path="url(#i)">
  <path d="m605.39 538.79c-9.6211 0-19.238 2.9609-27.008 8.5078-11.098 8.1406-26.641 8.1406-37.738 0-7.7695-5.918-17.391-8.8789-27.008-8.5078-2.5898 0-5.5508 0.37109-8.1406 0.73828v15.168c2.5898-0.73828 5.1797-1.1094 8.1406-1.1094 6.6602 0 13.688 2.2188 18.871 6.2891 16.281 11.469 37.738 11.469 54.02 0 5.5508-4.0703 12.211-6.2891 18.871-6.2891 4.0703 0 7.3984-3.3281 7.3984-7.3984-0.003906-4.0664-3.3359-7.3984-7.4062-7.3984z"/>
 </g>
</svg>
