<?xml version="1.0" encoding="UTF-8"?>
<svg width="752pt" height="752pt" version="1.1" viewBox="0 0 752 752" xmlns="http://www.w3.org/2000/svg">
 <g>
  <path d="m497.42 277.4c-8.1875-23.059-23.301-43.02-43.27-57.16s-43.816-21.762-68.285-21.828c-38.676-0.11719-74.93 18.805-96.945 50.602-15.797-3.3281-32.266 0.007812-45.523 9.2148-13.258 9.2109-22.129 23.48-24.523 39.441-23.383 3.1211-43.551 17.957-53.496 39.348-9.9414 21.387-8.2852 46.371 4.4023 66.258 12.684 19.887 34.641 31.926 58.227 31.926h19.734-0.003907c5.4492 0 9.8672-4.418 9.8672-9.8672s-4.418-9.8672-9.8672-9.8672h-19.734 0.003906c-17.625 0-33.91-9.4023-42.723-24.664s-8.8125-34.066 0-49.332c8.8125-15.262 25.098-24.664 42.723-24.664 2.6172 0 5.1289-1.0391 6.9766-2.8906 1.8516-1.8477 2.8906-4.3594 2.8906-6.9766 0.011719-10.461 4.1758-20.492 11.574-27.891 7.3984-7.3984 17.426-11.562 27.891-11.574 4.332 0.058594 8.6211 0.83984 12.699 2.3125 4.375 1.5273 9.2227-0.21484 11.617-4.1836 13.359-22.047 34.828-37.98 59.801-44.379 24.973-6.3984 51.457-2.75 73.773 10.156 22.312 12.91 38.68 34.051 45.582 58.891 1.1367 4.5273 5.3828 7.5664 10.039 7.1875 0.26953-0.019531 3.2734-0.34766 3.5469-0.38672 21.148 0 40.691 11.285 51.266 29.602 10.574 18.312 10.574 40.879 0 59.195-10.574 18.316-30.117 29.598-51.266 29.598h-9.8672c-5.4492 0-9.8672 4.418-9.8672 9.8672s4.418 9.8672 9.8672 9.8672h9.8672c27.84 0 53.621-14.664 67.848-38.594 14.227-23.93 14.797-53.586 1.4961-78.043-13.301-24.457-38.5-40.102-66.32-41.164z"/>
  <path d="m385.87 395.73h-98.664c-5.4453 0-9.8633 4.418-9.8633 9.8672 0 5.4492 4.418 9.8633 9.8633 9.8633h98.664c5.4492 0 9.8672-4.4141 9.8672-9.8633 0-5.4492-4.418-9.8672-9.8672-9.8672z"/>
  <path d="m297.07 464.8c0 2.6172 1.0391 5.1289 2.8906 6.9805 1.8477 1.8477 4.3594 2.8867 6.9766 2.8867h177.59c5.4492 0 9.8672-4.418 9.8672-9.8672s-4.418-9.8672-9.8672-9.8672h-177.59c-2.6172 0-5.1289 1.0391-6.9766 2.8906-1.8516 1.8516-2.8906 4.3594-2.8906 6.9766z"/>
  <path d="m267.47 454.93h-19.734c-5.4492 0-9.8633 4.418-9.8633 9.8672s4.4141 9.8672 9.8633 9.8672h19.734c5.4492 0 9.8672-4.418 9.8672-9.8672s-4.418-9.8672-9.8672-9.8672z"/>
  <path d="m445.07 415.46c5.4492 0 9.8633-4.4141 9.8633-9.8633 0-5.4492-4.4141-9.8672-9.8633-9.8672h-19.734c-5.4492 0-9.8672 4.418-9.8672 9.8672 0 5.4492 4.418 9.8633 9.8672 9.8633z"/>
  <path d="m385.87 514.13c-5.4492 0-9.8672 4.418-9.8672 9.8672 0 5.4492 4.418 9.8672 9.8672 9.8672h59.199c5.4492 0 9.8633-4.418 9.8633-9.8672 0-5.4492-4.4141-9.8672-9.8633-9.8672z"/>
  <path d="m287.2 533.86h59.199c5.4492 0 9.8672-4.418 9.8672-9.8672 0-5.4492-4.418-9.8672-9.8672-9.8672h-59.199c-5.4453 0-9.8633 4.418-9.8633 9.8672 0 5.4492 4.418 9.8672 9.8633 9.8672z"/>
 </g>
</svg>
