<?xml version="1.0" encoding="UTF-8"?>
<svg width="752pt" height="752pt" version="1.1" viewBox="0 0 752 752" xmlns="http://www.w3.org/2000/svg">
 <g>
  <path d="m372.7 199.18-14.801 7.3984v0.003907c-3.6562 1.8242-5.1406 6.2734-3.3164 9.9297 1.8281 3.6562 6.2734 5.1406 9.9297 3.3164l14.801-7.3984v-0.003906c3.6562-1.8242 5.1406-6.2695 3.3164-9.9297-1.8281-3.6562-6.2734-5.1406-9.9297-3.3164z"/>
  <path d="m390.8 294.61c0-5.8867-2.3398-11.535-6.5-15.699-4.1641-4.1602-9.8125-6.5-15.699-6.5-5.8867 0-11.535 2.3398-15.695 6.5-4.1641 4.1641-6.5039 9.8125-6.5039 15.699s2.3398 11.535 6.5039 15.695c4.1602 4.1641 9.8086 6.5039 15.695 6.5039 5.8867 0 11.535-2.3398 15.699-6.5039 4.1602-4.1602 6.5-9.8086 6.5-15.695zm-29.598 0c0-2.9922 1.8008-5.6914 4.5664-6.8359 2.7656-1.1484 5.9492-0.51172 8.0664 1.6016 2.1133 2.1172 2.7461 5.3008 1.6016 8.0664s-3.8438 4.5664-6.8359 4.5664c-4.0859 0-7.3984-3.3125-7.3984-7.3984z"/>
  <path d="m265.01 257.61c0 4.0859-3.3164 7.4023-7.4023 7.4023-4.0859 0-7.3984-3.3164-7.3984-7.4023 0-4.0859 3.3125-7.3984 7.3984-7.3984 4.0859 0 7.4023 3.3125 7.4023 7.3984"/>
  <path d="m585.87 465.36c-3.7734-1.5586-8.0977 0.23047-9.6641 4.0039-24.094 58.332-106.46 99.031-200.21 99.031-88.16 0-166.18-36.016-195.25-88.797h117.45c-8.8789 10.496-17.113 21.527-24.648 33.031-1.0508 1.6562-1.4023 3.6641-0.97656 5.5781 0.42578 1.918 1.5977 3.5859 3.2539 4.6367 3.4492 2.1953 8.0234 1.1758 10.215-2.2734 9.543-14.477 20.215-28.176 31.914-40.973h56.934c1.1094 21.781-0.9375 43.609-6.0742 64.805-0.47656 1.9062-0.17578 3.9219 0.83203 5.6055 1.0117 1.6836 2.6484 2.8984 4.5547 3.3711 0.58594 0.14062 1.1875 0.21094 1.7891 0.21484 3.3945-0.003906 6.3516-2.3164 7.1719-5.6094 5.5391-22.801 7.7188-46.293 6.4688-69.727 3.4062-0.9375 6.6641-2.3477 9.6758-4.1875 5.8555-3.6094 10.594-8.7734 13.684-14.918 2.5547-5.1328 2.2773-11.219-0.73828-16.094-3.0117-4.875-8.3281-7.8477-14.062-7.8594h-30.566l12.297-18.453c2.043-3.1094 3.8125-6.3867 5.2852-9.8008 10.359-6.3398 20.719-12.676 30.863-18.898 6.6875-3.8438 13.082-8.1836 19.121-12.984v37.938c0.011719 9.8086 3.9141 19.211 10.848 26.148 6.9375 6.9375 16.34 10.84 26.152 10.852h2.8555l-1.25 2.5156c-1.8672 3.6758-4.7109 6.7656-8.2188 8.9336-3.5078 2.1641-7.543 3.3242-11.664 3.3477h-26.121c-4.0898 0-7.4023 3.3125-7.4023 7.4023 0 4.0859 3.3125 7.3984 7.4023 7.3984h26.121c2.6914-0.027344 5.375-0.35938 7.9961-0.98438 11.086 9.5273 17.527 23.367 17.68 37.984 0 4.0859 3.3125 7.3984 7.3984 7.3984 4.0859 0 7.4023-3.3125 7.4023-7.3984-0.0625-16.668-6.5977-32.656-18.227-44.594 4.5625-3.3945 8.2812-7.7969 10.863-12.867l6.5938-13.246c1.1367-2.293 1.0117-5.0156-0.33984-7.1914-1.3516-2.1758-3.7305-3.5-6.293-3.5h-14.797c-4.4102-0.003907-8.7188-1.3242-12.375-3.7852-3.6562-2.4648-6.5-5.9609-8.1602-10.047 31.062-3.9492 62.477-4.2969 93.621-1.0273 3.9922 0.39062 7.5703-2.4688 8.0625-6.4492 0.49609-3.9805-2.2695-7.6328-6.2344-8.2305-32.297-3.5078-64.895-3.1758-97.113 0.98438v-44.895c11.949-12.25 21.805-26.379 29.176-41.824 54.164 20.066 91.957 55.156 101.56 94.812 0.95703 3.9727 4.957 6.4141 8.9297 5.4531 3.9727-0.96094 6.4141-4.957 5.4531-8.9297-10.73-44.324-51.723-83.152-110.25-104.99 6.2656-17.031 9.4922-35.031 9.5312-53.18v-17.688c-0.011719-9.8086-3.9141-19.211-10.852-26.148s-16.34-10.836-26.148-10.848h-54.387c-4.7266-13.227-15.434-23.434-28.867-27.531-13.434-4.0938-28.012-1.5898-39.309 6.75-11.301 8.3398-17.988 21.535-18.031 35.578 0 0.93359 0.082031 1.8438 0.14062 2.7617l-35.52 17.758c-3.6562 1.8398-5.1289 6.293-3.2891 9.9492 1.8398 3.6562 6.293 5.1289 9.9492 3.2891l32.367-16.211c5.4414 12.586 16.395 21.949 29.676 25.371 13.281 3.418 27.395 0.51172 38.242-7.8828 10.844-8.3906 17.203-21.32 17.23-35.035h51.797c4.0273 0.015625 7.9766 1.1289 11.422 3.2188 3.4414 2.0938 6.2461 5.0898 8.1133 8.6602-6.5664 10.141-14.715 19.164-24.137 26.727-12.32 9.7305-26.508 16.824-41.684 20.836-3.5977 0.94922-5.9297 4.418-5.4531 8.1094 0.47656 3.6875 3.6211 6.4492 7.3398 6.4453 0.63672 0 1.2695-0.082031 1.8867-0.24219 17.152-4.5391 33.184-12.555 47.105-23.555 6.4375-5.1484 12.332-10.934 17.605-17.27v6.957c-0.039062 24.82-6.625 49.195-19.098 70.656s-30.391 39.25-51.941 51.57c-6.0156 3.6992-12.082 7.3984-18.137 11.098 0.15625-1.8516 0.40625-3.6992 0.40625-5.543l0.003906 0.003906c-0.007812-18.816-8.2812-36.68-22.625-48.852-14.348-12.176-33.32-17.426-51.883-14.367-18.566 3.0586-34.852 14.121-44.531 30.254l-27.898 46.469c-2.0156 3.4961-0.85938 7.9609 2.5977 10.039 3.4609 2.0781 7.9453 1.0039 10.086-2.418l27.902-46.492c6.8789-11.367 18.051-19.477 30.988-22.496s26.547-0.69531 37.746 6.4492c11.199 7.1484 19.043 18.508 21.754 31.516 2.7148 13.004 0.066406 26.551-7.3438 37.578l-19.98 29.961v0.003907c-1.4961 2.2695-1.6289 5.1758-0.34375 7.5742 1.2852 2.3945 3.7812 3.8945 6.5 3.9023h44.398c0.60938 0 1.168 0.32031 1.4805 0.84375 0.32422 0.49219 0.36328 1.125 0.10547 1.6562-1.875 3.6797-4.7148 6.7734-8.2227 8.9531-3.4961 2.168-7.5234 3.3242-11.641 3.3438h-87.367l52.871-92.496c1.0312-1.707 1.3281-3.7539 0.82422-5.6836-0.5-1.9297-1.7578-3.5742-3.4883-4.5625-1.7305-0.98828-3.7852-1.2383-5.7031-0.69141-1.918 0.54688-3.5312 1.8438-4.4805 3.5977l-57.066 99.836h-106.7v-2.8867c-0.003906-4.4336 1.2305-8.7812 3.5664-12.551 2.332-3.7695 5.6719-6.8125 9.6445-8.7891 12.152-6.0898 20.219-18.109 21.25-31.664l3.4766-44.988c2.2305-29.641 13.879-57.793 33.25-80.34 2.6562-3.1055 2.2891-7.7773-0.81641-10.434-3.1055-2.6562-7.7773-2.2891-10.434 0.81641-18.789 21.875-31.055 48.594-35.391 77.102-25.684 24.59-39.344 53.605-39.344 84.137 0.015625 5.4961 0.48828 10.98 1.4102 16.398-0.92969 3.3594-1.4062 6.8281-1.4102 10.312v10.289c0 1.9609 0.77734 3.8438 2.1641 5.2305 1.3906 1.3867 3.2734 2.168 5.2344 2.168h2.9141c28.617 61.203 114.53 103.59 211.68 103.59 99.578 0 187.52-44.48 213.85-108.16 1.5703-3.7695-0.21094-8.0977-3.9805-9.6719zm-224.67-222.55c-7.8516 0-15.379-3.1211-20.93-8.6719-5.5508-5.5508-8.6719-13.078-8.6719-20.93 0-7.8477 3.1211-15.379 8.6719-20.93 5.5508-5.5508 13.078-8.668 20.93-8.668 7.8477 0 15.379 3.1172 20.93 8.668 5.5508 5.5508 8.668 13.082 8.668 20.93 0 7.8516-3.1172 15.379-8.668 20.93-5.5508 5.5508-13.082 8.6719-20.93 8.6719zm-172.69 165.01c-0.64453 8.3555-5.625 15.766-13.121 19.512-2.25 1.1602-4.3828 2.5391-6.3633 4.1172 1.1797-20.512 8.8789-40.109 21.977-55.938z"/>
  <path d="m597.99 442.6c0 4.0859-3.3125 7.4023-7.3984 7.4023s-7.4023-3.3164-7.4023-7.4023c0-4.0859 3.3164-7.3984 7.4023-7.3984s7.3984 3.3125 7.3984 7.3984"/>
 </g>
</svg>
