<?xml version="1.0" encoding="UTF-8"?>
<svg width="752pt" height="752pt" version="1.1" viewBox="0 0 752 752" xmlns="http://www.w3.org/2000/svg">
 <g>
  <path d="m527.26 290.71c-8.1914-19.32-19.891-36.703-34.809-51.621-14.918-14.918-32.297-26.617-51.621-34.809-20.031-8.4766-41.297-12.785-63.223-12.785h-3.125c-89.555 0-162.44 72.695-162.44 162.06v186.02l0.51953 1.2773c4.832 12.125 15.863 19.652 28.84 19.652s24.012-7.5312 28.84-19.652l0.42578-1.1367c3.125-7.8633 10.133-10.703 15.629-10.703 5.4922 0 12.504 2.793 15.629 10.703l0.42578 1.1367c4.832 12.125 15.863 19.652 28.84 19.652 12.977 0 24.012-7.5312 28.84-19.652l0.42578-1.1367c3.125-7.8633 10.133-10.703 15.629-10.703 5.4922 0 12.504 2.793 15.629 10.703l0.42578 1.1367c4.832 12.125 15.863 19.652 28.84 19.652s24.012-7.5312 28.84-19.652l0.42578-1.1367c3.125-7.8633 10.133-10.703 15.629-10.703 5.4922 0 12.504 2.793 15.629 10.703l0.42578 1.1367c4.832 12.125 15.863 19.652 28.84 19.652 12.977 0 24.012-7.5312 28.84-19.652l0.51953-1.2773v-185.64c-0.12891-21.93-4.3906-43.191-12.871-63.223zm-1.4648 246.07c-3.3164 7.0078-9.8984 9.5195-15.105 9.5195-5.4922 0-12.504-2.793-15.629-10.703l-0.42578-1.1367c-4.832-12.125-15.863-19.652-28.84-19.652s-24.012 7.5312-28.84 19.652l-0.42578 1.1367c-3.125 7.8633-10.133 10.703-15.629 10.703-5.4922 0-12.504-2.793-15.629-10.703l-0.42578-1.1367c-4.832-12.125-15.863-19.652-28.84-19.652-12.977 0-24.012 7.5312-28.84 19.652l-0.42578 1.1367c-3.125 7.8633-10.133 10.703-15.629 10.703-5.4922 0-12.504-2.793-15.629-10.703l-0.42578-1.1367c-4.832-12.125-15.863-19.652-28.84-19.652s-24.012 7.5312-28.84 19.652l-0.42578 1.1367c-3.125 7.8633-10.133 10.703-15.629 10.703-5.2109 0-11.793-2.5117-15.105-9.5195l-0.011719-183.23c0-81.551 66.492-147.85 148.23-147.85h3.125c39.59 0 76.816 15.438 104.8 43.426 27.988 27.988 43.426 65.211 43.426 104.8z"/>
  <path d="m307 291.14c-23.68 0-42.906 19.227-42.906 42.906 0 23.68 19.227 42.906 42.906 42.906s42.906-19.227 42.906-42.906c0-23.633-19.227-42.906-42.906-42.906zm0 71.605c-15.816 0-28.699-12.883-28.699-28.699 0-9.4258 4.5469-17.809 11.602-23.016l25.715 14.066v-18.422c11.602 3.6953 20.078 14.539 20.078 27.371 0.003907 15.816-12.879 28.699-28.695 28.699z"/>
  <path d="m445 291.14c-23.68 0-42.906 19.227-42.906 42.906 0 23.68 19.227 42.906 42.906 42.906 23.68 0 42.906-19.227 42.906-42.906 0-23.633-19.277-42.906-42.906-42.906zm0 71.605c-15.816 0-28.699-12.883-28.699-28.699 0-12.691 8.2891-23.488 19.75-27.277v18.281l25.906-14.16c7.1055 5.2109 11.746 13.641 11.746 23.109-0.007812 15.863-12.887 28.746-28.703 28.746z"/>
 </g>
</svg>
