<?xml version="1.0" encoding="UTF-8"?>
<svg width="752pt" height="752pt" version="1.1" viewBox="0 0 752 752" xmlns="http://www.w3.org/2000/svg">
 <defs>
  <clipPath id="a">
   <path d="m139.21 154h473.58v444h-473.58z"/>
  </clipPath>
 </defs>
 <g clip-path="url(#a)">
  <path d="m259.98 154.12c-9.6719-0.22656-18.617 1.5195-26.363 3.9883-10.324 3.2969-18.52 7.8477-24.164 11.91-6.8594 4.9375-11.277 11.414-14.422 17.805-3.1445 6.3945-5.0352 12.832-6.332 18.676-1.0391 4.6875-1.457 8.5078-1.8477 12.023-6.3789 3.0078-12.879 6.0391-18.039 8.7266-7.3086 3.8125-13.75 7.5664-19.223 13.125-5.4688 5.5586-9.457 13.535-10.258 21.738-0.80469 8.1992 0.82812 16.25 3.6133 25.23 2.9727 9.6016 7.3203 18.32 13.641 25.469 6.3242 7.1445 14.641 12.48 24.02 15.406 9.3828 2.9219 19.637 3.4648 30.699 2.168 2.7617-0.32812 5.6484-0.74609 8.5273-1.3008 2.875-0.55859 5.8477-1.1836 8.8438-1.9688 2.1094-0.55078 4.2734-1.3008 6.4453-1.9648l0.23047 0.43359 3.9336 7.1406c-1.8594 0.0625-3.7773-0.027344-5.5781 0.17188-7.2539 0.81641-14.09 2.7578-20.32 5.4648-6.2344 2.707-11.879 6.1992-16.824 10.262-4.9453 4.0586-9.1953 8.6523-12.66 13.672-3.4648 5.0195-6.1367 10.508-7.7773 16.273-1.6367 5.7656-2.1836 11.84-1.1836 18.035s3.7461 12.359 8.0938 17.461c2.2344 2.6484 5.3281 4.4297 8.7383 5.0312 3.4141 0.60156 6.9297-0.011718 9.9336-1.7383 0 0-0.042969-0.078125 0.66406-0.43359 0.70312-0.34766 1.875-0.83984 3.3828-1.4453s3.3203-1.3359 5.4648-1.9648c2.1445-0.62891 4.5742-1.1797 7.1953-1.6172 2.625-0.4375 5.4609-0.73047 8.4102-0.78125 2.9531-0.050782 6.0234 0.15234 9.1953 0.66406 3.168 0.51172 6.4883 1.3672 9.8281 2.6328 3.3359 1.2656 6.75 2.9492 10.258 5.2305 1.418 0.92187 2.8359 1.6094 4.25 2.3984 1.5859 6.1367 3.4805 11.805 6.0117 16.621 3.2148 6.1172 7.2578 11.195 11.594 15.289 2.3398 2.2109 4.7891 3.6094 7.1953 5.3477-2.9922 2.4961-6.0273 5.2227-9.0469 8.5273-3.4492 3.7773-6.8008 8.0508-9.7422 13.008-2.9414 4.957-5.4609 10.535-7.1953 16.707s-2.5742 12.922-2.3984 20.09c0.17188 7.1641 1.4023 14.816 3.9297 22.633 1.625 5.0273 3.3867 9.9883 5.6641 14.945 2.0742 4.5039 4.5977 8.9062 7.5742 13.238h-16.301c-21.312-1.7188-21.312 31.199 0 29.48h133.16c11.738 0.027344 18.836-12.977 12.457-22.832l-7.1953-10.93-6.4453-10.027c1.6445 0.003907 3.2656-0.003906 4.9141 0 5.375 0.011719 10.773 0.078125 16.156 0.085938 5.3828 0.007812 10.773 0 16.156 0 15.465 0.027343 29.242 0.80469 42.953 0.78125 13.715-0.023438 27.406-0.89062 41.742-4.8008 14.332-3.9102 29.082-10.816 44.887-21.852 7.9023-5.5156 16.125-12.105 24.801-19.887 8.6797-7.7812 17.812-16.754 27.633-27.199 7.7227-8.3086 3.6094-21.867-7.4258-24.48-5.6328-1.3164-10.984-2.4531-16.16-3.3828-5.1758-0.92969-10.113-1.6836-14.855-2.2852-4.7422-0.60156-9.3398-1.1094-13.672-1.4453-4.332-0.33203-8.5195-0.50781-12.461-0.63672-15.766-0.51562-28.395 0.27344-38.441 0.43359-10.047 0.16406-17.152-0.31641-22.953-2.3984-2.8984-1.0391-5.582-2.4688-8.6133-4.7109-2.1055-1.5625-4.5781-4.2344-6.9922-6.7617-0.3125-4.7148-0.53906-9.4258-0.98438-13.875-0.41797-4.1523-0.97266-8.043-1.5039-11.996l6.7344-2.1094 18.703-5.8984 18.672-5.7812 18.559-5.8945c9.9336-3.125 13.629-15.266 7.1094-23.387l-9.3945-11.676-9.5078-11.707-9.3945-11.68-5.0312-6.2422 2.6328-12.66 3.9297-19.57 4.0469-19.539 4.0469-19.566c1.8789-9.0312-4.8828-17.562-14.105-17.809l-20.523-0.54688-20.551-0.63672-20.523-0.55078-12.023-0.43359-1.5312-2.9453-5.6953-10.492-5.6641-10.379-5.6953-10.492c-2.6367-4.8789-7.7812-7.8633-13.324-7.7461-4.8008 0.125-9.2383 2.5469-11.91 6.5312l-8.8438 13.125-8.7305 13.094-8.7578 13.121-2.8047 4.1641c-0.089844-0.078125-0.14453-0.15625-0.23047-0.23047-1.6992-1.4727-3.4219-3.0039-5.2617-4.4805-1.8398-1.4766-3.7812-2.8945-5.7812-4.3672-2-1.4727-4.0703-3.0195-6.2422-4.4805-0.66797-0.44531-1.3711-0.85547-2.0547-1.3008-1.2188-4.0195-2.4727-8.1797-3.8438-11.82-2.0391-5.4297-4.168-10.422-6.5312-15.059-2.3633-4.6406-4.875-8.8789-7.543-12.777-2.6719-3.8984-5.5742-7.4258-8.5273-10.609-11.816-12.734-25.902-19.617-39.34-21.852-3.3633-0.55859-6.6641-0.84766-9.8867-0.92578zm-0.72266 29.57c1.9062 0.039063 3.8086 0.20703 5.6953 0.51953 7.543 1.2539 14.988 4.5391 22.633 12.777 1.9102 2.0586 3.7695 4.457 5.6641 7.2266 1.8945 2.7695 3.7539 5.9258 5.5781 9.5078 1.8242 3.582 3.6641 7.5156 5.3477 11.996 1.6836 4.4844 3.2344 9.5234 4.7109 14.973 1.0195 3.6641 3.3867 6.8086 6.6484 8.7578 1.9922 1.2148 3.8789 2.3672 5.6953 3.5859 1.8164 1.2188 3.4531 2.5039 5.1172 3.7305 1.6602 1.2227 3.293 2.3555 4.8242 3.582 1.5352 1.2305 3.0586 2.4961 4.4805 3.7305 4.2461 3.6797 8.0234 7.3867 11.68 11.156s7.0859 7.5703 10.695 11.445c3.6055 3.8789 7.3945 7.8242 11.473 11.707 4.082 3.8828 8.5352 7.7266 13.559 11.359 4.7422 3.4297 9.2383 7.2461 13.555 11.562 4.3203 4.3164 8.4844 9.2227 12.344 14.77 3.8594 5.5508 7.5039 11.73 10.812 18.906 3.3047 7.1758 6.25 15.273 8.8438 24.453 1.207 4.2695 2.3633 8.8008 3.3828 13.555 1.0195 4.7578 1.9336 9.7891 2.7461 15.062 0.80859 5.2695 1.4648 10.801 2.0508 16.617 0.58203 5.8203 1.1094 11.848 1.4453 18.242 0.12891 3.2383 1.3125 6.3438 3.3828 8.8438 4.8672 5.7656 9.8477 10.562 15.059 14.422 5.2109 3.8594 10.695 6.7305 16.273 8.7305 11.156 4.0039 22.145 4.3438 33.328 4.1641 11.18-0.18359 22.973-0.89844 37.141-0.43359 3.543 0.11328 7.1758 0.25 11.043 0.54688 3.8711 0.30078 7.8945 0.76562 12.141 1.3008 0.27344 0.035156 0.58984 0.082031 0.86719 0.11719-1.9102 1.793-4.1719 4.2461-6.0117 5.8945-7.9297 7.1094-15.215 12.891-21.969 17.605-13.508 9.4297-24.824 14.598-35.727 17.574-10.902 2.9727-21.68 3.793-34.078 3.8164-12.398 0.019531-26.363-0.83984-42.84-0.86719-5.3672 0-10.785 0.007813-16.156 0-5.3711-0.007812-10.668-0.10547-16.043-0.11719-5.3711-0.011719-10.809 0.011719-16.188 0-5.375-0.011719-10.66 0.007813-16.039 0-11.742-0.023437-18.836 12.98-12.461 22.836l7.082 10.926 6.5625 10.176h-47.172c-3.6094-2.3438-7.0508-4.6758-9.6289-6.9961-3.2148-2.9023-5.6914-5.8086-7.8594-8.8438-2.1719-3.0391-4.0703-6.207-5.6953-9.7422-1.625-3.5391-2.9766-7.4961-4.3633-11.793-1.7148-5.3047-2.5312-9.8906-2.6328-14.078s0.44531-7.9062 1.418-11.359c0.96875-3.4531 2.3984-6.6523 4.1602-9.625 1.7656-2.9727 3.8516-5.8047 6.1289-8.2969 2.2773-2.4922 4.6992-4.6406 7.082-6.5625 2.3828-1.918 4.7852-3.5234 6.793-4.7969 4.0156-2.5469 6.2148-3.6133 6.2148-3.6133 10.789-4.7812 11.914-19.664 1.9648-26.016-4.9609-3.1211-9.3789-5.582-13.008-7.8594-3.625-2.2812-6.4805-4.3242-8.7266-6.4453-1.3281-1.2539-2.4336-2.6133-3.5-4.1055 2.7656-0.63672 5.418-1.4453 7.8633-2.543 4.3555-1.957 8.1406-4.5195 11.477-7.3438 3.332-2.8242 6.1797-5.8945 8.7266-9.0469 2.5508-3.1523 4.8008-6.4727 6.793-9.625 1.9922-3.1562 3.7812-6.2148 5.3477-9.0781 1.5703-2.8594 2.9766-5.5273 4.1641-7.7461 2.5-4.668 2.3164-10.312-0.47656-14.812-2.793-4.4961-7.7734-7.1641-13.062-6.9922-5.293 0.16797-10.094 3.1484-12.594 7.8164-1.293 2.4141-2.6523 5.0039-4.0469 7.543-1.3906 2.5391-2.832 5.1211-4.3633 7.543-1.5312 2.4258-3.168 4.6328-4.7969 6.6484-1.6328 2.0195-3.2109 3.8008-4.8008 5.1484-1.5898 1.3438-3.082 2.3203-4.4805 2.9453-1.3945 0.62891-2.6797 0.89453-4.1602 0.98438-1.4805 0.089843-3.2695-0.042969-5.5781-0.75-2.3086-0.71094-5.1836-1.9336-8.6133-4.1641-5.2773-3.4297-10.555-6.0898-15.84-8.0938-5.2891-2.0039-10.609-3.3203-15.641-4.1328-5.0273-0.8125-9.8672-1.1758-14.422-1.0977-4.5547 0.078124-8.7422 0.55859-12.66 1.2109-2.918 0.48828-5.4727 1.0781-7.9766 1.7344 0.69141-1.7305 1.332-3.4688 2.6289-5.3438 1.8164-2.6328 4.2109-5.3086 7.082-7.6602 2.8672-2.3555 6.1797-4.4297 9.8281-6.0156 3.6445-1.582 7.6055-2.6758 11.82-3.1484 4.2148-0.47266 8.7617-0.35156 13.527 0.63672 4.7656 0.98438 9.8281 2.9258 15.203 5.9258 3.75 2.0625 8.207 2.4062 12.223 0.9375 4.0195-1.4688 7.2031-4.6055 8.7344-8.5977 0.65234-1.6719 1.3203-3.2109 1.8789-4.8008 0.55859-1.5859 1.0234-3.2109 1.5312-4.7109 0.51172-1.5 1-2.9414 1.5039-4.3633 0.50391-1.418 1.0039-2.8125 1.5312-4.1641 0.53125-1.3477 1.0586-2.6328 1.6484-3.9297 0.58984-1.3008 1.2812-2.543 1.9648-3.8164 0.68359-1.2734 1.3789-2.5352 2.1992-3.8164 0.81641-1.2773 1.7148-2.6211 2.7148-3.9297 2.375-3.0078 3.4883-6.8164 3.1094-10.629s-2.2227-7.332-5.1406-9.8125c-2.9219-2.4805-6.6875-3.7344-10.512-3.4922-4.3516 0.29688-8.3477 2.4961-10.926 6.0117-1.5078 1.9727-2.9141 3.9453-4.1641 5.8984-1.25 1.9492-2.3555 3.8711-3.3828 5.7812-0.66406 1.2383-1.2227 2.418-1.7891 3.6133l-1.3906-2.5156-6.0977-11.246-6.2422-11.27c-3.5625-6.4062-11.262-9.2266-18.125-6.6484-2.8477 1.0742-5.6875 1.9805-8.3242 2.832-2.6367 0.85156-5.0938 1.6758-7.5156 2.3125-2.4219 0.63281-4.7891 1.0742-6.9961 1.5039-2.2031 0.42578-4.2578 0.74609-6.2422 0.98047-7.9219 0.93359-13.91 0.42969-18.441-0.98047-4.5312-1.4141-7.793-3.5703-10.723-6.8828-2.9297-3.3125-5.5156-7.9648-7.5469-14.508-2.1719-7.0195-2.5977-11.504-2.3984-13.559 0.20312-2.0547 0.19531-2.2188 1.8789-3.9297 1.6836-1.7109 5.6094-4.4336 11.793-7.6602 6.1875-3.2266 14.539-6.9492 24.688-11.793 5.0625-2.4219 8.3203-7.4844 8.4102-13.094 0 0-0.066406-1.5547 0.20312-4.4805 0.26562-2.9258 0.82422-7.0469 1.7617-11.273 0.9375-4.2266 2.3594-8.5625 4.0469-11.996 1.6875-3.4336 3.5508-5.75 5.1172-6.8789 2.7812-2.0039 8.8555-5.4297 15.84-7.6602 5.2383-1.6719 10.984-2.7148 16.707-2.6016zm136.03 51.652 5.2617 9.8281 5.6641 10.492c2.5078 4.6406 7.3047 7.5859 12.574 7.75l20.523 0.54688 20.551 0.66406 20.523 0.55078 2.9766 0.11719-0.46484 2.2812-4.0156 19.539-4.0469 19.57-4.0469 19.566c-0.85547 4.332 0.26953 8.8125 3.0625 12.23l9.3945 11.676 9.5117 11.707 5.2305 6.4453-16.621 5.2305-18.672 5.7812-3.4102 1.0703c-0.70312-2.9922-1.3594-6.0664-2.168-8.9297-2.9805-10.547-6.4609-20.168-10.465-28.848-4-8.6836-8.5664-16.465-13.441-23.473-4.8711-7.0078-10.117-13.27-15.637-18.789-5.5195-5.5156-11.254-10.281-17.141-14.539-3.7305-2.6992-7.1367-5.6484-10.492-8.8438-3.3555-3.1953-6.6641-6.6367-10.145-10.379-0.96484-1.0352-2.1211-2.2227-3.1211-3.293l5.9531-8.9336 8.7305-13.121z" fill-rule="evenodd"/>
 </g>
</svg>
