<?xml version="1.0" encoding="UTF-8"?>
<svg width="752pt" height="752pt" version="1.1" viewBox="0 0 752 752" xmlns="http://www.w3.org/2000/svg">
 <g>
  <path d="m469.19 483.32-76.906-53.242c-9.1445-6.332-19.859-9.6797-30.98-9.6797h-3.6094c-2.9766 0-5.9883 0.25-8.9453 0.74609l-48.504 8.082c-5.4922-13.984-14.246-24.117-22.895-33.801l12.742 2.125c2.5586 0.43359 5.207 0.64844 7.8477 0.64844h0.76172c8.2969 0 16.488-2.1758 23.672-6.2891l31.699-18.113c26.574 33.934 67.422 54.004 110.72 54.004 77.527 0 140.59-63.066 140.59-140.59 0-77.527-63.066-140.6-140.59-140.6s-140.59 63.07-140.59 140.59c0 13.984 2.1602 27.703 6.1875 40.934l-22.621 13.57c-6.8164 4.0859-15.035 5.5703-22.82 4.1602l-63.535-11.551c8.7695-8.2422 13.992-19.859 13.992-32.312v-14.801c0-12.484-5.2969-24.457-14.539-32.855-9.2344-8.3906-21.703-12.512-34.203-11.336-22.457 2.1406-40.055 22.262-40.055 45.785v13.207c0 15.953 8.5703 30.539 22.199 38.41v2.9219l-1.1367 1.1445c-8.8086 8.8047-13.66 20.52-13.66 32.973 0 10.234 3.4336 20.328 9.6719 28.438l48.484 63.031c12.273 15.953 31.617 25.477 51.742 25.477 6.3555 0 12.668-0.92578 18.758-2.7539l38.418-11.52 74.359 53.121c5.0938 3.625 11.078 5.5469 17.34 5.5469 10.648 0 20.105-5.6172 25.395-14.246l3.0625 2.2266c4.1523 3.0234 9.0664 4.6211 14.203 4.6211 13.32 0 24.152-10.832 24.152-24.152v-4.0703c0-7.9258-3.8867-15.348-10.406-19.852zm121.02-203.52h-29.223v14.801h29.223c-2.7969 47.699-32.188 88.285-73.621 107.1l0.003906-10.906c0-12.238-9.9609-22.199-22.199-22.199h-59.199c-4.0781 0-7.3984-3.3242-7.3984-7.3984 0-4.0781 3.3242-7.3984 7.3984-7.3984h29.598v-14.801h-29.598c-12.238 0-22.199 9.9609-22.199 22.199s9.9609 22.199 22.199 22.199h59.199c4.0781 0 7.3984 3.3164 7.3984 7.3984v16.629c-11.707 3.6094-24.125 5.5703-37 5.5703-39.109 0-75.965-18.309-99.727-49.188 2.2578-3.7812 3.5312-8.1523 3.5312-12.695v-2.1328c0-13.371-10.664-24.234-23.922-24.691-2.2422-7.2734-3.8164-14.711-4.707-22.289h13.828v-14.801h-14.801c0-5.0156 0.37891-9.9375 0.94531-14.801l50.855 0.003906c12.238 0 22.199-9.9609 22.199-22.199v-37c0-4.0781 3.3242-7.3984 7.3984-7.3984 4.0781 0 7.3984 3.3242 7.3984 7.3984 0 12.238 9.9609 22.199 22.199 22.199 12.238 0 22.199-9.9609 22.199-22.199l0.003907-51.418c27.895 1.6328 53.379 12.273 73.492 29.219h-36.496c-12.238 0-22.199 9.9609-22.199 22.199s9.9609 22.199 22.199 22.199h29.598c4.0781 0 7.3984 3.3242 7.3984 7.3984 0 4.0781-3.3242 7.3984-7.3984 7.3984h-59.199c-12.238 0-22.199 9.9609-22.199 22.199 0 12.238 9.9609 22.199 22.199 22.199h66.598v-14.801h-66.598c-4.0781 0-7.3984-3.3242-7.3984-7.3984 0-4.0781 3.3242-7.3984 7.3984-7.3984h59.199c12.238 0 22.199-9.9609 22.199-22.199 0-12.238-9.9609-22.199-22.199-22.199h-29.598c-4.0781 0-7.3984-3.3242-7.3984-7.3984 0-4.0781 3.3242-7.3984 7.3984-7.3984h51.34c17.195 20.195 28.039 45.863 29.68 73.996zm-132.82-118.02v51.418c0 4.0781-3.3242 7.3984-7.3984 7.3984-4.0781 0-7.3984-3.3242-7.3984-7.3984 0-12.238-9.9609-22.199-22.199-22.199-12.238 0-22.199 9.9609-22.199 22.199v37c0 4.0781-3.3242 7.3984-7.3984 7.3984h-48.137c12.801-52.773 58.879-92.547 114.73-95.816zm-44.613 362.21c-3.1445 0-6.1641-0.96875-8.7305-2.7969l-65.035-46.457 2.9141-0.875c11.676-3.5234 24.738-1.3242 34.691 5.9141l49.504 36.008c-2.5117 4.9141-7.5703 8.207-13.344 8.207zm52.012-16.754c0 5.1641-4.1953 9.3555-9.3516 9.3555-1.9922 0-3.8906-0.61328-5.4961-1.7852l-64.621-47.004c-13.676-9.9453-31.617-12.957-47.652-8.1172l-59.25 17.766c-19.625 5.8984-42.039-1.3398-54.52-17.566l-48.496-63.023c-4.2539-5.5352-6.6016-12.422-6.6016-19.414 0-8.5039 3.3164-16.492 9.3242-22.512l5.4766-5.4766v-18.426l-4.4336-1.9375c-10.797-4.7266-17.766-15.359-17.766-27.098v-13.207c0-15.984 11.715-29.621 26.668-31.051 8.4727-0.8125 16.59 1.8711 22.836 7.5547 6.1562 5.5938 9.6953 13.578 9.6953 21.902v14.801c0 11.734-6.9688 22.371-17.766 27.098l-4.4336 1.9375v14.141l83.891 15.258c11.309 2.0508 23.219-0.10938 33.086-6.0312l23.293-13.977c1.5508-0.9375 3.3281-1.4258 5.1406-1.4258 5.5039 0 9.9805 4.4766 9.9805 9.9805v2.1328c0 3.5742-1.9258 6.8984-5.0312 8.6641l-33.75 19.285c-4.957 2.832-10.594 4.3359-16.324 4.3359h-0.76172c-1.8203 0-3.6406-0.15625-5.4102-0.45312l-85.496-14.242-2.4336 14.602 50.125 8.3555c3.5312 4.4609 7.1641 8.6797 10.746 12.691 7.6719 8.5781 14.828 16.895 19.625 27.41l-21.297 3.5508 2.4336 14.602 84.957-14.156c2.1523-0.38672 4.3438-0.5625 6.5117-0.5625h3.6094c8.0938 0 15.902 2.4336 22.562 7.043l76.898 53.242c2.5234 1.7539 4.0312 4.6172 4.0312 7.6953z"/>
  <path d="m553.59 572.73v-85.734h-14.801v85.734l-16.965-16.969-10.465 10.465 34.832 34.828 34.828-34.828-10.461-10.465z"/>
  <path d="m191.01 557.93v-85.73h-14.797v85.73l-16.969-16.965-10.465 10.461 34.832 34.832 34.832-34.832-10.465-10.461z"/>
  <path d="m324.2 572.73v-70.934h-14.801v70.934l-16.965-16.969-10.465 10.465 34.832 34.828 34.828-34.828-10.461-10.465z"/>
  <path d="m314.64 211.04-10.465-10.461-16.969 16.965v-70.934h-14.797v70.934l-16.969-16.965-10.461 10.461 34.828 34.832z"/>
  <path d="m368.6 287.2h14.801v14.801h-14.801z"/>
  <path d="m538.79 309.4h-92.496c-2.043 0-3.6992-1.6562-3.6992-3.6992 0-10.195-8.3008-18.5-18.5-18.5h-25.898v14.801h25.898c2.043 0 3.6992 1.6562 3.6992 3.6992 0 10.195 8.3008 18.5 18.5 18.5h92.496c4.0781 0 7.3984 3.3242 7.3984 7.3984 0 4.0781-3.3242 7.3984-7.3984 7.3984h-59.199v14.801h59.199c12.238 0 22.199-9.9609 22.199-22.199 0-12.238-9.957-22.199-22.199-22.199z"/>
 </g>
</svg>
