<?xml version="1.0" encoding="UTF-8"?>
<svg width="752pt" height="752pt" version="1.1" viewBox="0 0 752 752" xmlns="http://www.w3.org/2000/svg">
 <defs>
  <clipPath id="a">
   <path d="m139.21 187h473.58v382h-473.58z"/>
  </clipPath>
 </defs>
 <g clip-path="url(#a)">
  <path d="m590.59 187.31h-429.18c-5.8867 0-11.535 2.3398-15.695 6.5039-4.1641 4.1602-6.5039 9.8086-6.5039 15.695v288.59c0 5.8867 2.3398 11.531 6.5039 15.695 4.1602 4.1641 9.8086 6.5039 15.695 6.5039h181.29v33.297h-29.598c-4.0898 0-7.4023 3.3125-7.4023 7.3984 0 4.0898 3.3125 7.4023 7.4023 7.4023h125.79c4.0859 0 7.3984-3.3125 7.3984-7.4023 0-4.0859-3.3125-7.3984-7.3984-7.3984h-37v-33.297h188.7c5.8867 0 11.531-2.3398 15.695-6.5039 4.1641-4.1641 6.5039-9.8086 6.5039-15.695v-288.59c0-5.8867-2.3398-11.535-6.5039-15.695-4.1641-4.1641-9.8086-6.5039-15.695-6.5039zm-251.59 292.29v-21.461c0.003906-2.7695-1.5391-5.3086-3.9961-6.5859l-75.59-41.879 34.926-24.012 74.258 66.301v27.637zm29.598-183.96-50.836-16.094 26.156-45.062v-0.003906c1.8438-2.582 5.2656-3.4844 8.1406-2.1445l10.359 5.2891v0.003906c1.9609 0.98828 4.0352 1.7344 6.1797 2.2188v54.758c-0.023437 0.34375-0.023437 0.69141 0 1.0352zm-10.691 45.062c4.9961 1.4023 10.164 2.0742 15.352 2 4.5039 0.046875 8.9922-0.48828 13.359-1.5898l43.438-11.988h-0.003906c-6.5234 18.586-16.699 35.684-29.93 50.281-6.3594 7.0469-15.336 11.168-24.828 11.395-12.914 0-25.898-7.7344-35.188-21.199h0.003906c-8.668-12.855-15.422-26.902-20.055-41.699zm25.309-44.398h-0.003906c0.12891-0.55469 0.19141-1.1289 0.1875-1.6992v-54.684c2.9609-0.57812 5.8086-1.6289 8.4336-3.1094l6.8438-4.0312c1.2266-0.76953 2.7148-1 4.1172-0.63672 1.3984 0.36328 2.5898 1.2891 3.2852 2.5586l30.043 47.32zm3.8828 257.29h-29.598v-33.297h29.598zm29.598-95.457v21.461h-33.297v-24.938l73.145-67.781 33.297 22.793-69.629 42.176c-2.1836 1.3477-3.5117 3.7266-3.5156 6.2891zm181.29-126.54h-66.598c-4.0859 0-7.3984 3.3164-7.3984 7.4023 0 4.0859 3.3125 7.3984 7.3984 7.3984h66.598v14.801h-37c-4.0859 0-7.3984 3.3125-7.3984 7.3984 0 4.0859 3.3125 7.3984 7.3984 7.3984h37v103.6h-82.395c-0.46484-0.8125-1.082-1.5273-1.8125-2.1094l-46.988-37 40.402-23.977v0.003906c2.1719-1.2891 3.5352-3.5977 3.6211-6.125 0.082032-2.5234-1.1328-4.918-3.2148-6.3438l-49.652-34.148c-1.25-0.85938-2.7383-1.3125-4.2539-1.2969h-26.641c8.5859-13.91 15.434-28.82 20.387-44.398l36.445-10.062c5.9414-1.0352 10.332-6.1094 10.508-12.137-0.53125-5.7695-5.0156-10.391-10.77-11.098l-31.781-11.469-33.297-52.316c-3.5898-6.0664-10.121-9.7812-17.168-9.7695-3.6016 0-7.1406 0.95703-10.25 2.7734l-6.8438 4.0312v0.003906c-4.8008 2.1914-10.285 2.3516-15.207 0.44141l-10.359-5.2891c-4.7344-2.3984-10.195-2.9375-15.305-1.5039-5.1094 1.4297-9.4961 4.7266-12.297 9.2383l-29.117 50.02c-0.84375 0.48047-1.5859 1.1211-2.1836 1.8867l-31.633 10.879c-8.5078 1.9961-10.508 6.4375-10.656 9.8398s1.5156 8.1758 10.027 10.805l35.223 11.801v0.003906c4.3555 16.203 10.801 31.773 19.164 46.32h-26.602c-1.4922 0-2.9492 0.45313-4.1797 1.2969l-49.652 34.148c-2.0859 1.4258-3.2969 3.8203-3.2148 6.3438 0.082031 2.5273 1.4492 4.8359 3.6211 6.125l39.809 23.641 0.48047 0.48047-43.988 34.926c-1.2734 1.0273-2.1719 2.4453-2.5508 4.0352h-81.656v-103.6h36.996c4.0859 0 7.4023-3.3125 7.4023-7.3984 0-4.0859-3.3164-7.3984-7.4023-7.3984h-36.996v-14.801h66.598c4.0859 0 7.3984-3.3125 7.3984-7.3984 0-4.0859-3.3125-7.4023-7.3984-7.4023h-66.598v-122.09c0-4.0859 3.3125-7.3984 7.3984-7.3984h429.18c1.9609 0 3.8438 0.77734 5.2305 2.168 1.3867 1.3867 2.168 3.2695 2.168 5.2305z"/>
 </g>
 <path d="m228.01 368.6c0 4.0859-3.3125 7.3984-7.3984 7.3984-4.0898 0-7.4023-3.3125-7.4023-7.3984 0-4.0859 3.3125-7.3984 7.4023-7.3984 4.0859 0 7.3984 3.3125 7.3984 7.3984"/>
 <path d="m538.79 368.6c0 4.0859-3.3125 7.3984-7.3984 7.3984-4.0859 0-7.3984-3.3125-7.3984-7.3984 0-4.0859 3.3125-7.3984 7.3984-7.3984 4.0859 0 7.3984 3.3125 7.3984 7.3984"/>
</svg>
