<?xml version="1.0" encoding="UTF-8"?>
<svg width="752pt" height="752pt" version="1.1" viewBox="0 0 752 752" xmlns="http://www.w3.org/2000/svg">
 <g>
  <path d="m432.83 390.21v28.414c0 23.504-19.117 42.621-42.621 42.621v56.828c0 7.8516-6.3555 14.207-14.207 14.207-7.8516 0-14.207-6.3555-14.207-14.207l-0.003906-56.824c-23.504 0-42.621-19.117-42.621-42.621v-28.414c0-7.8516 6.3555-14.207 14.207-14.207 7.8516 0 14.207 6.3555 14.207 14.207v28.414c0 7.8359 6.3711 14.207 14.207 14.207v-56.832c0-7.8516 6.3555-14.207 14.207-14.207s14.207 6.3555 14.207 14.207v56.828c7.8359 0 14.207-6.3711 14.207-14.207v-28.414c0-7.8516 6.3555-14.207 14.207-14.207 7.8555 0 14.211 6.3555 14.211 14.207z"/>
  <path d="m560.7 546.49h-28.414l-0.003906-156.29c7.8516 0 14.207-6.3555 14.207-14.207s-6.3555-14.207-14.207-14.207h-0.96094c-2.1406-23.504-9.2461-46.125-21.527-66.402 22.531-30.191 31.562-76.645 5.5781-112.44-3.1367-4.2852-8.3672-6.4922-13.695-5.6875-5.2578 0.82031-9.6289 4.5234-11.293 9.5859-8.0742 24.434-23.973 45.801-38.574 52.652-46.477-25.918-105.14-25.918-151.62 0-14.598-6.8516-30.492-28.219-38.574-52.652-1.668-5.0625-6.0352-8.7695-11.293-9.5859-5.3555-0.84766-10.555 1.3867-13.695 5.6875-25.984 35.797-16.953 82.246 5.5781 112.44-12.273 20.277-19.383 42.898-21.523 66.402h-0.96094c-7.8516 0-14.207 6.3555-14.207 14.207s6.3555 14.207 14.207 14.207v156.28h-28.414c-7.8516 0-14.207 6.3555-14.207 14.207 0 7.8516 6.3555 14.207 14.207 14.207h369.39c7.8516 0 14.207-6.3555 14.207-14.207 0-7.8477-6.3555-14.203-14.207-14.203zm-290.52-261.9c-11.211-11.879-22.949-34.434-20.895-57.383 12.266 19.965 29.355 36.879 49.102 41.652 3.7188 0.92969 7.5625 0.26562 10.793-1.7031 40.402-24.891 93.238-24.891 133.64 0 3.2188 1.9688 7.0742 2.625 10.793 1.7031 19.742-4.7734 36.836-21.684 49.102-41.652 2.0547 22.949-9.6836 45.508-20.895 57.383-4.6367 4.9258-5.1602 12.418-1.2773 17.938 12.492 17.734 19.863 38.023 22.234 59.258h-28.461c-6.9336-48.105-48.32-85.238-98.316-85.238s-91.383 37.133-98.316 85.246h-28.461c2.3711-21.23 9.7422-41.52 22.234-59.258 3.8828-5.5273 3.3594-13.02-1.2773-17.945zm176.86 261.9h-142.07v-170.49c0-39.168 31.867-71.039 71.039-71.039 39.168 0 71.039 31.867 71.039 71.039zm-198.91-156.29h28.414v156.28h-28.414zm227.32 156.29v-156.29h28.414v156.28z"/>
 </g>
</svg>
