<?xml version="1.0" encoding="UTF-8"?>
<svg width="752pt" height="752pt" version="1.1" viewBox="0 0 752 752" xmlns="http://www.w3.org/2000/svg">
 <path d="m603.81 304.27c-0.78125-10.5-5.7344-18.641-14.328-23.539-34.809-19.836-127.88 19.035-167.13 37.094-0.65625-1.9922-1.3906-3.9375-2.2227-5.8203l29.328-22.32c1.5391-1.1758 2.5391-2.9258 2.7578-4.8477l10.23-89.668c0.44531-3.8945-2.3555-7.418-6.2539-7.8633-3.9141-0.48438-7.418 2.3555-7.8633 6.2539l-9.8867 86.66-25.621 19.5c-1.7188-2.2305-3.5508-4.3281-5.5391-6.2266 13.453-5.6992 22.863-18.426 22.863-33.211 0-19.477-12.176-36.449-29.891-43.75 8.0312-15.32 16.57-37.496 15.328-61.066-0.20312-3.918-3.4883-6.9492-7.4688-6.7188-3.918 0.20703-6.9297 3.5508-6.7188 7.4688 1.1523 21.883-7.8477 43.035-15.441 56.762-6.6133-0.69531-13.305-0.69141-19.918 0.003907-7.5898-13.703-16.574-34.82-15.414-56.766 0.20703-3.918-2.8008-7.2617-6.7188-7.4688-3.8867-0.24609-7.2617 2.8008-7.4688 6.7188-1.2422 23.574 7.2969 45.746 15.328 61.066-17.719 7.3008-29.895 24.277-29.895 43.754 0 14.785 9.4102 27.512 22.863 33.211-1.9883 1.8945-3.8203 3.9961-5.5391 6.2266l-25.621-19.496-9.8867-86.656c-0.44531-3.9023-3.9648-6.7305-7.8633-6.2539-3.8984 0.44531-6.6953 3.9648-6.2539 7.8633l10.227 89.668c0.21875 1.9258 1.2148 3.6758 2.7578 4.8477l29.328 22.316c-0.83203 1.8828-1.5664 3.8281-2.2227 5.8203-39.258-18.066-132.32-56.953-167.14-37.094-8.5938 4.8984-13.547 13.039-14.328 23.539-0.84766 11.445 2.9336 22.141 10.941 30.938 8.3867 9.2148 20.836 15.715 36.027 19.223-1.1992 3.4102-1.6953 7.0469-1.3984 10.836 0.60156 7.6328 4.1094 14.355 10.141 19.441 11.531 9.7188 29.531 11.773 42.699 11.773 4.7539 0 8.8789-0.26953 11.84-0.53516 27.094-2.4922 44.121-11.406 59.152-19.273 5.3242-2.7852 10.469-5.4336 15.816-7.7383 4.2617 8.3086 10.215 15.262 17.316 20.215-10.348 5.4961-18.43 14.402-22.68 25.113l-28.293 1.3164c-2.9492 0.13281-5.5117 2.0859-6.4258 4.8984l-25.492 78.305c-1.2148 3.7266 0.82422 7.7383 4.5547 8.9531 0.73047 0.23437 1.4688 0.34766 2.2031 0.34766 2.9922 0 5.7773-1.9062 6.7539-4.9062l23.977-73.641 19.551-0.91016c-0.054688 0.90625-0.14453 1.8047-0.14453 2.7227v18.891l-17.672 6.4023c-2.3086 0.83594-4.0234 2.8086-4.5312 5.2109l-23.086 109.43c-0.80859 3.8398 1.6445 7.6094 5.4844 8.418 0.49609 0.10156 0.98828 0.15234 1.4727 0.15234 3.2852 0 6.2383-2.293 6.9453-5.6367l22.27-105.56 9.1172-3.3047v3.75c0 32.523 16.457 62.484 44.176 80.988v46.078c0 3.9219 3.1797 7.1055 7.1055 7.1055s7.1016-3.1836 7.1016-7.1055v-46.074c27.715-18.504 44.176-48.469 44.176-80.992v-3.7539l9.1172 3.3047 22.27 105.56c0.70703 3.3438 3.6602 5.6367 6.9414 5.6367 0.48437 0 0.98047-0.050781 1.4766-0.15234 3.8398-0.80859 6.293-4.5781 5.4844-8.418l-23.082-109.43c-0.50781-2.4062-2.2188-4.375-4.5312-5.2109l-17.672-6.4023v-18.891c0-0.91797-0.089844-1.8164-0.14453-2.7227l19.551 0.91016 23.969 73.641c0.98047 3 3.7617 4.9062 6.7578 4.9062 0.72656 0 1.4688-0.10938 2.1953-0.34766 3.7305-1.2148 5.7734-5.2266 4.5586-8.9531l-25.492-78.312c-0.91406-2.8125-3.4727-4.7617-6.4297-4.8984l-28.289-1.3164c-4.2539-10.715-12.336-19.621-22.684-25.117 7.1016-4.9531 13.055-11.906 17.312-20.215 5.3516 2.3047 10.496 4.9531 15.82 7.7383 15.027 7.8672 32.059 16.781 59.148 19.273 2.9648 0.26953 7.0898 0.53516 11.84 0.53516 13.172 0 31.172-2.0547 42.699-11.773 6.0352-5.0859 9.5391-11.809 10.141-19.441 0.30078-3.793-0.19531-7.4258-1.3945-10.84 15.195-3.5078 27.645-10.012 36.031-19.227 8-8.7812 11.781-19.48 10.93-30.922zm-434.18 21.375c-5.3906-5.9219-7.8398-12.762-7.2773-20.32 0.42969-5.8047 2.7148-9.6992 7.1914-12.25 27.051-15.414 112.92 18.57 157.07 39.012-0.22266 2.2344-0.36719 4.4961-0.36719 6.7969 0 0.58203 0.058594 1.1445 0.074219 1.7227-21.098-0.36719-34.855 0.4375-49.25 1.2852-15.258 0.89844-31.035 1.832-57.105 1.3125-22.234-0.4375-40.582-6.8398-50.34-17.559zm141.37 38.441c-14.535 7.6094-29.57 15.48-53.859 17.711-19.273 1.7695-36.16-1.2734-44.082-7.9492-3.1523-2.6562-4.832-5.8242-5.1328-9.6914-0.21484-2.7266 0.39062-5.1094 1.7656-7.3281 3.25 0.30859 6.582 0.51172 10.004 0.57812 5.2969 0.10547 10.172 0.15234 14.707 0.15234 18.281 0 31.066-0.75 43.512-1.4844 14.586-0.85938 28.469-1.668 50.277-1.2227 0.0625 0.26172 0.10547 0.53125 0.17188 0.78906-6.1055 2.5977-11.816 5.5391-17.363 8.4453zm25.062-103.8c0-4.1758 0.81641-8.1875 2.3008-11.895v0.015625c0 5.7227 4.6562 10.375 10.375 10.375 5.7227 0 10.375-4.6562 10.375-10.375 0-5.7227-4.6562-10.375-10.375-10.375-1.75 0-3.375 0.47656-4.8242 1.2461 5.5586-6.5312 13.652-11.062 22.988-12.117 3.0195-0.34375 6.0547-0.51172 9.0938-0.51172 3.0352 0 6.0742 0.17188 9.0898 0.51172 9.3359 1.0547 17.43 5.5859 22.988 12.113-1.4453-0.76562-3.0703-1.2422-4.8164-1.2422-5.7227 0-10.379 4.6562-10.379 10.375 0 5.7227 4.6562 10.375 10.379 10.375 5.7188 0 10.379-4.6523 10.379-10.375 1.4805 3.7031 2.293 7.707 2.293 11.875 0 12.246-10.957 22.207-24.418 22.207h-31.031c-13.465 0-24.418-9.9609-24.418-22.203zm39.938 277.53c-6.0938-4.1602-11.52-8.9805-16.234-14.305 5.4062 0.33203 10.926 0.47266 16.234 0.47266s10.824-0.14062 16.234-0.47266c-4.7188 5.3242-10.141 10.145-16.234 14.305zm27.105-29.746c-6.8594 0.97266-15.965 1.707-27.105 1.707s-20.246-0.73438-27.105-1.707c-3.3047-6.0547-5.832-12.492-7.5156-19.188 10.211 2.0508 22.93 2.6914 34.621 2.6914s24.41-0.64062 34.621-2.6914c-1.6836 6.6953-4.2148 13.133-7.5156 19.188zm9.9648-38.957c0 1.5508-0.058594 3.0977-0.14453 4.6328-6.4609 1.7383-19.051 3.6172-36.926 3.6172s-30.465-1.8789-36.926-3.6172c-0.085937-1.5391-0.14453-3.082-0.14453-4.6328v-13.164c10.57 2.4727 24.43 3.2109 37.07 3.2109s26.5-0.73828 37.07-3.2109zm-0.94141-45.352c0.59375 2.4492 0.94141 4.9844 0.94141 7.6016v9.9336c-6.4102 1.75-19.055 3.6602-37.07 3.6602s-30.656-1.9062-37.07-3.6562v-9.9336c0-2.6172 0.34375-5.1523 0.94141-7.6016 10.441 2.3008 23.863 2.9883 36.129 2.9883 12.266-0.003906 25.688-0.69141 36.129-2.9922zm-6.7227-13.289c-7.0703 1.1445-16.922 2.0703-29.41 2.0703s-22.34-0.92578-29.41-2.0703c6.6016-7.9648 16.848-13.117 28.367-13.117h2.082c11.523 0 21.773 5.1484 28.371 13.117zm-29.406-27.324c-19.594 0-35.535-19.852-35.535-44.254 0-19.758 10.457-36.527 24.84-42.195h21.395c14.379 5.668 24.836 22.438 24.836 42.195-0.003906 24.402-15.945 44.254-35.535 44.254zm168.07-18.984c-0.30469 3.8672-1.9844 7.0352-5.1328 9.6914-7.9258 6.6758-24.82 9.7148-44.082 7.9492-24.293-2.2305-39.324-10.102-53.863-17.711-5.5469-2.9062-11.254-5.8477-17.359-8.4453 0.066406-0.25781 0.10938-0.52734 0.17188-0.78906 21.805-0.44531 35.695 0.36328 50.277 1.2227 12.449 0.73438 25.227 1.4844 43.516 1.4844 4.5312 0 9.4102-0.046875 14.703-0.15234 3.4258-0.066406 6.7578-0.26953 10.008-0.57812 1.3711 2.2148 1.9805 4.5977 1.7617 7.3281zm38.289-38.516c-9.7578 10.723-28.109 17.125-50.34 17.562-26.051 0.51172-41.84-0.41797-57.102-1.3125-14.402-0.84766-28.152-1.6523-49.254-1.2852 0.015625-0.57812 0.074219-1.1406 0.074219-1.7227 0-2.3008-0.14453-4.5625-0.36328-6.7969 44.152-20.445 130.04-54.43 157.07-39.016 4.4766 2.5508 6.7617 6.4414 7.1914 12.25 0.55859 7.5625-1.8867 14.402-7.2812 20.32z"/>
</svg>
