<?xml version="1.0" encoding="UTF-8"?>
<svg width="752pt" height="752pt" version="1.1" viewBox="0 0 752 752" xmlns="http://www.w3.org/2000/svg">
 <g>
  <path d="m228.01 472.2c0 4.0859 3.3125 7.3984 7.3984 7.3984h37v111c0 4.0859 3.3125 7.3984 7.3984 7.3984h44.398c4.0859 0 7.3984-3.3125 7.3984-7.3984v-429.18c0-4.0859-3.3125-7.3984-7.3984-7.3984-25.504 0.027343-49.957 10.172-67.988 28.203-18.035 18.035-28.18 42.488-28.207 67.992zm88.797 22.199h-29.602v-14.801h29.598zm-29.602 88.793v-73.996h29.598l0.003907 73.996zm-44.395-332.98c0.023437-20.301 7.6211-39.859 21.309-54.855 13.684-14.992 32.473-24.34 52.688-26.211v295.66h-73.996z"/>
  <path d="m353.8 479.6h96.199v111c0 4.0859 3.3125 7.3984 7.3984 7.3984h44.398c4.0859 0 7.3984-3.3125 7.3984-7.3984v-429.18c0-4.0859-3.3125-7.3984-7.3984-7.3984h-148c-4.0859 0-7.3984 3.3125-7.3984 7.3984v310.79c0 4.0859 3.3125 7.3984 7.3984 7.3984zm140.59 14.801h-29.598v-14.801h29.598zm-29.598 88.793v-73.996h29.598l0.003907 73.996zm29.598-118.39h-88.793v-295.99h88.797zm-133.19-295.99h29.598v295.99h-29.598z"/>
  <path d="m265.01 242.81c-4.0898 0-7.4023 3.3125-7.4023 7.3984v118.39c0 4.0859 3.3125 7.3984 7.4023 7.3984 4.0859 0 7.3984-3.3125 7.3984-7.3984v-118.39c0-4.0859-3.3125-7.3984-7.3984-7.3984z"/>
  <path d="m161.41 198.41c5.8867 0.003906 11.527 2.3477 15.691 6.5078 4.1602 4.1602 6.5 9.8047 6.5078 15.691 0 4.0859 3.3125 7.3984 7.3984 7.3984 4.0859 0 7.4023-3.3125 7.4023-7.3984 0.003906-5.8867 2.3477-11.531 6.5078-15.691 4.1602-4.1602 9.8047-6.5039 15.691-6.5078 4.0859 0 7.3984-3.3164 7.3984-7.4023 0-4.0859-3.3125-7.3984-7.3984-7.3984-5.8867-0.007813-11.531-2.3477-15.691-6.5078-4.1602-4.1641-6.5039-9.8047-6.5078-15.691 0-4.0859-3.3164-7.3984-7.4023-7.3984-4.0859 0-7.3984 3.3125-7.3984 7.3984-0.007813 5.8867-2.3477 11.527-6.5078 15.691-4.1641 4.1602-9.8047 6.5-15.691 6.5078-4.0859 0-7.3984 3.3125-7.3984 7.3984 0 4.0859 3.3125 7.4023 7.3984 7.4023zm29.598-14.824c2.1133 2.8125 4.6133 5.3086 7.4219 7.4219-2.8086 2.1133-5.3086 4.6133-7.4219 7.4219-2.1133-2.8086-4.6094-5.3086-7.4219-7.4219 2.8125-2.1133 5.3086-4.6094 7.4219-7.4219z"/>
  <path d="m590.59 405.6c-5.8867-0.007812-11.527-2.3477-15.691-6.5117-4.1602-4.1602-6.5039-9.8047-6.5078-15.688 0-4.0898-3.3125-7.4023-7.4023-7.4023-4.0859 0-7.3984 3.3125-7.3984 7.4023-0.007812 5.8828-2.3477 11.527-6.5078 15.688-4.1641 4.1641-9.8047 6.5039-15.691 6.5117-4.0859 0-7.3984 3.3125-7.3984 7.3984s3.3125 7.3984 7.3984 7.3984c5.8867 0.007812 11.527 2.3477 15.691 6.5117 4.1602 4.1602 6.5 9.8047 6.5078 15.688 0 4.0859 3.3125 7.4023 7.3984 7.4023 4.0898 0 7.4023-3.3164 7.4023-7.4023 0.003907-5.8828 2.3477-11.527 6.5078-15.688 4.1641-4.1641 9.8047-6.5039 15.691-6.5117 4.0859 0 7.3984-3.3125 7.3984-7.3984s-3.3125-7.3984-7.3984-7.3984zm-29.598 14.82h-0.003906c-2.1094-2.8125-4.6094-5.3086-7.418-7.4219 2.8086-2.1133 5.3086-4.6094 7.418-7.4219 2.1133 2.8125 4.6133 5.3086 7.4219 7.4219-2.8086 2.1133-5.3086 4.6094-7.4219 7.4219z"/>
  <path d="m472.2 213.21c4.0859 0 7.3984-3.3125 7.3984-7.3984v-14.801c0-4.0859-3.3125-7.3984-7.3984-7.3984-4.0898 0-7.4023 3.3125-7.4023 7.3984v14.801c0 4.0859 3.3125 7.3984 7.4023 7.3984z"/>
 </g>
</svg>
