<?xml version="1.0" encoding="UTF-8"?>
<svg width="752pt" height="752pt" version="1.1" viewBox="0 0 752 752" xmlns="http://www.w3.org/2000/svg">
 <g>
  <path d="m390.8 516.6h14.801v14.801h-14.801z"/>
  <path d="m427.8 427.8v14.801c40.973 0 51.797-33.883 51.797-51.797l-14.801-0.003907c0 1.4805-0.42188 37-36.996 37z"/>
  <path d="m331.6 390.8h14.801v14.801h-14.801z"/>
  <path d="m361.2 390.8h14.801v14.801h-14.801z"/>
  <path d="m469.37 361.2-7.3984-14.801h10.227v-14.801h-14.801v-22.199c0-2.8047-1.582-5.3672-4.0938-6.6211l-25.504-12.75v-17.625c-0.027343-6.543-2.2188-12.895-6.2344-18.059-4.0156-5.1641-9.6328-8.8555-15.965-10.488v-15.852h-14.801v15.852c-6.3359 1.6328-11.949 5.3242-15.965 10.488-4.0195 5.1641-6.2109 11.516-6.2344 18.059v17.625l-25.508 12.75c-2.5078 1.2539-4.0938 3.8164-4.0898 6.6211v22.199h-14.801v14.801h10.227l-7.3984 14.801h-150.82c-2.8047-0.003906-5.3711 1.582-6.625 4.0898l-14.801 29.598 0.003906 0.003906c-1.2031 2.4102-1 5.2852 0.53125 7.5 1.5156 2.2422 4.1406 3.4609 6.8281 3.168 47.875-2.5117 95.336 10.004 135.75 35.793 28.438 18.957 43.027 28.68 63.305 30.523v13.992c-1.5938 4.0859-15.191 30.727-96.195 30.727-4.0898 0-7.4023 3.3125-7.4023 7.3984v29.598c0 1.9648 0.78125 3.8438 2.168 5.2344 1.3867 1.3867 3.2695 2.1641 5.2344 2.1641h236.79c1.9609 0 3.8438-0.77734 5.2305-2.1641 1.3906-1.3906 2.168-3.2695 2.168-5.2344v-29.598c0-1.9648-0.77734-3.8438-2.168-5.2344-1.3867-1.3867-3.2695-2.1641-5.2305-2.1641-0.51953 0-51.797-0.33984-51.797-29.598v-15.285c23.848-3.0117 59.199-20.793 59.199-73.516h-0.003907c-0.023437-7.5469-1.2578-15.043-3.6602-22.199h55.457c5.8906 0 11.535 2.3398 15.699 6.5039 4.1641 4.1641 6.5 9.8086 6.5 15.695 0 5.8906-2.3359 11.535-6.5 15.699-4.1641 4.1641-9.8086 6.5-15.699 6.5-5.8867 0-11.531-2.3359-15.695-6.5-4.1641-4.1641-6.5039-9.8086-6.5039-15.699h-14.797c0.035156 10.598 4.6367 20.66 12.629 27.617-6.9219 4.8359-11.441 12.402-12.426 20.789-0.98047 8.3867 1.6719 16.793 7.2891 23.098 5.6172 6.3047 13.66 9.9062 22.105 9.8945v-14.801c-5.2852 0-10.172-2.8203-12.816-7.3984-2.6445-4.5781-2.6445-10.223 0-14.801 2.6445-4.5781 7.5312-7.3984 12.816-7.3984h7.3984c13.219 0 25.434-7.0508 32.043-18.5 6.6094-11.445 6.6094-25.551 0-36.996-6.6094-11.449-18.824-18.5-32.043-18.5zm-85.969-88.797c0-5.2891 2.8203-10.172 7.3984-12.816 4.5781-2.6445 10.219-2.6445 14.801 0 4.5781 2.6445 7.3984 7.5273 7.3984 12.816v14.801l-29.598-0.003906zm-29.598 41.57 23.941-11.973h40.906l23.945 11.973v17.625h-88.797zm-2.8281 32.426h94.449l7.3984 14.801h-109.25zm99.023 170.2h-29.602v14.801l74-0.003907v14.801h-221.99v-14.801h103.59v-14.797h-27.34c10.492-4.5312 19.25-12.312 24.98-22.199h62.211c1.6992 8.9375 6.7617 16.883 14.148 22.199zm-7.3984-59.199h-0.003906c-4.0859 0-7.3984 3.3125-7.3984 7.3984v14.801h-59.199v-14.801c0-1.9609-0.77734-3.8438-2.1641-5.2305-1.3906-1.3867-3.2734-2.168-5.2344-2.168-19.98 0-32.41-8.3008-62.492-28.355-39.512-25.367-85.496-38.82-132.45-38.746l7.125-14.297h309.04c3.0312 7.0078 4.5938 14.566 4.582 22.199 0 46.73-32.559 59.199-51.801 59.199z"/>
  <path d="m186.31 344.71c1.3242 1.0938 2.9844 1.6914 4.6992 1.6875 0.48438-0.003906 0.96484-0.050782 1.4375-0.14062 2.1719-0.42969 4.0391-1.8008 5.0977-3.7422 0.10547-0.18359 10.516-18.824 49.777-49.461 12.699-8.7227 20.496-22.961 21.008-38.359 0.31641-32.387-34.223-60.824-35.688-62.016v-0.003906c-2.6055-2.1172-6.3086-2.2148-9.0234-0.23828-2.7148 1.9766-3.7578 5.5312-2.543 8.6602 4.9297 12.66 6.6602 33.219-34.652 65.48-12.508 8.3086-20.391 22.008-21.281 37-0.32031 23.188 20.289 40.414 21.168 41.133zm9.1992-66.48c26.129-20.387 40.203-39.879 42.488-59.012 8.9844 9.7188 14.453 22.16 15.539 35.352-0.52734 10.863-6.2188 20.82-15.309 26.793-17.918 13.289-34.113 28.758-48.211 46.047-6.0391-6.4883-9.6172-14.891-10.105-23.746 1.0078-10.426 6.7617-19.805 15.598-25.43z"/>
  <path d="m154.01 235.41h14.801v14.801h-14.801z"/>
  <path d="m235.41 324.2h14.801v14.801h-14.801z"/>
  <path d="m287.2 265.01h14.801v14.801h-14.801z"/>
 </g>
</svg>
