<?xml version="1.0" encoding="UTF-8"?>
<svg width="752pt" height="752pt" version="1.1" viewBox="0 0 752 752" xmlns="http://www.w3.org/2000/svg">
 <defs>
  <clipPath id="d">
   <path d="m205 139.21h363v473.58h-363z"/>
  </clipPath>
  <clipPath id="c">
   <path d="m204 519h168v93.793h-168z"/>
  </clipPath>
  <clipPath id="b">
   <path d="m184 601h21v11.793h-21z"/>
  </clipPath>
  <clipPath id="a">
   <path d="m380 601h17v11.793h-17z"/>
  </clipPath>
 </defs>
 <path d="m357.79 277.46c-25.195 7.8828-45.906 26.012-57.051 49.941-11.145 23.93-11.691 51.449-1.5078 75.805 0.90234 2.1758 3.0312 3.582 5.3828 3.5664 0.76953 0 1.5312-0.15234 2.2422-0.45313 1.4219-0.59375 2.5469-1.7266 3.1328-3.1523 0.58203-1.4219 0.57422-3.0195-0.019531-4.4414-4.2148-10.047-6.375-20.836-6.3555-31.73 0.007813-6.3086 0.73047-12.594 2.1523-18.738 1.332 1.3477 2.8477 2.5 4.5039 3.4219l0.26953 0.15234c6.4375 3.4453 13.637 5.2148 20.938 5.1484 7.6836 0.035156 13.902 6.2539 13.938 13.938v15.391c0 9.457 5.043 18.199 13.234 22.926 8.1914 4.7305 18.285 4.7305 26.477 0 8.1914-4.7266 13.234-13.469 13.234-22.926v-3.2305c0-3.207-2.5977-5.8047-5.8047-5.8047-3.207 0-5.8047 2.5977-5.8047 5.8047v3.2305c0 5.3086-2.832 10.219-7.4297 12.871-4.6016 2.6562-10.266 2.6562-14.863 0-4.6016-2.6523-7.4336-7.5625-7.4336-12.871v-15.391c-0.007813-6.7773-2.707-13.273-7.5-18.062-4.793-4.7891-11.293-7.4844-18.07-7.4844-5.3438 0.082031-10.621-1.1797-15.348-3.6758l-0.19531-0.10937 0.003906 0.003906c-4.043-2.3281-5.5742-7.4023-3.4922-11.578 0.12109-0.26172 0.22656-0.52734 0.3125-0.79688 10.07-19.508 27.559-34.148 48.531-40.629 3.0742-0.95703 4.7852-4.2266 3.8242-7.3008-0.96094-3.0742-4.2305-4.7852-7.3008-3.8242z"/>
 <g clip-path="url(#d)">
  <path d="m206.09 499.34c-0.57422 2.8125 1 5.6172 3.6953 6.6016 2.6953 0.98047 5.707-0.16016 7.0742-2.6836 10.137-12.363 22.23-12.547 22.812-12.547h4.0273c3.0898-0.003906 6.0586 1.2227 8.2461 3.4062 2.1875 2.1836 3.418 5.1484 3.418 8.2383v0.55859c-0.0625 5.5 1.9609 10.816 5.668 14.879 3.7031 4.0625 8.8125 6.5664 14.289 7.0078h1.4336c5.4219 0.015625 10.641-2.0508 14.586-5.7734 4.3047-4.0469 6.75-9.6875 6.7617-15.594v-36.547c-0.070312-6.3555 2.7422-12.402 7.6484-16.445 5.293-4.1875 11.293-7.3945 17.715-9.4688 4.0742 1.3398 8.0391 3 11.848 4.9648 0.23828 0.22656 0.5 0.42969 0.77734 0.60547 2.2891 1.4375 4.6367 2.7656 7.043 3.9844 22.996 15.203 36.832 40.922 36.848 68.488-0.003906 0.38281 0.03125 0.76562 0.10547 1.1445 0.33203 24.656 10.352 48.195 27.895 65.527 17.543 17.332 41.203 27.066 65.863 27.098h69.309c3.207 0 5.8047-2.5977 5.8047-5.8047 0-3.207-2.5977-5.8047-5.8047-5.8047h-24.168c17.785-9.7461 31.922-25 40.293-43.473 8.3672-18.473 10.516-39.16 6.1172-58.957v-0.15234c-5.2188-23.465-19.258-44.031-39.211-57.438-19.957-13.406-44.301-18.633-68-14.594 20.73-25.094 26.918-59.164 16.328-89.945-0.11719-0.42188-0.24609-0.82812-0.38672-1.2383 0-0.066406-0.066406-0.11719-0.085938-0.18359-6.2305-17.203-17.348-32.215-31.988-43.191s-32.168-17.441-50.43-18.598v-119.11l71.559 34.898-55.574 27.117c-2.4258 1.1914-3.7109 3.8945-3.1016 6.5234 0.60938 2.6328 2.9531 4.4961 5.6562 4.4961 0.87891-0.003907 1.75-0.20703 2.5391-0.59375l66.227-32.312 0.003906 0.003906c1.9961-0.97266 3.2617-3 3.2617-5.2188s-1.2656-4.2461-3.2617-5.2188l-90.602-44.18-0.12891-0.054688c-0.19531-0.085938-0.41016-0.15234-0.61328-0.22656h-0.003906c-0.16016-0.058594-0.32422-0.10938-0.49219-0.15234-0.17188 0-0.35547 0-0.52734-0.085938l-0.63672-0.074218h-0.12891-0.35547c-0.11719 0-0.42969 0-0.64453 0.066406-0.21484 0.066406-0.34375 0.085937-0.51562 0.12891h-0.003906c-0.19141 0.046875-0.375 0.10547-0.55859 0.17188-0.17188 0.0625-0.33594 0.14062-0.49609 0.22656-0.17578 0.082031-0.34375 0.17578-0.50781 0.27734-0.14844 0.09375-0.29297 0.19141-0.42969 0.30469-0.16016 0.11328-0.30859 0.24219-0.45312 0.375-0.14062 0.11719-0.24609 0.25781-0.37891 0.38672-0.12891 0.12891-0.24609 0.28906-0.35547 0.45312h0.003906c-0.12109 0.16797-0.23438 0.33984-0.33594 0.51563 0 0.10937-0.14062 0.20312-0.19531 0.32422v0.12891c-0.085937 0.19531-0.15234 0.39844-0.21484 0.59375-0.066406 0.19531-0.11719 0.34375-0.16016 0.51563-0.042968 0.17187-0.054687 0.34375-0.074218 0.52734-0.039063 0.21094-0.0625 0.42188-0.066407 0.63672v0.14062 153.04c0 3.207 2.5977 5.8047 5.8047 5.8047s5.8047-2.5977 5.8047-5.8047v-12.926c15.973 1.1523 31.262 6.9375 43.996 16.648 12.734 9.7109 22.359 22.926 27.695 38.023 1.1055 3.5117 0.92578 7.3047-0.51172 10.695-1.4336 3.3906-4.0273 6.1602-7.3203 7.8125s-7.0625 2.0781-10.641 1.2031l-1.4336 5.6328 1.25-5.6758c-3.6641-1.0117-6.8867-3.207-9.168-6.25-2.2773-3.043-3.4805-6.7539-3.4219-10.555v-0.35547c-0.011719-6.0781-2.4688-11.898-6.8125-16.148-4.3438-4.2539-10.211-6.582-16.289-6.4688-12.277 0.21484-22.262 10.641-22.262 23.23v17.234h-0.003907c0 3.207 2.6016 5.8047 5.8086 5.8047 3.2031 0 5.8047-2.5977 5.8047-5.8047v-17.234 0.003906c-0.12109-6.1758 4.6875-11.328 10.855-11.633 2.9727-0.054688 5.8398 1.0898 7.9609 3.1719 2.125 2.082 3.3203 4.9258 3.3281 7.8984v0.35547c-0.058594 6.3555 1.9922 12.547 5.8242 17.613 3.8359 5.0664 9.2422 8.7188 15.371 10.391l0.25781 0.066406c4.5859 1.168 9.3984 1.0977 13.953-0.19531 4.5508-1.2969 8.6797-3.7773 11.961-7.1836 0.054688 1.2266 0.097657 2.4453 0.097657 3.6836-0.019532 27.855-14.156 53.805-37.547 68.93-2.3906 1.25-4.707 2.6055-6.9688 4.0508-23.355 12.086-51.086 12.242-74.574 0.42188-7.3164-4.7773-15.262-8.5039-23.609-11.074l-0.28125-0.074219c-8.8086-2.6797-17.965-4.0352-27.172-4.0273-21.434 0.066407-42.199 7.4414-58.875 20.902-16.676 13.465-28.262 32.207-32.848 53.145zm267.75 101.85v-0.003906c-23.801 0.011718-46.438-10.301-62.043-28.27-15.609-17.973-22.656-41.828-19.316-65.395 3.3398-23.562 16.738-44.523 36.727-57.445 2.3906-1.25 4.7188-2.6016 6.9805-4.0586 3.8555-2 7.8633-3.6836 11.988-5.043 6.4258 2.0898 12.43 5.3125 17.727 9.5117 4.9023 4.043 7.7109 10.09 7.6367 16.445v36.566c0.011719 5.9062 2.4609 11.551 6.7656 15.598 3.9531 3.6953 9.1719 5.7383 14.582 5.707h1.4414c5.4766-0.44141 10.582-2.9453 14.289-7 3.7031-4.0586 5.7305-9.3711 5.6719-14.863v-0.5625c-0.007812-3.0977 1.2227-6.0664 3.4141-8.2578 2.1914-2.1875 5.1641-3.4141 8.2617-3.4062h4.082c0.50781 0 12.332 0.18359 22.402 12.117 4.8438 24.148-1.3984 49.195-17.004 68.246-15.605 19.055-38.934 30.105-63.562 30.109zm73.906-118.05 0.003906-0.003906c-4.918-2.4609-10.309-3.8359-15.801-4.0273h-3.9844c-6.1641 0.007813-12.074 2.4609-16.43 6.8203-4.3594 4.3594-6.8086 10.27-6.8164 16.434v0.55859c0.13281 5.2812-3.8398 9.7695-9.1016 10.277-2.6875 0.17969-5.332-0.75781-7.3086-2.5938-1.9727-1.8359-3.1016-4.4062-3.1172-7.1016v-36.609c0.078125-9.8555-4.3086-19.215-11.934-25.461-1.9219-1.5547-3.9336-2.9961-6.0312-4.3086 2.1523-0.17188 4.4141-0.28906 6.6562-0.28906 15.414 0.023437 30.512 4.375 43.57 12.562s23.555 19.875 30.297 33.738zm-146.29-23.695 0.003906-0.003906c-6.7227 8.125-12.02 17.328-15.672 27.219-3.6484-9.8711-8.9258-19.059-15.617-27.176 10.336 1.7578 20.895 1.7578 31.234 0zm-103.67-22.617c2.25 0 4.4609 0.11719 6.6562 0.28906l0.003906-0.003907c-2.0938 1.3164-4.1094 2.7539-6.0312 4.3086-7.625 6.25-12.016 15.613-11.934 25.473v36.566c-0.015625 2.6953-1.1445 5.2656-3.1172 7.1016-1.9766 1.8359-4.6211 2.7734-7.3086 2.5938-5.2578-0.51562-9.2227-5-9.0898-10.277v-0.55859c-0.007812-6.168-2.457-12.078-6.8203-16.438-4.3594-4.3594-10.27-6.8125-16.434-6.8164h-3.9336c-5.5234 0.17187-10.945 1.5469-15.887 4.0273 6.7891-13.824 17.305-25.48 30.359-33.648 13.059-8.1719 28.137-12.531 43.539-12.59z"/>
 </g>
 <g clip-path="url(#c)">
  <path d="m204.27 525.8c2.3555 31.734 20.625 60.113 48.531 75.395h-19.387c-3.207 0-5.8047 2.6016-5.8047 5.8047 0 3.207 2.5977 5.8047 5.8047 5.8047h124.38c3.207 0 5.8047-2.5977 5.8047-5.8047 0-3.2031-2.5977-5.8047-5.8047-5.8047h-14.809c10.121-5.5586 19.129-12.941 26.57-21.777 1.0547-1.168 1.5938-2.7148 1.4883-4.2891-0.10937-1.5703-0.84766-3.0312-2.0547-4.0469-1.2031-1.0156-2.7695-1.4961-4.3359-1.3359-1.5664 0.16406-3.0039 0.95703-3.9727 2.1953-14.117 16.77-34.348 27.203-56.195 28.984-21.844 1.7812-43.496-5.2383-60.145-19.5-16.645-14.262-26.902-34.582-28.492-56.441-0.078125-1.5586-0.78125-3.0234-1.9492-4.0586-1.1719-1.0312-2.707-1.5547-4.2656-1.4414-1.5547 0.10938-3.0039 0.84375-4.0117 2.0352-1.0078 1.1914-1.4961 2.7383-1.3516 4.293z"/>
 </g>
 <path d="m362.98 302.05h-1.2734c-3.2031 0-5.8047 2.5977-5.8047 5.8047s2.6016 5.8047 5.8047 5.8047h1.2734c3.207 0 5.8047-2.5977 5.8047-5.8047s-2.5977-5.8047-5.8047-5.8047z"/>
 <path d="m361.73 330.93c0 3.207 2.5977 5.8047 5.8047 5.8047h1.2734c3.2031 0 5.8047-2.5977 5.8047-5.8047s-2.6016-5.8047-5.8047-5.8047h-1.2734c-3.207 0-5.8047 2.5977-5.8047 5.8047z"/>
 <path d="m343.5 319.69c-3.207 0-5.8047 2.6016-5.8047 5.8086 0 3.2031 2.5977 5.8047 5.8047 5.8047h1.2695c3.207 0 5.8047-2.6016 5.8047-5.8047 0-3.207-2.5977-5.8086-5.8047-5.8086z"/>
 <path d="m271.31 460.78h0.46484-0.003906c3.207 0 5.8086-2.6016 5.8086-5.8047 0-3.207-2.6016-5.8086-5.8086-5.8086h-0.46484 0.003906c-3.207 0-5.8047 2.6016-5.8047 5.8086 0 3.2031 2.5977 5.8047 5.8047 5.8047z"/>
 <path d="m253.92 470.72h0.47266c3.2109 0 5.8125-2.6016 5.8125-5.8125 0-3.207-2.6016-5.8086-5.8125-5.8086h-0.46484 0.003907c-3.207 0-5.8086 2.5977-5.8086 5.8047 0 3.207 2.6016 5.8047 5.8086 5.8047z"/>
 <path d="m503.52 466.8h0.91406c3.207 0 5.8047-2.5977 5.8047-5.8047 0-3.207-2.5977-5.8047-5.8047-5.8047h-0.91406c-3.207 0-5.8086 2.5977-5.8086 5.8047 0 3.207 2.6016 5.8047 5.8086 5.8047z"/>
 <g clip-path="url(#b)">
  <path d="m198.98 601.18h-8.7891c-3.207 0-5.8047 2.6016-5.8047 5.8086 0 3.2031 2.5977 5.8047 5.8047 5.8047h8.7891c3.207 0 5.8047-2.6016 5.8047-5.8047 0-3.207-2.5977-5.8086-5.8047-5.8086z"/>
 </g>
 <g clip-path="url(#a)">
  <path d="m390.99 612.79c3.207 0 5.8086-2.6016 5.8086-5.8047 0-3.207-2.6016-5.8086-5.8086-5.8086h-4.3086 0.003906c-3.207 0-5.8086 2.6016-5.8086 5.8086 0 3.2031 2.6016 5.8047 5.8086 5.8047z"/>
 </g>
</svg>
