<?xml version="1.0" encoding="UTF-8"?>
<svg width="752pt" height="752pt" version="1.1" viewBox="0 0 752 752" xmlns="http://www.w3.org/2000/svg">
 <g>
  <path d="m265 318.07c0-26.656 24.086-48.344 53.695-48.344 13.094 0 25.703 4.2969 35.5 12.094 6.1328 4.8867 13.441 7.9453 21.125 8.8359 0.10547 0.015625 0.20313-0.03125 0.30859-0.027344 0.12891 0.007812 0.23828 0.066406 0.36328 0.066406 0.23047 0 0.46484-0.015625 0.69141-0.042968 6.6367-0.77344 13.113-3.2109 18.711-7.0469 2.6953-1.8516 3.3828-5.5352 1.5352-8.2305-1.8516-2.6992-5.5469-3.375-8.2305-1.5352-3.8164 2.6172-8.1914 4.2969-12.684 4.9336-5.2383-0.73828-10.23-2.8516-14.453-6.2148-11.887-9.4609-27.113-14.676-42.875-14.676-36.133 0-65.535 27-65.535 60.184 0 18.438 9.0234 35.594 24.75 47.07 1.0547 0.76563 2.2734 1.1367 3.4844 1.1367 1.8281 0 3.6289-0.84375 4.7891-2.4297 1.9258-2.6445 1.3516-6.3477-1.2891-8.2734-12.641-9.2148-19.887-22.883-19.887-37.5z"/>
  <path d="m284.5 314.54c-0.82812 15.758 11.312 29.25 27.07 30.082 0.51172 0.023437 1.0234 0.039062 1.5234 0.039062 15.211 0 27.746-11.906 28.551-27.102 0.82812-15.75-11.312-29.25-27.066-30.086-15.895-0.68359-29.25 11.363-30.078 27.066zm47.688 2.5195c-0.55078 10.508-9.625 18.711-20.117 18.102-10.543-0.55469-18.66-9.5742-18.105-20.117 0.53516-10.168 8.9258-18.133 19.094-18.133 0.33984 0 0.6875 0.007813 1.0273 0.027344 10.531 0.55469 18.652 9.5859 18.102 20.121z"/>
  <path d="m355.96 369.32c-3.7266 1.2227-5.7617 5.2266-4.543 8.9648l3.8359 11.723c0.98047 2.9922 3.7617 4.8906 6.7539 4.8906 0.73047 0 1.4766-0.10938 2.2109-0.35156 3.7266-1.2227 5.7617-5.2266 4.543-8.9648l-3.8359-11.723c-1.2266-3.7227-5.2188-5.7734-8.9648-4.5391z"/>
  <path d="m443.09 399.2c0.074219-3.2695-2.5156-5.9805-5.7891-6.0508-3.1445-0.027344-5.9805 2.5156-6.0508 5.7891-0.22266 9.7148-8.1211 17.617-17.609 17.617l-37.645-0.003907h-37.645c-9.7148 0-17.613-8.0938-17.613-18.047v-5.4844c0-13.469-8.5547-25.469-21.277-29.863l-1.0039-0.35547c-3.0703-1.1445-6.4688 0.42969-7.6055 3.4922s0.42969 6.4727 3.4922 7.6055l1.2539 0.44922c7.9609 2.7461 13.309 10.25 13.309 18.668v5.4844c0 13.32 8.6367 24.633 20.531 28.477v10.809c-7.1953 2.207-12.484 8.9023-12.484 16.898 0 6.3047 3.2852 12.094 8.6211 15.277l12.043 10.258c2.8398 2.4219 5.8203 4.5664 8.8711 6.3828 2.8047 1.668 6.4414 0.75391 8.1172-2.0586 1.6719-2.8125 0.75-6.4414-2.0586-8.1172-2.4766-1.4766-4.9141-3.2305-7.25-5.2188l-12.461-10.613-1.0039-0.69141c-1.875-1.0273-3.0391-3.0273-3.0391-5.2227 0-3.0977 2.3125-5.6406 5.2383-5.8789l14.988 2.7461c18.039 3.3086 36.312 3.3086 54.344 0l14.992-2.7461c2.9219 0.23828 5.2344 2.7812 5.2344 5.8789 0 2.1992-1.1641 4.1953-3.0391 5.2227l-13.465 11.305c-6.1992 5.2812-12.797 8.7188-19.625 10.219-7.1055 1.5586-14.336 1.6484-21.477 0.22266-3.2344-0.61719-6.3281 1.4531-6.9609 4.6562-0.63281 3.2109 1.4531 6.3242 4.6562 6.9609 4.1562 0.82422 8.3359 1.2305 12.512 1.2305 4.6211 0 9.2344-0.49609 13.812-1.5078 8.7422-1.9219 17.066-6.2188 24.758-12.773l12.043-10.258c5.332-3.1836 8.6211-8.9727 8.6211-15.277 0-8.2812-5.6602-15.203-13.254-17.145v-10.457c11.816-3.6797 20.621-14.781 20.918-27.879zm-41.871 40.707c-2.2656 0.41797-4.5352 0.76172-6.8086 1.0664v-4.1016c0-2.6172-2.1172-4.7344-4.7344-4.7344-2.6172 0-4.7344 2.1172-4.7344 4.7344v5.0117c-6.0898 0.38672-12.195 0.37109-18.285-0.050781v-4.957c0-2.6172-2.1172-4.7344-4.7344-4.7344-2.6172 0-4.7344 2.1172-4.7344 4.7344v4c-2.0117-0.28125-4.0273-0.59766-6.0273-0.96484l-12.25-2.2461v-9.2734h73.789v9.4844z"/>
  <path d="m433.31 257.89c-10.395 0-20.34 2.1719-29.555 6.4531-2.9648 1.3789-4.2461 4.9023-2.8711 7.8672 1.3789 2.957 4.8789 4.2422 7.8672 2.8711 7.6406-3.5508 15.902-5.3555 24.566-5.3555 29.609 0 53.699 21.684 53.699 48.344 0 19.852-13.852 37.977-34.473 45.09-8.5 2.9375-15.363 9.3711-18.828 17.66-1.2656 3.0156 0.16016 6.4844 3.1758 7.7461 0.75 0.30859 1.5195 0.46094 2.2773 0.46094 2.3164 0 4.5195-1.3633 5.4648-3.6367 2.1641-5.1797 6.4531-9.2031 11.77-11.039 25.383-8.7617 42.445-31.379 42.445-56.281-0.003906-33.184-29.402-60.18-65.539-60.18z"/>
  <path d="m455.5 316.05c0 9.1562-7.418 16.574-16.574 16.574-9.1523 0-16.574-7.418-16.574-16.574 0-9.1523 7.4219-16.574 16.574-16.574 9.1562 0 16.574 7.4219 16.574 16.574"/>
  <path d="m469.52 339.71c5.6641-7.3203 8.5156-16.449 8.0234-25.695-0.13672-2.6133-2.4062-4.6641-4.9805-4.4805-2.6133 0.13672-4.6211 2.3711-4.4805 4.9805 0.375 6.9844-1.7773 13.875-6.0508 19.398-1.6016 2.0703-1.2227 5.043 0.84766 6.6445 0.86719 0.66797 1.8789 0.98828 2.8945 0.98828 1.4102 0 2.8125-0.63281 3.7461-1.8359z"/>
  <path d="m409.77 317.59c-0.13672-2.6094-2.4141-4.6523-4.9805-4.4805-2.6133 0.13672-4.6172 2.3672-4.4805 4.9805 0.54297 10.32 5.0703 19.805 12.75 26.715 7.1641 6.4453 16.262 9.9297 25.82 9.9297 0.69141 0 1.3906-0.019531 2.082-0.058594 4.7266-0.25 9.3047-1.3398 13.605-3.25 2.3945-1.0625 3.4727-3.8516 2.4141-6.2422-1.0625-2.3945-3.8555-3.4805-6.2422-2.4141-3.25 1.4336-6.6992 2.2578-10.273 2.4453-7.8242 0.42187-15.277-2.2344-21.074-7.4492-5.7969-5.2227-9.2148-12.383-9.6211-20.176z"/>
  <path d="m387.08 373.86-3.8359 11.723c-1.2227 3.7305 0.81641 7.7422 4.543 8.9648 0.73438 0.24219 1.4805 0.35156 2.2109 0.35156 2.9922 0 5.7734-1.8984 6.7539-4.8906l3.8359-11.723c1.2227-3.7305-0.81641-7.7422-4.543-8.9648-3.7422-1.2188-7.7422 0.81641-8.9648 4.5391z"/>
  <path d="m560.21 285.76c-6.9141-3.4297-14.145-4.2109-21.023-2.4727-0.41797-1.1133-0.82031-2.2266-1.2852-3.3242-11.27-26.832-31.816-48.285-56.359-58.855-14.023-6.0391-29.332-9.418-44.531-9.9258-0.33984-0.046875-0.67578-0.10547-1.0273-0.10547-0.20703 0-0.40234 0.042969-0.60547 0.0625-0.77734-0.015625-1.5586-0.0625-2.3281-0.0625-15.023 0-29.199 2.8281-42.145 8.3867-9.3516 4.0273-20.07 4.0273-29.434 0-12.941-5.5664-27.125-8.3867-42.145-8.3867-16.48 0-33.25 3.4648-48.496 10.031-24.547 10.566-45.09 32.02-56.359 58.855-0.36328 0.87109-0.67578 1.7617-1.0195 2.6367-7.0078-1.6992-14.367-0.85547-21.402 2.6602-14.777 7.3828-26.598 25.484-28.742 44.016-1.5586 13.465 1.2305 27.691 7.8633 40.066 6.8633 12.797 18.738 23.25 35.309 31.066 15.172 7.1562 32.617 12.18 51.738 15.164 1.4531 6.3086 2.1914 12.578 2.918 19.148 1.3984 12.594 2.8398 25.621 10.039 38.973 6.3867 11.844 13.723 21.16 21.824 27.684 1.8594 1.5 4.3438 1.9609 6.625 1.2344 2.2734-0.73047 4.0352-2.5586 4.6758-4.8594l1.9844-7.1367c4.3516 5.8398 9.4609 12.844 13.09 18.258 8.2539 12.305 30.625 28.832 33.152 30.68 1.2305 0.89844 2.6992 1.3672 4.1914 1.3672 0.6875 0 1.3672-0.097656 2.043-0.29688 2.125-0.63281 3.8398-2.2344 4.6172-4.3125 0.019532-0.058594 2.125-5.668 4.8906-11.219 0.070312-0.14062 0.78125-1.4492 3.8711-3.4805 2.4336-1.6094 5.668-1.6094 8.1016 0 3.0859 2.0352 3.8047 3.3398 3.8711 3.4805 2.75 5.5234 4.875 11.164 4.8906 11.219 0.78125 2.0781 2.4844 3.6797 4.6211 4.3125 2.1211 0.64844 4.4336 0.24219 6.2227-1.0703 2.5234-1.8477 24.895-18.375 33.152-30.684 3.6328-5.4141 8.7383-12.414 13.09-18.25l1.9844 7.1367c0.64453 2.3008 2.4023 4.1289 4.6758 4.8594 2.2695 0.72266 4.7695 0.26953 6.625-1.2344 8.0938-6.5156 15.438-15.836 21.824-27.684 7.2031-13.352 8.6445-26.379 10.039-38.977 0.71484-6.4688 1.4414-12.66 2.8555-18.875 19.359-2.9297 36.973-8.0469 52.258-15.367 16.266-7.7852 27.922-18.195 34.641-30.938 6.4922-12.293 9.2266-26.43 7.6992-39.82-2.1172-18.617-13.832-36.688-28.48-43.961zm-376.52 76.871c-5.2773-9.8398-7.5-21.102-6.2695-31.711 1.5742-13.59 10.59-27.75 20.98-32.941 3.7422-1.8711 7.4062-2.4336 10.957-1.7539-1.1406 5.2656-1.8125 10.586-2.0273 15.883-13.758 3.9609-17.055 13.625-17.723 19.438-0.83203 6.1992 0.55859 13.383 3.8633 19.785 0.92188 1.7383 2.082 3.4609 3.4531 5.1289 1.168 1.4297 2.8633 2.168 4.5859 2.168 1.3164 0 2.6484-0.44141 3.7461-1.3398 2.5273-2.0703 2.8984-5.8008 0.82812-8.332-0.87109-1.0664-1.6016-2.1406-2.125-3.125-2.1445-4.1641-3.1211-8.9141-2.5938-12.82 0.20703-1.8125 0.67578-5.8672 6.3516-8.4766 1.168 11.961 4.7305 23.488 10.629 33.652-0.78906-0.40625-1.6328-0.77734-2.3828-1.207-2.832-1.6445-6.4531-0.67578-8.0898 2.1602-1.6367 2.832-0.67187 6.4492 2.1602 8.0898 1.9883 1.1523 4.1055 2.2266 6.2188 3.168 2.4023 1.1016 7.9688 2.7812 14.77 4.7305 1.9023 2.1406 3.8203 4.2539 5.7305 6.3242 5.7109 6.1953 11.191 12.176 15.246 18.68-14.477-2.8555-27.734-7.0391-39.457-12.562-13.758-6.4961-23.469-14.879-28.852-24.938zm293.43 70.52c-1.3008 11.766-2.5352 22.875-8.4258 33.801-3.1406 5.8203-6.5781 10.98-10.184 15.316l-2.5898-9.293c-0.71875-2.5898-2.8516-4.5508-5.4844-5.0664-2.6523-0.51172-5.3516 0.50781-6.9883 2.6445-0.58203 0.75781-14.422 18.734-22.25 30.41-4.2344 6.3086-14.723 15.371-22.551 21.609-0.5625-1.2344-1.1758-2.5234-1.8203-3.8203-1.6133-3.2383-4.4805-6.1836-8.7773-9.0117-7.0859-4.6602-16.652-4.6602-23.734 0-4.2891 2.832-7.1602 5.7773-8.7773 9.0117-0.64453 1.293-1.2539 2.5859-1.8203 3.8203-2.1133-1.6797-4.4141-3.5742-6.7383-5.5586v-16.301c0-3.9219-3.1836-7.1055-7.1055-7.1055s-7.1055 3.1836-7.1055 7.1055v2.3906c-0.59375-0.73438-1.1523-1.457-1.6055-2.1406-7.8281-11.68-21.668-29.656-22.25-30.414-1.3594-1.7656-3.4531-2.7695-5.625-2.7695-0.44922 0-0.90625 0.042969-1.3594 0.12891-2.6367 0.51562-4.7656 2.4766-5.4844 5.0664l-2.5859 9.293c-3.6133-4.332-7.0508-9.5-10.188-15.316-5.8867-10.922-7.1211-22.031-8.4219-33.801-0.91406-8.2148-1.8594-16.711-4.4102-25.578-0.015625-0.050781-0.023438-0.097657-0.039062-0.15234-0.003907-0.019531-0.007813-0.03125-0.015626-0.050781-4.1953-14.5-14.066-25.199-23.609-35.555-5.5703-6.0391-10.832-11.746-14.949-18.086-10.387-15.969-13.219-37.523-8.1914-57.414 0.14844-0.19922 0.30859-0.37891 0.4375-0.59766 0.76172-1.3008 1.0508-2.7461 0.9375-4.1445 0.66406-2.0547 1.3008-4.1172 2.1406-6.1094 9.7227-23.141 27.992-42.32 48.879-51.309 13.488-5.8047 28.316-8.875 42.883-8.875 13.086 0 25.371 2.4336 36.531 7.2305 12.934 5.5586 27.742 5.5547 40.66 0 1.6719-0.71875 3.4141-1.2773 5.1328-1.8906l0.015625 3.3047c0 3.9219 3.1836 7.1055 7.1055 7.1055s7.1055-3.1836 7.1055-7.1055v-7.0859c4.2305-0.75391 8.5859-1.1797 13.023-1.3594v12.586c0 3.9219 3.1836 7.1055 7.1055 7.1055s7.1055-3.1836 7.1055-7.1055v-12.285c11.258 1.0703 22.449 3.9023 32.844 8.3711 20.891 8.9922 39.164 28.172 48.879 51.309 1.0781 2.5703 1.9766 5.2148 2.7617 7.875 0.066406 0.78516 0.26953 1.5664 0.60937 2.3164 5.2578 20.066 2.4531 41.922-8.0469 58.066-4.1211 6.3398-9.3828 12.047-14.949 18.086-9.5469 10.355-19.418 21.055-23.609 35.555-2.6055 8.957-3.5508 17.516-4.4648 25.793zm91.316-70.254c-5.2695 9.9883-14.766 18.316-28.215 24.762-11.84 5.668-25.293 9.8867-39.988 12.727 4.0742-6.6016 9.6133-12.66 15.395-18.934 0.66797-0.71875 1.3359-1.457 2.0039-2.1875 8.0273-2.1484 15.699-4.2656 18.613-5.5352 10.676-4.6328 18.754-11.254 22.766-18.664 1.957-3.6523 3.3164-7.6914 3.9258-11.68 0.49609-3.2305-1.7188-6.25-4.9531-6.75-3.2188-0.48438-6.25 1.7188-6.75 4.9531-0.41016 2.6719-1.332 5.3984-2.6523 7.8555-2.7031 5.0039-8.9219 9.8945-17.051 13.422-0.15234 0.066406-0.42578 0.15625-0.63281 0.23828 0.375-0.55078 0.78516-1.0703 1.1523-1.6289 6.5195-10.035 10.633-21.602 12.266-33.695 2.2227 0.92969 3.9531 2.125 5.1055 3.6367 1.1641 1.5312 2.9297 2.3359 4.7188 2.3359 1.25 0 2.5117-0.39453 3.582-1.2109 2.6055-1.9805 3.1055-5.6914 1.1289-8.293-3.1367-4.1172-7.7539-7.0273-13.75-8.7188-0.015625-6.1758-0.65234-12.398-1.9336-18.551 3.4648-0.77344 7.0156-0.33984 10.734 1.5078 10.234 5.082 19.129 19.199 20.688 32.832 1.2031 10.574-0.98047 21.789-6.1523 31.578z"/>
  <path d="m324.14 316.05c0 6.1133-4.957 11.066-11.066 11.066-6.1133 0-11.07-4.9531-11.07-11.066s4.957-11.066 11.07-11.066c6.1094 0 11.066 4.9531 11.066 11.066"/>
 </g>
</svg>
