<?xml version="1.0" encoding="UTF-8"?>
<svg width="752pt" height="752pt" version="1.1" viewBox="0 0 752 752" xmlns="http://www.w3.org/2000/svg">
 <g>
  <path d="m583.19 524h-7.3984v-7.3984c0-4.0938-3.3086-7.3984-7.3984-7.3984-4.0938 0-7.3984 3.3086-7.3984 7.3984v7.3984h-7.3984c-4.0938 0-7.3984 3.3086-7.3984 7.3984 0 4.0938 3.3086 7.3984 7.3984 7.3984h7.3984v7.3984c0 4.0938 3.3086 7.3984 7.3984 7.3984 4.0938 0 7.3984-3.3086 7.3984-7.3984v-7.3984h7.3984c4.0938 0 7.3984-3.3086 7.3984-7.3984 0.003906-4.0898-3.3047-7.3984-7.3984-7.3984z"/>
  <path d="m191.01 546.2h-7.3984v-7.3984c0-4.0938-3.3086-7.3984-7.3984-7.3984-4.0938 0-7.3984 3.3086-7.3984 7.3984v7.3984h-7.4023c-4.0938 0-7.3984 3.3086-7.3984 7.3984 0 4.0938 3.3086 7.3984 7.3984 7.3984h7.3984v7.3984c0 4.0938 3.3086 7.3984 7.3984 7.3984 4.0938 0 7.3984-3.3086 7.3984-7.3984v-7.3984h7.3984c4.0938 0 7.3984-3.3086 7.3984-7.3984 0.007812-4.0898-3.3008-7.3984-7.3945-7.3984z"/>
  <path d="m501.8 183.61h7.3984v7.3984c0 4.0938 3.3086 7.3984 7.3984 7.3984 4.0938 0 7.3984-3.3086 7.3984-7.3984l0.003906-7.3984h7.3984c4.0938 0 7.3984-3.3086 7.3984-7.3984 0-4.0938-3.3086-7.3984-7.3984-7.3984h-7.3984v-7.4023c0-4.0938-3.3086-7.3984-7.3984-7.3984-4.0938 0-7.3984 3.3086-7.3984 7.3984v7.3984h-7.3984c-4.0938 0-7.3984 3.3086-7.3984 7.3984-0.003906 4.0938 3.3008 7.4023 7.3945 7.4023z"/>
  <path d="m205.81 228.01c12.238 0 22.199-9.9609 22.199-22.199 0-12.238-9.9609-22.199-22.199-22.199-12.238 0-22.199 9.9609-22.199 22.199 0 12.238 9.9609 22.199 22.199 22.199zm0-29.598c4.0859 0 7.3984 3.3164 7.3984 7.3984 0 4.0859-3.3164 7.3984-7.3984 7.3984-4.0859 0-7.3984-3.3125-7.3984-7.3984 0-4.0859 3.3125-7.3984 7.3984-7.3984z"/>
  <path d="m568.62 294.61h-18.418c-31.598-67.551-99.371-111-174.2-111-35.363 0-69.941 9.6797-99.992 27.992l7.7031 12.633c27.727-16.895 59.645-25.824 92.289-25.824 66.754 0 127.5 37.398 157.84 96.195h-24.871c-16.195 0-29.375 13.18-29.375 29.375v15.023h-44.621c-16.199 0-29.375 13.18-29.375 29.82 0 16.191 13.18 29.375 29.375 29.375h74.441c16.191 0 29.375-13.18 29.375-29.375v-15.023h13.402c0.93359 7.4219 1.3984 14.867 1.3984 22.199 0 97.922-79.672 177.59-177.59 177.59-30.539 0-59.879-7.6133-86.074-22.199h19.699c16.191 0 29.375-13.18 29.375-29.82 0-16.191-13.18-29.375-29.375-29.375h-29.82v-15.02c0-16.191-13.18-29.375-29.375-29.375l-44.297-0.003907c-5.1289-16.805-7.7227-34.211-7.7227-51.801 0-42.57 15.289-83.742 43.059-115.94l-11.203-9.6719c-30.09 34.883-46.656 79.496-46.656 125.61 0 17.566 2.5312 34.918 7.2578 51.797l-7.4805 0.003906c-16.199 0-29.375 13.176-29.375 29.82 0 16.195 13.176 29.375 29.375 29.375h35.535c0.5625 0.79297 1.1172 1.582 1.6953 2.3672v12.652c0 16.191 13.18 29.375 29.375 29.375h12.719c33.07 24.168 72.156 37 113.3 37 106.09 0 192.39-86.301 192.39-192.39 0-7.3398-0.58594-14.777-1.4414-22.199h1.6719c16.191 0 29.375-13.18 29.375-29.82-0.011718-16.195-13.191-29.375-29.387-29.375zm-333.21 207.41v-22.422c0-4.0938-3.3086-7.3984-7.3984-7.3984h-44.621c-8.0352 0-14.578-6.543-14.578-15.023 0-8.0352 6.543-14.578 14.578-14.578h67.047c8.0352 0 14.578 6.543 14.578 14.578v22.422c0 4.0938 3.3086 7.3984 7.3984 7.3984h37.219c8.0352 0 14.578 6.543 14.578 15.02 0 8.0352-6.543 14.578-14.578 14.578l-44.621 0.003906h-15.02c-8.0391 0-14.582-6.543-14.582-14.578zm333.21-163.02h-37.223c-4.0938 0-7.3984 3.3086-7.3984 7.3984v22.422c0 8.0352-6.543 14.578-14.578 14.578h-74.441c-8.0352 0-14.578-6.543-14.578-15.023 0-8.0352 6.543-14.578 14.578-14.578h52.02c4.0938 0 7.3984-3.3086 7.3984-7.3984v-22.422c0-8.0352 6.543-14.578 14.578-14.578h59.645c8.0352 0 14.578 6.543 14.578 15.02-0.003906 8.0391-6.543 14.582-14.578 14.582z"/>
  <path d="m268.73 234.45-8.9453-11.781c-5.0078 3.8047-9.8633 7.8672-14.43 12.098l10.043 10.871c4.2148-3.9062 8.707-7.6641 13.332-11.188z"/>
  <path d="m583.19 235.41h14.801v14.801h-14.801z"/>
  <path d="m309.4 154.01h14.801v14.801h-14.801z"/>
  <path d="m154.01 279.8h14.801v14.801h-14.801z"/>
  <path d="m472.2 583.19h14.801v14.801h-14.801z"/>
  <path d="m242.81 553.59h14.801v14.801h-14.801z"/>
 </g>
</svg>
