<?xml version="1.0" encoding="UTF-8"?>
<svg width="752pt" height="752pt" version="1.1" viewBox="0 0 752 752" xmlns="http://www.w3.org/2000/svg">
 <path d="m518.55 541.28c-16.102-3.3164-38.832-5.6836-65.828-7.5781h-1.8945c-6.6289-9.4727-16.102-28.887-22.258-69.145 17.523-0.94531 33.625-1.8945 47.359-3.7891 38.359-4.7344 45.938-10.418 45.938-18.941s-8.9961-12.785-33.152-17.051c-16.574-2.8398-39.309-4.7344-65.355-5.6836-0.47266-9.9453-0.94531-20.363-1.4219-31.73 1.8945-1.8945 3.7891-4.2617 5.2109-6.6289h4.7344 4.7344 1.4219c0.94531 0 1.8945 0 3.3164-0.47266 0.47266 0 1.4219 0 1.8945-0.47266 0.94531 0 1.8945-0.47266 2.8398-0.47266 0.47266 0 1.4219-0.47266 1.8945-0.47266 0.94531-0.47266 1.8945-0.47266 2.3672-0.94531 0.47266 0 1.4219-0.47266 1.8945-0.47266 0.94531-0.47266 1.4219-0.47266 2.3672-0.94531 0.47266-0.47266 1.4219-0.47266 1.8945-0.94531 0.47266 0 0.94531-0.47266 1.4219-0.47266 0.47266 0.47266 0.94531 0.94531 1.4219 1.4219 3.3164 2.3672 6.6289 4.2617 10.891 5.6836 3.7891 1.4219 8.0508 1.8945 11.84 1.8945 15.156 0 29.363-9.4727 34.57-24.625 1.4219-3.7891 1.8945-8.0508 1.8945-11.84 18.469-5.6836 32.203-22.73 32.203-43.57 0-1.8945 0-3.3164-0.47266-5.2109 0-0.47266 0-0.94531-0.47266-1.8945 0-0.94531-0.47266-2.3672-0.47266-3.3164 0-0.47266-0.47266-1.4219-0.47266-1.8945-0.47266-0.94531-0.47266-1.8945-0.94531-2.8398 0-0.47266-0.47266-1.4219-0.94531-1.8945-0.47266-0.94531-0.47266-1.8945-0.94531-2.3672-0.47266-0.47266-0.47266-1.4219-0.94531-1.8945-0.47266-0.94531-0.94531-1.4219-1.4219-2.3672-0.47266-0.47266-0.94531-1.4219-1.4219-1.8945-0.47266-0.94531-0.94531-1.4219-1.4219-2.3672-0.47266-0.47266-0.94531-1.4219-1.4219-1.8945l-3.7891-3.7891v-2.8398c0-1.4219-0.47266-2.3672-0.47266-3.7891-0.94531-4.2617-2.8398-8.5234-5.2109-12.312 0-0.47266 0-0.47266 0.47266-0.94531 2.3672-8.5234 0.94531-17.523-3.3164-25.102-4.2617-7.5781-11.367-12.785-19.891-15.156-5.2109-1.4219-11.367-1.4219-16.574 0-1.4219 0.47266-2.3672 0.94531-3.3164 1.8945h-0.47266c-0.47266-0.47266-0.94531-0.47266-1.4219-0.94531-0.47266-0.47266-0.94531-0.47266-1.4219-0.94531-0.47266-0.47266-0.94531-0.47266-1.8945-0.94531-0.47266-0.47266-0.94531-0.47266-1.8945-0.94531-0.47266-0.47266-1.4219-0.47266-1.8945-0.94531-0.47266 0-0.94531-0.47266-1.8945-0.47266-0.47266 0-1.4219-0.47266-1.8945-0.47266s-0.94531-0.47266-1.4219-0.47266c-0.94531 0-1.4219-0.47266-2.3672-0.47266-0.47266 0-0.94531 0-1.4219-0.47266-0.94531 0-1.8945 0-2.3672-0.47266h-1.4219-3.7891c-1.8945 0-3.7891 0-5.6836 0.47266h-1.4219c-1.4219 0-2.8398 0.47266-4.2617 0.94531h-0.94531c-1.8945 0.47266-3.7891 0.94531-5.2109 1.4219-0.47266-0.47266-0.47266-0.47266-0.94531-0.47266-0.94531-0.94531-1.8945-1.4219-2.8398-2.3672-0.94531-0.47266-1.8945-1.4219-2.8398-1.8945-0.94531-0.94531-1.8945-1.4219-3.3164-1.8945-0.94531-0.47266-1.8945-0.94531-2.8398-1.8945-0.94531-0.47266-2.3672-0.94531-3.3164-1.8945-0.94531-0.47266-2.3672-0.94531-3.3164-1.4219-0.94531-0.47266-2.3672-0.94531-3.3164-1.4219-0.94531-0.47266-2.3672-0.94531-3.3164-1.4219-0.94531-0.47266-1.8945-0.94531-3.3164-0.94531-1.4219-0.47266-2.8398-0.47266-3.7891-0.94531-0.94531 0-1.8945-0.47266-2.8398-0.47266-1.4219-0.47266-2.8398-0.47266-4.7344-0.47266-13.258-22.758-42.145-30.809-64.875-18.023-6.6289 3.7891-12.312 8.9961-16.574 15.156h-3.7891-4.2617-1.4219c-0.94531 0-1.8945 0-2.8398 0.47266-0.47266 0-0.94531 0-1.8945 0.47266-0.94531 0-1.4219 0.47266-2.3672 0.47266-0.47266 0-1.4219 0.47266-1.8945 0.47266-0.94531 0-1.4219 0.47266-2.3672 0.47266-0.47266 0-1.4219 0.47266-1.8945 0.47266s-1.4219 0.47266-1.8945 0.47266-1.4219 0.47266-1.8945 0.94531-1.4219 0.47266-1.8945 0.94531c-0.47266 0.47266-1.4219 0.47266-1.8945 0.94531-0.47266 0.47266-0.94531 0.47266-1.8945 0.94531-0.47266 0.47266-1.4219 0.47266-1.8945 0.94531-0.47266 0-0.47266 0.47266-0.94531 0.47266-8.0508-2.8398-16.574-2.8398-24.625 0-8.9961 3.3164-16.574 9.9453-20.836 18.941-2.3672 4.7344-3.3164 9.9453-3.3164 15.156l-0.47266 0.47266c-0.47266 0.47266-0.47266 0.94531-0.94531 1.4219-0.47266 0.47266-0.94531 0.94531-0.94531 1.4219-0.47266 0.47266-0.47266 0.94531-0.94531 1.4219-0.47266 0.47266-0.47266 0.94531-0.94531 1.4219-0.47266 0.47266-0.47266 0.94531-0.94531 1.4219-0.47266 0.47266-0.47266 0.94531-0.94531 1.4219 0 0.47266-0.47266 0.94531-0.47266 1.4219 0 0.47266-0.47266 0.94531-0.47266 1.8945 0 0.47266-0.47266 0.94531-0.47266 1.4219 0 0.47266-0.47266 1.4219-0.47266 1.8945s-0.47266 0.94531-0.47266 1.4219c0 0.47266 0 1.4219-0.47266 1.8945v1.8945 0.94531c-0.47266 0.47266-1.4219 0.47266-1.8945 0.94531 0 0-0.47266 0-0.47266 0.47266-2.8398 1.4219-5.2109 3.3164-7.5781 5.2109 0 0-0.47266 0.47266-0.47266 0.47266-0.94531 0.94531-2.3672 1.8945-3.3164 2.8398-0.94531 0.94531-1.8945 2.3672-3.3164 3.3164l-0.47266 0.47266c-0.94531 0.94531-1.4219 1.8945-2.3672 2.8398 0 0.47266-0.47266 0.47266-0.47266 0.94531-0.94531 0.94531-1.4219 2.3672-1.8945 3.3164l-0.47266 0.47266c-0.47266 0.94531-0.94531 2.3672-1.4219 3.3164 0 0.47266-0.47266 0.94531-0.47266 1.4219-0.47266 0.94531-0.47266 1.8945-0.94531 2.8398 0 0.47266-0.47266 0.94531-0.47266 1.4219-0.47266 1.4219-0.94531 2.8398-0.94531 4.2617v1.4219c0 0.94531-0.47266 2.3672-0.47266 3.3164v1.4219 4.7344c0 1.8945 0 3.3164 0.47266 5.2109 0 0.47266 0 0.94531 0.47266 1.4219 0 0.94531 0.47266 2.3672 0.47266 3.3164 0 0.47266 0.47266 1.4219 0.47266 1.8945 0 0.94531 0.47266 1.8945 0.94531 2.8398 0 0.47266 0.47266 1.4219 0.47266 1.8945 0.47266 0.94531 0.47266 1.8945 0.94531 2.3672 0.47266 0.47266 0.47266 1.4219 0.94531 1.8945 0.47266 0.94531 0.94531 1.4219 0.94531 2.3672 0.47266 0.47266 0.94531 1.4219 0.94531 1.8945 0.47266 0.94531 0.94531 1.4219 1.4219 2.3672 0.47266 0.47266 0.94531 1.4219 1.4219 1.8945 0.47266 0.47266 0.94531 1.4219 1.4219 1.8945 0.47266 0.47266 0.94531 0.94531 1.4219 1.8945 0.47266 0.47266 0.94531 1.4219 1.8945 1.8945 0.47266 0.47266 0.94531 0.94531 1.4219 1.4219 0.47266 0.47266 1.4219 0.94531 1.8945 1.8945-0.47266 11.84 2.8398 22.258 10.418 30.309 8.5234 9.4727 21.785 15.629 35.52 15.629h0.47266c5.2109 0 9.4727-1.8945 13.262-3.7891 0.94531-0.47266 1.8945-0.94531 2.8398-1.4219 0.94531-0.47266 1.8945-1.4219 2.8398-1.8945 0.94531 3.3164 2.3672 6.6289 4.2617 9.4727 7.1055 11.367 18.941 17.523 31.258 17.523 6.6289 0 13.262-1.8945 18.941-5.2109 1.8945-1.4219 3.7891-2.8398 5.6836-4.2617 0.47266 9.4727 0.47266 18.941 0 27.469-28.414 0.94531-53.988 2.8398-72.457 5.6836-25.574 3.7891-35.52 8.5234-35.52 17.051 0 8.0508 7.5781 14.207 45.938 18.941 16.102 1.8945 35.52 3.3164 56.355 4.2617-6.1562 31.73-16.102 54.934-23.207 67.723h-0.94531c-30.781 1.4219-57.305 4.2617-76.719 7.5781-25.574 4.2617-35.52 9.4727-35.52 18.469 0 9.4727 12.785 13.262 17.996 14.68 8.5234 2.3672 21.312 4.7344 36.938 6.6289 31.73 3.7891 73.879 6.1562 118.39 6.1562 44.516 0 86.664-1.8945 118.39-6.1562 15.629-1.8945 27.941-4.2617 36.938-6.6289 5.2109-1.4219 17.996-5.2109 17.996-14.68-0.48828-9.4648-12.801-14.199-31.27-17.516zm-16.578-98.977c-12.312 3.3164-38.359 6.6289-74.824 8.5234-0.47266-5.2109-1.4219-10.891-1.8945-17.051 40.254 1.8945 64.879 5.2109 76.719 8.5273zm-131.18-13.262c-3.7891 0-7.1055 3.3164-7.1055 7.1055v15.629h-8.0508c2.3672-18.469 3.7891-39.309 2.3672-62.512h0.94531 4.7344c1.4219 0 3.3164 0 4.7344-0.47266h0.94531c1.4219 0 3.3164-0.47266 4.7344-0.94531h0.94531c0.47266 0 0.94531 0 1.4219-0.47266 2.8398 2.8398 6.1562 5.2109 9.4727 6.6289 0 4.2617 0.47266 29.363 1.8945 56.828h-8.0508-1.4219v-15.629c-0.46484-2.8438-3.3047-6.1602-7.5664-6.1602zm26.52-45.465c-2.3672-0.47266-4.7344-0.94531-7.1055-2.3672 0.94531-0.47266 1.8945-1.4219 2.8398-1.8945 0 0 0.47266 0 0.47266-0.47266 1.4219-0.94531 2.3672-1.8945 3.7891-3.3164 0.94531-0.94531 2.3672-2.3672 3.3164-3.3164l0.47266-0.47266c0.47266 0.47266 0.94531 0.47266 1.4219 0.94531 0.47266 0.47266 0.94531 0.47266 1.8945 0.94531 0.94531 0.47266 1.8945 0.94531 2.8398 1.4219 0.47266 0 0.94531 0.47266 0.94531 0.47266 1.4219 0.47266 2.8398 1.4219 4.2617 1.8945h0.47266c-0.47266 0.47266-0.94531 0.94531-1.8945 1.4219-3.7812 3.793-8.5156 5.2109-13.727 4.7383zm2.3672 14.207c3.3164 0 6.1562-0.47266 8.9961-1.4219 0.47266 19.891 1.8945 38.359 3.7891 54.934-3.7891 0-7.5781 0-11.367 0.47266-0.46875-20.832-0.94531-40.723-1.418-53.984zm75.301-28.887c-1.4219-0.47266-2.8398-0.94531-4.2617-1.8945 0.47266-0.47266 0.94531-0.47266 1.4219-0.94531l1.4219-1.4219c0.47266-0.47266 0.94531-0.94531 1.8945-1.8945 0.47266-0.47266 0.94531-0.94531 1.4219-1.4219 0.47266-0.47266 0.94531-0.94531 1.4219-1.8945 0.47266-0.47266 0.94531-0.94531 1.4219-1.8945 0.47266-0.47266 0.94531-1.4219 1.4219-1.8945 0.47266-0.47266 0.94531-1.4219 1.4219-1.8945 0.47266-0.47266 0.94531-1.4219 0.94531-1.8945 0.47266-0.47266 0.94531-1.4219 0.94531-1.8945 0.47266-0.47266 0.47266-1.4219 0.94531-1.8945s0.47266-1.4219 0.94531-1.8945c0.47266 0 0.47266 0 0.94531 0.47266 0.94531 0.47266 1.8945 0.94531 3.3164 1.4219 0.47266 0 0.94531 0.47266 1.8945 0.47266 0.94531 0.47266 1.8945 0.47266 2.3672 0.47266s0.94531 0.47266 1.4219 0.47266c1.4219 0.47266 2.3672 0.47266 3.7891 0.47266h0.94531 3.3164c0 1.8945-0.47266 3.7891-0.94531 5.2109-4.2656 11.371-17.051 18-28.418 13.738zm30.309-33.152c-1.4219 0-2.8398 0-3.7891-0.47266h-0.47266c-1.4219 0-2.3672-0.47266-3.7891-0.94531-2.3672-0.94531-5.2109-1.8945-7.1055-2.8398h-0.47266c-4.7344-2.8398-8.5234-6.6289-11.367-11.84-1.8945-3.3164-6.1562-4.7344-9.4727-2.8398-3.3164 1.8945-4.7344 6.1562-2.8398 9.4727 2.3672 4.2617 5.2109 8.0508 8.5234 10.891-6.1562 17.523-22.73 29.836-41.676 29.836h-3.7891-1.4219c-0.94531 0-1.8945 0-2.3672-0.47266-0.47266 0-0.94531 0-1.4219-0.47266-0.94531 0-1.4219-0.47266-2.3672-0.47266-0.47266 0-0.94531 0-0.94531-0.47266-0.94531-0.47266-1.8945-0.47266-2.3672-0.94531-0.47266 0-0.47266-0.47266-0.94531-0.47266-0.94531-0.47266-1.8945-0.94531-2.8398-0.94531 0 0-0.47266 0-0.47266-0.47266-0.47266 0-0.47266-0.47266-0.94531-0.47266 3.7891-3.3164 7.1055-7.1055 9.4727-11.367 2.3672-4.2617 3.7891-8.9961 4.2617-13.734 0.47266-3.7891-2.3672-7.1055-6.1562-7.5781-3.7891-0.47266-7.1055 2.3672-7.5781 6.1562-0.47266 2.8398-0.94531 5.6836-2.3672 8.5234-2.8398 5.2109-7.5781 8.9961-13.262 10.891s-11.84 0.94531-17.051-1.8945c-2.3672-1.4219-4.2617-2.8398-5.6836-4.7344-2.8398-2.8398-7.1055-2.8398-9.9453-0.47266-2.8398 2.8398-2.8398 7.1055-0.47266 9.9453 2.8398 2.8398 6.1562 5.6836 9.4727 7.5781 3.3164 1.8945 6.6289 2.8398 10.418 3.7891-5.6836 3.7891-12.312 6.1562-19.891 6.1562h-3.3164-0.94531c-0.94531 0-1.4219 0-2.3672-0.47266h-0.94531c-0.94531 0-1.8945-0.47266-2.8398-0.94531-8.5234-2.8398-16.102-8.9961-20.363-16.574-0.47266-0.94531-0.94531-1.8945-1.4219-2.8398-1.8945-4.2617-2.8398-8.9961-2.8398-13.734v-0.47266c4.7344-0.94531 8.9961-2.3672 12.785-4.7344 4.2617-2.3672 7.5781-5.6836 10.418-9.9453 2.3672-3.3164 1.4219-7.5781-1.4219-9.9453-3.3164-2.3672-7.5781-1.4219-9.9453 1.4219-1.8945 2.3672-3.7891 4.2617-6.6289 6.1562-5.2109 3.3164-10.891 4.2617-17.051 2.8398-5.6836-1.4219-10.891-5.2109-13.734-9.9453-1.4219-2.3672-2.3672-4.2617-2.8398-7.1055-0.94531-3.7891-4.7344-6.1562-8.5234-5.2109-3.7891 0.94531-6.1562 4.7344-5.2109 8.5234 0.94531 3.7891 2.3672 7.5781 4.7344 11.367 5.2109 8.5234 13.262 14.207 22.73 16.574h0.47266v0.47266c0 3.7891 0.47266 7.1055 0.94531 10.418-6.6289 5.6836-14.68 8.9961-23.68 8.9961-1.4219 0-2.8398 0-4.2617-0.47266-9.4727-0.94531-17.996-6.1562-23.68-13.734 1.4219-0.47266 2.3672-0.47266 3.7891-0.94531 3.7891-1.4219 5.6836-5.2109 4.2617-8.9961-1.4219-3.7891-5.2109-5.6836-8.9961-4.2617-3.7891 1.4219-7.5781 1.8945-11.367 1.8945-19.891 0-35.992-16.102-35.992-35.992v-3.3164-0.94531c0-0.94531 0-1.4219 0.47266-2.3672 0-0.47266 0-0.94531 0.47266-1.4219 0-0.47266 0.47266-1.4219 0.47266-1.8945 0-0.47266 0-0.94531 0.47266-0.94531 0.47266-0.94531 0.47266-1.8945 0.94531-2.8398 0-0.47266 0.47266-0.94531 0.47266-0.94531 0.47266-0.47266 0.47266-1.4219 0.94531-1.8945 0-0.47266 0.47266-0.94531 0.47266-0.94531 0.47266-0.47266 0.94531-1.4219 0.94531-1.8945 0-0.47266 0.47266-0.47266 0.47266-0.94531 1.4219-1.8945 2.8398-3.3164 4.2617-5.2109l2.8398-2.8398c0.94531-0.47266 1.4219-0.94531 2.3672-1.8945 0 0 0.47266 0 0.47266-0.47266 1.8945-1.4219 3.7891-2.3672 5.6836-3.3164 0.47266 0 0.47266 0 0.94531-0.47266 4.2617-1.8945 8.5234-2.8398 13.262-2.8398 3.7891 0 7.1055-3.3164 7.1055-7.1055 0-3.7891-3.3164-7.1055-7.1055-7.1055-2.3672 0-4.2617 0-6.6289 0.47266 2.8398-8.9961 11.367-15.629 21.312-15.629 0.94531 0 1.8945 0 2.8398 0.47266h0.47266 0.47266c1.8945 0.47266 4.2617 0.94531 6.1562 1.8945-1.8945 2.3672-3.7891 4.7344-5.2109 7.5781-2.8398 5.6836-4.7344 11.84-4.7344 17.996 0 3.7891 3.3164 7.1055 7.1055 7.1055 3.7891 0 7.1055-3.3164 7.1055-7.1055 0-3.7891 0.94531-7.5781 2.8398-10.891 6.1562-10.891 19.891-14.68 30.781-8.9961 3.3164 1.8945 7.5781 0.47266 9.4727-2.8398 1.8945-3.3164 0.47266-7.5781-2.8398-9.4727-9.9453-5.6836-21.785-5.6836-31.73-1.8945-2.3672-1.8945-4.7344-3.3164-7.5781-4.7344 8.0508-11.84 21.785-19.418 36.465-19.418h4.2617 0.94531c0.94531 0 1.8945 0.47266 2.8398 0.47266h0.94531c0.94531 0 1.8945 0.47266 3.3164 0.94531h0.47266c6.6289 1.8945 12.785 5.6836 17.996 10.418 0 0 0.47266 0.47266 0.47266 0.47266 5.2109 5.2109 8.9961 11.367 11.367 18.469 0.94531 2.8398 3.7891 4.7344 6.6289 4.7344 0.47266 0 1.4219 0 1.8945-0.47266 3.7891-0.94531 5.6836-5.2109 4.7344-8.9961-1.8945-6.6289-5.2109-12.785-8.9961-17.996 8.9961-4.7344 18.941-7.1055 28.887-7.1055 13.734 0 26.52 4.2617 37.414 12.312-3.3164 2.8398-6.1562 5.6836-8.9961 8.9961-3.7891-0.47266-8.0508 0-11.84 0.47266-6.6289 1.4219-12.785 4.2617-17.523 8.5234-2.8398 2.3672-3.3164 7.1055-0.47266 9.9453 2.3672 2.8398 7.1055 3.3164 9.9453 0.47266 3.3164-2.8398 7.1055-4.7344 11.367-5.6836 6.6289-1.4219 13.262 0 18.469 3.3164 5.6836 3.7891 9.4727 8.9961 10.891 15.629 0.47266 3.3164 3.7891 5.6836 7.1055 5.6836h1.4219c3.7891-0.94531 6.1562-4.7344 5.6836-8.5234-2.3672-9.9453-8.0508-18.941-17.051-24.625-0.94531-0.47266-1.8945-0.94531-2.8398-1.4219 3.3164-3.3164 7.1055-5.6836 11.367-7.5781 0.47266 0 0.94531-0.47266 0.94531-0.47266 0.94531-0.47266 2.3672-0.94531 3.3164-0.94531h0.47266c1.4219-0.47266 2.3672-0.47266 3.7891-0.47266h0.47266c1.4219 0 2.8398-0.47266 4.2617-0.47266 12.312 0 23.68 6.6289 29.836 16.574-2.3672 0.47266-4.2617 0.94531-6.1562 1.8945-3.7891 1.4219-5.2109 5.6836-3.7891 9.4727 1.4219 3.7891 5.6836 5.2109 9.4727 3.7891 2.8398-0.94531 5.6836-1.8945 8.5234-1.8945h1.8945c0.47266 0 1.4219 0 1.8945 0.47266h0.47266c0.47266 0 0.94531 0 0.94531 0.47266 0.47266 0 0.94531 0 0.94531 0.47266h0.47266c0.47266 0 0.94531 0.47266 1.4219 0.47266 6.6289 2.8398 11.84 8.9961 13.262 16.102 0 0.47266 0 1.4219 0.47266 1.8945v0.47266 2.3672c0 8.0508-4.2617 15.156-10.891 19.418-3.3164 1.8945-4.2617 6.1562-2.3672 9.4727 1.4219 2.3672 3.7891 3.3164 6.1562 3.3164 1.4219 0 2.3672-0.47266 3.7891-0.94531 6.1562-3.7891 10.891-8.9961 14.207-15.156 3.3164 4.7344 4.7344 10.891 4.7344 16.574-0.92188 19.871-15.129 34.078-32.18 34.078zm9.4727-103.24c1.4219 1.8945 1.8945 4.2617 2.3672 6.6289-2.8398-1.8945-6.1562-2.8398-9.9453-3.7891 0-0.47266-0.47266-0.94531-0.47266-0.94531-0.47266-0.94531-0.47266-1.4219-0.94531-2.3672v-0.47266c-0.94531-1.8945-1.8945-3.7891-3.3164-5.2109l-0.47266-0.47266c-0.47266-0.47266-0.94531-1.4219-1.4219-1.8945l-0.47266-0.47266c0.94531 0 2.3672 0.47266 3.3164 0.47266 4.7305 1.418 8.5195 4.2617 11.363 8.5234zm-169.54-48.309c13.734-7.5781 29.836-4.7344 40.254 5.2109-0.94531 0-1.8945 0-3.3164 0.47266-0.94531 0-1.4219 0.47266-2.3672 0.47266-0.94531 0-1.8945 0.47266-3.3164 0.47266-0.94531 0-1.4219 0.47266-2.3672 0.47266-0.94531 0.47266-1.8945 0.47266-2.8398 0.94531s-1.8945 0.47266-2.3672 0.94531c-0.94531 0.47266-1.8945 0.47266-2.8398 0.94531-0.94531 0.47266-1.8945 0.47266-2.3672 0.94531-0.94531 0.47266-1.4219 0.47266-2.3672 0.94531-0.94531 0.47266-1.8945 0.94531-2.8398 1.4219-0.47266 0.47266-1.4219 0.94531-1.8945 0.94531-0.94531 0.47266-1.8945 0.94531-2.8398 1.4219-5.2109-4.2617-10.891-7.1055-17.051-9.4727 2.8359-2.3555 5.6797-4.25 8.5195-6.1445zm-77.195 24.629c1.8945-0.47266 3.3164-0.94531 5.2109-1.4219-1.8945 1.8945-3.3164 4.2617-4.7344 6.1562-0.47266 0.94531-0.94531 1.8945-1.4219 2.8398 0 0.47266-0.47266 0.47266-0.47266 0.94531h-3.7891-1.4219c-0.94531 0-1.4219 0-2.3672 0.47266-0.47266 0-0.94531 0-1.4219 0.47266-0.47266 0-0.94531 0.47266-1.4219 0.47266 2.8438-4.2539 7.1055-8.043 11.84-9.9375zm-2.8398 158.65c-9.4727 0-18.941-4.2617-25.102-10.891-3.3164-3.3164-5.2109-7.5781-6.1562-12.312 0.47266 0 0.94531 0.47266 1.4219 0.47266 0.94531 0.47266 1.4219 0.47266 2.3672 0.47266 0.94531 0.47266 1.8945 0.47266 2.3672 0.47266 0.94531 0 1.4219 0.47266 2.3672 0.47266 0.94531 0 1.8945 0.47266 2.8398 0.47266 0.94531 0 1.4219 0 2.3672 0.47266h0.94531c3.7891 8.5234 9.9453 15.156 17.523 19.891-0.46875 0.003906-0.94141 0.47656-0.94141 0.47656zm65.828 16.102c-10.418 6.6289-24.152 3.3164-30.781-7.5781-0.47266-0.94531-0.94531-1.8945-1.4219-2.8398 0.94531 0 1.4219-0.47266 2.3672-0.47266 0.47266 0 0.94531 0 1.4219-0.47266 1.4219-0.47266 2.8398-0.94531 4.2617-1.4219h0.47266c1.4219-0.47266 2.8398-0.94531 3.7891-1.4219 0.47266 0 0.94531-0.47266 1.4219-0.47266 0.94531-0.47266 1.8945-0.94531 2.8398-1.4219 0.47266 0 0.94531-0.47266 1.4219-0.94531 1.4219-0.94531 2.3672-1.4219 3.7891-2.3672 3.7891 6.1562 8.5234 11.84 14.207 15.629-0.94922 1.8906-1.8945 3.3125-3.7891 3.7852zm-74.352 58.727c12.785-3.3164 40.727-7.5781 86.664-8.9961-0.47266 6.1562-1.4219 12.312-1.8945 17.996-41.676-1.4258-71.035-5.2148-84.77-9zm229.21 124.55c-30.309 3.3125-69.141 5.207-109.87 5.207-40.727 0-79.562-1.8945-109.87-5.2109-26.52-2.8398-39.309-6.1562-44.988-8.0508 10.891-3.7891 38.359-8.5234 86.664-11.367-0.47266 2.8398 0.47266 5.6836 2.8398 7.5781 1.4219 0.94531 2.8398 1.4219 4.2617 1.4219 2.3672 0 4.2617-0.94531 5.6836-2.8398s22.73-32.676 33.152-87.613h9.9453c-1.8945 44.043-7.5781 81.93-7.5781 82.402-0.47266 3.7891 1.8945 7.5781 5.6836 8.0508h0.94531c3.3164 0 6.6289-2.3672 7.1055-6.1562 0-0.47266 5.6836-39.309 8.0508-84.297h1.8945 8.5234c1.4219 27.469 3.3164 54.461 6.6289 64.406 0.94531 2.8398 3.7891 5.2109 6.6289 5.2109 0.47266 0 1.4219 0 1.8945-0.47266 3.7891-0.94531 5.6836-5.2109 4.7344-8.9961-2.3672-8.5234-4.7344-33.625-6.1562-60.617 4.2617 0 8.5234 0 12.785-0.47266 3.7891 26.52 9.9453 47.832 17.051 63.934 6.1562 12.785 12.312 19.418 17.051 22.73 3.7891 2.8398 8.9961 0.47266 9.4727-3.7891 41.676 2.8398 62.984 7.1055 71.984 10.418-5.6797 2.3672-18.469 5.6797-44.516 8.5234z"/>
</svg>
