<?xml version="1.0" encoding="UTF-8"?>
<svg width="752pt" height="752pt" version="1.1" viewBox="0 0 752 752" xmlns="http://www.w3.org/2000/svg">
 <path d="m377.4 158.95c-1.668-0.003906-3.2656 0.66016-4.4453 1.8398-1.1797 1.1797-1.8398 2.7773-1.8398 4.4453v110.9c-56.02 1.7266-106.96 32.91-133.98 82.016-27.016 49.102-26.098 108.82 2.4258 157.07 28.52 48.246 80.398 77.844 136.44 77.844 56.047 0 107.93-29.598 136.45-77.844 28.52-48.246 29.441-107.96 2.4219-157.07-27.016-49.105-77.957-80.289-133.98-82.016v-51.168h84.281c2.5664-0.003906 4.875-1.5664 5.8281-3.9492 0.95703-2.3828 0.36328-5.1055-1.4922-6.8789l-23.266-22.176 23.266-22.188c1.8555-1.7734 2.4453-4.5 1.4922-6.8828s-3.2617-3.9453-5.8281-3.9453zm3.4922 9.7773h75.566l-19.598 18.684c-1.2422 1.1875-1.9492 2.8281-1.9492 4.5469s0.70703 3.3633 1.9492 4.5508l19.598 18.699-75.566-0.003906zm-9.7773 117.46v65.719c-15.641-0.26562-31.23-1.8125-46.613-4.6211 6.0039-15.969 13.641-31.273 22.789-45.672 5.3125-8.3672 14.012-14 23.824-15.426zm9.7773 0c9.8086 1.4258 18.508 7.0586 23.824 15.426 9.1484 14.398 16.785 29.703 22.789 45.672-15.387 2.8086-30.977 4.3555-46.613 4.6211zm-36.125 2.9727c-2.1602 2.1953-4.0781 4.6133-5.7305 7.2148-9.793 15.414-17.922 31.824-24.246 48.957-15.617-3.4141-30.922-8.1328-45.754-14.102 20.508-21.227 46.871-35.875 75.73-42.07zm62.461 0c28.855 6.1953 55.219 20.844 75.727 42.07-14.828 5.9688-30.133 10.688-45.754 14.102-6.3203-17.133-14.441-33.543-24.234-48.957-1.6523-2.6016-3.5781-5.0195-5.7383-7.2148zm-145.13 49.777c15.996 6.668 32.547 11.922 49.465 15.695-7.9102 24.25-12.176 49.543-12.656 75.047h-71.543c1.0898-33.281 13.324-65.238 34.734-90.742zm227.82 0c21.41 25.504 33.641 57.461 34.734 90.742h-71.543c-0.48437-25.504-4.7539-50.797-12.668-75.047 16.918-3.7734 33.477-9.0273 49.477-15.695zm-168.71 17.676v-0.003906c16.465 3.1016 33.16 4.7969 49.914 5.0742v67.996h-62.434c0.48828-24.844 4.707-49.477 12.52-73.07zm109.61 0v-0.003906c7.8125 23.594 12.031 48.227 12.52 73.07h-62.434v-67.996c16.75-0.27734 33.449-1.9727 49.914-5.0742zm-203.45 82.836h71.543v-0.003906c0.48047 25.504 4.7461 50.797 12.656 75.047-16.918 3.7734-33.469 9.0273-49.465 15.699-21.41-25.508-33.645-57.461-34.734-90.746zm81.32 0h62.434v67.996-0.003906c-16.754 0.27734-33.449 1.9727-49.914 5.0742-7.8125-23.594-12.031-48.223-12.52-73.07zm72.211 0h62.434v-0.003906c-0.48828 24.848-4.707 49.477-12.52 73.07-16.465-3.1016-33.164-4.7969-49.914-5.0742zm72.211 0h71.543v-0.003906c-1.0938 33.285-13.324 65.238-34.734 90.746-16-6.6719-32.559-11.926-49.477-15.699 7.9141-24.25 12.184-49.543 12.668-75.047zm-81.988 77.777v65.719-0.003906c-9.8125-1.4258-18.512-7.0586-23.824-15.426-9.1484-14.398-16.785-29.703-22.789-45.672 15.383-2.8125 30.973-4.3594 46.613-4.625zm9.7773 0v-0.007812c15.637 0.26562 31.227 1.8125 46.613 4.625-6.0039 15.969-13.641 31.273-22.789 45.672-5.3164 8.3672-14.016 14-23.824 15.426zm-66.102 6.5742v-0.007813c6.3242 17.133 14.453 33.547 24.246 48.961 1.6523 2.6016 3.5703 5.0273 5.7305 7.2266-28.859-6.1992-55.223-20.844-75.73-42.07 14.832-5.9766 30.137-10.695 45.754-14.117zm122.41 0v-0.007813c15.621 3.4219 30.926 8.1406 45.754 14.117-20.508 21.227-46.871 35.871-75.727 42.07 2.1602-2.1992 4.0859-4.6211 5.7383-7.2266 9.793-15.414 17.914-31.828 24.234-48.961z"/>
</svg>
