<?xml version="1.0" encoding="UTF-8"?>
<svg width="752pt" height="752pt" version="1.1" viewBox="0 0 752 752" xmlns="http://www.w3.org/2000/svg">
 <g>
  <path d="m376 346.4c-11.582 0.035156-22.477 5.5156-29.406 14.801h14.609c5.8867 0 11.531 2.3359 15.695 6.5 4.1641 4.1641 6.5039 9.8086 6.5039 15.699 0 1.9609 0.77734 3.8438 2.168 5.2305 1.3867 1.3867 3.2695 2.168 5.2305 2.168h21.461c2.2188-10.887-0.56641-22.195-7.5977-30.801-7.0273-8.6094-17.551-13.602-28.664-13.598z"/>
  <path d="m368.6 383.4c0-1.9648-0.78125-3.8477-2.168-5.2344-1.3867-1.3867-3.2695-2.168-5.2305-2.168h-21.461c-2.2969 11.043 0.58594 22.527 7.8203 31.176 7.2344 8.6523 18.027 13.516 29.301 13.211 11.273-0.30859 21.785-5.7539 28.539-14.785h-14.602c-5.8867 0-11.535-2.3398-15.695-6.5039-4.1641-4.1641-6.5039-9.8086-6.5039-15.695z"/>
  <path d="m560.99 472.2c0 8.1719-6.625 14.797-14.797 14.797-8.1758 0-14.801-6.625-14.801-14.797 0-8.1758 6.625-14.801 14.801-14.801 8.1719 0 14.797 6.625 14.797 14.801"/>
  <path d="m235.41 420.4c0 8.1758-6.625 14.801-14.797 14.801-8.1758 0-14.801-6.625-14.801-14.801 0-8.1719 6.625-14.797 14.801-14.797 8.1719 0 14.797 6.625 14.797 14.797"/>
  <path d="m479.6 346.4c0 4.0859-3.3125 7.3984-7.3984 7.3984-4.0898 0-7.4023-3.3125-7.4023-7.3984 0-4.0859 3.3125-7.3984 7.4023-7.3984 4.0859 0 7.3984 3.3125 7.3984 7.3984"/>
  <path d="m376 287.2c-89.766 0-162.79 43.156-162.79 96.195v0.003906c0.027344 2.7578 0.25 5.5156 0.67578 8.2422 2.1992-0.54297 4.457-0.82422 6.7266-0.84375 7.8477 0 15.379 3.1172 20.93 8.668 5.5508 5.5508 8.668 13.082 8.668 20.93-0.027343 6.75-2.3789 13.285-6.6602 18.5 30.465 25.32 79.738 40.699 132.45 40.699 89.766 0 162.79-43.156 162.79-96.195 0-53.043-73.027-96.199-162.79-96.199zm-133.19 59.199v-14.801h14.801v14.801zm133.19 118.39c-69.363 0-125.8-36.516-125.8-81.398 0-44.879 56.43-81.398 125.8-81.398v0.003906c31.113-0.64062 61.785 7.4531 88.531 23.363l-0.23047 0.35547v-0.003906c5.2812-2.0898 11.168-2.0586 16.426 0.089844 5.2578 2.1484 9.4766 6.2461 11.781 11.441 2.3047 5.1914 2.5078 11.07 0.57031 16.41 5.5859 8.9258 8.6055 19.215 8.7188 29.742 0 44.879-56.43 81.395-125.8 81.395zm148-96.195h-14.801v-14.801h14.801z"/>
  <path d="m376 257.61c-9.0195 0-18.055 0.39062-26.914 1.0938l0.003906 0.003906c-4.5352 7.2227-11.996 12.109-20.434 13.379-8.4336 1.2695-17.004-1.207-23.461-6.7812-81.781 18.203-136.39 65.117-136.39 118.1 0 69.363 92.949 125.8 207.19 125.8v-0.003907c49.105 0.80859 97.602-10.949 140.88-34.156-0.14453-0.94141-0.23828-1.8906-0.28516-2.8398 0-7.8516 3.1172-15.379 8.668-20.93s13.078-8.6719 20.93-8.6719c3.3672 0.03125 6.707 0.64844 9.8633 1.8203 16.652-16.023 26.391-37.918 27.133-61.016 0-69.367-92.945-125.8-207.19-125.8zm0 236.79c-57.594 0-111.73-17.617-144.72-46.461-8.5508 3.3242-18.164 2.4805-26.008-2.2852-7.8398-4.7617-13.02-12.902-14.016-22.023-0.99219-9.125 2.3125-18.188 8.9453-24.527-1.168-5.1523-1.7695-10.414-1.7891-15.695 0-61.203 79.672-111 177.59-111s177.59 49.793 177.59 111c-0.003906 61.203-79.676 111-177.6 111z"/>
  <path d="m339 242.81c0 8.1719-6.625 14.797-14.801 14.797-8.1719 0-14.801-6.625-14.801-14.797 0-8.1758 6.6289-14.801 14.801-14.801 8.1758 0 14.801 6.625 14.801 14.801"/>
  <path d="m472.2 368.6c-5.8906 0-11.535-2.3398-15.699-6.5-4.1641-4.1641-6.5-9.8125-6.5-15.699 0.023438-3.7539 1.0117-7.4375 2.8711-10.699-23.543-12.883-50.039-19.398-76.871-18.898-61.203 0-111 29.871-111 66.598 0 36.727 49.793 66.598 111 66.598s111-29.871 111-66.598c-0.054688-6.1172-1.4688-12.145-4.1367-17.648-3.25 1.8438-6.9219 2.8242-10.66 2.8477zm-177.59 14.801h-14.801v-14.801h14.801zm22.199 37-14.801-0.003906v-14.797h14.801zm59.199 14.801-0.003906-0.003906c-13.734 0-26.91-5.457-36.625-15.172s-15.172-22.887-15.172-36.625c0-13.738 5.457-26.914 15.172-36.629 9.7148-9.7148 22.891-15.172 36.625-15.172 13.738 0 26.914 5.457 36.629 15.172 9.7148 9.7148 15.172 22.891 15.172 36.629-0.015625 13.73-5.4805 26.898-15.191 36.609-9.7109 9.7109-22.875 15.172-36.609 15.188zm81.398-29.598-14.805-0.003907v-14.801h14.801z"/>
  <path d="m597.47 180.8c-3.2578-7.7695-13.172-9.3984-33.742-5.2539-8.1328-8.75-19.457-13.84-31.398-14.121-11.941-0.28125-23.492 4.2734-32.027 12.633-8.5391 8.3555-13.336 19.809-13.309 31.754 0 1.1836 0.074218 2.3672 0.14844 3.4766-10.805 7.9922-19.238 17.094-14.43 28.934 1.4023 3.3281 4.1406 5.9062 7.5469 7.1055 2.1992 0.82812 4.5352 1.2305 6.8828 1.1836 6.6094-0.30859 13.125-1.6562 19.312-3.9961 7.3398 5.0391 16.039 7.7227 24.938 7.6953 11.066-0.007812 21.727-4.1484 29.898-11.609 8.1719-7.4609 13.266-17.703 14.277-28.719 17.094-9.918 26.195-18.574 21.902-29.082zm-111.14 50.836c0.074219-1.6289 1.9258-3.9219 5.0312-6.7344 0.92578 1.9727 1.9883 3.875 3.1797 5.6992-2.6758 0.71094-5.4414 1.0625-8.2109 1.0352zm87.684-38.109c-0.4375-1.5273-0.95703-3.0352-1.5508-4.5117 2.9844-0.51172 6-0.83203 9.0273-0.96094-2.3125 2.0547-4.8164 3.8867-7.4766 5.4727z"/>
  <path d="m324.2 538.79h14.801v14.801h-14.801z"/>
  <path d="m324.2 568.39h14.801v14.801h-14.801z"/>
  <path d="m309.4 553.59h14.801v14.801h-14.801z"/>
  <path d="m339 553.59h14.801v14.801h-14.801z"/>
  <path d="m413 183.61h14.801v14.801h-14.801z"/>
  <path d="m413 213.21h14.801v14.801h-14.801z"/>
  <path d="m398.2 198.41h14.801v14.801h-14.801z"/>
  <path d="m427.8 198.41h14.801v14.801h-14.801z"/>
  <path d="m191.01 228.01c5.8867 0 11.535 2.3398 15.699 6.5 4.1602 4.1641 6.5 9.8125 6.5 15.699 0 4.0859 3.3125 7.3984 7.4023 7.3984 4.0859 0 7.3984-3.3125 7.3984-7.3984 0-5.8867 2.3398-11.535 6.5-15.699 4.1641-4.1602 9.8125-6.5 15.699-6.5 4.0859 0 7.3984-3.3125 7.3984-7.3984 0-4.0898-3.3125-7.4023-7.3984-7.4023-5.8867 0-11.535-2.3398-15.699-6.5-4.1602-4.1641-6.5-9.8125-6.5-15.699 0-4.0859-3.3125-7.3984-7.3984-7.3984-4.0898 0-7.4023 3.3125-7.4023 7.3984 0 5.8867-2.3398 11.535-6.5 15.699-4.1641 4.1602-9.8125 6.5-15.699 6.5-4.0859 0-7.3984 3.3125-7.3984 7.4023 0 4.0859 3.3125 7.3984 7.3984 7.3984zm29.598-15.027h0.003906c2.1523 2.9023 4.7227 5.4727 7.6289 7.6289-2.9062 2.1523-5.4766 4.7227-7.6289 7.6289-2.1562-2.9062-4.7266-5.4766-7.6289-7.6289 2.9023-2.1562 5.4727-4.7266 7.6289-7.6289z"/>
  <path d="m560.99 538.79c-5.8867 0-11.531-2.3359-15.695-6.5-4.1641-4.1641-6.5039-9.8086-6.5039-15.695 0-4.0898-3.3125-7.4023-7.3984-7.4023-4.0859 0-7.3984 3.3125-7.3984 7.4023 0 5.8867-2.3398 11.531-6.5039 15.695-4.1602 4.1641-9.8086 6.5-15.695 6.5-4.0859 0-7.3984 3.3164-7.3984 7.4023 0 4.0859 3.3125 7.3984 7.3984 7.3984 5.8867 0 11.535 2.3398 15.695 6.5039 4.1641 4.1602 6.5039 9.8086 6.5039 15.695 0 4.0859 3.3125 7.3984 7.3984 7.3984 4.0859 0 7.3984-3.3125 7.3984-7.3984 0-5.8867 2.3398-11.535 6.5039-15.695 4.1641-4.1641 9.8086-6.5039 15.695-6.5039 4.0898 0 7.4023-3.3125 7.4023-7.3984 0-4.0859-3.3125-7.4023-7.4023-7.4023zm-29.598 15.027v0.003907c-2.1562-2.9023-4.7266-5.4727-7.6289-7.6289 2.9023-2.1562 5.4727-4.7266 7.6289-7.6289 2.1562 2.9023 4.7266 5.4727 7.6289 7.6289-2.9023 2.1562-5.4727 4.7266-7.6289 7.6289z"/>
  <path d="m213.21 531.39c0 12.262-9.9375 22.199-22.199 22.199-12.258 0-22.199-9.9375-22.199-22.199 0-12.258 9.9414-22.199 22.199-22.199 12.262 0 22.199 9.9414 22.199 22.199"/>
  <path d="m176.21 265.01h14.801v14.801h-14.801z"/>
  <path d="m279.8 191.01h14.801v14.801h-14.801z"/>
  <path d="m560.99 265.01h14.801v14.801h-14.801z"/>
  <path d="m450 531.39h14.801v14.801h-14.801z"/>
  <path d="m257.61 524h14.801v14.801h-14.801z"/>
 </g>
</svg>
