<?xml version="1.0" encoding="UTF-8"?>
<svg width="752pt" height="752pt" version="1.1" viewBox="0 0 752 752" xmlns="http://www.w3.org/2000/svg">
 <defs>
  <clipPath id="a">
   <path d="m139.21 140h473.58v472h-473.58z"/>
  </clipPath>
 </defs>
 <g clip-path="url(#a)">
  <path d="m600.16 368.66c-10.77-14.367-27.93-22.945-45.891-22.945-14.246 0-27.656 5.2109-38.184 14.648-2.6914-4.2344-7.3945-7.0625-12.773-7.0625h-15.172c-5.3789 0-10.082 2.8281-12.773 7.0625-10.527-9.4297-23.938-14.648-38.184-14.648-0.92578 0-1.8359 0.12109-2.7539 0.16797 2.1094-5.1445 3.832-10.43 5.1367-15.852 3.1992 0.28125 6.2656 0.46094 9.0781 0.46094 6.6055 0 12.062-0.80469 15.93-2.5859 4.7773-2.1992 6.8047-5.4844 7.6602-7.8438 3.1172-8.6094-3.2617-18.258-19.789-30.074l33.809-67.621c0.015626-0.023438 0.03125-0.046875 0.046876-0.066406 0.046874-0.089844 0.074218-0.19141 0.12891-0.28125l0.92578-1.8516-0.10547-0.054687c3.5586-10.109-4.1641-25.754-68.238-60.402-27.48-14.867-66.402-22.68-85.008-17.098-5.2422 1.5781-8.9062 4.2539-10.879 7.957-0.48438 0.90234-0.84766 1.875-1.1445 2.875l-0.20312-0.074219-28.277 73.426c-37.258-6.457-44.93 1.3867-47.34 8.0703-2.3984 6.6289 1.5391 13.895 9.0195 21.18-10.504 10.367-18.105 23.273-21.953 37.488-3.9766-0.59766-8.0039-0.89453-12.023-0.89453h-4.7422c-27.164 0-52.367 13.496-67.434 36.09l-8.5469 12.773c-1.7969 2.6914-1.6836 6.2344 0.28125 8.8125 1.9648 2.5781 5.3555 3.6172 8.4258 2.5938l19.949-6.6523c15.328-5.1133 31.699-5.6719 47.34-1.6094l21.398 5.5508c13.602 29.66 42.941 48.605 75.793 48.605 3.3438 0 6.6445-0.25 9.9141-0.63672l-1.0547 3.1641-34.719 20.828c-38.426 10.215-65.164 44.836-65.164 84.711v43.645h15.172v60.684h257.9c12.547 0 22.758-10.211 22.758-22.758v-7.5859h7.5859c8.3672 0 15.172-6.8047 15.172-15.172v-30.34c0-8.3672-6.8047-15.172-15.172-15.172h-7.5859v-115.68c3.4219 1.1602 7 1.8945 10.727 1.8945h1.3047c6.6055 0 12.918-1.8945 18.312-5.4375 5.3945 3.5352 11.703 5.4375 18.312 5.4375h4.1875c6.6289 0 13.047-1.9414 18.578-5.6211l22.898-15.27zm-256.15 112.66 22.758 9.1016 22.758-9.1016v114.71h-45.512zm128.95-46.414c-8.2383-5.6953-17.348-10.043-27.102-12.66l-26.512-15.906c0.25781 0.007812 0.51563 0.0625 0.77344 0.0625h4.1875c6.6055 0 12.918-1.8945 18.312-5.4375 5.3945 3.5352 11.703 5.4375 18.312 5.4375h1.3047c3.7227 0 7.3047-0.73438 10.727-1.8945zm-65.445-17.973 27.199 16.324c-1.4102 8.9727-7.3945 16.605-16.043 20.062l-40.332 16.133zm57.859 148.76h-60.684v-15.172h45.512c0 8.3672 6.8047 15.172 15.172 15.172zm-60.684 15.172h68.27v7.5859c0 2.6719 0.54688 5.2031 1.3945 7.5859l-69.664-0.003906zm60.684-30.344v-15.172h7.5859c4.1797 0 7.5859 3.4062 7.5859 7.5859 0 4.1797-3.4062 7.5859-7.5859 7.5859zm0-30.34c-8.3672 0-15.172 6.8047-15.172 15.172h-45.512v-60.098l19.609-7.8438c12.539-5.0156 21.438-15.602 24.578-28.262 8.957 3.3984 17.098 8.5547 24.074 15.172v65.863zm1.6328-146.93 5.9531 5.9531v8.4805c-3.1094 2.2461-6.8711 3.543-10.727 3.543h-1.3047c-4.8164 0-9.543-1.957-12.949-5.3633l-5.3594-5.3555-5.3633 5.3633c-3.4062 3.4062-8.1328 5.3633-12.949 5.3633h-4.1875c-3.625 0-7.1367-1.0625-10.156-3.0703l-9.5586-6.3711 3.0117-4.0117c7.9258-10.574 20.547-16.879 33.762-16.879 11.266-0.011719 21.863 4.375 29.828 12.348zm-51.355-23.219c-9.5586 3.8828-18.074 10.234-24.371 18.637l-3.8164 5.0898-9.4453-5.3555c11.016-13.312 17.551-29.445 18.836-46.648 9.6719 2.5859 19 4.7188 27.633 6.2188-1.9766 7.6992-4.957 15.078-8.8359 22.059zm-3.875-176.98c49.746 26.906 58.848 39.035 60.5 42.312-7.5938 3.7852-43.988 1.0312-74.664-15.559-49.746-26.906-58.848-39.035-60.5-42.312 7.6016-3.7617 43.996-1.0234 74.664 15.559zm-81.383 0.10547c9.3281 9.582 27.254 22.285 60 39.996 21.445 11.598 49.844 18.918 70.125 18.91 1.4336 0 2.6914-0.15234 4.0352-0.21875l-28.09 56.359c-19.629-3.8984-43.609-11.02-67.508-20.055-23.832-9.0039-46.512-19.5-63.777-29.516zm-40.082 68.48c0.82031 4.1172 3.3086 7.8281 7.168 10.066 18.312 10.613 41.172 21.199 66.113 30.629 25.023 9.457 49.199 16.629 69.922 20.746 0.95703 0.19141 1.9258 0.28125 2.8828 0.28125 2.2695 0 4.4375-0.64453 6.4492-1.6094 9.5117 6.6836 13.016 10.887 14.277 12.871-8.8359 2.8438-45.102-0.69141-103.09-22.613-58.477-22.105-88.203-43.617-92.867-51.609 3.2852-0.97656 11.953-1.6758 29.148 1.2383zm38.527 58.574c0 12.547-10.211 22.758-22.758 22.758-12.547 0-22.758-10.211-22.758-22.758 0-7.5391 3.8086-14.562 9.9219-18.766 12.402 6.5234 25.102 12.273 35.332 16.633 0.070313 0.71094 0.26172 1.4023 0.26172 2.1328zm-78.441 40.738c-0.90234-2.2227-2.8008-3.8984-5.1289-4.5l-24.984-6.4766c-17.938-4.6562-36.676-4.1719-54.332 1.3711 12.441-14.867 30.836-23.551 50.488-23.551h4.7422c5.3789 0 10.758 0.66016 15.98 1.9648 2.0391 0.5 4.2109 0.15234 5.9766-1s2.9727-2.9883 3.3281-5.0586c2.5195-14.594 9.7305-27.891 20.48-38.016 3.793 2.6836 7.9336 5.3398 12.258 7.918-6.8945 7-11.051 16.504-11.051 26.609 0 20.914 17.016 37.926 37.926 37.926 19.531 0 35.477-14.898 37.516-33.898 2.2812 0.90234 4.043 1.5703 5.0586 1.957 10.762 4.0664 22.012 7.8672 33.156 11.266-0.5 17.082-7.1602 33.086-19.145 45.445-12.973 13.379-30.379 20.746-49.008 20.746-27.93-0.003907-52.762-16.77-63.262-42.703zm116.55 38.625 18.605 10.543 7.3438 4.8984 3.543 10.621-29.676 53.418-29.672-53.414 3.8086-11.422c9.4336-3.2578 18.25-8.1445 26.047-14.645zm-40.93 37.363 29.172 52.512-40.332-16.129c-8.6484-3.457-14.633-11.082-16.043-20.062zm-88.203 89.941c0-30.461 18.895-57.199 46.824-67.758 3.1328 12.668 12.039 23.273 24.582 28.293l19.617 7.8398v60.098l-91.023 0.003906zm91.023 43.645v15.172h-75.852v-15.172zm-75.852 30.344h75.852v15.172l-75.852-0.003906zm273.07-45.512v30.34h-7.5859c-4.1797 0-7.5859-3.4062-7.5859-7.5859v-15.172c0-4.1797 3.4062-7.5859 7.5859-7.5859zm-30.344 7.582v15.172c0 6.6992 2.9648 12.668 7.5859 16.84v13.5c0 4.1797-3.4062 7.5859-7.5859 7.5859s-7.5859-3.4062-7.5859-7.5859v-28.672c4.6211-4.1719 7.5859-10.141 7.5859-16.84 0-6.6992-2.9648-12.668-7.5859-16.84v-157.62h15.172v157.62c-4.6172 4.1719-7.5859 10.145-7.5859 16.84zm85.762-154.79c-3.0195 2.0195-6.5391 3.0781-10.164 3.0781h-4.1875c-4.8164 0-9.543-1.957-12.949-5.3633l-5.3633-5.3594-5.3633 5.3633c-3.4062 3.4062-8.1328 5.3633-12.949 5.3633h-1.3047c-3.8516 0-7.6172-1.2969-10.727-3.543v-8.4805l5.9531-5.9531c7.9727-7.9727 18.57-12.355 29.84-12.355 13.215 0 25.836 6.3125 33.762 16.879l3.0117 4.0117z"/>
 </g>
 <path d="m313.67 300.21c0 4.1875-3.3945 7.582-7.5859 7.582-4.1875 0-7.582-3.3945-7.582-7.582 0-4.1914 3.3945-7.5859 7.582-7.5859 4.1914 0 7.5859 3.3945 7.5859 7.5859"/>
 <path d="m374.36 512.59c0 4.1875-3.3945 7.5859-7.5859 7.5859-4.1875 0-7.5859-3.3984-7.5859-7.5859s3.3984-7.5859 7.5859-7.5859c4.1914 0 7.5859 3.3984 7.5859 7.5859"/>
 <path d="m374.36 542.93c0 4.1914-3.3945 7.5859-7.5859 7.5859-4.1875 0-7.5859-3.3945-7.5859-7.5859 0-4.1875 3.3984-7.582 7.5859-7.582 4.1914 0 7.5859 3.3945 7.5859 7.582"/>
 <path d="m374.36 573.28c0 4.1875-3.3945 7.5859-7.5859 7.5859-4.1875 0-7.5859-3.3984-7.5859-7.5859 0-4.1914 3.3984-7.5859 7.5859-7.5859 4.1914 0 7.5859 3.3945 7.5859 7.5859"/>
</svg>
