<?xml version="1.0" encoding="UTF-8"?>
<svg width="752pt" height="752pt" version="1.1" viewBox="0 0 752 752" xmlns="http://www.w3.org/2000/svg">
 <path d="m376 181.83c-41.578 0.023438-82.055 13.395-115.47 38.145-33.41 24.754-57.996 59.574-70.133 99.344-12.137 39.773-11.188 82.387 2.7109 121.58 13.895 39.191 40.008 72.883 74.488 96.121 0 0 0.23828 0 0.37891 0.28516 24.766 16.629 53.043 27.309 82.617 31.191 29.578 3.8867 59.652 0.87891 87.871-8.793 0.31641-0.042969 0.62109-0.14062 0.90234-0.28516 43.324-15.047 79.926-44.949 103.32-84.402 23.387-39.457 32.055-85.918 24.461-131.15-7.5898-45.234-30.949-86.32-65.934-115.98-34.988-29.656-79.344-45.973-125.21-46.055zm-175.79 137.62c35.469 19.5 76.996 24.879 116.27 15.059 0.085938 1.293-0.26562 2.5781-0.99609 3.6484-2.043 2.5352-4.875 4.3203-8.0508 5.0664-8.5312 2.2891-17.355 3.3125-26.188 3.0312-11.746 0.23828-23.68 0.47266-34.902 6.1094-6.875 3.875-13.121 8.7773-18.52 14.539l-1.1836 1.1367c-4.9922 5.375-11.016 9.6875-17.711 12.691-5.75 2.5234-12.406 1.8398-17.523-1.8008v-3.0781c-0.027344-19.145 2.9453-38.18 8.8086-56.402zm126.92 234.61c-13.148-3.5547-25.855-8.5781-37.887-14.965 7.3672-1.6914 14.441-4.4844 20.98-8.2852 3.2188-1.8945 6.3945-3.8828 9.4727-5.918l-0.003906-0.003907c7.0664-5.0391 14.883-8.9414 23.16-11.555 6.0312-1.8438 12.539-1.3008 18.184 1.5156 4.8828 2.6055 7.4336 8.1406 6.2539 13.543-1.9414 6.2031-9.9453 9.4727-17.523 11.648-8.5234 2.5117-17.996 6.0156-22.637 14.02zm9.9453 2.4609v0.003906c4.5352-3.6914 9.8711-6.2695 15.578-7.5312 9.9453-3.0312 20.508-7.4844 23.68-17.855v0.003907c1.2031-4.6875 0.82812-9.6367-1.0625-14.086-1.8906-4.4531-5.1953-8.1562-9.4023-10.543-7.7422-4.2109-16.844-5.1641-25.289-2.6523-9.2188 2.8945-17.918 7.2422-25.762 12.883-3.0312 1.9414-6.0156 3.8828-9.1406 5.6367-6.2031 3.5977-21.738 11.223-33.152 6.3945v-0.003906c-17.266-11.699-32.445-26.219-44.895-42.953 13.109 4.7148 27.164 6.1797 40.965 4.2617 9.6719-2.0352 19.066-5.2148 27.988-9.4688l7.2461-2.9844c20.691-7.5234 41.922-13.477 63.508-17.809l38.785-8.9961c4.6055-1.3555 9.4102-1.918 14.207-1.6602 3.7188 0.30078 7.0234 2.4805 8.7617 5.7812 1.5625 4.168-0.99609 9.4727-8.0039 16.906-3.9297 4.168-14.207 15.105-10.133 26.758 2.9609 6.0938 8.1445 10.824 14.488 13.211 2.043 1.0195 4.0195 2.1562 5.9219 3.4102 5.2109 3.707 8.5469 9.5 9.1406 15.863 0.47266 7.1641-1.5352 14.27-5.6836 20.129-31.488 10.629-65.266 12.527-97.746 5.4922zm110.77-10.371v0.003906c1.7109-5.1055 2.4219-10.492 2.082-15.867-0.76953-9.2031-5.5938-17.582-13.164-22.871-2.2344-1.4727-4.5586-2.8008-6.9609-3.9805-4.7344-2.4609-8.668-4.7344-9.9922-8.0977-1.3242-3.3633 1.0898-9.4727 8.0977-16.906 3.9766-4.168 14.445-15.105 10.086-26.805-1.4141-3.2656-3.6836-6.0859-6.5664-8.168-2.8828-2.0859-6.2773-3.3516-9.8203-3.6719-5.9453-0.48438-11.934 0.12891-17.664 1.8008l-38.738 9.0469v-0.003906c-22.102 4.5195-43.824 10.727-64.977 18.566l-7.3398 3.0781c-8.2422 3.8711-16.902 6.7773-25.809 8.6641-13.922 2.3203-29.789-0.47266-48.543-8.4297-15.305-24.922-24.434-53.141-26.613-82.309 3.0273 1.1328 6.2383 1.6953 9.4688 1.6602 3.793-0.007813 7.5508-0.71484 11.082-2.0859 7.8867-3.4844 14.98-8.543 20.84-14.867l1.2305-1.1367c4.7383-5.0977 10.215-9.457 16.242-12.93 9.0469-4.7344 19.605-4.7344 30.781-5.0664h0.003906c9.7148 0.26953 19.418-0.89453 28.793-3.457 5.1992-1.3789 9.7773-4.4844 12.977-8.8086 3.8711-5.5156 3.3398-12.996-1.2812-17.902l-1.8945-1.7539-2.5117 0.66406h0.003906c-38.477 10.484-79.535 5.3789-114.27-14.207 2.7852-7.3555 6.043-14.52 9.7539-21.453 16.035 10.195 34.965 14.859 53.902 13.277 18.934-1.582 36.828-9.3242 50.949-22.039 3.8828-3.5039 7.4336-7.3867 10.891-11.129 3.457-3.7422 5.918-6.4414 9.0469-9.4727 5.8906-6.168 13.582-10.312 21.973-11.84 3.7109-0.62891 7.5273-0.09375 10.918 1.5352 3.3945 1.6289 6.1992 4.2695 8.0273 7.5586 1.3945 4.3203 1.8164 8.8984 1.2305 13.402-0.23438 3.3594-0.23438 6.7305 0 10.086 1.2578 11.434 8.0703 21.512 18.207 26.941 10.137 5.4336 22.297 5.5234 32.512 0.24219 5.2227-2.9492 10.004-6.6133 14.211-10.891 2.7773-2.7383 5.7539-5.2695 8.9023-7.5781 7.6172-5.2109 16.957-7.2617 26.055-5.7188 9.0977 1.5391 17.242 6.5508 22.719 13.98 5.4766 7.4258 7.8555 16.691 6.6328 25.836-1.0664 6.7734-4.0195 13.109-8.5156 18.281-4.4961 5.1758-10.355 8.9844-16.914 10.988-12.883 3.7891-26.473 0-40.824-3.6484-13.641-3.5977-27.75-7.3867-42.008-4.7344h0.003907c-11.645 2.9102-22.621 8.0234-32.348 15.059-8.7266 6.3867-18.598 11.051-29.078 13.734-7.3867 0.97266-14.871 0.97266-22.258 0-5.5977-0.59375-11.23-0.83203-16.859-0.71094-14.965 0.66406-32.297 8.5703-34.949 24.578-0.64844 5.3125 0.23828 10.703 2.5547 15.527 2.3164 4.8242 5.9648 8.8867 10.516 11.703 8.5273 5.1445 18.52 7.3242 28.414 6.2031 15.863-1.1836 30.547-7.625 44.754-13.875 16.246-7.0078 31.543-13.543 47.879-12.645 10.512 1.1758 20.797 3.8555 30.547 7.957 12.738 4.7344 25.859 9.4727 39.969 8.3359 2.7461 0 5.3984-0.61719 8.0039-0.99609 3.4336-0.68359 6.9219-1.0312 10.418-1.043 4.6719-0.27344 9.1328 1.9648 11.699 5.875 2.5117 5.4453-2.793 12.836-9.4727 17.285l-4.7344 3.0781c-6.6289 4.168-14.207 8.8555-17.617 17-5.6367 12.93 2.3672 27.895 13.262 34.855 8.2031 4.7773 17.383 7.6289 26.852 8.3359-17.23 17.926-37.895 32.195-60.762 41.961zm68.766-50.574c-9.8984-0.99609-20.934-2.2734-29.41-7.6719-7.4336-4.7344-13.262-14.965-9.4727-23.156v-0.003906c3.3867-5.5469 8.3242-9.9766 14.207-12.738 1.7031-1.0898 3.4102-2.1328 5.0195-3.2695 9.8516-6.6758 17.523-18.281 12.598-29.031v0.003906c-1.9648-3.5742-4.8828-6.5312-8.4258-8.5469-3.5469-2.0117-7.5781-3.0078-11.652-2.8672-4.0664 0.03125-8.125 0.41406-12.125 1.1367-2.4141 0.37891-4.7344 0.75781-7.2461 0.94531-12.078 0.89844-23.68-3.3164-36.039-7.8125-10.582-4.418-21.75-7.2734-33.152-8.4766-18.66-1.1367-35.852 6.4414-52.426 13.688-14.207 6.2031-27.422 12.027-41.676 13.117h0.003906c-7.7969 0.82812-15.652-0.82813-22.449-4.7383-2.9922-1.8398-5.4141-4.4727-6.9922-7.6094-1.582-3.1367-2.2578-6.6484-1.957-10.148 1.7031-10.277 14.207-16.195 26-16.672 5.2305-0.078125 10.465 0.14062 15.676 0.66406 8.2344 1.0898 16.578 1.0898 24.812 0 11.664-2.9023 22.66-8.0117 32.395-15.059 8.7031-6.3711 18.539-11.031 28.984-13.734 12.172-2.2734 24.672 1.043 37.887 4.7344 15.012 4.0273 30.5 8.1445 45.984 3.5977v0.003906c11.207-3.3008 20.695-10.824 26.465-20.984 5.7695-10.156 7.3711-22.16 4.4648-33.477-2.9023-11.316-10.09-21.062-20.039-27.188-7.5234-4.5586-16.188-6.8867-24.984-6.7109-8.793 0.17578-17.359 2.8516-24.695 7.707-3.543 2.5859-6.8945 5.418-10.039 8.4766-3.4961 3.6992-7.5 6.8906-11.887 9.4727-7.4414 3.8867-16.324 3.8398-23.727-0.12109-7.4023-3.9609-12.363-11.328-13.262-19.676-0.1875-2.8867-0.1875-5.7812 0-8.6641 0.75391-6.0469 0.054687-12.184-2.0352-17.902-2.5938-5.1289-6.7305-9.3164-11.824-11.977-5.0977-2.6602-10.898-3.6523-16.59-2.8477-10.578 1.7852-20.277 6.9961-27.609 14.824-3.3633 3.1719-6.4883 6.582-9.4727 9.8516-2.9844 3.2695-6.6758 7.293-10.23 10.512-12.641 11.398-28.691 18.309-45.66 19.66-16.969 1.3516-33.91-2.9258-48.203-12.176 17.512-29.406 42.852-53.367 73.188-69.211 30.336-15.844 64.48-22.945 98.617-20.516 34.141 2.4297 66.93 14.297 94.719 34.281 27.785 19.98 49.473 47.289 62.641 78.879s17.301 66.219 11.938 100.02-20.016 65.449-42.316 91.41z"/>
</svg>
