<?xml version="1.0" encoding="UTF-8"?>
<svg width="752pt" height="752pt" version="1.1" viewBox="0 0 752 752" xmlns="http://www.w3.org/2000/svg">
 <g>
  <path d="m580.21 347.05c-9.0352-54.051-38.578-101.34-83.184-133.17-27.051-19.289-57.316-31.438-89.953-36.102-2.6055-0.37891-4.9922 1.4297-5.3594 4.0156-0.37109 2.5898 1.4297 4.9883 4.0195 5.3555 2.1836 0.3125 4.3281 0.74219 6.4922 1.1211-30.367 6.9961-53.102 34.188-53.102 66.648v73.277l0.003906 0.60156c0 2.6133 2.1211 4.7344 4.7344 4.7344h127.4c2.6172 0 4.7422-2.7227 4.7422-5.3359v-73.27c0-14.109-4.2891-27.227-11.637-38.129 2.4023 1.5625 4.8008 3.1172 7.1523 4.793 31.582 22.539 55.23 53.211 68.855 88.605-3.5625 3.0508-6.4922 6.6836-8.7383 10.703-10.855 2.293-53.012 14.824-53.484 70.203h-15.461v27.555h9.4727v-18.082h54.48v18.082h9.4727v-27.555h-19.754c-0.93359-18.09 10.324-26.828 16.332-30.148 4.7461 7.5234 12.004 13.355 20.848 16.25 0.88281 41.832-11.645 82.664-36.391 117.34-14.719 20.629-32.93 37.848-53.637 51.133v-24.516c14.719-7.8125 24.777-23.289 24.777-41.086v-16.227c0-25.648-20.867-46.516-46.516-46.516-25.645 0-46.512 20.867-46.512 46.516v16.227c0 19.961 12.668 36.973 30.359 43.555v40.855c-11.398 4.1836-23.262 7.3633-35.5 9.4102-3.6523 0.60938-7.3008 1.0859-10.953 1.4922v-15.938c12.531-5.1484 21.383-17.465 21.383-31.828 0-18.973-15.438-34.41-34.41-34.41-18.973 0-34.41 15.438-34.41 34.41 0 14.363 8.8555 26.688 21.387 31.836v17.078c-38.867-0.86719-76.582-13.277-108.92-36.363-3.5-2.4961-6.8633-5.125-10.164-7.8125h62.574c9.6484 0 17.488-7.8477 17.488-17.5 0-9.6406-7.8477-17.488-17.488-17.488h-10.125v-23.129c19.805-6.1016 34.203-22.633 37.797-42.703 2.7812-2.3711 5.1484-5.1055 7.0156-8.1367 3.1406 2.0703 7.4688 6.2969 7.668 14.035h-12.039v18.574h9.4727v-9.1016h29.332v9.1016h9.4727v-18.574h-9.5039c-0.33984-9.2852-2.5352-16.629-5.7617-22.352-0.066406-0.125-0.070312-0.26172-0.14844-0.37891-0.0625-0.097657-0.16016-0.14844-0.23047-0.23828-7.0312-11.957-18.215-16.887-24.566-18.777-3.2812-11.211-12.102-20.062-23.297-23.387 0.23828-2.0273 0.39453-4.0625 0.39453-6.1055v-36.371c0-28.723-23.371-52.094-52.094-52.094h-22.398c-28.723 0-52.094 23.371-52.094 52.094v36.371c0 2.0898 0.16016 4.168 0.40625 6.2305-11.305 3.5312-20.078 12.754-23.066 24.285-3.8164-46.031 8.582-91.469 35.711-129.49 3.8711-5.4258 8.0195-10.602 12.375-15.562h56.352v13.082h32.559v-9.4727h-23.086v-34.23h23.086v-9.4727h-32.559v13.465h-27.668c28.324-21.48 62.262-35.137 98.371-38.832 2.6016-0.26562 4.4961-2.5898 4.2305-5.1953-0.26562-2.6016-2.5703-4.5469-5.1953-4.2305-58.668 6.0039-111.95 36.969-146.18 84.941-31.828 44.605-44.379 98.941-35.34 152.99 6.5391 39.121 23.879 74.676 49.844 103.41 0.03125 0.039063 0.058594 0.070313 0.09375 0.097656 9.8789 10.926 20.969 20.895 33.25 29.656 35.168 25.094 76.375 38.203 118.73 38.203 11.367 0 22.828-0.94531 34.262-2.8594 54.062-9.0156 101.36-38.562 133.19-83.176 31.828-44.605 44.379-98.934 35.34-152.98zm-125.14-144.25c-0.11328 0.41016-0.25391 0.81641-0.25391 1.2656 0 13.605-12.664 24.672-28.23 24.672-15.562 0-28.227-11.066-28.227-24.672 0-0.097656-0.050781-0.17969-0.058593-0.28125 8.6289-4.957 18.602-7.8359 29.254-7.8359 9.9375 0 19.297 2.4961 27.516 6.8516zm31.461 121.27h-117.94v-69.145c0-18.012 8.1367-34.137 20.902-44.965 3.0977 16.027 18.531 28.254 37.094 28.254 19.09 0 34.875-12.93 37.332-29.629 13.738 10.809 22.609 27.539 22.609 46.336zm-199.24-89.555v7.6797l-47.438 0.003906c2.6602-2.6484 5.4023-5.1992 8.2031-7.6797zm29.32 272.32c4.4219 0 8.0195 3.5977 8.0195 8.0195 0 4.4297-3.5977 8.0273-8.0195 8.0273h-73.395c-1.1445-1.0859-2.2695-2.1836-3.3867-3.293h74.758c2.6133 0 4.7344-2.1172 4.7344-4.7344 0-2.6172-2.1211-4.7344-4.7344-4.7344l-83.691-0.003906c-0.96094-1.0898-1.9375-2.1719-2.875-3.2812zm-123.37-75.824c3.125 18.277 15.289 33.961 32.781 41.359 1.5625 0.66016 3.1602 1.2461 4.7695 1.7539v23.238h-10.188v0.066406c-16.188-21.793-27.711-46.832-33.719-73.895 1.7188 2.7617 3.8711 5.2578 6.3555 7.4766zm47.023 44.254h23.602v22.098h-23.602zm33.078 22.098v-22.098h23.676v22.098zm28.066-31.566h-65.238c-2.1914-0.55469-4.3672-1.2695-6.4688-2.1484-16.898-7.1445-27.812-23.613-27.812-41.961 0-25.109 20.426-45.535 45.539-45.535h42.75c25.109 0 45.535 20.426 45.535 45.535 0 20.973-14.074 38.984-34.305 44.109zm67.023-28.359c-0.0625-3.2773-0.65234-6.1992-1.5859-8.8008l6.8906-4.418c1.3906 3.6875 2.2812 8.0781 2.5117 13.219zm0.70312-21.52-7.0703 4.5312c-2.1914-2.543-4.6641-4.4766-6.9727-5.8242 0.76172-2.7383 1.2031-5.582 1.2695-8.4961 3.9688 1.6797 8.8203 4.6758 12.773 9.7891zm-22.207-10.57c0 3.5234-0.75781 6.9297-2.1328 10.051-1.5664-13.668-8.1758-25.793-17.891-34.547 11.41 2.3164 20.023 12.418 20.023 24.496zm-131.95-39.141v-36.371c0-23.5 19.125-42.621 42.621-42.621h22.398c23.5 0 42.621 19.125 42.621 42.621v36.371c0 1.5664-0.097656 3.1367-0.27344 4.6914-0.14844 0-0.28516-0.019531-0.42969-0.019531-2.8359 0-5.6211 0.42188-8.3398 1.1016-7.1133-3.3633-15.027-5.3047-23.406-5.3047h-42.75c-8.3164 0-16.176 1.9102-23.25 5.2266-2.6094-0.625-5.2812-1.0273-7.9922-1.0273-0.3125 0-0.62109 0.039062-0.93359 0.046874-0.16406-1.5625-0.26562-3.1406-0.26562-4.7148zm-4.5234 14.863c-9.375 8.543-15.785 20.246-17.52 33.441-1.1328-2.875-1.7617-5.9688-1.7617-9.1641 0.007812-11.805 8.2578-21.672 19.281-24.277zm150.75 146.55c0-13.75 11.188-24.938 24.938-24.938 13.754 0 24.938 11.188 24.938 24.938 0 13.754-11.188 24.938-24.938 24.938s-24.938-11.188-24.938-24.938zm24.941 34.406c1.2031 0 2.3867-0.066406 3.5547-0.18359v14.359c-2.3711 0.14844-4.7422 0.25-7.1094 0.30859v-14.668c1.1719 0.12109 2.3555 0.18359 3.5547 0.18359zm38.586-98.184c0-3.9219 0.625-7.6953 1.7578-11.246h70.566c1.1328 3.5508 1.7578 7.3281 1.7578 11.246v11.488h-74.082zm37.039-37.043c12.758 0 24.031 6.4844 30.691 16.324h-61.379c6.6641-9.8398 17.934-16.324 30.688-16.324zm-36.703 58.004h73.41c-2.3359 18.191-17.887 32.297-36.707 32.297-18.812 0-34.367-14.109-36.703-32.297zm30.027 41.234c2.1875 0.31641 4.4062 0.53516 6.6758 0.53516 4.2461 0 8.3555-0.62109 12.266-1.6914v26.52c-6.1289 3.4531-12.449 6.5586-18.941 9.3359zm71.77-134.93h-19.25c0.38281-41.531 26.535-55.172 39.961-59.43-0.58203 2.7031-0.94141 5.4727-0.94141 8.2969 0 4.3086 0.71094 8.4648 1.9922 12.363-9.8438 5.2188-22.637 17.629-21.762 38.77zm29.238-51.133c0-7.4883 2.8164-14.582 7.7461-20 3.0156 9.2773 5.375 18.84 7.0078 28.637 1.0078 6.043 1.7109 12.09 2.1602 18.125-10.18-4.832-16.914-15.043-16.914-26.762z"/>
  <path d="m375.2 185.2c3.8438-0.058593 7.7891 0.003907 11.699 0.18359 0.074218 0 0.14844 0.003906 0.22266 0.003906 2.5156 0 4.6133-1.9805 4.7266-4.5234 0.11719-2.6094-1.8984-4.8242-4.5117-4.9453-4.0977-0.18359-8.2109-0.24609-12.27-0.19531-2.6133 0.039062-4.7031 2.1875-4.6641 4.8086 0.03125 2.6133 2.2188 4.7109 4.7969 4.668z"/>
  <path d="m253.07 335.77h6.7344c3.1367 0 6.1602-0.82812 8.8125-2.3789 2.6523 1.5469 5.6797 2.3789 8.8125 2.3789h6.7383c9.6523 0 17.5-7.8516 17.5-17.5 0-9.6523-7.8516-17.504-17.5-17.504h-6.7383c-3.1367 0-6.1602 0.82812-8.8125 2.3789-2.6523-1.5469-5.6797-2.3789-8.8125-2.3789h-6.7344c-9.6523 0-17.504 7.8516-17.504 17.504 0 9.6484 7.8477 17.5 17.504 17.5zm0-25.535h6.7344c2.0742 0 4.0391 0.78906 5.5391 2.2227 1.832 1.7461 4.707 1.7461 6.5391 0 1.5-1.4336 3.4727-2.2227 5.5391-2.2227h6.7383c4.4297 0 8.0273 3.6055 8.0273 8.0312 0 4.4297-3.6055 8.0273-8.0273 8.0273h-6.7383c-2.0742 0-4.0391-0.78906-5.5391-2.2227-0.91406-0.875-2.0938-1.3125-3.2695-1.3125s-2.3555 0.4375-3.2695 1.3125c-1.5 1.4336-3.4727 2.2227-5.5391 2.2227h-6.7344c-4.4297 0-8.0312-3.6055-8.0312-8.0273 0-4.4258 3.5977-8.0312 8.0312-8.0312z"/>
  <path d="m253.32 323h5.6953c2.6133 0 4.7344-2.1211 4.7344-4.7344s-2.1211-4.7344-4.7344-4.7344h-5.6953c-2.6133 0-4.7344 2.1211-4.7344 4.7344s2.1172 4.7344 4.7344 4.7344z"/>
  <path d="m277 323h5.6953c2.6133 0 4.7344-2.1211 4.7344-4.7344s-2.1211-4.7344-4.7344-4.7344h-5.6953c-2.6133 0-4.7344 2.1211-4.7344 4.7344-0.003906 2.6133 2.1133 4.7344 4.7344 4.7344z"/>
  <path d="m314.69 338.84h-91.434v22.105h91.434zm-9.4727 12.633h-72.488v-3.1641h72.492z"/>
  <path d="m313.24 394.28c-6.5312-0.625-10.473 1.9219-13.41 4.8203-2.9414-2.8906-6.7773-5.4375-13.426-4.8203-9.6836 1.0078-13.715 10.086-14.211 17.559v0.074218l-56.781 0.003907c-2.6133 0-4.7344 2.1172-4.7344 4.7344 0 2.6172 2.1211 4.7344 4.7344 4.7344h57.906c1.957 6.2969 6.7188 13.293 16.992 19.574 3.5508 2.168 6.1328 3.5312 7.9023 4.1758l1.6094 0.58203 1.6094-0.58203c1.7695-0.64453 4.3516-2.0078 7.8984-4.1758 15.941-9.7422 18.656-21.211 18.129-29.121-0.49219-7.4727-4.5156-16.551-14.219-17.559zm-8.8398 38.598c-2.125 1.3008-3.5938 2.1133-4.5703 2.6133-0.98047-0.49609-2.4492-1.3086-4.5742-2.6133-9.6836-5.9141-14.141-12.586-13.617-20.402 0.058594-0.84375 0.69922-8.2461 5.7266-8.7695 0.39453-0.042969 0.77344-0.0625 1.1328-0.0625 2.3477 0 3.3906 0.67578 6.5859 4.2422l4.7461 5.3047 4.7461-5.3047c3.1914-3.5664 4.2422-4.2422 6.5938-4.2422 0.35938 0 0.74219 0.019531 1.1133 0.058594 5.0391 0.52734 5.6836 7.9336 5.7383 8.7695 0.52344 7.8164-3.9336 14.492-13.621 20.406z"/>
  <path d="m480.62 492.67c0-2.6172-2.1172-4.7344-4.7344-4.7344h-28.527c-2.6172 0-4.7344 2.1172-4.7344 4.7344 0 10.477 8.5234 19 19 19 10.473-0.003907 18.996-8.5234 18.996-19zm-19.004 9.5234c-3.5273 0-6.6172-1.9258-8.2656-4.793h16.531c-1.6406 2.8672-4.7344 4.793-8.2656 4.793z"/>
  <path d="m484.83 458.64h-46.102c-2.6172 0-4.7344 2.1172-4.7344 4.7344 0 2.6172 2.1172 4.7344 4.7344 4.7344h46.102c2.6172 0 4.7344-2.1172 4.7344-4.7344 0-2.6172-2.1172-4.7344-4.7344-4.7344z"/>
  <path d="m397.7 446.42v33.91c0 2.6172 2.1172 4.7344 4.7344 4.7344 2.6172 0 4.7344-2.1172 4.7344-4.7344v-33.91c0-2.6172-2.1172-4.7344-4.7344-4.7344-2.6172 0-4.7344 2.1172-4.7344 4.7344z"/>
  <path d="m525.55 480.33v-33.91c0-2.6172-2.1172-4.7344-4.7344-4.7344s-4.7344 2.1172-4.7344 4.7344v33.91c0 2.6172 2.1172 4.7344 4.7344 4.7344 2.6211 0 4.7344-2.1172 4.7344-4.7344z"/>
  <path d="m419.18 359.14c0-13.449-10.945-24.395-24.395-24.395-13.449 0-24.395 10.945-24.395 24.395 0 13.453 10.945 24.398 24.395 24.398 13.449 0 24.395-10.941 24.395-24.398zm-24.395 14.934c-8.2266 0-14.922-6.6953-14.922-14.926 0-8.2305 6.6953-14.922 14.922-14.922 8.2266 0 14.922 6.6953 14.922 14.922 0 8.2305-6.6953 14.926-14.922 14.926z"/>
  <path d="m480.75 359.14c0-13.449-10.945-24.395-24.395-24.395s-24.395 10.945-24.395 24.395c0 13.453 10.945 24.398 24.395 24.398s24.395-10.941 24.395-24.398zm-39.324 0c0-8.2305 6.6953-14.922 14.922-14.922 8.2266 0 14.922 6.6953 14.922 14.922 0 8.2305-6.6953 14.926-14.922 14.926-8.2227 0.003906-14.922-6.6875-14.922-14.926z"/>
  <path d="m410.3 239.59h-21.434c-6.9336 0-12.574 5.6406-12.574 12.578 0 6.9336 5.6406 12.578 12.574 12.578h21.434c6.9375 0 12.578-5.6406 12.578-12.578s-5.6406-12.578-12.578-12.578zm0 15.684h-21.434c-1.7109 0-3.1016-1.3906-3.1016-3.1055 0-1.7148 1.3906-3.1055 3.1016-3.1055h21.434c1.7148 0 3.1055 1.3906 3.1055 3.1055 0 1.7148-1.3945 3.1055-3.1055 3.1055z"/>
  <path d="m443.99 239.59c-6.9375 0-12.578 5.6406-12.578 12.578 0 6.9336 5.6406 12.578 12.578 12.578h21.434c6.9336 0 12.574-5.6406 12.574-12.578s-5.6406-12.578-12.574-12.578zm24.543 12.578c0 1.7148-1.3906 3.1055-3.1016 3.1055h-21.434c-1.7148 0-3.1055-1.3906-3.1055-3.1055 0-1.7148 1.3906-3.1055 3.1055-3.1055h21.434c1.707 0 3.1016 1.3906 3.1016 3.1055z"/>
  <path d="m427.57 275.13c-2.6172 0-4.7344 2.1211-4.7344 4.7344v31.715c0 2.6133 2.1172 4.7344 4.7344 4.7344 2.6172 0 4.7344-2.1211 4.7344-4.7344v-31.715c0-2.6172-2.1211-4.7344-4.7344-4.7344z"/>
  <path d="m412.38 277.88c-2.6172 0-4.7344 2.1211-4.7344 4.7344v26.223c0 2.6133 2.1172 4.7344 4.7344 4.7344 2.6172 0 4.7344-2.1211 4.7344-4.7344v-26.223c0-2.6133-2.1211-4.7344-4.7344-4.7344z"/>
  <path d="m442.75 277.88c-2.6172 0-4.7344 2.1211-4.7344 4.7344v26.223c0 2.6133 2.1172 4.7344 4.7344 4.7344 2.6172 0 4.7344-2.1211 4.7344-4.7344v-26.223c0-2.6133-2.1211-4.7344-4.7344-4.7344z"/>
  <path d="m342.35 241.91v75.91c0 2.6133 2.1211 4.7344 4.7344 4.7344s4.7344-2.1211 4.7344-4.7344l0.003906-75.91c0-2.6133-2.1211-4.7344-4.7344-4.7344-2.6172 0-4.7383 2.1211-4.7383 4.7344z"/>
  <path d="m511.06 318.27v-75.914c0-2.6133-2.1172-4.7344-4.7344-4.7344s-4.7344 2.1211-4.7344 4.7344v75.91c0 2.6133 2.1172 4.7344 4.7344 4.7344 2.6172 0.003906 4.7344-2.1133 4.7344-4.7305z"/>
  <path d="m396.88 527.61c0 2.6172 2.1172 4.7344 4.7344 4.7344 2.6172 0 4.7344-2.1172 4.7344-4.7344 0-11.145-9.0586-20.203-20.203-20.203-11.137 0-20.203 9.0586-20.203 20.203 0 2.6172 2.1211 4.7344 4.7344 4.7344 2.6133 0 4.7344-2.1172 4.7344-4.7344 0-5.9141 4.8125-10.73 10.73-10.73 5.9258 0 10.738 4.8164 10.738 10.73z"/>
 </g>
</svg>
