<?xml version="1.0" encoding="UTF-8"?>
<svg width="752pt" height="752pt" version="1.1" viewBox="0 0 752 752" xmlns="http://www.w3.org/2000/svg">
 <path d="m588.43 374.98-57.586-57.586c-1.3164-7.6523-5.0469-36.645 9.8398-56.934 8.9688-12.211 23.473-19.238 43.109-20.883 4.0703-0.33984 7.0898-3.9062 6.7617-7.9922-0.32422-4.0703-3.7734-7.1758-7.9922-6.7617-24.094 1.9961-42.191 11.039-53.812 26.859-11.59 15.777-14.18 35.031-14.105 49.52l-41.469-41.469c5.4023-15.184 30-68.816 110.95-79.398 4.0547-0.53125 6.9102-4.2461 6.3789-8.3008-0.53125-4.0547-4.293-6.9414-8.3008-6.3789-80.086 10.508-110.45 59.879-120.37 82.73l-80.598-80.598c-0.67969-0.67969-1.5078-1.2266-2.4141-1.6133-1.8047-0.75391-3.8477-0.75391-5.6523 0-0.91797 0.37109-1.7305 0.91797-2.4141 1.6133l-81.473 81.473c-39.262-76.266-116.5-83.352-119.9-83.617-4.0547-0.25391-7.6367 2.7227-7.9609 6.793s2.7227 7.6367 6.793 7.9609c0.78516 0.058593 75.09 6.9102 109.99 79.945l-43.73 43.734c-7.4609-77.195-64.926-79.254-65.547-79.266-3.4922 0.39844-7.3984 3.1836-7.4883 7.2383-0.089844 4.0664 3.1367 7.4414 7.207 7.5586 2.0859 0.058594 50.555 2.4414 51.844 78.453l-56.918 56.918c-2.8867 2.8867-2.8867 7.5781 0 10.465 2.8867 2.8867 7.5781 2.8867 10.465 0l58.355-58.355c9.207-4.543 93.961-44.383 136.21-2.7969v89.418c-14.324 2.9141-26.445 13.734-33.859 27.32l-10.418-15.613-8.0508-32.203c-0.99219-3.9805-5.0156-6.4062-8.9688-5.3867-3.9648 0.99219-6.3789 5.0039-5.3867 8.9688l8.3633 33.445c0.20703 0.82812 0.54688 1.5977 1.0195 2.3086l16.723 25.086c0.089844 0.13281 0.25 0.17578 0.33984 0.3125-0.67969 2.9766-1.0664 5.918-1.2578 8.8633l-20.555-10.285-15.688-39.188c-1.5234-3.8047-5.8477-5.6367-9.6211-4.1289-3.7891 1.5234-5.6367 5.832-4.1289 9.6211l16.723 41.809c0.66406 1.6875 1.9375 3.0625 3.5664 3.8789l31.895 15.953c2.207 6.1875 5.7266 11.559 10.758 15.719l-32.004 4.5664c-1.582 0.23828-3.0469 0.96094-4.1875 2.1016l-25.086 25.086c-2.8867 2.8867-2.8867 7.5781 0 10.465 1.4492 1.4492 3.3438 2.1602 5.2383 2.1602 1.8945 0 3.7891-0.72656 5.2383-2.1602l23.352-23.352 37.16-5.2969c-0.8125 1.3906-1.5078 2.8125-2.1758 4.2773l-25.055 12.52c-2.043 1.0195-3.4922 2.9297-3.9531 5.1641l-8.3633 41.809c-0.80078 4.0117 1.8047 7.9023 5.8008 8.7031 0.48828 0.10547 0.97656 0.14844 1.4648 0.14844 3.4492 0 6.543-2.4258 7.25-5.9492l7.6523-38.258 11.262-5.6367c0.45703 9.7695 5.3438 17.062 13.852 21.105l-4.8398 9.6641c-1.4219 2.8398-0.875 6.2891 1.3906 8.5391l8.3633 8.3633c1.4492 1.4492 3.3438 2.1602 5.2383 2.1602 1.8945 0 3.7891-0.72656 5.2383-2.1602 2.8867-2.8867 2.8867-7.5781 0-10.465l-4.6016-4.5859 4.0391-8.0664c1.2266 0.074219 2.3984 0.23828 3.6836 0.23828 1.2891 0 2.457-0.14844 3.6836-0.23828l4.0391 8.0664-4.6016 4.5859c-2.8867 2.8867-2.8867 7.5781 0 10.465 1.4492 1.4492 3.3438 2.1602 5.2383 2.1602 1.8945 0 3.7891-0.72656 5.2383-2.1602l8.3633-8.3633c2.25-2.25 2.8125-5.6992 1.3906-8.5391l-4.8398-9.6641c8.5234-4.0391 13.395-11.336 13.852-21.105l11.262 5.6367 7.6523 38.258c0.69531 3.5234 3.7891 5.9492 7.25 5.9492 0.47266 0 0.96094-0.042968 1.4648-0.14844 4.0117-0.80078 6.6016-4.6914 5.8008-8.7031l-8.3633-41.809c-0.44531-2.2344-1.8945-4.1445-3.9531-5.1641l-25.055-12.52c-0.66406-1.4648-1.3633-2.8867-2.1758-4.2773l37.16 5.2969 23.352 23.352c1.4492 1.4492 3.3438 2.1602 5.2383 2.1602s3.7891-0.72656 5.2383-2.1602c2.8867-2.8867 2.8867-7.5781 0-10.465l-25.086-25.086c-1.1406-1.1406-2.6055-1.8633-4.1875-2.1016l-32.012-4.5742c5.0312-4.1602 8.5547-9.5156 10.758-15.719l31.895-15.953c1.6133-0.8125 2.8867-2.1914 3.5664-3.8789l16.723-41.809c1.5234-3.7891-0.32422-8.0938-4.1289-9.6211-3.7578-1.5234-8.0938 0.32422-9.6211 4.1289l-15.688 39.188-20.555 10.285c-0.19141-2.9453-0.57812-5.8906-1.2578-8.8633 0.10547-0.13281 0.25-0.17578 0.33984-0.3125l16.723-25.086c0.47266-0.71094 0.8125-1.4961 1.0195-2.3086l8.3633-33.445c0.99219-3.9648-1.4219-7.9766-5.3867-8.9688-3.9531-1.0195-7.9922 1.4062-8.9688 5.3867l-8.0508 32.203-10.418 15.613c-7.4297-13.586-19.535-24.402-33.859-27.32v-90.277c6.8242-8.7188 44.77-48.395 136.16 3.5977l58.414 58.414c1.4492 1.4492 3.3438 2.1602 5.2383 2.1602s3.7891-0.72656 5.2383-2.1602c2.8477-2.8945 2.8477-7.5703-0.035156-10.457zm-219.83-126.61c-17.227-8.2578-37.621-6.9688-54.227-3.2695l54.227-54.227zm14.801-57.496 52.98 52.98c-23.145-4.3516-41.766 0.67969-52.98 5.5938zm-124.48 109.68 32.543-32.543c7.2656-3.2266 52.02-21.668 77.121-2.5312v39.59c-33.137-22.602-78.672-14.535-109.66-4.5156zm99.379 234.54c0-2.9609 0.73828-6.1562 1.9375-9.2344 0.015625-0.03125 0.03125-0.058594 0.042969-0.089844 3.0352-7.7383 9.2188-14.652 15.719-14.652 6.4961 0 12.684 6.8984 15.719 14.652 0.015625 0.03125 0.03125 0.058594 0.042969 0.089844 1.1992 3.0781 1.9375 6.2734 1.9375 9.2344 0 3.1211 0 11.426-17.699 11.426s-17.699-8.2852-17.699-11.426zm52.109-64.82c0 23.516-24.062 26.062-34.41 26.062-10.344 0-34.41-2.5312-34.41-26.062 0-19.254 15.879-42.77 34.41-42.77s34.41 23.516 34.41 42.77zm-27.008-166.79v-37.547c9.207-5.1953 38.98-18.336 77.016 1.9688l28.414 28.414c-54.832-20.039-88.484-5.6523-105.43 7.1641z"/>
</svg>
