<?xml version="1.0" encoding="UTF-8"?>
<svg width="752pt" height="752pt" version="1.1" viewBox="0 0 752 752" xmlns="http://www.w3.org/2000/svg">
 <g>
  <path d="m377.86 245.49c3.2695 0 5.918-2.6523 5.918-5.918v-65.926c0-3.2695-2.6523-5.918-5.918-5.918-3.2695 0-5.918 2.6523-5.918 5.918v65.918c-0.003906 3.2734 2.6445 5.9258 5.918 5.9258z"/>
  <path d="m377.86 506.52c-3.2695 0-5.918 2.6523-5.918 5.918v65.914c0 3.2695 2.6523 5.918 5.918 5.918 3.2695 0 5.918-2.6523 5.918-5.918v-65.91c0-3.2734-2.6523-5.9219-5.918-5.9219z"/>
  <path d="m580.21 370.08h-65.918c-3.2695 0-5.918 2.6523-5.918 5.918 0 3.2695 2.6523 5.918 5.918 5.918h65.918c3.2695 0 5.918-2.6484 5.918-5.918s-2.6445-5.918-5.918-5.918z"/>
  <path d="m247.34 376c0-3.2695-2.6523-5.918-5.918-5.918h-65.914c-3.2695 0-5.918 2.6523-5.918 5.918 0 3.2695 2.6523 5.918 5.918 5.918h65.914c3.2656 0.003906 5.918-2.6445 5.918-5.918z"/>
  <path d="m478.52 468.29c-2.3125-2.3125-6.0586-2.3125-8.3711 0-2.3164 2.3125-2.3125 6.0586 0 8.3711l46.609 46.613c1.1562 1.1562 2.668 1.7344 4.1875 1.7344 1.5195 0 3.0312-0.57812 4.1875-1.7344 2.3125-2.3125 2.3125-6.0586 0-8.3711z"/>
  <path d="m277.2 283.71c1.1562 1.1562 2.6719 1.7344 4.1875 1.7344s3.0312-0.57812 4.1875-1.7344c2.3125-2.3125 2.3125-6.0586 0-8.3711l-46.609-46.609c-2.3125-2.3125-6.0586-2.3125-8.3711 0-2.3164 2.3125-2.3125 6.0586 0 8.3711z"/>
  <path d="m277.2 468.29-46.602 46.613c-2.3125 2.3125-2.3125 6.0586 0 8.3711 1.1562 1.1562 2.6719 1.7344 4.1875 1.7344 1.5156 0 3.0312-0.57812 4.1875-1.7344l46.602-46.613c2.3125-2.3125 2.3125-6.0586 0-8.3711-2.3125-2.3164-6.0703-2.3125-8.375 0z"/>
  <path d="m474.34 285.44c1.5156 0 3.0312-0.57812 4.1875-1.7344l46.613-46.609c2.3125-2.3125 2.3125-6.0586 0-8.3711-2.3125-2.3164-6.0586-2.3125-8.3711 0l-46.613 46.609c-2.3125 2.3125-2.3125 6.0586 0 8.3711 1.1523 1.1602 2.6641 1.7344 4.1836 1.7344z"/>
  <path d="m451.85 342.7c-8.0469-19.406-23.172-34.523-42.59-42.555-3.0273-1.2578-6.4844 0.18359-7.7344 3.207-1.25 3.0195 0.18359 6.4844 3.2109 7.7344 16.488 6.8242 29.34 19.668 36.176 36.152 6.8398 16.488 6.8438 34.652 0.015626 51.148-6.8242 16.488-19.664 29.34-36.156 36.176-16.484 6.832-34.652 6.8477-51.148 0.015625-3.0273-1.25-6.4883 0.18359-7.7344 3.2109-1.25 3.0195 0.18359 6.4805 3.207 7.7344 9.6992 4.0156 19.891 6.0195 30.082 6.0195 10.207 0 20.41-2.0156 30.129-6.0391 19.41-8.0469 34.523-23.172 42.562-42.586 8.0352-19.414 8.0234-40.809-0.019532-60.219z"/>
  <path d="m379.1 426.84c21.211 0 41.383-12.574 49.992-33.359 1.25-3.0273-0.18359-6.4844-3.207-7.7383-3.0312-1.25-6.4883 0.17969-7.7383 3.207-8.8906 21.492-33.613 31.75-55.105 22.844-10.41-4.3086-18.523-12.414-22.836-22.816-4.3125-10.41-4.3125-21.875-0.003906-32.285 1.25-3.0195-0.18359-6.4844-3.207-7.7344-3.0312-1.2656-6.4844 0.18359-7.7344 3.207-11.395 27.52 1.7305 59.18 29.254 70.574 6.7422 2.7852 13.715 4.1016 20.586 4.1016z"/>
  <path d="m367.77 400.39c3.6797 1.5195 7.5508 2.2812 11.418 2.2812 3.8711 0 7.7383-0.76172 11.426-2.2891 7.3633-3.0547 13.098-8.7891 16.145-16.152 3.0508-7.3633 3.0508-15.477-0.007812-22.84-3.0547-7.3633-8.7852-13.094-16.148-16.145-3.0508-1.2578-6.4883 0.18359-7.7383 3.207-1.25 3.0195 0.18359 6.4844 3.207 7.7344 4.4414 1.8438 7.9023 5.3008 9.75 9.7422 1.8438 4.4414 1.8438 9.3359 0 13.777-1.8359 4.4414-5.293 7.9023-9.7383 9.7461s-9.3398 1.8438-13.777 0c-3.0352-1.2539-6.4883 0.18359-7.7344 3.207-1.2578 3.0156 0.17969 6.4805 3.1992 7.7305z"/>
  <path d="m421.25 464.65c14.312-6.6875 26.836-16.566 36.656-28.723 0.4375 0.73828 1 1.4102 1.7578 1.918l41.117 27.5c1.0117 0.67578 2.1562 1 3.2852 1 1.9102 0 3.7852-0.91797 4.9258-2.6289 1.8203-2.7188 1.0859-6.3984-1.6289-8.2109l-41.117-27.5c-0.62891-0.41797-1.3125-0.67187-2.0117-0.82422 1.5859-2.4531 3.082-4.9688 4.4609-7.5586 0.45312 0.38281 0.91406 0.76172 1.4922 1.0039l45.699 18.914c0.73828 0.30469 1.5 0.44922 2.2656 0.44922 2.3203 0 4.5273-1.375 5.4688-3.6523 1.25-3.0273-0.18359-6.4844-3.2109-7.7383l-45.699-18.914c-0.42578-0.17578-0.86328-0.17969-1.293-0.25 4.6992-11.77 7.3125-24.594 7.3125-38.02 0-3.2695-0.17187-6.4961-0.47266-9.6914l47.699-9.4609c3.207-0.63281 5.2891-3.75 4.6562-6.957-0.64062-3.207-3.7383-5.2812-6.9609-4.6562l-47.184 9.3594c-0.60547-2.8477-1.3242-5.6484-2.1641-8.4062l44.094-18.277c3.0195-1.25 4.4531-4.7188 3.2031-7.7344s-4.7188-4.4648-7.7344-3.2031l-43.66 18.094c-6.7656-15.539-17.266-29.082-30.352-39.516l25.336-37.883c1.8203-2.7188 1.0859-6.3945-1.6289-8.2109-2.7148-1.8125-6.3945-1.0898-8.2109 1.6289l-25.156 37.621c-2.6016-1.625-5.2773-3.1289-8.0273-4.5195l17.234-41.633c1.25-3.0195-0.18359-6.4844-3.207-7.7344-3.0508-1.2578-6.4922 0.18359-7.7383 3.207l-17.133 41.406c-11.059-4.0742-23-6.3047-35.457-6.3047-5.1211 0-10.145 0.38672-15.066 1.1133l-8.6797-43.746c-0.64063-3.207-3.75-5.2891-6.957-4.6562-3.207 0.63281-5.2891 3.75-4.6562 6.957l8.6992 43.855c-3.0078 0.80469-5.9688 1.7344-8.8594 2.8047l-17.164-41.402c-1.2539-3.0273-4.7266-4.457-7.7344-3.2031-3.0195 1.2539-4.4531 4.7188-3.2031 7.7344l17.258 41.629c-15.184 7.6992-28.203 19.043-37.91 32.891l-38.648-25.852c-2.7148-1.8086-6.3867-1.0898-8.2109 1.6289-1.8203 2.7188-1.0898 6.3945 1.6289 8.2109l38.98 26.074c-1.3984 2.5859-2.6797 5.2422-3.8594 7.957l-43.656-18.066c-3.0273-1.2656-6.4844 0.18359-7.7344 3.207-1.25 3.0195 0.18359 6.4844 3.207 7.7344l44.094 18.25c-2.8555 9.4258-4.4062 19.406-4.4062 29.75 0 5.6719 0.48438 11.234 1.3672 16.66l-44.105 8.7656c-3.207 0.63281-5.2891 3.75-4.6523 6.957 0.55859 2.8242 3.0352 4.7695 5.8008 4.7695 0.38281 0 0.77344-0.039062 1.1602-0.11328l44.398-8.8164c0.75391 2.6289 1.5859 5.2227 2.5391 7.7617l-42.344 17.559c-3.0195 1.2539-4.4531 4.7109-3.2031 7.7344 0.94531 2.2773 3.1484 3.6523 5.4688 3.6523 0.75781 0 1.5234-0.14062 2.2695-0.45312l42.609-17.668c7.3086 14.246 17.836 26.578 30.633 36.016l-25.133 37.574c-1.8203 2.7188-1.0898 6.3984 1.6289 8.2109 1.0078 0.67578 2.1562 1 3.2852 1 1.9102 0 3.7852-0.91797 4.9258-2.6289l25.219-37.695c2.2031 1.2656 4.4414 2.4688 6.7383 3.5664l-17.453 42.156c-1.25 3.0273 0.18359 6.4844 3.207 7.7383 0.73828 0.30469 1.5078 0.44922 2.2656 0.44922 2.3242 0 4.5273-1.375 5.4688-3.6523l17.48-42.23c10.453 3.5898 21.648 5.5664 33.301 5.5664 4.5781 0 9.0781-0.33203 13.5-0.91406l8.8711 44.691c0.55859 2.8164 3.0352 4.7695 5.8047 4.7695 0.37891 0 0.76562-0.039062 1.1562-0.10938 3.207-0.64062 5.2891-3.7539 4.6562-6.9609l-8.8477-44.609c2.4531-0.62109 4.8633-1.3438 7.2461-2.1367l17.375 41.922c0.94141 2.2773 3.1445 3.6523 5.4688 3.6523 0.75391 0 1.5195-0.14062 2.2656-0.45312 3.0195-1.25 4.4531-4.7109 3.2031-7.7344zm-134.41-93.238c0-50.191 40.836-91.023 91.031-91.023 50.195 0 91.031 40.832 91.031 91.023 0 50.195-40.836 91.027-91.031 91.027-50.195-0.003906-91.031-40.836-91.031-91.027z"/>
  <path d="m403.42 248.02c0.39062 0.082031 0.78125 0.11719 1.1641 0.11719 2.7656 0 5.2383-1.9453 5.8008-4.7578l12.914-64.645c0.64453-3.207-1.4414-6.3242-4.6406-6.9609-3.2383-0.64453-6.332 1.4336-6.9648 4.6445l-12.914 64.645c-0.64453 3.2031 1.4336 6.3164 4.6406 6.957z"/>
  <path d="m352.3 503.99c-3.1914-0.64063-6.3242 1.4414-6.9609 4.6406l-12.91 64.633c-0.64062 3.2109 1.4414 6.3281 4.6445 6.9648 0.39453 0.082031 0.78125 0.11328 1.1641 0.11328 2.7617 0 5.2344-1.9453 5.7969-4.7578l12.91-64.633c0.64062-3.207-1.4375-6.3242-4.6445-6.9609z"/>
  <path d="m577.46 409.83-64.637-12.91c-3.2188-0.64844-6.332 1.4414-6.9648 4.6406-0.64453 3.2109 1.4414 6.3281 4.6406 6.9648l64.641 12.91c0.39453 0.082031 0.78125 0.11328 1.1641 0.11328 2.7656 0 5.2383-1.9453 5.8008-4.7578 0.64063-3.2031-1.4375-6.3242-4.6445-6.9609z"/>
  <path d="m178.27 342.18 64.633 12.91c0.39453 0.082031 0.78125 0.11328 1.1641 0.11328 2.7617 0 5.2344-1.9453 5.7969-4.7578 0.64062-3.207-1.4414-6.3242-4.6445-6.9609l-64.633-12.914c-3.1914-0.64453-6.3242 1.4336-6.9609 4.6445-0.64062 3.207 1.4414 6.3281 4.6445 6.9648z"/>
  <path d="m458.5 486.21c-1.8203-2.7227-5.4883-3.4492-8.207-1.6445-2.7188 1.8125-3.4531 5.4883-1.6445 8.207l36.578 54.84c1.1406 1.7109 3.0195 2.6367 4.9297 2.6367 1.1289 0 2.2695-0.32031 3.2773-0.99609 2.7188-1.8125 3.4531-5.4883 1.6445-8.207z"/>
  <path d="m297.22 265.79c1.1406 1.7109 3.0156 2.6328 4.9297 2.6328 1.1289 0 2.2695-0.32031 3.2812-0.99609 2.7188-1.8125 3.4531-5.4883 1.6367-8.2109l-36.578-54.836c-1.8125-2.7148-5.4844-3.4531-8.2109-1.6367-2.7188 1.8125-3.4531 5.4883-1.6367 8.2109z"/>
  <path d="m269.29 448.43c-1.8203-2.7227-5.4883-3.4492-8.2109-1.6445l-54.828 36.586c-2.7188 1.8203-3.4531 5.4883-1.6367 8.207 1.1406 1.7109 3.0156 2.6367 4.9297 2.6367 1.1328 0 2.2695-0.32031 3.2812-0.99609l54.828-36.586c2.7188-1.8086 3.4492-5.4844 1.6367-8.2031z"/>
  <path d="m486.44 303.58c1.1406 1.7109 3.0195 2.6328 4.9297 2.6328 1.1289 0 2.2695-0.32031 3.2773-0.99609l54.84-36.578c2.7188-1.8125 3.4531-5.4883 1.6445-8.2109-1.8125-2.7188-5.4922-3.4492-8.207-1.6367l-54.84 36.578c-2.7188 1.8125-3.4531 5.4883-1.6445 8.2109z"/>
 </g>
</svg>
