<?xml version="1.0" encoding="UTF-8"?>
<svg width="752pt" height="752pt" version="1.1" viewBox="0 0 752 752" xmlns="http://www.w3.org/2000/svg">
 <defs>
  <clipPath id="a">
   <path d="m139.21 141h344.79v430h-344.79z"/>
  </clipPath>
 </defs>
 <g clip-path="url(#a)">
  <path d="m445.52 556.36c-85.453 19.164-175.35-6.0039-238.43-69.086-80.062-80.066-80.062-209.87 0-289.93 63.746-63.746 167.09-63.746 230.84 0 50.688 50.688 50.688 132.87 0 183.57-40.246 40.242-105.5 40.242-145.75 0-31.895-31.895-31.895-83.602 0-115.49 25.207-25.207 66.078-25.207 91.285 0 20.426 20.426 21.941 53.535 2.6094 72.867-15.391 15.391-43.258 14.836-59.039-0.94922-12.16-12.16-12.16-31.871 0-44.035 1.5273-1.5273 1.5273-4.0039 0-5.5352-1.5273-1.5273-4.0078-1.5273-5.5352 0-15.219 15.219-15.219 39.891 0 55.105 18.789 18.793 51.613 19.449 70.109 0.94922 22.508-22.508 20.766-60.562-2.6094-83.938-28.266-28.266-74.094-28.266-102.36 0-34.949 34.949-34.949 91.609 0 126.56 43.301 43.301 113.51 43.301 156.82 0 53.746-53.75 53.746-140.89 0-194.64-66.801-66.801-175.11-66.801-241.91 0-83.121 83.121-83.121 217.88 0 301 65 64.996 157.64 90.934 245.68 71.191 2.1094-0.47266 3.4336-2.5664 2.9609-4.6758-0.47266-2.1094-2.5664-3.4375-4.6758-2.9648z"/>
 </g>
 <path d="m469.34 579.2c-16.508-2.9102-17.613-19.637-4.207-35.277l34.527-40.27c13.672-15.945 31.988-12.715 39.379 6.9453l18.672 49.648c7.2617 19.309 0.52734 34.629-16.016 31.711zm1.3594-7.7109 72.355 12.762c9.1055 1.6055 12.777-6.7539 7.3281-21.25l-18.668-49.648c-5.3008-14.086-16.316-16.031-26.113-4.6055l-34.523 40.273c-10.059 11.73-9.457 20.871-0.37891 22.469z"/>
 <path d="m498.99 411.01c-9.0781-1.5977-12.77 6.7852-7.332 21.25l18.672 49.648c5.2969 14.09 16.316 16.031 26.109 4.6055l34.527-40.273c10.078-11.754 9.4844-20.863 0.37891-22.469zm1.3594-7.707 72.355 12.758c16.543 2.918 17.629 19.617 4.2031 35.277l-34.523 40.27c-13.672 15.945-31.988 12.719-39.383-6.9453l-18.668-49.648c-7.2539-19.281-0.49219-34.621 16.016-31.711z"/>
 <path d="m471.8 564.22 4.2031 0.74219c2.1289 0.375 4.1602-1.0469 4.5352-3.1719 0.375-2.1289-1.0469-4.1602-3.1758-4.5352l-4.2031-0.74219c-2.1289-0.375-4.1602 1.0469-4.5352 3.1758s1.0469 4.1562 3.1758 4.5312z"/>
 <path d="m488.62 567.19 4.207 0.73828c2.1289 0.37891 4.1562-1.043 4.5312-3.1719 0.37891-2.1289-1.043-4.1602-3.1719-4.5352l-4.207-0.74219c-2.1289-0.375-4.1562 1.0469-4.5312 3.1758-0.37891 2.1289 1.043 4.1602 3.1719 4.5352z"/>
 <path d="m505.44 570.16 4.2031 0.74219c2.1289 0.375 4.1602-1.0469 4.5352-3.1758s-1.0469-4.1602-3.1758-4.5352l-4.2031-0.74219c-2.1289-0.375-4.1602 1.0469-4.5352 3.1758s1.0469 4.1602 3.1758 4.5352z"/>
 <path d="m522.26 573.12 4.2031 0.74219c2.1289 0.375 4.1602-1.0469 4.5352-3.1758s-1.0469-4.1562-3.1758-4.5352l-4.2031-0.73828c-2.1289-0.375-4.1602 1.043-4.5352 3.1719-0.375 2.1289 1.0469 4.1602 3.1758 4.5352z"/>
 <path d="m482.44 553.09 4.2031 0.74219c2.1289 0.375 4.1602-1.0469 4.5352-3.1758s-1.0469-4.1602-3.1758-4.5352l-4.2031-0.74219c-2.1289-0.375-4.1602 1.0469-4.5352 3.1758s1.0469 4.1602 3.1758 4.5352z"/>
 <path d="m499.26 556.06 4.2031 0.74219c2.1289 0.375 4.1602-1.0469 4.5352-3.1758s-1.0469-4.1602-3.1758-4.5352l-4.2031-0.73828c-2.1289-0.37891-4.1602 1.043-4.5352 3.1719-0.375 2.1289 1.0469 4.1602 3.1758 4.5352z"/>
 <path d="m516.07 559.02 4.207 0.74219c2.1289 0.375 4.1562-1.0469 4.5312-3.1758 0.37891-2.1289-1.043-4.1562-3.1719-4.5312l-4.207-0.74219c-2.1289-0.375-4.1562 1.0469-4.5312 3.1719-0.37891 2.1289 1.043 4.1602 3.1719 4.5352z"/>
 <path d="m493.07 541.96 4.207 0.74219c2.1289 0.375 4.1562-1.0469 4.5312-3.1758s-1.0469-4.1602-3.1719-4.5352l-4.207-0.73828c-2.1289-0.375-4.1602 1.043-4.5352 3.1719-0.375 2.1289 1.0469 4.1602 3.1758 4.5352z"/>
 <path d="m509.89 544.93 4.2031 0.74219c2.1289 0.375 4.1602-1.0469 4.5352-3.1758 0.375-2.1289-1.0469-4.1562-3.1758-4.5312l-4.2031-0.74219c-2.1289-0.375-4.1602 1.0469-4.5352 3.1758-0.375 2.1289 1.0469 4.1562 3.1758 4.5312z"/>
 <path d="m513.6 523.9 4.2031 0.74219c2.1289 0.375 4.1602-1.0469 4.5352-3.1758s-1.0469-4.1562-3.1758-4.5352l-4.2031-0.73828c-2.1289-0.375-4.1602 1.043-4.5352 3.1719-0.375 2.1289 1.0469 4.1602 3.1758 4.5352z"/>
 <path d="m520.27 486.06 4.207 0.74219c2.1289 0.375 4.1562-1.0469 4.5312-3.1758s-1.043-4.1562-3.1719-4.5352l-4.207-0.73828c-2.1289-0.375-4.1602 1.043-4.5352 3.1719-0.375 2.1289 1.0469 4.1602 3.1758 4.5352z"/>
 <path d="m514.09 471.96 4.2031 0.74219c2.1289 0.375 4.1602-1.0469 4.5352-3.1758s-1.0469-4.1562-3.1758-4.5312l-4.2031-0.74219c-2.1289-0.375-4.1602 1.0469-4.5352 3.1758-0.375 2.125 1.0469 4.1562 3.1758 4.5312z"/>
 <path d="m530.9 474.93 4.207 0.74219c2.1289 0.375 4.1562-1.0469 4.5352-3.1719 0.375-2.1289-1.0469-4.1602-3.1758-4.5352l-4.207-0.74219c-2.1289-0.375-4.1562 1.0469-4.5312 3.1758-0.375 2.1289 1.043 4.1562 3.1719 4.5312z"/>
 <path d="m526.71 547.89 4.2031 0.73828c2.1289 0.375 4.1602-1.043 4.5352-3.1719 0.375-2.1289-1.0469-4.1602-3.1758-4.5352l-4.2031-0.74219c-2.1289-0.375-4.1602 1.0469-4.5352 3.1758s1.0469 4.1562 3.1758 4.5352z"/>
 <path d="m532.89 561.99 4.207 0.74219c2.125 0.375 4.1562-1.0469 4.5312-3.1758 0.375-2.125-1.0469-4.1562-3.1758-4.5312l-4.2031-0.74219c-2.1289-0.375-4.1602 1.0469-4.5352 3.1758-0.375 2.1289 1.0469 4.1562 3.1758 4.5312z"/>
 <path d="m539.08 576.09 4.2031 0.74219c2.1289 0.375 4.1602-1.0469 4.5352-3.1758s-1.0469-4.1562-3.1758-4.5312l-4.2031-0.74219c-2.1289-0.375-4.1602 1.0469-4.5352 3.1758-0.375 2.1289 1.0469 4.1562 3.1758 4.5312z"/>
 <path d="m467.35 392.43 138.76 24.465c2.1289 0.375 4.1562-1.0469 4.5312-3.1758 0.37891-2.1289-1.043-4.1562-3.1719-4.5312l-138.76-24.469c-2.1289-0.375-4.1562 1.0469-4.5312 3.1758-0.37891 2.1289 1.043 4.1562 3.1719 4.5352z"/>
 <path d="m433.25 585.85 138.76 24.465c2.1289 0.375 4.1562-1.0469 4.5312-3.1719 0.37891-2.1289-1.043-4.1602-3.1719-4.5352l-138.76-24.469c-2.1289-0.375-4.1562 1.0469-4.5312 3.1758-0.37891 2.1289 1.043 4.1602 3.1719 4.5352z"/>
 <path d="m592.05 412.61-33.371 189.27c-0.375 2.1289 1.043 4.1562 3.1719 4.5312 2.1289 0.37891 4.1602-1.043 4.5352-3.1719l33.371-189.27c0.37891-2.1289-1.043-4.1602-3.1719-4.5352s-4.1602 1.0469-4.5352 3.1758z"/>
 <path d="m474.32 391.85-33.375 189.26c-0.375 2.1289 1.0469 4.1602 3.1758 4.5352s4.1602-1.0469 4.5352-3.1758l33.371-189.26c0.375-2.1289-1.0469-4.1602-3.1758-4.5352-2.125-0.375-4.1562 1.0469-4.5312 3.1758z"/>
</svg>
