<?xml version="1.0" encoding="UTF-8"?>
<svg width="752pt" height="752pt" version="1.1" viewBox="0 0 752 752" xmlns="http://www.w3.org/2000/svg">
 <g>
  <path d="m534.08 359.13c4.3594 0 7.8945-3.5508 7.8945-7.8945 0-4.3398-3.5508-7.8945-7.8945-7.8945h-191.21c-4.3594 0-7.8945 3.5508-7.8945 7.8945 0 4.3398 3.5508 7.8945 7.8945 7.8945z"/>
  <path d="m315.66 382c0 4.3594 3.5508 7.8945 7.8945 7.8945h176.68c4.3594 0 7.8945-3.5508 7.8945-7.8945 0-4.3398-3.5508-7.8945-7.8945-7.8945h-176.67c-4.3594 0-7.9102 3.5352-7.9102 7.8945z"/>
  <path d="m293.3 412.7c0 4.3594 3.5508 7.8945 7.8945 7.8945h148.7c4.3594 0 7.8945-3.5508 7.8945-7.8945 0-4.3398-3.5508-7.8945-7.8945-7.8945l-148.7 0.003906c-4.3594-0.019531-7.8945 3.5312-7.8945 7.8906z"/>
  <path d="m503.89 435.55h-175.89c-4.3594 0-7.8945 3.5508-7.8945 7.8945 0 4.3398 3.5508 7.8945 7.8945 7.8945h175.89c4.3594 0 7.8945-3.5508 7.8945-7.8945s-3.5312-7.8945-7.8945-7.8945z"/>
  <path d="m484.61 466.3h-102.14c-4.3594 0-7.8945 3.5508-7.8945 7.8945 0 4.3398 3.5508 7.8945 7.8945 7.8945h102.14c4.3594 0 7.8945-3.5508 7.8945-7.8945s-3.5352-7.8945-7.8945-7.8945z"/>
  <path d="m420.08 497.04h-69.93c-4.3594 0-7.8945 3.5508-7.8945 7.8945 0 4.3398 3.5508 7.8945 7.8945 7.8945h69.934c4.3594 0 7.8945-3.5508 7.8945-7.8945-0.003907-4.3398-3.5352-7.8945-7.8984-7.8945z"/>
  <path d="m415.29 527.79h-114.09c-4.3594 0-7.8945 3.5508-7.8945 7.8945 0 4.3398 3.5508 7.8945 7.8945 7.8945h114.09c4.3594 0 7.8945-3.5508 7.8945-7.8945s-3.5352-7.8945-7.8945-7.8945z"/>
  <path d="m374.54 558.53h-70.191c-4.3594 0-7.8945 3.5508-7.8945 7.8945 0 4.3398 3.5508 7.8945 7.8945 7.8945h70.188c4.3594 0 7.8945-3.5508 7.8945-7.8945s-3.5508-7.8945-7.8906-7.8945z"/>
  <path d="m358.26 590.1h-37.609c-4.3594 0-7.8945 3.5508-7.8945 7.8945 0 4.3398 3.5508 7.8945 7.8945 7.8945h37.59c4.3594 0 7.8945-3.5508 7.8945-7.8945 0-4.3398-3.5352-7.8945-7.875-7.8945z"/>
  <path d="m542.43 270.02c-4.7539-38.559-37.02-67.98-76.602-67.98-8.4844 0-16.594 1.7773-24.488 4.4219-13.574-35.816-48.047-60.363-86.902-60.363-35.578 0-67.27 20.047-83.055 51.402-6.8086-2.3672-13.832-4.0039-21.211-4.0039-35.734 0-64.781 29.066-64.781 64.781 0 0.13672 0.019531 0.27734 0.019531 0.41406-26.957 15.449-43.629 43.59-43.629 74.945 0 48.168 38.852 87.395 86.586 87.395h40.648c4.3594 0 7.8945-3.5508 7.8945-7.8945 0-4.3398-3.5508-7.8945-7.8945-7.8945h-40.648c-39.051 0-70.781-32.105-70.781-71.59 0-27.094 15.094-51.402 39.406-63.461 0.019531-0.015625 0.039063-0.054687 0.058594-0.054687 0.82812-0.41406 1.5391-1.0078 2.1719-1.6953 0.058594-0.078125 0.17578-0.11719 0.23828-0.19922 1.1055-1.2812 1.6758-2.9609 1.7773-4.7344 0.015625-0.31641 0.13281-0.61328 0.09375-0.91016 0-0.058594 0.019531-0.097656 0.019531-0.15625-0.11719-1.3438-0.17578-2.7617-0.17578-4.1445 0-27.016 21.961-48.977 48.977-48.977 7.6562 0 14.977 1.6953 21.785 5.0898 0.058594 0.019532 0.11719 0.019532 0.17578 0.039063 0.097656 0.042969 0.15625 0.12109 0.25781 0.16016 0.39453 0.15625 0.80859 0.13672 1.2227 0.21875 0.55078 0.13672 1.1055 0.29688 1.6758 0.31641 0.29688 0 0.57031-0.078125 0.86719-0.11719 0.76953-0.078125 1.5-0.17578 2.2109-0.47266 0.097656-0.039063 0.15625-0.097657 0.25781-0.13672 1.6172-0.71094 3.0781-1.875 3.9258-3.5898 0.097656-0.21875 0.097656-0.45312 0.17578-0.67188 11.922-29.309 40.078-48.254 71.73-48.254 34.551 0 65.215 23.227 74.551 56.453 0.039063 0.15625 0.21875 0.23828 0.27734 0.39453 0.097656 0.29688 0.078125 0.59375 0.19922 0.86719 0.53125 1.1641 1.3828 2.0703 2.3281 2.8203 0.078126 0.058594 0.17578 0.097656 0.25781 0.15625 1.8359 1.3203 4.1055 1.7969 6.375 1.2422 0.097656-0.019532 0.19922-0.019532 0.31641-0.039063 0.039063-0.019531 0.078125-0.039063 0.11719-0.058594 0.375-0.11719 0.75-0.097656 1.125-0.27734 8.1094-3.75 16.832-5.6445 25.871-5.6445 33.328 0 60.461 26.066 61.742 59.355 0.019531 0.49219 0.21875 0.90625 0.31641 1.3633 0.097656 0.41406 0.13672 0.84766 0.29688 1.2422 0.21875 0.55078 0.55078 1.0273 0.90625 1.5195 0.23828 0.33594 0.41406 0.69141 0.71094 0.98828 0.39453 0.41406 0.88672 0.73047 1.3828 1.0469 0.35547 0.23828 0.65234 0.51172 1.0469 0.69141 0.55078 0.25781 1.1641 0.33594 1.7578 0.45312 0.35547 0.078126 0.67188 0.25781 1.0469 0.27734 33.328 1.9727 59.434 29.68 59.434 63.086 0 23.066-14.367 57.363-53.93 57.363h-57.305c-4.3594 0-7.8945 3.5508-7.8945 7.8945 0 4.3398 3.5508 7.8945 7.8945 7.8945h57.305c45.781 0 69.734-36.801 69.734-73.168-0.070313-39.484-29.414-72.281-67.871-77.805z"/>
 </g>
</svg>
