<?xml version="1.0" encoding="UTF-8"?>
<svg width="752pt" height="752pt" version="1.1" viewBox="0 0 752 752" xmlns="http://www.w3.org/2000/svg">
 <g>
  <path d="m583.19 312.66h-97.379c-6.0977 0.078125-11.02 5.0039-11.098 11.098v35.965h-52.539c-2.9297 0-5.7383 1.1719-7.7969 3.2578-2.0586 2.0859-3.1953 4.9102-3.1562 7.8398v17.758l-14.801-4.7344h0.003906c-3.3789-1.043-7.0508-0.44141-9.918 1.6289-2.8516 2.0664-4.5508 5.3594-4.5859 8.8789v45.289c-17.438-29.93-25.238-64.496-22.348-99.012 4.6289-0.88281 9.1445-2.2695 13.469-4.1406 25.012-10.508 42.918-46.027 41.586-82.73 0.17969-16.531-4.8945-32.695-14.5-46.156-9.6016-13.461-23.234-23.52-38.926-28.727-47.465-17.516-100.54-10.188-141.48 19.535-42.324 31.227-64.82 86.426-61.711 150.66 3.8477 80.211 56.977 131.42 93.977 157.76h-57.867c-12.902 0-24.824 6.8828-31.273 18.055-6.4492 11.172-6.4492 24.938 0 36.109 6.4492 11.176 18.371 18.059 31.273 18.059h364.07c9.5742 0 18.762-3.8047 25.531-10.578 6.7734-6.7734 10.578-15.957 10.578-25.535v-219.18c-0.078125-6.0938-5.0039-11.02-11.102-11.098zm-11.098 22.199v171.97h-34.777c-13.512-0.023437-27.008-0.91406-40.402-2.6641v-169.3zm-138.67 47.062h41.289v27.23l-41.289-13.469zm41.289 50.465v67.781h0.003906c-26.047-5.2383-50.336-17.004-70.594-34.188v-56.383zm-98.711 36.406c2.7734 3.1914 5.7383 6.207 8.8828 9.0273-23.219-10.992-43.504-27.32-59.199-47.652-22.73-33.094-33.199-73.082-29.598-113.07 4.4961 5.7578 9.8945 10.758 15.98 14.797 7.8477 4.9648 16.691 8.1484 25.902 9.3242-4.1562 45.828 9.4609 91.5 38.031 127.57zm-195.79-120.76c-2.8125-56.828 16.574-105.22 52.832-133.2 35.352-25.125 81.004-30.691 121.36-14.801 11.352 3.8789 21.164 11.285 28.008 21.137 6.8398 9.8516 10.355 21.633 10.027 33.621 1.0352 26.934-11.543 54.461-27.973 61.418-13.285 6.1055-28.754 5.1055-41.141-2.6641-13.223-9.0195-21.188-23.949-21.312-39.957-0.10547-5.4531-4.207-9.9922-9.6172-10.656-5.4062-0.79297-10.551 2.5742-11.988 7.8438-1.1836 3.9961-28.414 98.418 27.23 173 22.531 29.008 52.949 50.898 87.613 63.047h-48.84c-10.211-4.7344-69.707-34.926-95.605-123.72-1.7148-5.8867-7.8789-9.2656-13.762-7.5469-5.8867 1.7148-9.2656 7.8789-7.5469 13.762 12.301 46.113 38.75 87.211 75.625 117.51h-10.508c-14.801-7.3984-109.66-59.051-114.4-158.8zm377.98 208.82h-364.07c-7.6836 0-13.91-6.2305-13.91-13.914s6.2266-13.91 13.91-13.91h364.07c7.6797 0 13.91 6.2266 13.91 13.91s-6.2305 13.914-13.91 13.914z"/>
  <path d="m549.16 405.6h7.5469c6.1289 0 11.098-4.9727 11.098-11.102s-4.9688-11.098-11.098-11.098h-7.5469c-6.1328 0-11.102 4.9688-11.102 11.098s4.9688 11.102 11.102 11.102z"/>
  <path d="m512.3 405.6h7.5469c6.1289 0 11.102-4.9727 11.102-11.102s-4.9727-11.098-11.102-11.098h-7.5469c-6.1328 0-11.102 4.9688-11.102 11.098s4.9688 11.102 11.102 11.102z"/>
  <path d="m549.16 438.45h7.5469c6.1289 0 11.098-4.9688 11.098-11.098 0-6.1289-4.9688-11.102-11.098-11.102h-7.5469c-6.1328 0-11.102 4.9727-11.102 11.102 0 6.1289 4.9688 11.098 11.102 11.098z"/>
  <path d="m512.3 438.45h7.5469c6.1289 0 11.102-4.9688 11.102-11.098 0-6.1289-4.9727-11.102-11.102-11.102h-7.5469c-6.1328 0-11.102 4.9727-11.102 11.102 0 6.1289 4.9688 11.098 11.102 11.098z"/>
  <path d="m451.62 460.95h6.8086c6.1289 0 11.102-4.9688 11.102-11.098 0-6.1328-4.9727-11.102-11.102-11.102h-6.8086c-6.1289 0-11.098 4.9688-11.098 11.102 0 6.1289 4.9688 11.098 11.098 11.098z"/>
  <path d="m418.48 460.95h6.8086c6.1289 0 11.098-4.9688 11.098-11.098 0-6.1328-4.9688-11.102-11.098-11.102h-6.8086c-6.1328 0-11.102 4.9688-11.102 11.102 0 6.1289 4.9688 11.098 11.102 11.098z"/>
  <path d="m549.16 371.71h7.5469c6.1289 0 11.098-4.9727 11.098-11.102s-4.9688-11.098-11.098-11.098h-7.5469c-6.1328 0-11.102 4.9688-11.102 11.098s4.9688 11.102 11.102 11.102z"/>
  <path d="m512.3 371.71h7.5469c6.1289 0 11.102-4.9727 11.102-11.102s-4.9727-11.098-11.102-11.098h-7.5469c-6.1328 0-11.102 4.9688-11.102 11.098s4.9688 11.102 11.102 11.102z"/>
  <path d="m452.66 256.27c-0.039062 9.3594 3.6445 18.348 10.246 24.984 6.5977 6.6367 15.566 10.375 24.926 10.387 9.3594 0.011719 18.336-3.6992 24.953-10.316 6.6211-6.6172 10.332-15.598 10.316-24.957-0.011719-9.3555-3.75-18.324-10.383-24.926-6.6367-6.5977-15.629-10.285-24.984-10.246-9.293 0.039062-18.191 3.7461-24.762 10.316-6.5664 6.5703-10.273 15.469-10.312 24.758zm48.098 0c-0.17969 5.2227-3.4648 9.8359-8.3398 11.711-4.8789 1.8789-10.406 0.65625-14.039-3.1016-3.6328-3.7578-4.668-9.3203-2.6289-14.133 2.0391-4.8125 6.7578-7.9414 11.984-7.9414 3.543-0.046875 6.9492 1.375 9.4141 3.9219 2.4648 2.5508 3.7695 6 3.6094 9.543z"/>
 </g>
</svg>
