<?xml version="1.0" encoding="UTF-8"?>
<svg width="752pt" height="752pt" version="1.1" viewBox="0 0 752 752" xmlns="http://www.w3.org/2000/svg">
 <g>
  <path d="m505.87 202.57c-8.2305-13.781-19.887-23.031-32.652-25.992-11.008-2.4961-22.016-0.37109-32.098 6.2891l-32.375 21.367c-10.543 6.9375-22.105 6.8438-32.559-0.27734l-34.406-23.309c-19.793-13.41-44.027-8.6016-60.215 12.117l-46.156 58.922c-2.2188 2.7734-1.6641 6.8438 1.1094 9.0664 2.7734 2.2188 6.8438 1.6641 9.0664-1.1094l46.156-59.012c12.117-15.445 28.488-19.055 42.734-9.3438l34.5 23.402c14.707 9.8984 32.188 10.082 46.988 0.27734l32.375-21.367c6.9375-4.625 14.613-6.1055 22.016-4.4414 9.3438 2.1289 18.035 9.25 24.418 19.98l90.461 151.6c10.359 17.297 9.6211 43.379-1.5742 59.477l-26.547 38.016c-2.0352 2.9609-1.2969 6.9375 1.5742 8.9727 1.1094 0.83203 2.4062 1.2031 3.6992 1.2031 2.0352 0 4.0703-0.92578 5.2734-2.7734l26.547-38.016c14.059-20.164 14.984-51.797 2.0352-73.535z"/>
  <path d="m556 402.09c5.918-5.2734 9.25-12.117 9.6211-19.426 0.27734-7.6758-2.8672-15.078-8.8789-20.719l-38.57-36.535-37.09-35.148c-0.73828-0.73828-1.5742-1.4805-2.4062-2.1289l-0.09375-0.09375h-0.09375c-0.83203-0.64844-1.6641-1.2969-2.4961-1.8516-0.09375-0.09375-0.18359-0.18359-0.37109-0.18359-1.6641-1.1094-3.4219-2.1289-5.2734-3.0508-0.09375 0-0.09375-0.09375-0.18359-0.09375-0.09375-0.09375-0.18359-0.09375-0.27734-0.09375h-0.09375c-12.672-6.1055-28.211-6.8438-41.625-1.8516l-27.008 10.082c-9.1562 3.4219-19.609 3.3281-28.676-0.09375l-28.859-11.098c-16.281-6.1953-35.609-3.9766-49.117 5.8281l-2.4062 1.7578-56.793 40.977-43.102 31.172c-8.1367 5.3672-12.574 13.875-12.297 22.941 0.27734 9.1562 5.3633 17.48 13.969 22.938l48.746 30.617c11.469 7.2148 23.773 13.504 36.723 18.777h0.09375 0.09375c1.8516 0.73828 3.793 1.4805 5.7344 2.2188 5.7344 2.1289 11.656 4.1641 17.574 5.8281 4.3477 1.2969 8.8789 2.4961 13.32 3.5156 1.4805 0.37109 2.9609 0.64844 4.4414 1.0156h0.18359 0.09375c0.64844 0.18359 1.2969 0.27734 2.0352 0.46094 1.2969 0.27734 2.5898 0.55469 3.8867 0.73828h0.27734c14.523 2.7734 29.32 4.3477 44.215 4.625 2.4961 3.8867 7.3086 7.6758 16.094 9.7109 7.3086 1.6641 15.262 2.4961 24.973 2.6836 6.4766 0.09375 13.133-0.09375 19.426-0.37109 13.875-0.46094 27.008-0.92578 39.68 1.6641 6.1953 1.2031 26.547 6.4766 31.078 21.828 0.64844 2.3125 1.0156 4.9961 0.92578 7.9531-38.199 31.172-80.195 46.527-122.19 46.527-53.742 0-107.3-25.344-152.06-75.105l-58.273-64.746c-14.801-16.465-15.539-48.93-1.4805-66.781l50.594-64.562c2.2188-2.7734 1.6641-6.8438-1.1094-9.0664-2.7734-2.2188-6.8438-1.6641-9.0664 1.1094l-50.594 64.562c-17.77 22.945-16.754 62.719 2.1172 83.715l58.273 64.746c42.086 46.805 92.312 73.906 145.4 78.621 5.457 0.46094 10.914 0.73828 16.371 0.73828 41.625 0 82.414-13.969 119.41-40.977-1.5742 8.9727-2.4062 17.668 0.64844 26.363 3.3281 9.3438 12.578 17.203 22.66 17.203 1.9414 0 3.9766-0.27734 6.0117-1.0156 7.9531-2.6836 13.969-10.73 15.262-20.535 0.83203-6.7539-0.27734-13.043-1.3867-19.148-0.18359-0.83203-0.27734-1.5742-0.46094-2.4062-2.2188-12.672-3.1445-25.805-2.5898-38.941 0.73828-17.945 4.0703-35.52 9.8984-52.168 0.46094-1.3867 1.0156-2.7734 1.4805-4.1641 2.7734-7.6758 5.6406-15.539 6.0117-24.234 0.18359-4.9883-0.64844-9.8906-2.4062-14.328zm-217.18-110.62 28.859 11.098c6.1055 2.3125 12.578 3.5156 19.148 3.5156 6.3828 0 12.766-1.1094 18.684-3.3281l27.008-10.082c10.266-3.793 22.105-3.2383 31.727 1.4805 1.4805 0.73828 2.9609 1.5742 4.2539 2.4961 0.64844 0.46094 1.2969 0.92578 1.9414 1.3867 0.64844 0.46094 1.2031 1.0156 1.7578 1.5742l33.484 31.727-18.223 33.484-6.0117-33.211v-0.09375c0-0.09375-0.09375-0.27734-0.09375-0.37109s-0.09375-0.18359-0.09375-0.27734-0.09375-0.18359-0.09375-0.27734-0.09375-0.18359-0.09375-0.37109c0-0.09375-0.09375-0.18359-0.09375-0.18359-0.09375-0.09375-0.09375-0.27734-0.18359-0.37109 0 0 0-0.09375-0.09375-0.09375 0 0 0-0.09375-0.09375-0.09375-0.09375-0.09375-0.18359-0.27734-0.27734-0.37109 0-0.09375-0.09375-0.09375-0.09375-0.18359-0.09375-0.09375-0.18359-0.18359-0.27734-0.27734s-0.09375-0.09375-0.18359-0.18359l-0.27734-0.27734c-0.09375-0.09375-0.09375-0.09375-0.18359-0.18359-0.09375-0.09375-0.18359-0.18359-0.27734-0.18359-0.09375-0.09375-0.18359-0.09375-0.18359-0.18359-0.09375-0.09375-0.18359-0.09375-0.27734-0.18359-0.09375-0.09375-0.18359-0.09375-0.18359-0.18359-0.09375-0.09375-0.18359-0.09375-0.37109-0.18359-0.09375 0-0.18359-0.09375-0.18359-0.09375-0.09375-0.09375-0.27734-0.09375-0.37109-0.18359-0.09375 0-0.09375-0.09375-0.18359-0.09375-0.09375-0.09375-0.27734-0.09375-0.37109-0.09375s-0.09375 0-0.18359-0.09375c-0.09375 0-0.27734-0.09375-0.37109-0.09375h-0.18359-0.37109-0.27734-0.27734-0.37109-0.27734c-0.09375 0-0.27734 0-0.37109 0.09375h-0.09375-0.09375c-0.09375 0-0.27734 0.09375-0.37109 0.09375s-0.18359 0.09375-0.27734 0.09375-0.18359 0.09375-0.37109 0.09375c-0.09375 0-0.18359 0.09375-0.27734 0.09375s-0.18359 0.09375-0.27734 0.09375c-0.09375 0.09375-0.27734 0.09375-0.37109 0.18359 0 0-0.09375 0-0.09375 0.09375-5.5508 3.2383-11.562 5.918-17.945 7.9531-24.418 7.7695-44.305 9.1562-54.48 3.6992-2.3125-1.2031-4.3477-3.0508-6.0117-5.2734-2.1289-2.8672-5.457-4.5312-9.0664-4.4414-3.6992 0.18359-7.0312 2.1289-8.8789 5.2734-1.9414 3.2383-4.625 5.918-7.7695 7.6758-5.5508 3.2383-11.934 2.8672-19.426 2.4961-2.6836-0.18359-5.5508-0.27734-8.418-0.27734-10.73 0.09375-21.922-0.37109-31.449-4.9961-6.1055-2.9609-11.656-8.0469-16.559-14.891-0.09375-0.09375-0.18359-0.18359-0.27734-0.37109l-0.18359-0.18359c-0.09375-0.09375-0.18359-0.18359-0.27734-0.27734s-0.09375-0.09375-0.18359-0.18359l-0.46094-0.46094s-0.09375 0-0.09375-0.09375c-0.18359-0.09375-0.27734-0.18359-0.46094-0.27734h-0.09375c-0.18359-0.09375-0.27734-0.18359-0.46094-0.27734-0.09375 0-0.09375 0-0.18359-0.09375-0.18359-0.09375-0.27734-0.09375-0.46094-0.18359-0.09375 0-0.09375 0-0.18359-0.09375-0.18359-0.09375-0.27734-0.09375-0.46094-0.09375h-0.18359c-0.09375 0-0.27734-0.09375-0.37109-0.09375h-0.27734-0.27734-0.37109-0.27734-0.27734-0.27734c-0.09375 0-0.18359 0-0.27734 0.09375-0.09375 0-0.27734 0-0.37109 0.09375-0.09375 0-0.18359 0-0.27734 0.09375-0.09375 0-0.27734 0.09375-0.37109 0.09375s-0.18359 0.09375-0.18359 0.09375c-0.09375 0.09375-0.27734 0.09375-0.37109 0.18359-0.09375 0-0.18359 0.09375-0.18359 0.09375-0.09375 0.09375-0.18359 0.09375-0.37109 0.18359-0.09375 0.09375-0.18359 0.09375-0.27734 0.18359-0.09375 0.09375-0.18359 0.09375-0.27734 0.18359-0.09375 0.09375-0.18359 0.09375-0.27734 0.18359-0.09375 0.09375-0.18359 0.09375-0.27734 0.18359-0.09375 0.09375-0.09375 0.09375-0.18359 0.18359l-0.27734 0.27734c-0.46094 0.46094-0.83203 1.0156-1.0156 1.5742 0 0.09375 0 0.09375-0.09375 0.18359-0.09375 0.18359-0.09375 0.27734-0.18359 0.46094 0 0.09375 0 0.09375-0.09375 0.18359 0 0.09375-0.09375 0.27734-0.09375 0.37109l-14.707 58.086-18.777-49.207 52.723-38.109 2.4062-1.7578c9.9023-7.3008 24.426-8.9648 36.727-4.2461zm-32.371 159.09c-0.92578-0.27734-1.8516-0.55469-2.7734-0.83203-4.3477-1.2969-8.6016-2.7734-12.855-4.3477l11.934-24.605 14.152 32.559c-3.4297-0.83203-7.0352-1.7578-10.457-2.7734zm239.01-34.688c-0.27734 6.6602-2.6836 13.32-5.2734 20.348-0.55469 1.4805-1.0156 2.8672-1.5742 4.3477-6.2891 17.852-9.8047 36.723-10.637 55.867-0.55469 14.059 0.37109 28.117 2.7734 41.715 0.18359 0.83203 0.27734 1.6641 0.46094 2.4961 1.0156 5.3633 1.9414 10.453 1.2969 15.168-0.46094 3.8867-2.7734 8.6953-6.4766 9.8984-4.7188 1.5742-10.543-3.2383-12.395-8.3242-2.4062-6.5664-1.1094-14.523 0.46094-22.754l0.09375-0.27734c0.83203-4.3477 1.7578-8.8789 2.1289-13.598v-0.09375c0.46094-5.7344 0-10.73-1.2969-15.262-4.3477-15.168-19.703-26.73-40.977-30.984-14.246-2.8672-28.676-2.3125-42.734-1.8516-6.1953 0.18359-12.672 0.46094-18.871 0.37109-8.7891-0.09375-15.816-0.92578-22.293-2.3125-3.5156-0.83203-7.8633-2.3125-8.6953-5.2734-1.7578-5.918 7.6758-18.59 18.035-24.234 9.1562-4.9961 19.055-10.082 29.969-14.613l-0.46094 3.8867c-0.46094 3.5156 2.1289 6.7539 5.6406 7.2148 0.27734 0 0.55469 0.09375 0.83203 0.09375 3.2383 0 6.0117-2.4062 6.3828-5.6406l1.8516-14.613 0.73828-5.918 3.6055 4.3477 8.7891 10.637c1.2969 1.5742 3.1445 2.3125 4.9961 2.3125 1.4805 0 2.9609-0.46094 4.1641-1.4805 2.7734-2.3125 3.1445-6.3828 0.83203-9.1562l-8.7891-10.637-8.3242-9.9883c-2.4961-3.0508-6.4766-4.2539-10.266-3.1445-3.793 1.1094-6.4766 4.2539-6.9375 8.1406l-1.2031 9.4336c-14.246 5.3633-26.641 11.746-38.016 17.945-10.543 5.7344-22.848 18.406-24.789 30.801-12.117-0.37109-24.234-1.6641-36.074-3.793l-20.625-47.359c-1.5742-3.5156-4.9023-5.8281-8.7891-5.8281-3.8867-0.09375-7.3086 2.0352-8.9727 5.457l-15.355 31.633c-10.266-4.4414-20.07-9.6211-29.23-15.445l-48.746-30.617c-4.9023-3.0508-7.7695-7.5859-7.9531-12.395-0.18359-4.7188 2.3125-9.1562 6.8438-12.395l36.258-26.176 18.035 47.082c1.8516 4.9023 6.5664 8.0469 11.746 8.0469h0.73828c5.457-0.27734 10.082-4.1641 11.469-9.4336l11.934-47.266c3.9766 3.793 8.3242 6.8438 12.949 9.0664 11.934 5.8281 24.973 6.4766 37.277 6.3828 2.4062 0 4.9023 0.09375 7.5859 0.27734 2.4062 0.09375 4.9023 0.27734 7.3984 0.27734 6.2891 0 12.855-0.83203 19.148-4.5312 4.1641-2.4062 7.8633-5.8281 10.73-9.8047 2.4062 2.6836 5.2734 4.9961 8.418 6.6602 17.203 9.25 44.582 3.6055 64.469-2.7734 4.3477-1.3867 8.5078-3.0508 12.488-4.9023l4.9961 27.934c0.92578 4.9961 4.7188 8.6953 9.6211 9.5273 0.64844 0.09375 1.2969 0.18359 1.9414 0.18359 4.2539 0 8.1406-2.3125 10.176-6.1055l18.312-33.574 32.465 30.801c3.2383 3.0508 4.9961 6.9375 4.8086 10.82-0.09375 3.2383-1.4805 6.3828-3.9766 8.9727-1.8516-1.6641-3.793-2.9609-5.918-3.9766-9.7109-4.5312-20.625-1.4805-27.75 0.46094l-22.938 6.3828c-3.4219 0.92578-5.457 4.5312-4.5312 7.9531 0.92578 3.4219 4.5312 5.457 7.9531 4.5312l22.938-6.3828c7.1211-1.9414 13.875-3.5156 18.871-1.2031 2.0352 0.92578 3.793 2.5898 5.1797 4.8086 2.1445 3.0508 3.2539 7.4883 3.0664 11.836z"/>
 </g>
</svg>
