<?xml version="1.0" encoding="UTF-8"?>
<svg width="752pt" height="752pt" version="1.1" viewBox="0 0 752 752" xmlns="http://www.w3.org/2000/svg">
 <g>
  <path d="m296.57 176.37c-72.391 64.293-60.082 124.95-60.082 124.95s-22.18-32.938-8.5547-79.082c5.8398-19.793 68.637-45.863 68.637-45.863z"/>
  <path d="m589.11 371.84c-171.27-256.29-331.97-120.39-331.97-120.39s72.828-122.95 201.36-75.074c132.97 49.523 130.61 195.47 130.61 195.47z"/>
  <path d="m458.5 567.31c130.61-281.52-151.49-336.52-151.49-336.52s186.22-24.629 266 222.02c9.9922 30.887-114.5 114.5-114.5 114.5z"/>
  <path d="m377.54 583.41c189.61-189.77-20.656-331.97-20.656-331.97s151.38 155.56-60.309 315.86c0 0 68.141 28.941 80.965 16.105z"/>
  <path d="m234.95 527.97c195.65-51.359 142.59-226.66 142.59-226.66s3.375 121.56-175.92 188.07c0 0 23.305 41.219 33.332 38.586z"/>
  <path d="m182.07 452.81c134.12-11.559 174.81-101.62 174.81-101.62 0-0.003906-63.238 68.414-186.86 61.93 0 0 1.7109 40.578 12.043 39.691z"/>
  <path d="m170.02 330.56c68.078 37.191 136.98 41.277 136.98 41.277s-79.301 38.805-141.05 0c-8.7773-5.5156 4.0664-41.277 4.0664-41.277z"/>
  <path d="m201.62 254.3c17.664 70.453 55.523 96.887 55.523 96.887s-48.266-10.152-75.074-60.309c-4.8906-9.1445 19.551-36.578 19.551-36.578z"/>
  <path d="m365.78 301.32c0 32.457-26.312 58.77-58.773 58.77-32.457 0-58.77-26.312-58.77-58.77 0-32.461 26.312-58.773 58.77-58.773 32.461 0 58.773 26.312 58.773 58.773"/>
 </g>
</svg>
