<?xml version="1.0" encoding="UTF-8"?>
<svg width="752pt" height="752pt" version="1.1" viewBox="0 0 752 752" xmlns="http://www.w3.org/2000/svg">
 <g>
  <path d="m579.1 552.72c-41.102-18.121-77.246-44.27-107.37-77.672-1.9219-2.2109-4.1211-2.4727-10.004-3.1641-1.0938-0.125-2.2031-0.25391-3.0781-0.36328l-0.37891-0.44141c-18.406-21.082-34-44.562-46.324-69.773-0.875-3.3945-4.3008-5.5703-7.707-4.6641-45.895 10.84-69.781-3.168-70.293-3.4844-2.9961-1.8789-6.957-0.97656-8.8516 2.0156-0.62109 0.97656-0.84375 2.0547-0.89453 3.1367-0.4375 0.62109-0.78516 1.3125-0.98438 2.0781-18.312 41.547-44.844 78.031-78.852 108.44l-3.6406 3.1914c-20.895 18.121-44.117 33.469-69.02 45.645-3.1914 1.5586-4.5117 5.418-2.957 8.6094 1.1172 2.2812 3.4062 3.6055 5.7891 3.6055 0.94531 0 1.9102-0.21484 2.8164-0.65234 25.891-12.66 50.055-28.637 71.77-47.457l3.8086-3.3359c34.879-31.195 62.133-68.551 81.168-111.03 3.918 1.543 9.4766 3.293 16.621 4.5508-8.5391 19.02-18.957 37.27-31.082 54.238-2.0703 2.8984-1.3984 6.9102 1.4922 8.9805 1.1328 0.80469 2.4375 1.1992 3.7383 1.1992 2.0078 0 3.9844-0.94141 5.2383-2.6836 13.246-18.555 24.59-38.543 33.711-59.402 0.11719-0.26953 0.17578-0.55469 0.25-0.83203 2.1875 0.11719 4.4414 0.20312 6.8242 0.20312 8.9883 0 19.43-1.0078 31.145-3.4297 12.559 24.969 28.211 48.32 47.207 70.09l1.1445 1.293c1.9102 2.1211 4.0742 2.3789 9.8281 3.0547 1.1406 0.13672 2.2812 0.26562 3.207 0.38672 31.391 34.395 68.863 61.262 111.43 79.859 0.77734 0.33594 1.6211 0.49609 2.4531 0.49609 1.0273 0 2.0469-0.23828 2.9727-0.69922 1.7109-0.82813 2.9688-2.4492 3.4336-4.2812 0.85547-3.4258-1.2188-6.8008-4.6094-7.7109z"/>
  <path d="m361.08 465.2c-3.1875-1.5352-7.0391-0.20312-8.5938 2.9727-14.762 30.414-34.207 58.172-57.793 82.527-2.4766 2.5469-2.4102 6.6211 0.13672 9.0977 1.25 1.207 2.8633 1.8086 4.4805 1.8086 1.6758 0 3.3633-0.66016 4.6172-1.9609 24.539-25.316 44.773-54.207 60.129-85.84 1.5586-3.207 0.22656-7.0508-2.9766-8.6055z"/>
  <path d="m325.12 339c-0.33203 2.1133-0.49219 4.125-0.49219 6.1289 0 24.836 20.207 45.043 45.039 45.043 24.828 0 45.027-20.207 45.027-45.043 0-6.2305-1.3086-12.379-3.8438-18.078 8.6055-5.6602 14.031-15.348 14.031-25.887 0-6.2969-1.9336-12.359-5.4805-17.48 14.469-10.523 23.176-27.23 23.176-45.25 0-31.043-25.246-56.301-56.293-56.301-31.039 0-56.289 25.258-56.289 56.301 0 1.8867 0.13672 3.7695 0.33594 5.6445 0.074219 0.72266 0.17188 1.4453 0.27344 2.1641 0.13672 0.95312 0.31641 1.8984 0.51172 2.8398 0.45312 2.3359 1.043 4.6328 1.7852 6.8828-18.957 5.4453-32.398 22.695-32.398 43.047 0 16.938 9.6953 32.371 24.617 39.988zm13.305-71.137c3.75 6.1055 8.5938 11.555 14.48 15.898 1.1523 0.84766 2.4844 1.2578 3.8125 1.2578 1.9766 0 3.9219-0.90625 5.1875-2.6133 2.1133-2.8633 1.5-6.8906-1.3594-8.9961-4.707-3.4727-8.5469-7.8672-11.48-12.785l-1.3867-2.7461c-3.2031-6.3398-4.8203-12.883-4.8203-19.445 0-23.945 19.488-43.426 43.422-43.426 23.949 0 43.426 19.484 43.426 43.426 0 15.945-8.8984 30.578-23.219 38.191l-8.4531 4.4844 7.3516 6.1328c4.2148 3.5234 6.6289 8.5938 6.6289 13.922 0 7.6055-4.8672 14.469-12.113 17.066l-7.625 2.7344 4.3906 6.8047c3.3828 5.2461 5.168 11.246 5.168 17.355 0 17.734-14.434 32.176-32.164 32.176-17.742 0-32.172-14.441-32.172-32.176 0-2.5 0.38672-5.125 1.2305-8.2578l1.5352-5.7109-5.5703-2.0078c-12.754-4.5977-21.324-16.707-21.324-30.141 0-15.18 10.523-27.902 25.055-31.145z"/>
  <path d="m429.41 361.75c-3.8438 3.2305-8.207 6.875-12.773 15.746-1.6289 3.1484-0.38281 7.0391 2.7852 8.6562 0.9375 0.49219 1.9453 0.71094 2.9414 0.71094 2.3203 0 4.5742-1.2695 5.7148-3.4922 3.375-6.543 6.2578-8.9609 9.5938-11.75 3.8516-3.2266 8.207-6.8711 12.77-15.738 4.5664-8.8672 5.0156-14.539 5.3945-19.543 0.33594-4.332 0.625-8.0898 4.0117-14.637 3.3828-6.5352 6.2578-8.9414 9.582-11.73 3.8438-3.2188 8.207-6.8633 12.773-15.715 1.6328-3.1602 0.38281-7.0391-2.7852-8.668-3.1484-1.6289-7.0195-0.38672-8.6562 2.7695-3.3633 6.5391-6.2422 8.9492-9.5859 11.738-3.8438 3.2109-8.2031 6.8516-12.762 15.707-4.5625 8.8672-5.0195 14.535-5.3945 19.539-0.33594 4.3438-0.62891 8.0859-4.0117 14.645-3.375 6.5625-6.2539 8.9727-9.5977 11.762z"/>
  <path d="m246.13 313.95c1.4883 4.7891 3.1758 10.211 9.5977 17.824 6.4219 7.6289 11.488 10.211 15.965 12.488 3.8789 1.9805 7.2188 3.6992 11.977 9.3359 4.75 5.6406 5.8789 9.2188 7.1719 13.383 1.4961 4.7891 3.1875 10.23 9.6133 17.844 1.2734 1.5078 3.0938 2.2812 4.9258 2.2812 1.4688 0 2.9375-0.49219 4.1445-1.5156 2.7188-2.2812 3.0586-6.3477 0.77734-9.0586-4.7539-5.6406-5.8789-9.2188-7.1719-13.383-1.4922-4.7891-3.1914-10.215-9.6133-17.844-6.4258-7.625-11.488-10.211-15.965-12.488-3.8789-1.9805-7.2188-3.6953-11.973-9.3359-4.7461-5.6211-5.8633-9.2109-7.1523-13.355-1.4922-4.7891-3.1836-10.211-9.6055-17.824-2.2891-2.7188-6.3516-3.0703-9.0703-0.77734-2.7188 2.293-3.0586 6.3555-0.77344 9.0703 4.7422 5.6211 5.8633 9.207 7.1523 13.355z"/>
  <path d="m220.78 394.34c3.9492 0.47656 5.5 1.7344 7.8555 3.6289 3.0195 2.457 6.7852 5.4922 14.406 6.4023 7.5781 0.95703 11.996-1.1406 15.516-2.793 2.7383-1.2656 4.5234-2.1445 8.5117-1.6562 3.9609 0.47656 5.5156 1.7344 7.8711 3.6484 3.0312 2.4375 6.8008 5.4609 14.422 6.3828 0.25391 0.039063 0.51172 0.050781 0.77344 0.050781 3.2109 0 5.9844-2.4062 6.3828-5.6641 0.42188-3.5312-2.0898-6.7383-5.625-7.1523-3.9609-0.47656-5.5156-1.7344-7.8711-3.6484-3.0312-2.4375-6.8008-5.4688-14.422-6.3828-7.5586-0.95703-11.992 1.1211-15.516 2.7852-2.75 1.2734-4.5781 2.1367-8.5117 1.6641-3.9453-0.48438-5.418-1.6641-7.8516-3.6328-3.0195-2.4375-6.793-5.4805-14.398-6.3984-3.5195-0.51562-6.7344 2.0938-7.1641 5.6211-0.41797 3.5078 2.0977 6.7109 5.6211 7.1445z"/>
  <path d="m464.01 385.57c-1.7617 2.4609-2.9141 4.0977-6.5977 5.6172-3.6719 1.5195-5.6602 1.1836-8.6602 0.68359-3.8203-0.62891-8.5586-1.457-15.691 1.4727-3.2773 1.3438-4.8555 5.1016-3.4961 8.3906 1.0234 2.4844 3.418 3.9844 5.9453 3.9844 0.81641 0 1.6484-0.14844 2.4531-0.48828 3.6562-1.5117 5.6406-1.2109 8.6445-0.66797 3.8711 0.65234 8.6367 1.4297 15.707-1.4805 7.0977-2.9258 9.918-6.8633 12.176-10.016 1.7578-2.4609 2.9141-4.0898 6.5977-5.6211 3.6523-1.5078 5.6328-1.1641 8.6211-0.66797 3.8516 0.64844 8.6289 1.4727 15.695-1.4727 3.2852-1.3516 4.8477-5.1094 3.4922-8.3867-1.3438-3.2969-5.1523-4.8633-8.3906-3.4961-3.6875 1.5117-5.5273 1.207-8.6289 0.67578-3.8438-0.66797-8.5898-1.4805-15.691 1.457-7.1016 2.9219-9.9141 6.8633-12.176 10.016z"/>
  <path d="m272.47 426.72-5.6016 3.5195c-3.0078 1.8867-3.9102 5.8594-2.0234 8.8555 1.2266 1.9492 3.3164 3.0195 5.457 3.0195 1.168 0 2.3594-0.3125 3.418-0.99609l5.6016-3.5156c3.0078-1.8867 3.9102-5.8594 2.0234-8.8594-1.9102-3.0195-5.875-3.957-8.875-2.0234z"/>
  <path d="m504.57 338.58c0.82813 0 1.6719-0.15625 2.4844-0.50391l7.5117-3.1484c3.2812-1.3672 4.8203-5.1367 3.4531-8.4219-1.3789-3.2734-5.1445-4.832-8.4219-3.4414l-7.5156 3.1484c-3.2812 1.3672-4.8164 5.1367-3.4414 8.4219 1.0273 2.4688 3.4141 3.9453 5.9297 3.9453z"/>
 </g>
</svg>
