<?xml version="1.0" encoding="UTF-8"?>
<svg width="752pt" height="752pt" version="1.1" viewBox="0 0 752 752" xmlns="http://www.w3.org/2000/svg">
 <g>
  <path d="m520.34 503.87c0-29.555-22.52-53.945-51.305-56.914l0.003907-50.824h-47.734c-1.1602-12.664-6.3867-24.145-14.336-33.188l72.707-72.707 9.4844 9.4805 26.23-26.23-47.438-47.438-26.23 26.23 9.4922 9.4922-81.586 81.582c-2.168-0.24609-4.3672-0.39844-6.6055-0.39844h-36.609c-30.477 0-55.555 23.406-58.285 53.172l-47.723 0.003906v50.824c-28.777 2.9688-51.301 27.359-51.301 56.914 0 18.492 8.8555 34.918 22.504 45.383h-20.438v11.84h410.83v-11.84h-84.168c13.645-10.465 22.504-26.887 22.504-45.383zm-52.387-242.1-9.4922-9.4922 9.4922-9.4922 30.691 30.691-9.4922 9.4922-9.4844-9.4805-81.379 81.387c-4.5781-3.4648-9.6719-6.2695-15.156-8.2891zm-141.54 93.023h36.609c23.941 0 43.703 18.105 46.383 41.336h-129.38c2.6797-23.23 22.449-41.336 46.383-41.336zm130.78 53.176v38.676h-224.95v-11.844h137.26v-11.84h-137.26v-14.992zm-230.87 141.28c-25.023 0-45.383-20.359-45.383-45.383 0-25.023 20.359-45.383 45.383-45.383h236.79c25.023 0 45.383 20.359 45.383 45.383 0 25.023-20.359 45.383-45.383 45.383z"/>
  <path d="m463.12 535.84c17.625 0 31.965-14.34 31.965-31.965s-14.34-31.965-31.965-31.965c-15.602 0-28.609 11.242-31.395 26.047l-174-0.003906c-2.7891-14.805-15.793-26.047-31.395-26.047-17.625 0-31.965 14.34-31.965 31.965s14.34 31.965 31.965 31.965c15.602 0 28.609-11.242 31.395-26.047h174c2.7852 14.809 15.801 26.051 31.398 26.051zm0-52.094c11.102 0 20.129 9.0273 20.129 20.129 0 11.102-9.0273 20.129-20.129 20.129-11.102 0-20.129-9.0273-20.129-20.129 0.003906-11.105 9.0273-20.129 20.129-20.129zm-236.79 40.254c-11.098 0-20.129-9.0273-20.129-20.129 0-11.102 9.0312-20.129 20.129-20.129 11.098 0 20.129 9.0273 20.129 20.129-0.003907 11.102-9.0352 20.129-20.129 20.129z"/>
  <path d="m378.75 422.96h60.613v11.84h-60.613z"/>
  <path d="m551.16 215.88c6.4961 0 12.602-2.5273 17.195-7.1211 9.4844-9.4805 9.4844-24.914 0-34.395-4.5938-4.5938-10.703-7.1211-17.199-7.1211s-12.602 2.5273-17.199 7.1211c-9.4805 9.4844-9.4805 24.914 0.003907 34.395 4.5977 4.5938 10.703 7.1211 17.199 7.1211zm-8.832-33.152c2.3594-2.3594 5.4922-3.6562 8.8281-3.6562s6.4688 1.2969 8.8281 3.6562c4.8633 4.8672 4.8633 12.785 0 17.656-4.7188 4.7109-12.934 4.7188-17.656 0-4.8633-4.8672-4.8633-12.785 0-17.656z"/>
  <path d="m529.69 221.42-27.906 27.906-8.3711-8.3711 27.906-27.906z"/>
  <path d="m534.7 226.44 8.3711 8.3711-17.301 17.301-8.3711-8.3711z"/>
  <path d="m507.91 199.65 8.3711 8.3711-17.301 17.301-8.3711-8.3711z"/>
  <path d="m196.59 329.21c0 22.863 21.414 31.672 22.328 32.031l2.1914 0.875 2.1914-0.875c0.91406-0.36328 22.328-9.1719 22.328-32.031l0.003906-21.828 19.887-14.113v-35.918l-88.812 0.003906v35.918l19.887 14.113v21.824zm24.52 19.938c-4.168-2.3555-12.684-8.5547-12.684-19.938v-37.559h25.363v37.559c0.007813 11.383-8.5117 17.59-12.68 19.938zm32.574-79.961v17.965l-8.0469 5.7109v-23.676zm-19.887 0v10.629h-25.363v-10.629zm-45.25 17.965v-17.965h8.0469v23.676z"/>
  <path d="m310.16 290.73c0 27.223 25.531 37.715 26.617 38.152l2.1914 0.875 2.1914-0.875c1.0859-0.4375 26.617-10.93 26.617-38.152v-27.566l24.469-17.367v-42.129h-106.55v42.129l24.469 17.367zm28.816 26.086c-5.0312-2.7148-16.977-10.777-16.977-26.086v-47.574h33.941v47.574c0 15.355-11.891 23.367-16.965 26.086zm41.434-101.3v24.172l-12.629 8.9648v-33.137zm-24.469 0v15.805h-33.941v-15.805zm-58.41 24.18v-24.172h12.629v33.137z"/>
  <path d="m333.05 173.15h11.84v24.566h-11.84z"/>
  <path d="m352 185.43h11.84v12.281h-11.84z"/>
  <path d="m314.11 185.43h11.84v12.281h-11.84z"/>
  <path d="m215.19 209.97h11.84v41.305h-11.84z"/>
  <path d="m234.13 230.62h11.84v20.652h-11.84z"/>
  <path d="m196.25 230.62h11.84v20.652h-11.84z"/>
  <path d="m584.56 367.03c0-14.035-8.1016-26.867-20.516-33.051-2.3828-20.234-19.328-35.586-40.137-35.586-20.719 0-37.848 15.66-40.164 36.098-14.824 4.4688-25.148 18.066-25.148 33.949 0 19.586 15.93 35.52 35.52 35.52 4.2305 0 8.332-0.73438 12.25-2.1914 4.8359 3.8164 10.727 5.8711 16.965 5.8711 5.4648 0 10.82-1.6797 15.395-4.7891 2.9297 0.73438 5.9141 1.1016 8.8984 1.1016 20.367 0.011719 36.938-16.559 36.938-36.922zm-48.344 22.59-2.582 2.2461c-2.0703 1.8008-5.5391 3.9453-10.305 3.9453-4.3711 0-8.4492-1.7891-11.488-5.0352l-3.0469-3.2578-3.9688 2.0273c-3.3672 1.7148-6.9766 2.5859-10.719 2.5859-13.055 0-23.68-10.621-23.68-23.68 0-11.68 8.3711-21.496 19.898-23.348l4.9648-1.207v-5.043c0-15.773 12.836-28.613 28.609-28.613 15.633 0 28.184 12.25 28.57 27.891l0.097656 4.0078 3.7617 1.3906c9.793 3.6367 16.375 13.082 16.375 23.504 0 13.84-11.258 25.094-25.094 25.094-2.7383 0-5.4883-0.46875-8.1836-1.3906z"/>
  <path d="m515.66 416.25h11.84v44.203h-11.84z"/>
  <path d="m534.61 416.25h11.84v28.414h-11.84z"/>
  <path d="m496.72 416.25h11.84v28.414h-11.84z"/>
  <path d="m171.18 569.58h65.117v11.84h-65.117z"/>
  <path d="m247.54 569.58h31.965v11.84h-31.965z"/>
  <path d="m291.94 569.58h210.7v11.84h-210.7z"/>
  <path d="m514.43 569.58h36.801v11.84h-36.801z"/>
  <path d="m560.7 569.58h21.312v11.84h-21.312z"/>
 </g>
</svg>
