<?xml version="1.0" encoding="UTF-8"?>
<svg width="752pt" height="752pt" version="1.1" viewBox="0 0 752 752" xmlns="http://www.w3.org/2000/svg">
 <g>
  <path d="m538.79 368.6h-19.137l16.969-16.969c2.1172-2.1172 2.7539-5.2969 1.6055-8.0664-1.1445-2.7578-3.8477-4.5625-6.8359-4.5625h-51.797v-81.398c0-19.652-8.6133-37.293-22.199-49.496v-9.6992c0-2.9883-1.8047-5.6914-4.5664-6.8359-2.7734-1.1484-5.9492-0.51953-8.0664 1.6055l-3.9805 3.9805c-8.4727-3.9102-17.863-6.1523-27.785-6.1523h-14.801c-8.8789 0-16.77 4.0117-22.199 10.227-5.4297-6.2148-13.316-10.227-22.199-10.227h-14.801c-9.9219 0-19.312 2.2422-27.785 6.1484l-3.9805-3.9805c-2.1172-2.125-5.2969-2.7539-8.0664-1.6055-2.7578 1.1484-4.5625 3.8477-4.5625 6.8398v9.6992c-13.586 12.203-22.199 29.844-22.199 49.496v81.398h-51.797c-2.9883 0-5.6914 1.8047-6.8359 4.5664-1.1484 2.7656-0.51172 5.9492 1.6055 8.0664l16.965 16.965h-19.137c-12.238 0-22.199 9.9609-22.199 22.199v162.79c0 4.0859 3.3164 7.3984 7.3984 7.3984 4.0859 0 7.3984-3.3164 7.3984-7.3984l0.003906-137.53 37 37v100.53c0 4.0859 3.3164 7.3984 7.3984 7.3984 4.0859 0 7.3984-3.3164 7.3984-7.3984v-85.734l2.168 2.168c1.3828 1.3945 3.2734 2.1719 5.2344 2.1719h69.246c-15.133 12.223-24.852 30.891-24.852 51.797v29.598c0 4.0703 3.3281 7.3984 7.3984 7.3984 4.0703 0 7.3984-3.3281 7.3984-7.3984v-29.598c0.074219-28.488 23.309-51.723 51.797-51.797 14.207 0 27.379 5.625 37.293 15.836 2.7383 2.8125 7.6211 2.9609 10.434 0.14844 1.4062-1.332 2.2188-3.1836 2.293-5.1797 0-1.9961-0.73828-3.8477-2.0703-5.2539-1.9453-2.0039-4.0273-3.8242-6.1641-5.5508h69.215c1.9609 0 3.8477-0.77734 5.2305-2.168l2.1719-2.1719v85.734c0 4.0859 3.3164 7.3984 7.3984 7.3984 4.0859 0 7.3984-3.3164 7.3984-7.3984v-100.53l37-37v137.53c0 4.0703 3.3281 7.3984 7.3984 7.3984s7.3984-3.3281 7.3984-7.3984v-162.79c0-12.238-9.957-22.199-22.199-22.199zm-251.59-111c0-9.707 2.7305-18.766 7.3984-26.543l0.003907 19.145c0 4.0859 3.3164 7.3984 7.3984 7.3984 4.0859 0 7.3984-3.3164 7.3984-7.3984v-33.934l24.367 24.367c2.8945 2.8945 7.5703 2.8945 10.465 0s2.8945-7.5703 0-10.465l-21.652-21.652c5.1641-1.7383 10.68-2.7148 16.422-2.7148h14.801c8.1602 0 14.801 6.6367 14.801 14.801 0 4.0859 3.3164 7.3984 7.3984 7.3984 4.0859 0 7.3984-3.3164 7.3984-7.3984 0-8.1602 6.6367-14.801 14.801-14.801h14.801c5.7422 0 11.254 0.97656 16.422 2.7148l-21.652 21.652c-2.8945 2.8945-2.8945 7.5703 0 10.465 2.8945 2.8945 7.5703 2.8945 10.465 0l24.359-24.371v33.938c0 4.0859 3.3164 7.3984 7.3984 7.3984 4.0859 0 7.3984-3.3164 7.3984-7.3984v-19.145c4.668 7.7773 7.3984 16.836 7.3984 26.543v107.93l-9.5664-9.5664c-2.125-2.125-5.3047-2.7617-8.0664-1.6055-2.7578 1.1445-4.5625 3.8438-4.5625 6.8359v41.336l-22.199-22.199v-5.2617c0-16.324 13.273-29.598 29.598-29.598 4.0859 0 7.3984-3.3164 7.3984-7.3984l0.003907-43.477c0-24.062-19.254-43.672-43.164-44.34-0.10938 0-0.19922-0.058594-0.30859-0.058594h-15.727c-8.8789 0-16.77 4.0117-22.199 10.227-5.4297-6.2148-13.316-10.227-22.199-10.227h-14.801c-24.484 0-44.398 19.914-44.398 44.398v43.473c0 4.0859 3.3164 7.3984 7.3984 7.3984 16.324 0 29.598 13.273 29.598 29.598v5.2617l-22.199 22.199 0.003906-41.332c0-2.9883-1.8047-5.6914-4.5664-6.8359-2.7734-1.1562-5.957-0.51953-8.0664 1.6055l-9.5664 9.5664zm88.797 161.87c-16.324 0-29.598-13.273-29.598-29.598v-14.801c0-21.961-16.027-40.246-37-43.785v-36.688c0-16.324 13.273-29.598 29.598-29.598h14.801c8.1602 0 14.801 6.6367 14.801 14.801 0 4.0859 3.3164 7.3984 7.3984 7.3984 4.0859 0 7.3984-3.3164 7.3984-7.3984 0-8.1602 6.6367-14.801 14.801-14.801h14.801c16.324 0 29.598 13.273 29.598 29.598v36.688c-20.973 3.5352-37 21.82-37 43.785v14.801c0.003906 16.32-13.273 29.598-29.598 29.598zm0 37.922c-1.5391 0-3.0469 0.125-4.5664 0.23047l4.5664-4.5664 4.5664 4.5664c-1.5156-0.10547-3.0352-0.23047-4.5664-0.23047zm107.93 0h-82.668l-20.031-20.031c-2.8945-2.8945-7.5703-2.8945-10.465 0l-20.031 20.031h-82.668l-12.633-12.633-0.007812-0.007813-49.621-49.621v-4.3359c0-4.0781 3.3242-7.3984 7.3984-7.3984h37c2.9883 0 5.6914-1.8047 6.8359-4.5664 1.1484-2.7656 0.51172-5.9492-1.6055-8.0664l-16.969-16.969h33.938v29.598c0 2.9883 1.8047 5.6914 4.5664 6.8359 2.7734 1.1406 5.9414 0.51172 8.0664-1.6055l9.5664-9.5625v41.332c0 2.9883 1.8047 5.6914 4.5664 6.8359 0.91406 0.37891 1.8789 0.56641 2.832 0.56641 1.9258 0 3.8164-0.75391 5.2305-2.168l25.59-25.59c4.6172 19.586 22.199 34.23 43.176 34.23s38.559-14.645 43.176-34.23l25.59 25.59c1.4141 1.4102 3.3086 2.168 5.2344 2.168 0.95312 0 1.918-0.18359 2.8359-0.5625 2.7578-1.1484 4.5625-3.8477 4.5625-6.8398v-41.336l9.5664 9.5664c2.1172 2.1172 5.2891 2.7461 8.0664 1.6055 2.7617-1.1445 4.5664-3.8438 4.5664-6.832v-29.598h33.934l-16.969 16.969c-2.1172 2.1172-2.7539 5.2969-1.6055 8.0664 1.1484 2.7539 3.8516 4.5625 6.8398 4.5625h37c4.0781 0 7.3984 3.3242 7.3984 7.3984v4.3359l-49.629 49.629-0.007812 0.007813z"/>
  <path d="m191.01 220.61c0 16.324 13.273 29.598 29.598 29.598s29.598-13.273 29.598-29.598-13.273-29.598-29.598-29.598c-16.32-0.003907-29.598 13.273-29.598 29.598zm44.398 0c0 8.1602-6.6367 14.801-14.801 14.801-8.1602 0-14.801-6.6367-14.801-14.801 0-8.1602 6.6367-14.801 14.801-14.801 8.1641 0 14.801 6.6367 14.801 14.801z"/>
  <path d="m553.59 228.01h-14.801v-14.801c0-4.0859-3.3164-7.3984-7.3984-7.3984-4.0859 0-7.3984 3.3164-7.3984 7.3984v14.801h-14.801c-4.0859 0-7.3984 3.3164-7.3984 7.3984 0 4.0859 3.3164 7.3984 7.3984 7.3984h14.801v14.801c0 4.0859 3.3164 7.3984 7.3984 7.3984 4.0859 0 7.3984-3.3164 7.3984-7.3984v-14.801h14.801c4.0859 0 7.3984-3.3164 7.3984-7.3984s-3.3125-7.3984-7.3984-7.3984z"/>
  <path d="m413 324.2c12.238 0 22.199-9.9609 22.199-22.199 0-12.238-9.9609-22.199-22.199-22.199s-22.199 9.9609-22.199 22.199c0 12.238 9.9609 22.199 22.199 22.199zm0-29.598c4.0781 0 7.3984 3.3242 7.3984 7.3984 0 4.0781-3.3242 7.3984-7.3984 7.3984-4.0781 0-7.3984-3.3242-7.3984-7.3984 0-4.0781 3.3203-7.3984 7.3984-7.3984z"/>
  <path d="m361.2 302c0-12.238-9.9609-22.199-22.199-22.199-12.238 0-22.199 9.9609-22.199 22.199 0 12.238 9.9609 22.199 22.199 22.199 12.238 0 22.199-9.9609 22.199-22.199zm-22.199 7.3984c-4.0781 0-7.3984-3.3242-7.3984-7.3984 0-4.0781 3.3242-7.3984 7.3984-7.3984 4.0781 0 7.3984 3.3242 7.3984 7.3984 0 4.0781-3.3203 7.3984-7.3984 7.3984z"/>
  <path d="m390.8 368.6h-7.3984v-5.1133c1.0859-0.62891 2.1328-1.3555 3.0625-2.2852l4.3359-4.3359c4.2461-4.2461 5.5039-10.574 3.2109-16.125-2.293-5.5508-7.6719-9.1406-13.676-9.1406h-8.6719c-6.0078 0-11.375 3.5898-13.676 9.1367-2.3008 5.5547-1.0352 11.879 3.2148 16.129l4.3359 4.3359c0.93359 0.93359 1.9766 1.6562 3.0625 2.2852v5.1133h-7.3984c-4.0859 0-7.3984 3.3164-7.3984 7.3984 0 4.0859 3.3164 7.3984 7.3984 7.3984h29.598c4.0859 0 7.3984-3.3164 7.3984-7.3984s-3.3125-7.3984-7.3984-7.3984zm-19.137-22.199h8.6719l-4.3359 4.3359-4.4023-4.3359h0.066406z"/>
  <path d="m427.8 537.76v15.836c0 4.0703 3.3281 7.3984 7.3984 7.3984 4.0703 0 7.3984-3.3281 7.3984-7.3984v-15.836c0-4.0703-3.3281-7.3984-7.3984-7.3984-4.0703 0-7.3984 3.3281-7.3984 7.3984z"/>
  <path d="m431.13 501.2c-1.9258 0.51953-3.4766 1.7773-4.4414 3.4766-0.96094 1.7031-1.2578 3.6992-0.73828 5.625 0.88672 3.1836 3.8477 5.4023 7.1758 5.4023 0.66406 0 1.332-0.074219 1.9258-0.22266 3.9219-1.1094 6.2891-5.1797 5.1797-9.1016-1.0352-3.8477-5.1797-6.2148-9.1016-5.1797z"/>
  <path d="m383.4 538.79v-29.598c0-4.0859-3.3164-7.3984-7.3984-7.3984-4.0859 0-7.3984 3.3164-7.3984 7.3984v29.598c0 4.0859 3.3164 7.3984 7.3984 7.3984 4.082 0.003906 7.3984-3.3125 7.3984-7.3984z"/>
 </g>
</svg>
