<?xml version="1.0" encoding="UTF-8"?>
<svg width="752pt" height="752pt" version="1.1" viewBox="0 0 752 752" xmlns="http://www.w3.org/2000/svg">
 <g>
  <path d="m345.09 488.73c-2.2227-2.4531-6.0156-2.6445-8.4727-0.42578l-19.379 17.5-18.176-17.379c-1.1328-1.1719-2.6953-1.832-4.3242-1.8242-1.6289 0.003906-3.1875 0.67188-4.3125 1.8516-1.1289 1.1758-1.7266 2.7617-1.6562 4.3906 0.066407 1.6289 0.79297 3.1602 2.0156 4.2383l22.199 21.273c2.2734 2.1641 5.8281 2.2148 8.1562 0.11328l23.512-21.273h0.003906c2.4453-2.2227 2.6406-6.0039 0.43359-8.4648z"/>
  <path d="m471.04 510.8c-1.0898-1.1602-2.5898-1.8398-4.1797-1.8945-1.5898-0.050781-3.1328 0.53125-4.293 1.6172l-9.0664 8.5-9.0547-8.5c-2.4141-2.2656-6.207-2.1445-8.4727 0.26953-2.2656 2.4141-2.1445 6.207 0.26953 8.4727l13.164 12.348h-0.003906c2.3086 2.1602 5.8984 2.1602 8.2031 0l13.164-12.348c1.1602-1.0859 1.8359-2.5898 1.8867-4.1758 0.050782-1.5898-0.53125-3.1289-1.6172-4.2891z"/>
  <path d="m521.43 452.63c-11.32-10.887-25.102-10.527-32.816-9.1562-8.0859-19.145-25.66-24.539-34.773-24.648-8.8516-0.82422-26.277 3.4609-35.332 24.66-2.9648-0.53125-5.9805-0.75781-8.9922-0.66797-6.2812-12.312-14.801-20.184-25.195-23.375-7.1016-2.0586-14.645-2.0586-21.746 0-1.2109-7.1133-4.3398-17.344-12.367-25.594-8.582-8.832-20.609-13.301-35.73-13.301-15.125 0-27.148 4.4688-35.742 13.301-8.0273 8.25-11.145 18.5-12.359 25.594h0.003906c-7.0977-2.043-14.629-2.0352-21.719 0.03125-10.59 3.2383-19.156 11.266-25.453 23.863-12.543 25.047 1.7305 47.672 13.098 58.273-2.9414 13.688-2.2578 37.434 17.973 50.051l-0.003907-0.003906c6.6328 4.2344 14.336 6.4844 22.199 6.4766 6.4062-0.078125 12.734-1.3945 18.641-3.875v36.332c0 3.3203 2.6914 6.0117 6.0117 6.0117 3.3203 0 6.0117-2.6914 6.0117-6.0117v-54.434c-0.011718-6.2656-2.3984-12.297-6.6797-16.871l-18.496-19.988c-2.2656-2.3438-5.9883-2.4492-8.3828-0.23438-2.3906 2.2148-2.5742 5.9336-0.41406 8.3711l18.5 19.988c2.1992 2.375 3.4219 5.4961 3.4219 8.7344v4.8945c-8.2031 4.3203-21.516 8.5078-34.453 0.43359-19.988-12.469-12.191-39.098-11.848-40.207l-0.003906-0.003906c0.72266-2.3633-0.070313-4.9336-2.0078-6.4727-1.0469-0.83984-25.527-20.766-12.84-46.137 4.7539-9.5 10.859-15.465 18.137-17.73 10.543-3.2852 20.582 2.1367 20.656 2.1719 1.8789 1.0469 4.1758 1.0078 6.0195-0.097656 1.8438-1.1094 2.9531-3.1172 2.9062-5.2695 0-0.15625-0.19531-15.41 9.7969-25.594 6.2422-6.3711 15.355-9.6094 27.074-9.6094s20.832 3.2383 27.074 9.6094c9.9805 10.176 9.7852 25.438 9.7852 25.574v0.003906c-0.050781 2.1484 1.0547 4.1602 2.8906 5.2734 1.8398 1.1133 4.1367 1.1602 6.0156 0.11719 0.10156-0.054688 10.176-5.4648 20.684-2.1836 7.2695 2.2656 13.375 8.2305 18.129 17.73 12.699 25.371-11.793 45.324-12.82 46.129-1.9453 1.5352-2.75 4.1055-2.0234 6.4766 0.34375 1.1211 8.1406 27.75-11.848 40.219-13.449 8.3984-27.203 3.6523-35.582-1.0469l-0.003907-2.9414c0.003907-3.625 1.5312-7.0781 4.207-9.5195l18.5-16.762v0.003906c2.4531-2.2266 2.6367-6.0156 0.41016-8.4688-2.2227-2.4531-6.0156-2.6367-8.4648-0.41016l-18.5 16.762v-0.003907c-5.1875 4.7109-8.1445 11.391-8.1484 18.398v53.094c0 3.3203 2.6914 6.0117 6.0117 6.0117 3.3203 0 6.0117-2.6914 6.0117-6.0117v-36.844c10.48 4.4688 26.203 7.6953 41.855-2.0898 0.80469-0.5 1.5625-1.0273 2.3125-1.5625 1.7656 2.3672 3.7812 4.5352 6.0117 6.4766 8.0391 7.1445 18.457 11.031 29.211 10.895 6.1562-0.054688 12.266-1.0664 18.109-2.9961v26.121c0 3.3203 2.6914 6.0117 6.0117 6.0117s6.0117-2.6914 6.0117-6.0117v-40.414c0.003906-7.1445-3.0508-13.949-8.3984-18.691l-11.711-10.379h0.003906c-1.1836-1.0977-2.7617-1.668-4.3711-1.5898-1.6094 0.082031-3.1211 0.80469-4.1914 2.0156-1.0703 1.207-1.6055 2.793-1.4922 4.4023 0.11719 1.6094 0.875 3.1016 2.1094 4.1445l11.711 10.379h-0.003906c2.7773 2.4648 4.3672 6.0039 4.3672 9.7188v1.5664c-7.168 2.9688-25.148 8.3906-39.414-4.125v-0.003906c-2.0312-1.7539-3.8008-3.793-5.2617-6.0469 9.3594-12.801 9.25-29.359 6.9922-39.922 9.582-8.9453 21.211-26.406 17.148-46.664 2.1562 0.19531 4.2852 0.62109 6.3477 1.2773 1.5352 0.57031 3.2383 0.49219 4.7109-0.22656 1.4727-0.71484 2.5898-2.0039 3.0859-3.5664 7.3438-23.004 24.207-21.738 24.871-21.652h0.65625c0.79688 0 19.508 0.44531 25.52 21.441v-0.003906c0.46094 1.6055 1.5703 2.9492 3.0586 3.7031 1.4922 0.75 3.2305 0.84766 4.7969 0.26562 0.14844-0.054687 15.27-5.5508 26.258 5.0508 16.086 15.551 9.7305 30.348 1.582 40.133-1.7344 2.0977-1.8555 5.0898-0.29688 7.3164 0.64844 0.92578 15.492 22.504-2.4141 38.652-14.262 12.867-32.254 7.2422-39.355 4.2188v-1.4141c0-3.7148 1.5938-7.2539 4.375-9.7188l11.711-10.379h-0.003906c2.4805-2.1953 2.707-5.9844 0.51172-8.4648-2.1992-2.4766-5.9883-2.7031-8.4648-0.50781l-11.719 10.379c-5.3477 4.7422-8.4102 11.547-8.4062 18.691v40.414c-0.066406 1.6289 0.53516 3.2148 1.668 4.3867 1.1289 1.1758 2.6875 1.8398 4.3203 1.8398 1.6289 0 3.1914-0.66406 4.3203-1.8398 1.1289-1.1719 1.7305-2.7578 1.668-4.3867v-26.215c5.8398 1.9844 11.961 3.0273 18.129 3.0898 10.82 0.12891 21.281-3.8711 29.258-11.184 18.5-16.703 13.328-38.582 6.5859-50.652 12.82-17.867 11.004-37.422-5.207-53z"/>
  <path d="m573.95 476.1c-2.4727 0.50391-4.3633 2.5-4.7383 4.9922-1.1211 7.6328-3.8477 19.426-5.4219 22.32-2.3477 4.3281-5.1055 6.7695-6.707 5.957-3.5039-1.7773-6.7148-11.949-1.4141-23.246l0.003907 0.003906c2.6797-5.5703 5.9414-10.844 9.7305-15.727 29.348-38.395 0.26953-89.555-0.98828-91.711h-0.003906c-1.1445-1.9727-3.3164-3.125-5.5938-2.9688-2.2773 0.16016-4.2695 1.5977-5.1367 3.7109-1.1562 2.7734-5.3828 10.535-11.035 12.543-2.5078 0.92578-5.1719 0.52734-8.1562-1.0898-13.43-7.3086-6.4766-43.176-2.9688-55.164v-0.003906c0.63672-2.1758-0.007813-4.5312-1.6719-6.0742-1.6641-1.5469-4.0547-2.0195-6.1797-1.2227-24.605 9.168-30.523 34.5-31.375 52.656-0.98828-3.8281-1.8945-8.6836-3.0078-14.965-1.1484-6.4766-2.4492-13.746-4.4102-22.402-11.801-52.25-48.395-70.668-49.949-71.426-2.1016-1.0312-4.6094-0.74219-6.4219 0.73828-1.8125 1.4805-2.5938 3.8789-2.0039 6.1445 6.9102 26.953 4.2578 55.465-7.5039 80.684-7.0117-55.008-57.984-85.883-60.418-87.336-1.7695-1.0469-3.9531-1.1094-5.7812-0.17188-1.832 0.9375-3.0508 2.75-3.2344 4.7969-3.0234 32.328-17.492 46-27.027 51.566 3.2188-45.879-33.492-93.125-35.148-95.27h-0.003906c-1.6523-2.082-4.4844-2.8281-6.9492-1.832-2.4688 1-3.9805 3.5039-3.7227 6.1523 0.15625 1.6094 3.4414 39.969-34.547 71.047-25.254 20.586-31.82 43.852-32.754 60.184-0.85938-2.2539-1.5586-4.5703-2.0898-6.9258-0.5-2.3008-2.2969-4.0977-4.5977-4.5977-2.3008-0.49609-4.6797 0.39453-6.0859 2.2852-45.324 61.25-28.469 115.25-6.3438 149.77 8.4805 13.219 12.551 21.469 14.504 26.316-18.074-2.7734-33.594-21.273-33.77-21.461h-0.003907c-1.707-2.0469-4.5664-2.7188-7.0078-1.6484-2.4453 1.0703-3.8867 3.6289-3.5352 6.2734 8.7578 61.391 52.805 76.613 54.676 77.234h-0.003906c3.1016 0.91797 6.3672-0.78906 7.3906-3.8555 1.0195-3.0664-0.57422-6.3906-3.6055-7.5117-1.3867-0.47266-30.137-10.691-42.457-49.234 9.4062 6.9844 22.477 13.727 36.711 12.293h0.003906c2.707-0.27734 4.8867-2.3438 5.3086-5.0352 0.54688-3.4883-1.0742-13.309-18.121-39.895-18.906-29.496-33.566-74.691-0.82422-126.39 3.0078 6.8281 7.9102 14.484 15.391 17.25v0.003906c2.125 0.78516 4.5117 0.30859 6.168-1.2383 1.6562-1.543 2.3008-3.8867 1.668-6.0586-0.44531-1.5352-10.426-38.008 26.973-68.594 26.352-21.52 35.082-46.398 37.859-62.977 11.441 18.582 28.203 52.242 21.719 81.84v0.003906c-0.43359 1.9688 0.15234 4.0234 1.5625 5.4648 1.4141 1.4336 3.4492 2.0742 5.4297 1.7031 1.5273-0.30469 35.316-7.3984 43.871-55.848 16.141 12.266 51.688 44.98 47.258 92.711l-0.003906-0.003906c-0.24609 2.6367 1.2695 5.125 3.7305 6.1172 2.457 0.98828 5.2734 0.24609 6.9258-1.8242 1.3711-1.7578 30.781-39.461 22.984-94.254 10.555 8.9531 25.527 26.195 32.125 55.367 1.8516 8.3906 3.1719 15.547 4.3008 21.875 3.293 18.5 5.4766 30.773 19 37.203 2.0078 0.95703 4.3789 0.72266 6.1602-0.60547s2.6836-3.5352 2.3398-5.7305c-0.066406-0.40625-5.1602-34.898 11.664-52.16-3.1641 17.52-4.9844 45.176 12.117 54.48 5.9844 3.2656 12.199 3.9023 17.953 1.8516 4.6953-1.8438 8.8008-4.9336 11.867-8.9375 6.2812 15.27 14.965 45.691-2.7109 68.809-4.3125 5.5703-8.0156 11.586-11.055 17.945-8.0742 17.195-2.9688 34.066 6.8555 39.043 6.3359 3.2109 15.613 2.0156 22.652-10.934 1.1133-2.2734 2-4.6484 2.6445-7.0938 5.5508 20.082 6.4766 54.426-35.148 83.645-1.3281 0.90234-2.2383 2.2969-2.5273 3.875-0.28906 1.5781 0.070313 3.207 0.98828 4.5234 0.92188 1.3125 2.332 2.2031 3.9141 2.4688 1.5859 0.26562 3.207-0.11328 4.5078-1.0547 71.094-49.855 31.984-115.98 31.578-116.65-1.3242-2.1758-3.8828-3.2734-6.3711-2.7266z"/>
  <path d="m450.36 266.41h1.4258 102.67c15.188 0 27.344-5.6992 33.355-15.641 4.8828-8.0859 5.0312-17.758 0.42578-26.539-6.3281-12.023-18.973-15.391-27.332-16.234 1.6367-12.477-2.2656-30.18-25.031-39.57-24.633-10.176-42.195 5.9297-50.328 19.332-7.3984-3.3594-20.609-7.2969-32.523 0-8.832 5.4023-14.051 12.227-15.512 20.293v0.003907c-0.78906 4.8047-0.30859 9.7305 1.3867 14.293-1.9492 0.63672-3.793 1.5742-5.457 2.7734-4.7344 3.4492-7.6406 8.7773-8.6211 15.824-1.2656 9.0547 1.9141 14.668 4.8008 17.785 6.4102 6.9414 16.676 7.6797 20.738 7.6797zm-13.688-23.789c0.50781-3.6992 1.7773-6.2812 3.6992-7.75 1.6523-1.1289 3.6211-1.707 5.6211-1.6562 0.37891-0.003906 0.75391 0.015625 1.1289 0.054687 2.4336 0.42188 4.8789-0.6875 6.1562-2.8008s1.1289-4.793-0.375-6.7539c-0.046875-0.074219-4.9375-6.6055-3.6172-13.652 0.85156-4.5234 4.207-8.5938 9.9609-12.125 10.785-6.5781 25.297 2.832 25.426 2.9141h0.003906c1.4766 0.97656 3.3086 1.2578 5.0117 0.76563 1.6992-0.49219 3.0938-1.7148 3.8008-3.3398 0.52734-1.1836 13.105-28.961 37.777-18.797 23.992 9.8984 17.277 29.922 16.445 32.141v0.003906c-0.75 1.9336-0.44922 4.1133 0.79687 5.7695 1.2422 1.6562 3.2539 2.5547 5.3164 2.3711 0.17578 0 17.785-1.3789 23.762 10.008 2.6172 4.9844 2.5898 10.359-0.066407 14.801-3.7812 6.2539-12.199 9.8516-23.125 9.8516h-103.15c-2.4609 0.14844-9.6094-0.27734-12.875-3.8398-0.60938-0.67578-2.4414-2.6641-1.7031-7.9648z"/>
  <path d="m323.55 230.54h63.738c11.203 0 19.488-2.6836 24.621-7.9844h0.003907c3.5938-3.7383 5.4805-8.7969 5.207-13.977-0.33203-10.176-8.4375-15.344-15.012-17.371-3.3594-14.309-14.801-35.785-40.273-35.785-24.41 0-35.148 15.723-38.441 27.035-8.1875 1.3867-19.191 6.4766-22.199 19.5-1.418 5.5234-0.78516 11.375 1.7852 16.465 1.9766 3.7188 4.9453 6.8203 8.5781 8.9609 3.6289 2.1367 7.7812 3.2305 11.992 3.1562zm-10.645-25.898c2.4062-10.48 14.863-10.609 15.355-10.609h0.074219c3.0078-0.015625 5.543-2.2539 5.9375-5.2383 0.29688-2.1914 3.5625-21.387 27.562-21.387 24.578 0 28.996 28.34 29.184 29.598v0.003907c0.38281 2.6914 2.5352 4.7852 5.2344 5.0977 0.09375 0 8.7031 1.1836 8.8789 6.8164 0.16797 1.9336-0.50391 3.8516-1.8477 5.2539-2.7109 2.7734-8.3984 4.3398-16.012 4.3398l-63.723-0.003906c-4.082 0.089844-7.8828-2.0742-9.8945-5.6328-1.2461-2.5703-1.5117-5.5039-0.75-8.2578z"/>
 </g>
</svg>
