<?xml version="1.0" encoding="UTF-8"?>
<svg width="752pt" height="752pt" version="1.1" viewBox="0 0 752 752" xmlns="http://www.w3.org/2000/svg">
 <g>
  <path d="m536.93 350.26h-28.77v-67.688c7.207-7.1328 12.289-16.129 14.535-26.27 3.082-13.934 0.5625-28.23-7.0977-40.266-5.8164-9.1367-14.137-16.203-24.035-20.418-4.5742-1.9648-9.3398-3.1836-14.152-3.8086-3.9414-7.6484-9.6367-14.234-16.793-19.246-11.688-8.1797-25.867-11.32-39.914-8.8516-8.625 1.5156-16.555 5.0547-23.301 10.25h-37.75c-63.852 0-115.81 51.953-115.81 115.81v56.359h-28.781c-17.555 0-31.836 14.277-31.836 31.836v32.156c0 26.41 21.488 47.898 47.898 47.898h13.09c2.6016 32.305 22.121 59.832 49.699 73.785v26.828c0 16.812 13.676 30.488 30.488 30.488 16.66 0 30.242-13.434 30.484-30.043 8.457-2.8086 15.203-9.2695 18.559-17.461h43.789c46.246 0 84.453-34.727 90.117-79.461h13.512c26.41 0 47.898-21.488 47.898-47.898v-32.156c0.003906-17.562-14.281-31.844-31.832-31.844zm-295.84 46.164-7.625-10.164c-3.1523-4.2109-9.125-5.0664-13.359-1.9102-4.2148 3.1641-5.0703 9.1445-1.9023 13.363l22.887 30.516v10.695l-9.9648 0.003906c-15.883 0-28.812-12.926-28.812-28.809v-32.156c0-7.0273 5.7148-12.75 12.75-12.75h26.027zm115.61 133.71c0 6.2695-5.1289 11.398-11.398 11.398-3.9492 0-7.4492-2.0508-9.5-5.1289v22.23c0 6.2695-5.1289 11.398-11.398 11.398s-11.398-5.1289-11.398-11.398l-0.003906-72.848h43.699zm132.37-79.449c0 39.613-32.227 71.844-71.836 71.844h-41.449v-41.695h84.918v-19.086h-166.71v4.9531h-0.074219v42.996c-18.695-12.984-30.98-34.582-30.98-59.02l-0.003906-160.91c0-53.336 43.391-96.719 96.719-96.719h21.297c0.19922 11.078 1.4141 21.238 3.4336 30.648 0.003907 0.027344 0.007813 0.058594 0.019532 0.082032 0.57812 2.6953 1.2461 5.3047 1.9688 7.8633 0.046875 0.17188 0.10547 0.33594 0.15625 0.50391 4.6641 16.176 12.242 29.598 22.855 39.965 2.3633 2.3125 4.8672 4.4609 7.5 6.4648 17.18 14.703 39.43 23.641 63.762 23.641 2.8086 0 5.6172-0.1875 8.4219-0.42969l0.003906 148.89zm14.988-198.5c-1.9844 8.9609-7.3398 16.609-15.082 21.539-3.5742 2.2773-7.4766 3.8164-11.512 4.6445-6.9102-0.15234-14.254-0.88281-21.559-2.5664-5.8398-2.7344-10.809-7.0391-14.355-12.602-3.7422-5.8789-5.582-12.629-5.3164-19.527 0.14062-3.6758-1.8477-6.9141-4.8359-8.6211-1.293-0.73828-2.75-1.2188-4.3398-1.2773-5.2344-0.15234-9.6992 3.9062-9.9023 9.1719-0.066406 1.7422-0.015625 3.4805 0.089844 5.2031-1.0391-0.41797-2.0742-0.82812-3.0742-1.3516-7.9922-12.363-12.691-27.051-12.691-42.84 0-2.4727 0.19922-4.9531 0.42969-7.4219 5.2656-7.4648 13.105-12.441 22.102-14.023 9.0547-1.5898 18.148 0.4375 25.66 5.6914 2.1992 1.5391 4.1172 3.3672 5.8672 5.3281-4.7734 1.4023-9.4062 3.3945-13.715 6.1406-4.4453 2.832-5.7539 8.7266-2.9219 13.176 0.86328 1.3594 2.0352 2.3867 3.3477 3.1289 2.9688 1.6875 6.7344 1.7578 9.8203-0.20703 9.5977-6.1055 21.547-7.0781 31.977-2.6016 6.3633 2.7148 11.707 7.25 15.449 13.117 4.9219 7.75 6.5469 16.941 4.5625 25.898zm45.621 162.07c0 15.883-12.93 28.809-28.812 28.809h-9.9609v-10.699l22.883-30.512c3.1641-4.2188 2.3125-10.199-1.9023-13.363-4.2305-3.1641-10.199-2.3008-13.359 1.9102l-7.6211 10.16v-31.211h26.023c7.0312 0 12.75 5.7227 12.75 12.75z"/>
  <path d="m428.89 434.21c21.758 0 39.457-17.703 39.457-39.457 0-21.758-17.703-39.457-39.457-39.457-21.758 0-39.457 17.703-39.457 39.457 0 21.758 17.703 39.457 39.457 39.457zm0-55.059c8.6016 0 15.602 6.9961 15.602 15.602 0 8.6016-7 15.602-15.602 15.602-8.6016 0-15.602-7-15.602-15.602 0.003906-8.6016 7.0039-15.602 15.602-15.602z"/>
  <path d="m301.73 427.63c2.793 2.793 6.4609 4.1914 10.121 4.1914s7.3281-1.3984 10.121-4.1953l8.8711-8.8711 8.8711 8.8711c2.793 2.793 6.4609 4.1953 10.121 4.1953 3.6602 0 7.3281-1.3984 10.121-4.1914 5.5938-5.5938 5.5938-14.656 0-20.246l-8.8711-8.8711 8.8711-8.8711c5.5938-5.5898 5.5938-14.652 0-20.246-5.5938-5.5898-14.652-5.5898-20.242 0l-8.8711 8.8711-8.8711-8.8711c-5.5938-5.5938-14.652-5.5898-20.242 0-5.5938 5.5938-5.5938 14.656 0 20.246l8.8711 8.8711-8.8711 8.8711c-5.5898 5.5938-5.5898 14.656 0 20.246z"/>
 </g>
</svg>
