<?xml version="1.0" encoding="UTF-8"?>
<svg width="752pt" height="752pt" version="1.1" viewBox="0 0 752 752" xmlns="http://www.w3.org/2000/svg">
 <g fill-rule="evenodd">
  <path d="m187.81 368.54-24.578 0.48438c-1.8008 0.25781-3.5977-0.78906-4.7695-2.1953-0.60547-0.74219-1.5586-2.2891-1.0312-4.7031 1.3086-5.5586 5.918-10.188 11.469-11.523 3.1523-0.75 6.2188-0.63672 8.625 0.13672l5.957 2.9141 2.8555-5.9844c4.4062-9.2344 13.898-15.199 24.172-15.199 6.8086 0 13.223 2.543 18.09 7.0234-1.9023 1.5703-3.6719 3.3281-5.1953 5.3555l10.523 7.9023c4.1758-5.5703 11.09-8.2578 18.043-7.0625 7.4688 1.2969 13.699 7.7031 14.836 15.449 0.23828 1.7383-0.51172 3.0391-1.1953 3.8359-1.125 1.3164-2.7617 2.0859-4.4844 2.1172l-54.801 1.0781 0.25781 13.156 54.797-1.0781c5.4883-0.10547 10.668-2.5586 14.234-6.7305 3.375-3.9453 4.9219-9.1094 4.1758-14.523-1.9453-13.191-12.465-23.992-25.574-26.27-4.5625-0.78906-9.1094-0.56641-13.395 0.52734-7.5312-8.8008-18.523-13.938-30.312-13.938-13.484 0-26.051 6.8906-33.359 17.949-3.7148-0.53125-7.5664-0.35547-11.32 0.55078-10.418 2.5-18.738 10.855-21.344 21.898-1.1758 5.4609 0.21875 11.102 3.8281 15.484 3.6758 4.4531 9.043 6.9844 14.785 6.9844h0.39062l24.578-0.48828z"/>
  <path d="m607.09 443.75c-2.043-13.82-13.051-25.133-26.781-27.516-4.8672-0.83984-9.7031-0.57812-14.262 0.62109-7.8984-9.3594-19.527-14.828-31.992-14.828-14.242 0-27.516 7.3281-35.164 19.055-3.9805-0.59766-8.0781-0.42578-12.098 0.53906-10.898 2.6211-19.605 11.359-22.324 22.91-1.2148 5.6641 0.23047 11.523 3.9727 16.078 3.8164 4.6289 9.4023 7.2617 15.367 7.2617h0.40234l26.047-0.51953-0.25781-13.156-26.047 0.51953h-0.125c-2.0078 0-3.9531-0.92188-5.2305-2.4727-0.69141-0.83594-1.7734-2.5938-1.1758-5.3281 1.4219-6.0312 6.4258-11.051 12.445-12.496 3.3984-0.81641 6.7461-0.69922 9.3398 0.14844l5.9922 3 2.8789-6.0508c4.7422-9.918 14.938-16.332 25.977-16.332 7.457 0 14.477 2.8672 19.738 7.8672-2.1172 1.6953-4.0781 3.6445-5.7617 5.8867l10.523 7.8984c4.5195-6.0156 11.996-8.9297 19.504-7.6367 8.207 1.4219 14.797 8.1953 16.043 16.707 0.28906 2.0938-0.72656 3.6367-1.3555 4.375-1.2656 1.4805-3.0977 2.3477-5.0469 2.3828l-58.066 1.1484 0.25781 13.156 58.066-1.1523c5.6875-0.10938 11.082-2.6562 14.785-6.9844 3.5117-4.1055 5.1133-9.4648 4.3477-15.082"/>
  <path d="m328.06 543.7 7.1016 11.078 11.078-7.1055-7.1055-11.07z"/>
  <path d="m305.91 557.9 7.1016 11.078 11.078-7.1055-7.1055-11.078z"/>
  <path d="m350.21 529.5 7.1055 11.078 11.074-7.1055-7.1016-11.07z"/>
  <path d="m241.32 440.71 11.082-7.0977-7.0977-11.082-11.078 7.0977z"/>
  <path d="m263.48 426.51 11.074-7.0977-7.1016-11.074-11.078 7.0977z"/>
  <path d="m189.93 458.02 7.0898 11.086 11.082-7.1055-7.0898-11.074z"/>
  <path d="m219.18 454.9 11.074-7.0977-7.1016-11.074-11.078 7.0977z"/>
  <path d="m462.86 517.15 7.1016 11.078 11.078-7.1055-7.1055-11.07z"/>
  <path d="m440.7 531.35 7.1055 11.078 11.074-7.1055-7.1016-11.078z"/>
  <path d="m374.25 573.94 7.1055 11.078 11.074-7.1055-7.1016-11.07z"/>
  <path d="m396.4 559.74 7.1055 11.078 11.074-7.1055-7.1016-11.07z"/>
  <path d="m418.55 545.54 7.1055 11.078 11.074-7.1055-7.1016-11.07z"/>
  <path d="m420.86 337.8-7.1055-11.074-11.074 7.1016 7.1016 11.078z"/>
  <path d="m446.98 305.43 7.1055 11.074 11.078-7.1016-7.1055-11.07z"/>
  <path d="m443.01 323.61-7.0938-11.082-11.082 7.1016 7.0898 11.078z"/>
  <path d="m552.11 219.72c0-19.023-8.2383-36.598-22.715-48.734 5.8672-1.5898 11.965-2.1094 18.168-1.5156 23.246 2.2031 42.695 21.336 45.242 44.52 1.5977 14.598-2.8711 28.594-12.57 39.414-9.5703 10.676-23.277 16.801-37.605 16.801-4.5039 0-8.9453-0.58594-13.227-1.75 14.469-12.137 22.707-29.711 22.707-48.734m-33.191 40.273c-3.3555 2.5273-5.0117 6.6836-4.3281 10.848 0.71094 4.3203 3.7344 7.8711 7.9062 9.2656 6.4727 2.1602 13.246 3.25 20.133 3.25 18.062 0 35.34-7.7148 47.406-21.172 12.055-13.445 17.832-31.531 15.844-49.629-3.2617-29.73-27.27-53.363-57.086-56.184-9.0391-0.85547-17.926 0.15625-26.414 3.0039-4.0977 1.375-7.0781 4.8945-7.7773 9.1758-0.69141 4.1914 0.96875 8.3672 4.3242 10.906 12.727 9.6445 20.027 24.316 20.027 40.262 0 15.949-7.3008 30.633-20.035 40.273"/>
  <path d="m177.49 180.5c2.3828 3.3828 5.3438 6.3359 8.7188 8.7227-3.375 2.3828-6.3359 5.3359-8.7188 8.7148-2.3867-3.3789-5.3398-6.332-8.7148-8.7148 3.375-2.3867 6.3281-5.3398 8.7148-8.7227m-6.5742 38.172h13.152c0-12.617 10.262-22.871 22.871-22.871v-13.156c-12.609 0-22.871-10.262-22.871-22.875h-13.152c0 12.613-10.262 22.875-22.879 22.875v13.156c12.617 0 22.879 10.254 22.879 22.871"/>
  <path d="m474.27 210c2.3867 3.3828 5.3398 6.3359 8.7148 8.7227-3.375 2.3789-6.3281 5.332-8.7148 8.7148-2.3867-3.3828-5.3398-6.3359-8.7148-8.7148 3.375-2.3867 6.3281-5.3398 8.7148-8.7227m-6.5781 38.168h13.156c0-12.613 10.262-22.867 22.875-22.867v-13.156c-12.613 0-22.875-10.262-22.875-22.875h-13.156c0 12.613-10.258 22.875-22.875 22.875v13.156c12.617 0 22.875 10.254 22.875 22.867"/>
  <path d="m272.95 271.73c17.547-9.2812 38.273-10.594 56.867-3.6094l6.7812 2.543-20.457 30.438-6.4961-5.6445c-12.668-10.984-28.066-17.738-44.418-19.648zm81.086 16.879c3.6719 10.484-1.8398 22.02-12.281 25.719-5.8867 2.0898-12.246 1.2695-17.352-1.9336l22.383-33.297c3.2969 2.3672 5.875 5.6445 7.25 9.5117zm-102.42-0.09375c18.133-1.0625 35.684 4.9727 49.41 16.879l7.7227 6.7109-10.211 15.199 10.922 7.3359 7.6406-11.383c5.3672 3.4688 11.57 5.3906 17.926 5.3828 3.7227 0 7.4766-0.625 11.121-1.9141 17.246-6.1094 26.355-25.152 20.297-42.496-2.3477-6.5742-6.7148-12.109-12.324-16.043l17.738-26.41-10.918-7.332-16.805 25.008-9.6953-3.6445c-22.09-8.3164-46.746-6.75-67.648 4.2891l-20.129 10.648c-3.9609 2.0898-5.8789 6.5625-4.6758 10.879 1.2031 4.3086 5.0508 7.1367 9.6289 6.8906z"/>
  <path d="m428.55 458.44-13.352 29.266 3.6172-21.969c0.66406-3.7305-0.34375-7.5273-2.7695-10.426-1.6094-1.9219-3.7539-3.2383-6.125-3.9609l5.625-10.371 6.3477 2.0898c3.0469 0.98047 5.4336 3.1367 6.7305 6.0781 1.3008 2.9609 1.2734 6.3398-0.074219 9.293zm-44.012 11.664c-25.715-11.605-58.914-30.699-62.109-42.105l-0.039063-1.1172-0.30469-0.57031c-0.58984-3.4141-0.58203-6.9023 0-10.531l13.039-72.332 14.445 0.14453c2.8906 0.03125 5.3594 2.2305 5.7383 5.1289l1.0938 8.0234c-1.5312-0.91406-3.0117-1.832-4.3477-2.7617l-7.5039 10.809c20.277 14.066 60.859 26.711 83.598 28.605 0.78906 0.066406 1.6641 0.54687 1.8555 1.4727 0.15234 0.79688-0.19531 1.3477-0.42188 1.6055l-0.63672 0.42578c-0.25781 0.10547-0.53125 0.18359-0.80078 0.19141-16.559-0.82812-65.281-8.6875-80.531-19.535l-7.6289 10.723c5.2305 3.7148 13.062 6.9922 21.949 9.8125l3.5195 26.375 37.398 12.328-10.281 18.949zm-7.1328-55.543-1.6875-12.621c12.27 3.0117 25.074 5.25 35.535 6.6445l-17.309 11.426zm-97.309 104.14-1.0195-1.5391-14.234-21.562 11.707-11.344 18.574 28.137zm-67.848 55.559-9.8477-14.902 22.941-14.391-6.9844-11.145-23.199 14.559-8.0703-12.215 66.973-33.027 14.859 22.516zm228.42-130.41c-2.7969-6.3359-8.1641-11.184-14.707-13.285l-16.09-5.3047 26.383-17.422c0.38672-0.24219 0.78125-0.47266 1.1523-0.75781l98.609-65.117-7.25-10.977-87.191 57.57c-2.3008-4.6211-6.8594-7.8125-12.332-8.2656-15.043-1.2578-39.375-7.8984-58.578-16.324l-2.3086-16.992c-1.2461-9.3203-9.2578-16.43-18.641-16.535l-25.562-0.25781-15.027 83.383c-0.89062 5.4688-0.82422 10.828 0.18359 15.945l0.14453 0.76953c2.0039 9.4648 13.047 19.41 26.156 28.23l-41.996 27.719-14.832-22.461-26.266 25.461-84.617 41.734 41.59 63 71.621-61.43 33.734-14.148-13.98-21.18 47.027-31.039c15.699 9.1055 31.414 16.082 36.887 18.418l5.4336 2.3281 12.992-23.227 2.6484-0.16797-6.168 37.469c-1.0352 5.4219 1.8672 10.512 7.0547 12.395 1.2773 0.46094 2.5742 0.69141 3.8516 0.69141 3.9297 0 7.6328-2.1719 9.8438-6.1836l20.074-43.973c2.9141-6.3594 2.9727-13.672 0.16016-20.066z"/>
  <path d="m223.75 530.29 6.9844 11.141 14.324-8.9844-6.9844-11.141z"/>
 </g>
</svg>
